ISO-10303-21;
HEADER;
/* Generated by software containing ST-Developer
 * from STEP Tools, Inc. (www.steptools.com) 
 */

FILE_DESCRIPTION(
/* description */ (''),
/* implementation_level */ '2;1');

FILE_NAME(
/* name */ 'link3.stp',
/* time_stamp */ '2026-05-05T08:14:55+02:00',
/* author */ ('panze'),
/* organization */ (''),
/* preprocessor_version */ 'ST-DEVELOPER v20.1',
/* originating_system */ 'Autodesk Inventor 2026',
/* authorisation */ '');

FILE_SCHEMA (('AUTOMOTIVE_DESIGN { 1 0 10303 214 3 1 1 }'));
ENDSEC;

DATA;
#10=MECHANICAL_DESIGN_GEOMETRIC_PRESENTATION_REPRESENTATION('',(#13),#406);
#11=SHAPE_REPRESENTATION_RELATIONSHIP('SRR','None',#413,#12);
#12=ADVANCED_BREP_SHAPE_REPRESENTATION('',(#14),#405);
#13=STYLED_ITEM('',(#422),#14);
#14=MANIFOLD_SOLID_BREP('Solid1',#207);
#15=FACE_BOUND('',#42,.T.);
#16=FACE_BOUND('',#45,.T.);
#17=FACE_BOUND('',#47,.T.);
#18=FACE_BOUND('',#49,.T.);
#19=PLANE('',#244);
#20=PLANE('',#248);
#21=PLANE('',#249);
#22=PLANE('',#250);
#23=PLANE('',#251);
#24=B_SPLINE_CURVE_WITH_KNOTS('',3,(#332,#333,#334,#335,#336,#337,#338,
#339,#340,#341),.UNSPECIFIED.,.F.,.F.,(4,2,2,2,4),(0.,0.188478911015149,
0.376957822030298,0.565436091508922,0.753914360987547),.UNSPECIFIED.);
#25=B_SPLINE_CURVE_WITH_KNOTS('',3,(#342,#343,#344,#345,#346,#347,#348,
#349,#350,#351,#352,#353,#354,#355,#356,#357,#358,#359,#360,#361,#362,#363,
#364,#365,#366,#367),.UNSPECIFIED.,.F.,.F.,(4,2,2,2,2,2,2,2,2,2,2,2,4),
(0.753914360987547,0.942392630466171,1.1308708999448,1.31934981095994,1.50782872197509,
1.69630763299024,1.88478654400539,2.07326481348402,2.26174308296264,2.45022135244126,
2.63869962191989,2.82717853293504,3.01565744395019),.UNSPECIFIED.);
#26=FACE_OUTER_BOUND('',#36,.T.);
#27=FACE_OUTER_BOUND('',#37,.T.);
#28=FACE_OUTER_BOUND('',#38,.T.);
#29=FACE_OUTER_BOUND('',#39,.T.);
#30=FACE_OUTER_BOUND('',#40,.T.);
#31=FACE_OUTER_BOUND('',#41,.T.);
#32=FACE_OUTER_BOUND('',#43,.T.);
#33=FACE_OUTER_BOUND('',#44,.T.);
#34=FACE_OUTER_BOUND('',#46,.T.);
#35=FACE_OUTER_BOUND('',#48,.T.);
#36=EDGE_LOOP('',(#136,#137,#138,#139,#140,#141,#142));
#37=EDGE_LOOP('',(#143,#144,#145,#146,#147,#148,#149));
#38=EDGE_LOOP('',(#150,#151,#152,#153,#154,#155,#156));
#39=EDGE_LOOP('',(#157,#158,#159,#160,#161,#162));
#40=EDGE_LOOP('',(#163,#164,#165,#166));
#41=EDGE_LOOP('',(#167,#168,#169,#170));
#42=EDGE_LOOP('',(#171,#172));
#43=EDGE_LOOP('',(#173,#174,#175,#176));
#44=EDGE_LOOP('',(#177,#178,#179,#180));
#45=EDGE_LOOP('',(#181));
#46=EDGE_LOOP('',(#182,#183,#184,#185));
#47=EDGE_LOOP('',(#186));
#48=EDGE_LOOP('',(#187,#188,#189,#190));
#49=EDGE_LOOP('',(#191));
#50=ELLIPSE('',#232,7.07106781186548,5.);
#51=ELLIPSE('',#233,7.07106781186548,5.);
#52=ELLIPSE('',#234,7.07106781186548,5.);
#53=ELLIPSE('',#235,7.07106781186548,5.);
#54=ELLIPSE('',#237,7.07106781186548,5.);
#55=ELLIPSE('',#238,7.07106781186548,5.);
#56=ELLIPSE('',#239,7.07106781186548,5.);
#57=LINE('',#317,#71);
#58=LINE('',#330,#72);
#59=LINE('',#372,#73);
#60=LINE('',#375,#74);
#61=LINE('',#380,#75);
#62=LINE('',#382,#76);
#63=LINE('',#384,#77);
#64=LINE('',#385,#78);
#65=LINE('',#391,#79);
#66=LINE('',#394,#80);
#67=LINE('',#396,#81);
#68=LINE('',#397,#82);
#69=LINE('',#399,#83);
#70=LINE('',#400,#84);
#71=VECTOR('',#258,5.);
#72=VECTOR('',#273,5.);
#73=VECTOR('',#280,5.);
#74=VECTOR('',#283,5.);
#75=VECTOR('',#288,10.);
#76=VECTOR('',#289,10.);
#77=VECTOR('',#290,10.);
#78=VECTOR('',#291,10.);
#79=VECTOR('',#298,10.);
#80=VECTOR('',#301,10.);
#81=VECTOR('',#302,10.);
#82=VECTOR('',#303,10.);
#83=VECTOR('',#306,10.);
#84=VECTOR('',#307,10.);
#85=CIRCLE('',#231,5.);
#86=CIRCLE('',#241,5.);
#87=CIRCLE('',#243,5.);
#88=CIRCLE('',#246,50.);
#89=CIRCLE('',#247,50.);
#90=VERTEX_POINT('',#314);
#91=VERTEX_POINT('',#316);
#92=VERTEX_POINT('',#318);
#93=VERTEX_POINT('',#320);
#94=VERTEX_POINT('',#322);
#95=VERTEX_POINT('',#327);
#96=VERTEX_POINT('',#329);
#97=VERTEX_POINT('',#331);
#98=VERTEX_POINT('',#370);
#99=VERTEX_POINT('',#374);
#100=VERTEX_POINT('',#378);
#101=VERTEX_POINT('',#379);
#102=VERTEX_POINT('',#381);
#103=VERTEX_POINT('',#383);
#104=VERTEX_POINT('',#387);
#105=VERTEX_POINT('',#389);
#106=VERTEX_POINT('',#393);
#107=VERTEX_POINT('',#395);
#108=EDGE_CURVE('',#90,#90,#85,.T.);
#109=EDGE_CURVE('',#90,#91,#57,.T.);
#110=EDGE_CURVE('',#92,#91,#50,.T.);
#111=EDGE_CURVE('',#93,#92,#51,.T.);
#112=EDGE_CURVE('',#94,#93,#52,.T.);
#113=EDGE_CURVE('',#91,#94,#53,.T.);
#114=EDGE_CURVE('',#92,#94,#54,.T.);
#115=EDGE_CURVE('',#95,#92,#55,.T.);
#116=EDGE_CURVE('',#95,#96,#58,.T.);
#117=EDGE_CURVE('',#97,#96,#24,.T.);
#118=EDGE_CURVE('',#96,#97,#25,.T.);
#119=EDGE_CURVE('',#94,#95,#56,.T.);
#120=EDGE_CURVE('',#98,#98,#86,.T.);
#121=EDGE_CURVE('',#98,#91,#59,.T.);
#122=EDGE_CURVE('',#93,#99,#60,.T.);
#123=EDGE_CURVE('',#99,#99,#87,.T.);
#124=EDGE_CURVE('',#100,#101,#61,.T.);
#125=EDGE_CURVE('',#101,#102,#62,.T.);
#126=EDGE_CURVE('',#103,#102,#63,.T.);
#127=EDGE_CURVE('',#100,#103,#64,.T.);
#128=EDGE_CURVE('',#104,#100,#88,.T.);
#129=EDGE_CURVE('',#105,#103,#89,.T.);
#130=EDGE_CURVE('',#104,#105,#65,.T.);
#131=EDGE_CURVE('',#106,#104,#66,.T.);
#132=EDGE_CURVE('',#107,#105,#67,.T.);
#133=EDGE_CURVE('',#106,#107,#68,.T.);
#134=EDGE_CURVE('',#101,#106,#69,.T.);
#135=EDGE_CURVE('',#102,#107,#70,.T.);
#136=ORIENTED_EDGE('',*,*,#108,.F.);
#137=ORIENTED_EDGE('',*,*,#109,.T.);
#138=ORIENTED_EDGE('',*,*,#110,.F.);
#139=ORIENTED_EDGE('',*,*,#111,.F.);
#140=ORIENTED_EDGE('',*,*,#112,.F.);
#141=ORIENTED_EDGE('',*,*,#113,.F.);
#142=ORIENTED_EDGE('',*,*,#109,.F.);
#143=ORIENTED_EDGE('',*,*,#114,.F.);
#144=ORIENTED_EDGE('',*,*,#115,.F.);
#145=ORIENTED_EDGE('',*,*,#116,.T.);
#146=ORIENTED_EDGE('',*,*,#117,.F.);
#147=ORIENTED_EDGE('',*,*,#118,.F.);
#148=ORIENTED_EDGE('',*,*,#116,.F.);
#149=ORIENTED_EDGE('',*,*,#119,.F.);
#150=ORIENTED_EDGE('',*,*,#120,.F.);
#151=ORIENTED_EDGE('',*,*,#121,.T.);
#152=ORIENTED_EDGE('',*,*,#113,.T.);
#153=ORIENTED_EDGE('',*,*,#119,.T.);
#154=ORIENTED_EDGE('',*,*,#115,.T.);
#155=ORIENTED_EDGE('',*,*,#110,.T.);
#156=ORIENTED_EDGE('',*,*,#121,.F.);
#157=ORIENTED_EDGE('',*,*,#114,.T.);
#158=ORIENTED_EDGE('',*,*,#112,.T.);
#159=ORIENTED_EDGE('',*,*,#122,.T.);
#160=ORIENTED_EDGE('',*,*,#123,.T.);
#161=ORIENTED_EDGE('',*,*,#122,.F.);
#162=ORIENTED_EDGE('',*,*,#111,.T.);
#163=ORIENTED_EDGE('',*,*,#124,.T.);
#164=ORIENTED_EDGE('',*,*,#125,.T.);
#165=ORIENTED_EDGE('',*,*,#126,.F.);
#166=ORIENTED_EDGE('',*,*,#127,.F.);
#167=ORIENTED_EDGE('',*,*,#128,.T.);
#168=ORIENTED_EDGE('',*,*,#127,.T.);
#169=ORIENTED_EDGE('',*,*,#129,.F.);
#170=ORIENTED_EDGE('',*,*,#130,.F.);
#171=ORIENTED_EDGE('',*,*,#117,.T.);
#172=ORIENTED_EDGE('',*,*,#118,.T.);
#173=ORIENTED_EDGE('',*,*,#131,.T.);
#174=ORIENTED_EDGE('',*,*,#130,.T.);
#175=ORIENTED_EDGE('',*,*,#132,.F.);
#176=ORIENTED_EDGE('',*,*,#133,.F.);
#177=ORIENTED_EDGE('',*,*,#134,.T.);
#178=ORIENTED_EDGE('',*,*,#133,.T.);
#179=ORIENTED_EDGE('',*,*,#135,.F.);
#180=ORIENTED_EDGE('',*,*,#125,.F.);
#181=ORIENTED_EDGE('',*,*,#108,.T.);
#182=ORIENTED_EDGE('',*,*,#135,.T.);
#183=ORIENTED_EDGE('',*,*,#132,.T.);
#184=ORIENTED_EDGE('',*,*,#129,.T.);
#185=ORIENTED_EDGE('',*,*,#126,.T.);
#186=ORIENTED_EDGE('',*,*,#120,.T.);
#187=ORIENTED_EDGE('',*,*,#134,.F.);
#188=ORIENTED_EDGE('',*,*,#124,.F.);
#189=ORIENTED_EDGE('',*,*,#128,.F.);
#190=ORIENTED_EDGE('',*,*,#131,.F.);
#191=ORIENTED_EDGE('',*,*,#123,.F.);
#192=CYLINDRICAL_SURFACE('',#230,5.);
#193=CYLINDRICAL_SURFACE('',#236,5.);
#194=CYLINDRICAL_SURFACE('',#240,5.);
#195=CYLINDRICAL_SURFACE('',#242,5.);
#196=CYLINDRICAL_SURFACE('',#245,50.);
#197=ADVANCED_FACE('',(#26),#192,.F.);
#198=ADVANCED_FACE('',(#27),#193,.F.);
#199=ADVANCED_FACE('',(#28),#194,.F.);
#200=ADVANCED_FACE('',(#29),#195,.F.);
#201=ADVANCED_FACE('',(#30),#19,.T.);
#202=ADVANCED_FACE('',(#31,#15),#196,.T.);
#203=ADVANCED_FACE('',(#32),#20,.T.);
#204=ADVANCED_FACE('',(#33,#16),#21,.T.);
#205=ADVANCED_FACE('',(#34,#17),#22,.T.);
#206=ADVANCED_FACE('',(#35,#18),#23,.F.);
#207=CLOSED_SHELL('',(#197,#198,#199,#200,#201,#202,#203,#204,#205,#206));
#208=DERIVED_UNIT_ELEMENT(#211,1.);
#209=DERIVED_UNIT_ELEMENT(#408,-3.);
#210=DIMENSIONAL_EXPONENTS(0.,1.,0.,0.,0.,0.,0.);
#211=(
CONVERSION_BASED_UNIT('gram',#213)
MASS_UNIT()
NAMED_UNIT(#210)
);
#212=(
MASS_UNIT()
NAMED_UNIT(*)
SI_UNIT(.KILO.,.GRAM.)
);
#213=MASS_MEASURE_WITH_UNIT(MASS_MEASURE(0.001),#212);
#214=DERIVED_UNIT((#208,#209));
#215=MEASURE_REPRESENTATION_ITEM('density measure',
POSITIVE_RATIO_MEASURE(1.),#214);
#216=PROPERTY_DEFINITION_REPRESENTATION(#221,#218);
#217=PROPERTY_DEFINITION_REPRESENTATION(#222,#219);
#218=REPRESENTATION('material name',(#220),#405);
#219=REPRESENTATION('density',(#215),#405);
#220=DESCRIPTIVE_REPRESENTATION_ITEM('Og\X\F3lny','Og\X\F3lny');
#221=PROPERTY_DEFINITION('material property','material name',#415);
#222=PROPERTY_DEFINITION('material property','density of part',#415);
#223=DATE_TIME_ROLE('creation_date');
#224=APPLIED_DATE_AND_TIME_ASSIGNMENT(#225,#223,(#415));
#225=DATE_AND_TIME(#226,#227);
#226=CALENDAR_DATE(2026,19,3);
#227=LOCAL_TIME(0,0,0.,#228);
#228=COORDINATED_UNIVERSAL_TIME_OFFSET(0,0,.BEHIND.);
#229=AXIS2_PLACEMENT_3D('',#312,#252,#253);
#230=AXIS2_PLACEMENT_3D('',#313,#254,#255);
#231=AXIS2_PLACEMENT_3D('',#315,#256,#257);
#232=AXIS2_PLACEMENT_3D('',#319,#259,#260);
#233=AXIS2_PLACEMENT_3D('',#321,#261,#262);
#234=AXIS2_PLACEMENT_3D('',#323,#263,#264);
#235=AXIS2_PLACEMENT_3D('',#324,#265,#266);
#236=AXIS2_PLACEMENT_3D('',#325,#267,#268);
#237=AXIS2_PLACEMENT_3D('',#326,#269,#270);
#238=AXIS2_PLACEMENT_3D('',#328,#271,#272);
#239=AXIS2_PLACEMENT_3D('',#368,#274,#275);
#240=AXIS2_PLACEMENT_3D('',#369,#276,#277);
#241=AXIS2_PLACEMENT_3D('',#371,#278,#279);
#242=AXIS2_PLACEMENT_3D('',#373,#281,#282);
#243=AXIS2_PLACEMENT_3D('',#376,#284,#285);
#244=AXIS2_PLACEMENT_3D('',#377,#286,#287);
#245=AXIS2_PLACEMENT_3D('',#386,#292,#293);
#246=AXIS2_PLACEMENT_3D('',#388,#294,#295);
#247=AXIS2_PLACEMENT_3D('',#390,#296,#297);
#248=AXIS2_PLACEMENT_3D('',#392,#299,#300);
#249=AXIS2_PLACEMENT_3D('',#398,#304,#305);
#250=AXIS2_PLACEMENT_3D('',#401,#308,#309);
#251=AXIS2_PLACEMENT_3D('',#402,#310,#311);
#252=DIRECTION('axis',(0.,0.,1.));
#253=DIRECTION('refdir',(1.,0.,0.));
#254=DIRECTION('center_axis',(1.,0.,0.));
#255=DIRECTION('ref_axis',(0.,0.,-1.));
#256=DIRECTION('center_axis',(-1.,0.,0.));
#257=DIRECTION('ref_axis',(0.,0.,-1.));
#258=DIRECTION('',(-1.,0.,0.));
#259=DIRECTION('center_axis',(0.707106781186548,0.,-0.707106781186548));
#260=DIRECTION('ref_axis',(-0.707106781186547,0.,-0.707106781186547));
#261=DIRECTION('center_axis',(0.707106781186548,0.,0.707106781186548));
#262=DIRECTION('ref_axis',(0.707106781186547,0.,-0.707106781186547));
#263=DIRECTION('center_axis',(0.707106781186548,0.,0.707106781186548));
#264=DIRECTION('ref_axis',(0.707106781186547,0.,-0.707106781186547));
#265=DIRECTION('center_axis',(0.707106781186548,0.,-0.707106781186548));
#266=DIRECTION('ref_axis',(-0.707106781186547,0.,-0.707106781186547));
#267=DIRECTION('center_axis',(1.,0.,0.));
#268=DIRECTION('ref_axis',(0.,0.,-1.));
#269=DIRECTION('center_axis',(-0.707106781186548,0.,0.707106781186548));
#270=DIRECTION('ref_axis',(-0.707106781186547,0.,-0.707106781186547));
#271=DIRECTION('center_axis',(-0.707106781186548,0.,-0.707106781186548));
#272=DIRECTION('ref_axis',(0.707106781186547,0.,-0.707106781186547));
#273=DIRECTION('',(-1.,0.,0.));
#274=DIRECTION('center_axis',(-0.707106781186548,0.,-0.707106781186548));
#275=DIRECTION('ref_axis',(0.707106781186547,0.,-0.707106781186547));
#276=DIRECTION('center_axis',(0.,0.,1.));
#277=DIRECTION('ref_axis',(-1.,0.,0.));
#278=DIRECTION('center_axis',(0.,0.,-1.));
#279=DIRECTION('ref_axis',(-1.,0.,0.));
#280=DIRECTION('',(0.,0.,-1.));
#281=DIRECTION('center_axis',(0.,0.,1.));
#282=DIRECTION('ref_axis',(-1.,0.,0.));
#283=DIRECTION('',(0.,0.,-1.));
#284=DIRECTION('center_axis',(0.,0.,-1.));
#285=DIRECTION('ref_axis',(-1.,0.,0.));
#286=DIRECTION('center_axis',(1.13040889780016E-16,-1.,0.));
#287=DIRECTION('ref_axis',(1.,1.13040889780016E-16,0.));
#288=DIRECTION('',(1.,1.13040889780016E-16,0.));
#289=DIRECTION('',(0.,0.,1.));
#290=DIRECTION('',(1.,1.13040889780016E-16,0.));
#291=DIRECTION('',(0.,0.,1.));
#292=DIRECTION('center_axis',(0.,0.,1.));
#293=DIRECTION('ref_axis',(0.,1.,0.));
#294=DIRECTION('center_axis',(0.,0.,1.));
#295=DIRECTION('ref_axis',(0.,1.,0.));
#296=DIRECTION('center_axis',(0.,0.,1.));
#297=DIRECTION('ref_axis',(0.,1.,0.));
#298=DIRECTION('',(0.,0.,1.));
#299=DIRECTION('center_axis',(8.07434927000114E-18,1.,0.));
#300=DIRECTION('ref_axis',(-1.,8.07434927000114E-18,0.));
#301=DIRECTION('',(-1.,8.07434927000114E-18,0.));
#302=DIRECTION('',(-1.,8.07434927000114E-18,0.));
#303=DIRECTION('',(0.,0.,1.));
#304=DIRECTION('center_axis',(1.,0.,0.));
#305=DIRECTION('ref_axis',(0.,1.,0.));
#306=DIRECTION('',(0.,1.,0.));
#307=DIRECTION('',(0.,1.,0.));
#308=DIRECTION('center_axis',(0.,0.,1.));
#309=DIRECTION('ref_axis',(1.,0.,0.));
#310=DIRECTION('center_axis',(0.,0.,1.));
#311=DIRECTION('ref_axis',(1.,0.,0.));
#312=CARTESIAN_POINT('',(0.,0.,0.));
#313=CARTESIAN_POINT('Origin',(-58.6630226256469,1.33226762955019E-13,50.));
#314=CARTESIAN_POINT('',(1100.,1.32614439555445E-13,55.));
#315=CARTESIAN_POINT('Origin',(1100.,1.33226762955019E-13,50.));
#316=CARTESIAN_POINT('',(5.,1.32614439555445E-13,55.));
#317=CARTESIAN_POINT('',(-58.6630226256469,1.32614439555445E-13,55.));
#318=CARTESIAN_POINT('',(0.,5.00000000000013,50.));
#319=CARTESIAN_POINT('Origin',(0.,1.33226762955019E-13,50.));
#320=CARTESIAN_POINT('',(5.,6.12323399573661E-16,45.));
#321=CARTESIAN_POINT('Origin',(0.,1.33226762955019E-13,50.));
#322=CARTESIAN_POINT('',(0.,-4.99999999999987,50.));
#323=CARTESIAN_POINT('Origin',(0.,1.33226762955019E-13,50.));
#324=CARTESIAN_POINT('Origin',(0.,1.33226762955019E-13,50.));
#325=CARTESIAN_POINT('Origin',(-58.6630226256469,1.33226762955019E-13,50.));
#326=CARTESIAN_POINT('Origin',(0.,1.33226762955019E-13,50.));
#327=CARTESIAN_POINT('',(-5.,1.32614439555445E-13,55.));
#328=CARTESIAN_POINT('Origin',(0.,1.33226762955019E-13,50.));
#329=CARTESIAN_POINT('',(-50.,1.32614439555445E-13,55.));
#330=CARTESIAN_POINT('',(-58.6630226256469,1.32614439555445E-13,55.));
#331=CARTESIAN_POINT('',(-49.749371855331,5.00000000000013,50.));
#332=CARTESIAN_POINT('Ctrl Pts',(-49.749371855331,5.00000000000013,50.));
#333=CARTESIAN_POINT('Ctrl Pts',(-49.749371855331,5.00000000000013,50.6282630367172));
#334=CARTESIAN_POINT('Ctrl Pts',(-49.7624993987097,4.87435544587068,51.2981142911911));
#335=CARTESIAN_POINT('Ctrl Pts',(-49.8098541153698,4.36395693611605,52.5298857522827));
#336=CARTESIAN_POINT('Ctrl Pts',(-49.8433908660961,3.97922590724046,53.0918419046252));
#337=CARTESIAN_POINT('Ctrl Pts',(-49.9062957431473,3.0918434148453,53.9792243970203));
#338=CARTESIAN_POINT('Ctrl Pts',(-49.9397591808605,2.52988660036732,54.3639566043207));
#339=CARTESIAN_POINT('Ctrl Pts',(-49.9869460568296,1.2981129215496,54.8743559937789));
#340=CARTESIAN_POINT('Ctrl Pts',(-50.,0.628260898262215,55.));
#341=CARTESIAN_POINT('Ctrl Pts',(-50.,1.33781874467331E-13,55.));
#342=CARTESIAN_POINT('Ctrl Pts',(-50.,1.33643096589253E-13,55.));
#343=CARTESIAN_POINT('Ctrl Pts',(-50.,-0.628260898261947,55.));
#344=CARTESIAN_POINT('Ctrl Pts',(-49.9869460568296,-1.29811292154932,54.8743559937789));
#345=CARTESIAN_POINT('Ctrl Pts',(-49.9397591808605,-2.52988660036705,54.3639566043207));
#346=CARTESIAN_POINT('Ctrl Pts',(-49.9062957431473,-3.09184341484503,53.9792243970203));
#347=CARTESIAN_POINT('Ctrl Pts',(-49.8433908660961,-3.97922590724019,53.0918419046252));
#348=CARTESIAN_POINT('Ctrl Pts',(-49.8098541153698,-4.36395693611578,52.5298857522827));
#349=CARTESIAN_POINT('Ctrl Pts',(-49.7624993987098,-4.87435544587041,51.2981142911911));
#350=CARTESIAN_POINT('Ctrl Pts',(-49.749371855331,-4.99999999999987,50.6282630367172));
#351=CARTESIAN_POINT('Ctrl Pts',(-49.749371855331,-4.99999999999987,49.3717369632828));
#352=CARTESIAN_POINT('Ctrl Pts',(-49.7624993987098,-4.87435544587041,48.7018857088089));
#353=CARTESIAN_POINT('Ctrl Pts',(-49.8098541153698,-4.36395693611577,47.4701142477173));
#354=CARTESIAN_POINT('Ctrl Pts',(-49.8433908660961,-3.97922590724019,46.9081580953748));
#355=CARTESIAN_POINT('Ctrl Pts',(-49.9062957431473,-3.09184341484503,46.0207756029797));
#356=CARTESIAN_POINT('Ctrl Pts',(-49.9397591808605,-2.52988660036705,45.6360433956793));
#357=CARTESIAN_POINT('Ctrl Pts',(-49.9869460568296,-1.29811292154933,45.1256440062211));
#358=CARTESIAN_POINT('Ctrl Pts',(-50.,-0.628260898261949,45.));
#359=CARTESIAN_POINT('Ctrl Pts',(-50.,0.628260898262214,45.));
#360=CARTESIAN_POINT('Ctrl Pts',(-49.9869460568296,1.2981129215496,45.1256440062211));
#361=CARTESIAN_POINT('Ctrl Pts',(-49.9397591808605,2.52988660036732,45.6360433956793));
#362=CARTESIAN_POINT('Ctrl Pts',(-49.9062957431473,3.0918434148453,46.0207756029797));
#363=CARTESIAN_POINT('Ctrl Pts',(-49.8433908660961,3.97922590724046,46.9081580953748));
#364=CARTESIAN_POINT('Ctrl Pts',(-49.8098541153698,4.36395693611604,47.4701142477173));
#365=CARTESIAN_POINT('Ctrl Pts',(-49.7624993987097,4.87435544587068,48.7018857088089));
#366=CARTESIAN_POINT('Ctrl Pts',(-49.749371855331,5.00000000000013,49.3717369632828));
#367=CARTESIAN_POINT('Ctrl Pts',(-49.749371855331,5.00000000000013,50.));
#368=CARTESIAN_POINT('Origin',(0.,1.33226762955019E-13,50.));
#369=CARTESIAN_POINT('Origin',(0.,0.,0.));
#370=CARTESIAN_POINT('',(5.,0.,100.));
#371=CARTESIAN_POINT('Origin',(0.,0.,100.));
#372=CARTESIAN_POINT('',(5.,6.12323399573677E-16,0.));
#373=CARTESIAN_POINT('Origin',(0.,0.,0.));
#374=CARTESIAN_POINT('',(5.,6.12323399573677E-16,0.));
#375=CARTESIAN_POINT('',(5.,6.12323399573677E-16,0.));
#376=CARTESIAN_POINT('Origin',(0.,0.,0.));
#377=CARTESIAN_POINT('Origin',(6.12323399573677E-15,-50.,0.));
#378=CARTESIAN_POINT('',(6.12323399573677E-15,-50.,0.));
#379=CARTESIAN_POINT('',(1100.,-49.9999999999999,0.));
#380=CARTESIAN_POINT('',(0.,-50.,0.));
#381=CARTESIAN_POINT('',(1100.,-49.9999999999999,100.));
#382=CARTESIAN_POINT('',(1100.,-49.9999999999999,0.));
#383=CARTESIAN_POINT('',(0.,-50.,100.));
#384=CARTESIAN_POINT('',(0.,-50.,100.));
#385=CARTESIAN_POINT('',(6.12323399573677E-15,-50.,0.));
#386=CARTESIAN_POINT('Origin',(0.,0.,0.));
#387=CARTESIAN_POINT('',(0.,50.,0.));
#388=CARTESIAN_POINT('Origin',(0.,0.,0.));
#389=CARTESIAN_POINT('',(0.,50.,100.));
#390=CARTESIAN_POINT('Origin',(0.,0.,100.));
#391=CARTESIAN_POINT('',(0.,50.,0.));
#392=CARTESIAN_POINT('Origin',(1100.,50.,0.));
#393=CARTESIAN_POINT('',(1100.,50.,0.));
#394=CARTESIAN_POINT('',(1100.,50.,0.));
#395=CARTESIAN_POINT('',(1100.,50.,100.));
#396=CARTESIAN_POINT('',(1100.,50.,100.));
#397=CARTESIAN_POINT('',(1100.,50.,0.));
#398=CARTESIAN_POINT('Origin',(1100.,-49.9999999999999,0.));
#399=CARTESIAN_POINT('',(1100.,-49.9999999999999,0.));
#400=CARTESIAN_POINT('',(1100.,-49.9999999999999,100.));
#401=CARTESIAN_POINT('Origin',(525.,0.,100.));
#402=CARTESIAN_POINT('Origin',(525.,0.,0.));
#403=UNCERTAINTY_MEASURE_WITH_UNIT(LENGTH_MEASURE(0.01),#407,
'DISTANCE_ACCURACY_VALUE',
'Maximum model space distance between geometric entities at asserted c
onnectivities');
#404=UNCERTAINTY_MEASURE_WITH_UNIT(LENGTH_MEASURE(0.01),#407,
'DISTANCE_ACCURACY_VALUE',
'Maximum model space distance between geometric entities at asserted c
onnectivities');
#405=(
GEOMETRIC_REPRESENTATION_CONTEXT(3)
GLOBAL_UNCERTAINTY_ASSIGNED_CONTEXT((#403))
GLOBAL_UNIT_ASSIGNED_CONTEXT((#407,#409,#410))
REPRESENTATION_CONTEXT('','3D')
);
#406=(
GEOMETRIC_REPRESENTATION_CONTEXT(3)
GLOBAL_UNCERTAINTY_ASSIGNED_CONTEXT((#404))
GLOBAL_UNIT_ASSIGNED_CONTEXT((#407,#409,#410))
REPRESENTATION_CONTEXT('','3D')
);
#407=(
LENGTH_UNIT()
NAMED_UNIT(*)
SI_UNIT(.MILLI.,.METRE.)
);
#408=(
LENGTH_UNIT()
NAMED_UNIT(*)
SI_UNIT(.CENTI.,.METRE.)
);
#409=(
NAMED_UNIT(*)
PLANE_ANGLE_UNIT()
SI_UNIT($,.RADIAN.)
);
#410=(
NAMED_UNIT(*)
SI_UNIT($,.STERADIAN.)
SOLID_ANGLE_UNIT()
);
#411=SHAPE_DEFINITION_REPRESENTATION(#412,#413);
#412=PRODUCT_DEFINITION_SHAPE('',$,#415);
#413=SHAPE_REPRESENTATION('',(#229),#405);
#414=PRODUCT_DEFINITION_CONTEXT('part definition',#419,'design');
#415=PRODUCT_DEFINITION('link3','link3',#416,#414);
#416=PRODUCT_DEFINITION_FORMATION('',$,#421);
#417=PRODUCT_RELATED_PRODUCT_CATEGORY('link3','link3',(#421));
#418=APPLICATION_PROTOCOL_DEFINITION('international standard',
'automotive_design',2009,#419);
#419=APPLICATION_CONTEXT(
'Core Data for Automotive Mechanical Design Process');
#420=PRODUCT_CONTEXT('part definition',#419,'mechanical');
#421=PRODUCT('link3','link3',$,(#420));
#422=PRESENTATION_STYLE_ASSIGNMENT((#423));
#423=SURFACE_STYLE_USAGE(.BOTH.,#426);
#424=SURFACE_STYLE_RENDERING_WITH_PROPERTIES($,#430,(#425));
#425=SURFACE_STYLE_TRANSPARENT(0.);
#426=SURFACE_SIDE_STYLE('',(#427,#424));
#427=SURFACE_STYLE_FILL_AREA(#428);
#428=FILL_AREA_STYLE('',(#429));
#429=FILL_AREA_STYLE_COLOUR('',#430);
#430=COLOUR_RGB('',0.749019607843137,0.749019607843137,0.749019607843137);
ENDSEC;
END-ISO-10303-21;
