ISO-10303-21;
HEADER;
/* Generated by software containing ST-Developer
 * from STEP Tools, Inc. (www.steptools.com) 
 */

FILE_DESCRIPTION(
/* description */ (''),
/* implementation_level */ '2;1');

FILE_NAME(
/* name */ 'link1.stp',
/* time_stamp */ '2026-05-05T08:14:35+02:00',
/* author */ ('panze'),
/* organization */ (''),
/* preprocessor_version */ 'ST-DEVELOPER v20.1',
/* originating_system */ 'Autodesk Inventor 2026',
/* authorisation */ '');

FILE_SCHEMA (('AUTOMOTIVE_DESIGN { 1 0 10303 214 3 1 1 }'));
ENDSEC;

DATA;
#10=MECHANICAL_DESIGN_GEOMETRIC_PRESENTATION_REPRESENTATION('',(#13),#253);
#11=SHAPE_REPRESENTATION_RELATIONSHIP('SRR','None',#260,#12);
#12=ADVANCED_BREP_SHAPE_REPRESENTATION('',(#14),#252);
#13=STYLED_ITEM('',(#269),#14);
#14=MANIFOLD_SOLID_BREP('Solid1',#118);
#15=FACE_BOUND('',#28,.T.);
#16=PLANE('',#143);
#17=PLANE('',#144);
#18=PLANE('',#146);
#19=PLANE('',#151);
#20=FACE_OUTER_BOUND('',#26,.T.);
#21=FACE_OUTER_BOUND('',#27,.T.);
#22=FACE_OUTER_BOUND('',#29,.T.);
#23=FACE_OUTER_BOUND('',#30,.T.);
#24=FACE_OUTER_BOUND('',#31,.T.);
#25=FACE_OUTER_BOUND('',#32,.T.);
#26=EDGE_LOOP('',(#80,#81,#82,#83,#84,#85));
#27=EDGE_LOOP('',(#86,#87,#88,#89));
#28=EDGE_LOOP('',(#90));
#29=EDGE_LOOP('',(#91,#92));
#30=EDGE_LOOP('',(#93,#94,#95));
#31=EDGE_LOOP('',(#96,#97,#98,#99,#100,#101,#102,#103,#104,#105,#106,#107,
#108));
#32=EDGE_LOOP('',(#109));
#33=B_SPLINE_CURVE_WITH_KNOTS('',3,(#190,#191,#192,#193,#194,#195,#196,
#197,#198,#199),.UNSPECIFIED.,.F.,.F.,(4,2,2,2,4),(0.,0.1883770568687,0.376754113737399,
0.565131130812415,0.753508147887431),.UNSPECIFIED.);
#34=B_SPLINE_CURVE_WITH_KNOTS('',3,(#201,#202,#203,#204,#205,#206,#207,
#208,#209,#210),.UNSPECIFIED.,.F.,.F.,(4,2,2,2,4),(2.26052444366229,2.44890146073731,
2.63727847781232,2.82565553468102,3.01403259154972),.UNSPECIFIED.);
#35=B_SPLINE_CURVE_WITH_KNOTS('',3,(#211,#212,#213,#214,#215,#216,#217,
#218,#219,#220,#221,#222,#223,#224,#225,#226,#227,#228),.UNSPECIFIED.,.F.,
 .F.,(4,2,2,2,2,2,2,2,4),(0.753508147887431,0.941885164962447,1.13026218203746,
1.31863923890616,1.50701629577486,1.69539335264356,1.88377040951226,2.07214742658728,
2.26052444366229),.UNSPECIFIED.);
#36=LINE('',#188,#43);
#37=LINE('',#232,#44);
#38=LINE('',#234,#45);
#39=LINE('',#236,#46);
#40=LINE('',#237,#47);
#41=LINE('',#245,#48);
#42=LINE('',#247,#49);
#43=VECTOR('',#158,5.);
#44=VECTOR('',#161,10.);
#45=VECTOR('',#162,10.);
#46=VECTOR('',#163,10.);
#47=VECTOR('',#164,10.);
#48=VECTOR('',#177,100.);
#49=VECTOR('',#178,100.);
#50=CIRCLE('',#142,5.);
#51=CIRCLE('',#145,100.);
#52=CIRCLE('',#147,100.);
#53=CIRCLE('',#148,100.);
#54=CIRCLE('',#150,100.);
#55=VERTEX_POINT('',#185);
#56=VERTEX_POINT('',#187);
#57=VERTEX_POINT('',#189);
#58=VERTEX_POINT('',#200);
#59=VERTEX_POINT('',#230);
#60=VERTEX_POINT('',#231);
#61=VERTEX_POINT('',#233);
#62=VERTEX_POINT('',#235);
#63=VERTEX_POINT('',#241);
#64=VERTEX_POINT('',#246);
#65=EDGE_CURVE('',#55,#55,#50,.T.);
#66=EDGE_CURVE('',#55,#56,#36,.T.);
#67=EDGE_CURVE('',#57,#56,#33,.T.);
#68=EDGE_CURVE('',#58,#57,#34,.T.);
#69=EDGE_CURVE('',#56,#58,#35,.T.);
#70=EDGE_CURVE('',#59,#60,#37,.T.);
#71=EDGE_CURVE('',#61,#59,#38,.T.);
#72=EDGE_CURVE('',#62,#61,#39,.T.);
#73=EDGE_CURVE('',#60,#62,#40,.T.);
#74=EDGE_CURVE('',#61,#59,#51,.T.);
#75=EDGE_CURVE('',#62,#63,#52,.T.);
#76=EDGE_CURVE('',#63,#60,#53,.T.);
#77=EDGE_CURVE('',#63,#56,#41,.T.);
#78=EDGE_CURVE('',#58,#64,#42,.T.);
#79=EDGE_CURVE('',#64,#64,#54,.T.);
#80=ORIENTED_EDGE('',*,*,#65,.F.);
#81=ORIENTED_EDGE('',*,*,#66,.T.);
#82=ORIENTED_EDGE('',*,*,#67,.F.);
#83=ORIENTED_EDGE('',*,*,#68,.F.);
#84=ORIENTED_EDGE('',*,*,#69,.F.);
#85=ORIENTED_EDGE('',*,*,#66,.F.);
#86=ORIENTED_EDGE('',*,*,#70,.F.);
#87=ORIENTED_EDGE('',*,*,#71,.F.);
#88=ORIENTED_EDGE('',*,*,#72,.F.);
#89=ORIENTED_EDGE('',*,*,#73,.F.);
#90=ORIENTED_EDGE('',*,*,#65,.T.);
#91=ORIENTED_EDGE('',*,*,#74,.F.);
#92=ORIENTED_EDGE('',*,*,#71,.T.);
#93=ORIENTED_EDGE('',*,*,#73,.T.);
#94=ORIENTED_EDGE('',*,*,#75,.T.);
#95=ORIENTED_EDGE('',*,*,#76,.T.);
#96=ORIENTED_EDGE('',*,*,#70,.T.);
#97=ORIENTED_EDGE('',*,*,#76,.F.);
#98=ORIENTED_EDGE('',*,*,#77,.T.);
#99=ORIENTED_EDGE('',*,*,#69,.T.);
#100=ORIENTED_EDGE('',*,*,#78,.T.);
#101=ORIENTED_EDGE('',*,*,#79,.T.);
#102=ORIENTED_EDGE('',*,*,#78,.F.);
#103=ORIENTED_EDGE('',*,*,#68,.T.);
#104=ORIENTED_EDGE('',*,*,#67,.T.);
#105=ORIENTED_EDGE('',*,*,#77,.F.);
#106=ORIENTED_EDGE('',*,*,#75,.F.);
#107=ORIENTED_EDGE('',*,*,#72,.T.);
#108=ORIENTED_EDGE('',*,*,#74,.T.);
#109=ORIENTED_EDGE('',*,*,#79,.F.);
#110=CYLINDRICAL_SURFACE('',#141,5.);
#111=CYLINDRICAL_SURFACE('',#149,100.);
#112=ADVANCED_FACE('',(#20),#110,.F.);
#113=ADVANCED_FACE('',(#21,#15),#16,.F.);
#114=ADVANCED_FACE('',(#22),#17,.F.);
#115=ADVANCED_FACE('',(#23),#18,.T.);
#116=ADVANCED_FACE('',(#24),#111,.T.);
#117=ADVANCED_FACE('',(#25),#19,.F.);
#118=CLOSED_SHELL('',(#112,#113,#114,#115,#116,#117));
#119=DERIVED_UNIT_ELEMENT(#122,1.);
#120=DERIVED_UNIT_ELEMENT(#255,-3.);
#121=DIMENSIONAL_EXPONENTS(0.,1.,0.,0.,0.,0.,0.);
#122=(
CONVERSION_BASED_UNIT('gram',#124)
MASS_UNIT()
NAMED_UNIT(#121)
);
#123=(
MASS_UNIT()
NAMED_UNIT(*)
SI_UNIT(.KILO.,.GRAM.)
);
#124=MASS_MEASURE_WITH_UNIT(MASS_MEASURE(0.001),#123);
#125=DERIVED_UNIT((#119,#120));
#126=MEASURE_REPRESENTATION_ITEM('density measure',
POSITIVE_RATIO_MEASURE(1.),#125);
#127=PROPERTY_DEFINITION_REPRESENTATION(#132,#129);
#128=PROPERTY_DEFINITION_REPRESENTATION(#133,#130);
#129=REPRESENTATION('material name',(#131),#252);
#130=REPRESENTATION('density',(#126),#252);
#131=DESCRIPTIVE_REPRESENTATION_ITEM('Og\X\F3lny','Og\X\F3lny');
#132=PROPERTY_DEFINITION('material property','material name',#262);
#133=PROPERTY_DEFINITION('material property','density of part',#262);
#134=DATE_TIME_ROLE('creation_date');
#135=APPLIED_DATE_AND_TIME_ASSIGNMENT(#136,#134,(#262));
#136=DATE_AND_TIME(#137,#138);
#137=CALENDAR_DATE(2026,19,3);
#138=LOCAL_TIME(0,0,0.,#139);
#139=COORDINATED_UNIVERSAL_TIME_OFFSET(0,0,.BEHIND.);
#140=AXIS2_PLACEMENT_3D('',#183,#152,#153);
#141=AXIS2_PLACEMENT_3D('',#184,#154,#155);
#142=AXIS2_PLACEMENT_3D('',#186,#156,#157);
#143=AXIS2_PLACEMENT_3D('',#229,#159,#160);
#144=AXIS2_PLACEMENT_3D('',#238,#165,#166);
#145=AXIS2_PLACEMENT_3D('',#239,#167,#168);
#146=AXIS2_PLACEMENT_3D('',#240,#169,#170);
#147=AXIS2_PLACEMENT_3D('',#242,#171,#172);
#148=AXIS2_PLACEMENT_3D('',#243,#173,#174);
#149=AXIS2_PLACEMENT_3D('',#244,#175,#176);
#150=AXIS2_PLACEMENT_3D('',#248,#179,#180);
#151=AXIS2_PLACEMENT_3D('',#249,#181,#182);
#152=DIRECTION('axis',(0.,0.,1.));
#153=DIRECTION('refdir',(1.,0.,0.));
#154=DIRECTION('center_axis',(1.,2.368475785867E-16,3.06161699786838E-16));
#155=DIRECTION('ref_axis',(3.06161699786838E-16,7.25136572505008E-32,-1.));
#156=DIRECTION('center_axis',(-1.,-2.368475785867E-16,-3.06161699786838E-16));
#157=DIRECTION('ref_axis',(3.06161699786838E-16,7.25136572505008E-32,-1.));
#158=DIRECTION('',(-1.,-2.368475785867E-16,-3.06161699786838E-16));
#159=DIRECTION('center_axis',(-1.,-2.368475785867E-16,-3.06161699786838E-16));
#160=DIRECTION('ref_axis',(3.06161699786838E-16,5.43852429378756E-32,-1.));
#161=DIRECTION('',(0.,0.,1.));
#162=DIRECTION('',(2.368475785867E-16,-1.,0.));
#163=DIRECTION('',(0.,0.,-1.));
#164=DIRECTION('',(-2.368475785867E-16,1.,0.));
#165=DIRECTION('center_axis',(1.77635683940025E-16,4.20725816117873E-32,
-1.));
#166=DIRECTION('ref_axis',(1.,1.77635683940025E-16,1.77635683940025E-16));
#167=DIRECTION('center_axis',(1.77635683940025E-16,4.20725816117873E-32,
-1.));
#168=DIRECTION('ref_axis',(1.,0.,0.));
#169=DIRECTION('center_axis',(0.,0.,1.));
#170=DIRECTION('ref_axis',(1.,0.,0.));
#171=DIRECTION('center_axis',(0.,0.,1.));
#172=DIRECTION('ref_axis',(1.,0.,0.));
#173=DIRECTION('center_axis',(0.,0.,1.));
#174=DIRECTION('ref_axis',(1.,0.,0.));
#175=DIRECTION('center_axis',(0.,0.,1.));
#176=DIRECTION('ref_axis',(1.,0.,0.));
#177=DIRECTION('',(0.,0.,-1.));
#178=DIRECTION('',(0.,0.,-1.));
#179=DIRECTION('center_axis',(0.,0.,1.));
#180=DIRECTION('ref_axis',(1.,0.,0.));
#181=DIRECTION('center_axis',(0.,0.,1.));
#182=DIRECTION('ref_axis',(1.,0.,0.));
#183=CARTESIAN_POINT('',(0.,0.,0.));
#184=CARTESIAN_POINT('Origin',(-377.491721763537,-8.94080002362182E-14,
200.));
#185=CARTESIAN_POINT('',(0.,-6.12323399573676E-16,205.));
#186=CARTESIAN_POINT('Origin',(0.,0.,200.));
#187=CARTESIAN_POINT('',(-100.,-2.42970812582437E-14,205.));
#188=CARTESIAN_POINT('',(-377.491721763537,-9.00203236357918E-14,205.));
#189=CARTESIAN_POINT('',(-99.8749217771909,4.99999999999997,200.));
#190=CARTESIAN_POINT('Ctrl Pts',(-99.8749217771909,4.99999999999997,200.));
#191=CARTESIAN_POINT('Ctrl Pts',(-99.8749217771909,4.99999999999997,200.627923522896));
#192=CARTESIAN_POINT('Ctrl Pts',(-99.8814527761177,4.87448790385023,201.297629627859));
#193=CARTESIAN_POINT('Ctrl Pts',(-99.9050504852142,4.36418703413817,202.529495323091));
#194=CARTESIAN_POINT('Ctrl Pts',(-99.9217774605078,3.97940402574341,203.091663786122));
#195=CARTESIAN_POINT('Ctrl Pts',(-99.9531834492419,3.0916638798873,203.979403931978));
#196=CARTESIAN_POINT('Ctrl Pts',(-99.9699012977227,2.52949537404173,204.364187010378));
#197=CARTESIAN_POINT('Ctrl Pts',(-99.9934781367692,1.2976295438833,204.874487941291));
#198=CARTESIAN_POINT('Ctrl Pts',(-100.,0.627923390250032,205.));
#199=CARTESIAN_POINT('Ctrl Pts',(-100.,-2.1094237467878E-14,205.));
#200=CARTESIAN_POINT('',(-100.,-1.80581315104572E-14,195.));
#201=CARTESIAN_POINT('Ctrl Pts',(-100.,-2.45636844198316E-14,195.));
#202=CARTESIAN_POINT('Ctrl Pts',(-100.,0.627923390250023,195.));
#203=CARTESIAN_POINT('Ctrl Pts',(-99.9934781367692,1.29762954388328,195.125512058709));
#204=CARTESIAN_POINT('Ctrl Pts',(-99.9699012977227,2.52949537404169,195.635812989622));
#205=CARTESIAN_POINT('Ctrl Pts',(-99.9531834492419,3.09166387988729,196.020596068022));
#206=CARTESIAN_POINT('Ctrl Pts',(-99.9217774605078,3.9794040257434,196.908336213878));
#207=CARTESIAN_POINT('Ctrl Pts',(-99.9050504852142,4.36418703413817,197.470504676909));
#208=CARTESIAN_POINT('Ctrl Pts',(-99.8814527761177,4.87448790385023,198.702370372141));
#209=CARTESIAN_POINT('Ctrl Pts',(-99.8749217771909,4.99999999999998,199.372076477104));
#210=CARTESIAN_POINT('Ctrl Pts',(-99.8749217771909,4.99999999999998,200.));
#211=CARTESIAN_POINT('Ctrl Pts',(-100.,-2.34534613952064E-14,205.));
#212=CARTESIAN_POINT('Ctrl Pts',(-100.,-0.627923390250076,205.));
#213=CARTESIAN_POINT('Ctrl Pts',(-99.9934781367692,-1.29762954388333,204.874487941291));
#214=CARTESIAN_POINT('Ctrl Pts',(-99.9699012977227,-2.52949537404174,204.364187010378));
#215=CARTESIAN_POINT('Ctrl Pts',(-99.9531834492419,-3.09166387988735,203.979403931978));
#216=CARTESIAN_POINT('Ctrl Pts',(-99.9217774605078,-3.97940402574346,203.091663786122));
#217=CARTESIAN_POINT('Ctrl Pts',(-99.9050504852142,-4.36418703413822,202.529495323091));
#218=CARTESIAN_POINT('Ctrl Pts',(-99.8814527761177,-4.87448790385028,201.297629627859));
#219=CARTESIAN_POINT('Ctrl Pts',(-99.8749217771909,-5.00000000000002,200.627923522896));
#220=CARTESIAN_POINT('Ctrl Pts',(-99.8749217771909,-5.00000000000002,199.372076477104));
#221=CARTESIAN_POINT('Ctrl Pts',(-99.8814527761177,-4.87448790385026,198.702370372141));
#222=CARTESIAN_POINT('Ctrl Pts',(-99.9050504852142,-4.36418703413818,197.470504676909));
#223=CARTESIAN_POINT('Ctrl Pts',(-99.9217774605078,-3.97940402574345,196.908336213878));
#224=CARTESIAN_POINT('Ctrl Pts',(-99.9531834492419,-3.09166387988734,196.020596068022));
#225=CARTESIAN_POINT('Ctrl Pts',(-99.9699012977227,-2.52949537404174,195.635812989622));
#226=CARTESIAN_POINT('Ctrl Pts',(-99.9934781367692,-1.29762954388333,195.125512058709));
#227=CARTESIAN_POINT('Ctrl Pts',(-100.,-0.627923390250075,195.));
#228=CARTESIAN_POINT('Ctrl Pts',(-100.,-2.58126853225349E-14,195.));
#229=CARTESIAN_POINT('Origin',(0.,0.,250.));
#230=CARTESIAN_POINT('',(6.96090128266957E-14,-100.,100.));
#231=CARTESIAN_POINT('',(2.368475785867E-14,-100.,250.));
#232=CARTESIAN_POINT('',(1.0022518280538E-13,-100.,0.));
#233=CARTESIAN_POINT('',(2.22394971093557E-14,100.,100.));
#234=CARTESIAN_POINT('',(4.59242549680257E-14,8.15778644068135E-30,100.));
#235=CARTESIAN_POINT('',(-2.368475785867E-14,100.,250.));
#236=CARTESIAN_POINT('',(5.28556670880396E-14,100.,0.));
#237=CARTESIAN_POINT('',(0.,0.,250.));
#238=CARTESIAN_POINT('Origin',(4.59242549680257E-14,8.15778644068135E-30,
100.));
#239=CARTESIAN_POINT('Origin',(0.,0.,100.));
#240=CARTESIAN_POINT('Origin',(0.,0.,250.));
#241=CARTESIAN_POINT('',(-100.,-1.22464679914735E-14,250.));
#242=CARTESIAN_POINT('Origin',(0.,0.,250.));
#243=CARTESIAN_POINT('Origin',(0.,0.,250.));
#244=CARTESIAN_POINT('Origin',(0.,0.,0.));
#245=CARTESIAN_POINT('',(-100.,-1.22464679914735E-14,0.));
#246=CARTESIAN_POINT('',(-100.,-1.22464679914735E-14,0.));
#247=CARTESIAN_POINT('',(-100.,-1.22464679914735E-14,0.));
#248=CARTESIAN_POINT('Origin',(0.,0.,0.));
#249=CARTESIAN_POINT('Origin',(0.,0.,0.));
#250=UNCERTAINTY_MEASURE_WITH_UNIT(LENGTH_MEASURE(0.01),#254,
'DISTANCE_ACCURACY_VALUE',
'Maximum model space distance between geometric entities at asserted c
onnectivities');
#251=UNCERTAINTY_MEASURE_WITH_UNIT(LENGTH_MEASURE(0.01),#254,
'DISTANCE_ACCURACY_VALUE',
'Maximum model space distance between geometric entities at asserted c
onnectivities');
#252=(
GEOMETRIC_REPRESENTATION_CONTEXT(3)
GLOBAL_UNCERTAINTY_ASSIGNED_CONTEXT((#250))
GLOBAL_UNIT_ASSIGNED_CONTEXT((#254,#256,#257))
REPRESENTATION_CONTEXT('','3D')
);
#253=(
GEOMETRIC_REPRESENTATION_CONTEXT(3)
GLOBAL_UNCERTAINTY_ASSIGNED_CONTEXT((#251))
GLOBAL_UNIT_ASSIGNED_CONTEXT((#254,#256,#257))
REPRESENTATION_CONTEXT('','3D')
);
#254=(
LENGTH_UNIT()
NAMED_UNIT(*)
SI_UNIT(.MILLI.,.METRE.)
);
#255=(
LENGTH_UNIT()
NAMED_UNIT(*)
SI_UNIT(.CENTI.,.METRE.)
);
#256=(
NAMED_UNIT(*)
PLANE_ANGLE_UNIT()
SI_UNIT($,.RADIAN.)
);
#257=(
NAMED_UNIT(*)
SI_UNIT($,.STERADIAN.)
SOLID_ANGLE_UNIT()
);
#258=SHAPE_DEFINITION_REPRESENTATION(#259,#260);
#259=PRODUCT_DEFINITION_SHAPE('',$,#262);
#260=SHAPE_REPRESENTATION('',(#140),#252);
#261=PRODUCT_DEFINITION_CONTEXT('part definition',#266,'design');
#262=PRODUCT_DEFINITION('link1','link1',#263,#261);
#263=PRODUCT_DEFINITION_FORMATION('',$,#268);
#264=PRODUCT_RELATED_PRODUCT_CATEGORY('link1','link1',(#268));
#265=APPLICATION_PROTOCOL_DEFINITION('international standard',
'automotive_design',2009,#266);
#266=APPLICATION_CONTEXT(
'Core Data for Automotive Mechanical Design Process');
#267=PRODUCT_CONTEXT('part definition',#266,'mechanical');
#268=PRODUCT('link1','link1',$,(#267));
#269=PRESENTATION_STYLE_ASSIGNMENT((#270));
#270=SURFACE_STYLE_USAGE(.BOTH.,#273);
#271=SURFACE_STYLE_RENDERING_WITH_PROPERTIES($,#277,(#272));
#272=SURFACE_STYLE_TRANSPARENT(0.);
#273=SURFACE_SIDE_STYLE('',(#274,#271));
#274=SURFACE_STYLE_FILL_AREA(#275);
#275=FILL_AREA_STYLE('',(#276));
#276=FILL_AREA_STYLE_COLOUR('',#277);
#277=COLOUR_RGB('',0.749019607843137,0.749019607843137,0.749019607843137);
ENDSEC;
END-ISO-10303-21;
