ISO-10303-21;
HEADER;
/* Generated by software containing ST-Developer
 * from STEP Tools, Inc. (www.steptools.com) 
 */

FILE_DESCRIPTION(
/* description */ (''),
/* implementation_level */ '2;1');

FILE_NAME(
/* name */ 'link4.stp',
/* time_stamp */ '2026-05-06T10:57:12+02:00',
/* author */ ('dawid'),
/* organization */ (''),
/* preprocessor_version */ 'ST-DEVELOPER v20',
/* originating_system */ 'Autodesk Inventor 2025',
/* authorisation */ '');

FILE_SCHEMA (('AUTOMOTIVE_DESIGN { 1 0 10303 214 3 1 1 }'));
ENDSEC;

DATA;
#10=MECHANICAL_DESIGN_GEOMETRIC_PRESENTATION_REPRESENTATION('',(#13),#451);
#11=SHAPE_REPRESENTATION_RELATIONSHIP('SRR','None',#458,#12);
#12=ADVANCED_BREP_SHAPE_REPRESENTATION('',(#14),#450);
#13=STYLED_ITEM('',(#467),#14);
#14=MANIFOLD_SOLID_BREP('Solid2',#258);
#15=CYLINDRICAL_SURFACE('',#289,25.);
#16=CYLINDRICAL_SURFACE('',#291,5.);
#17=CYLINDRICAL_SURFACE('',#293,5.);
#18=CYLINDRICAL_SURFACE('',#297,5.);
#19=CYLINDRICAL_SURFACE('',#301,25.);
#20=FACE_BOUND('',#40,.T.);
#21=FACE_BOUND('',#43,.T.);
#22=FACE_BOUND('',#51,.T.);
#23=FACE_BOUND('',#55,.T.);
#24=FACE_BOUND('',#57,.T.);
#25=FACE_OUTER_BOUND('',#39,.T.);
#26=FACE_OUTER_BOUND('',#41,.T.);
#27=FACE_OUTER_BOUND('',#42,.T.);
#28=FACE_OUTER_BOUND('',#44,.T.);
#29=FACE_OUTER_BOUND('',#45,.T.);
#30=FACE_OUTER_BOUND('',#46,.T.);
#31=FACE_OUTER_BOUND('',#47,.T.);
#32=FACE_OUTER_BOUND('',#48,.T.);
#33=FACE_OUTER_BOUND('',#49,.T.);
#34=FACE_OUTER_BOUND('',#50,.T.);
#35=FACE_OUTER_BOUND('',#52,.T.);
#36=FACE_OUTER_BOUND('',#53,.T.);
#37=FACE_OUTER_BOUND('',#54,.T.);
#38=FACE_OUTER_BOUND('',#56,.T.);
#39=EDGE_LOOP('',(#169,#170,#171,#172));
#40=EDGE_LOOP('',(#173));
#41=EDGE_LOOP('',(#174,#175,#176,#177));
#42=EDGE_LOOP('',(#178,#179,#180,#181));
#43=EDGE_LOOP('',(#182));
#44=EDGE_LOOP('',(#183,#184,#185,#186,#187,#188,#189,#190));
#45=EDGE_LOOP('',(#191,#192,#193,#194));
#46=EDGE_LOOP('',(#195,#196,#197,#198));
#47=EDGE_LOOP('',(#199,#200,#201,#202));
#48=EDGE_LOOP('',(#203));
#49=EDGE_LOOP('',(#204,#205,#206,#207));
#50=EDGE_LOOP('',(#208,#209,#210,#211));
#51=EDGE_LOOP('',(#212));
#52=EDGE_LOOP('',(#213,#214,#215,#216,#217,#218,#219,#220));
#53=EDGE_LOOP('',(#221,#222,#223,#224));
#54=EDGE_LOOP('',(#225,#226,#227,#228));
#55=EDGE_LOOP('',(#229));
#56=EDGE_LOOP('',(#230,#231,#232,#233));
#57=EDGE_LOOP('',(#234));
#58=LINE('',#384,#81);
#59=LINE('',#386,#82);
#60=LINE('',#387,#83);
#61=LINE('',#392,#84);
#62=LINE('',#394,#85);
#63=LINE('',#395,#86);
#64=LINE('',#400,#87);
#65=LINE('',#401,#88);
#66=LINE('',#406,#89);
#67=LINE('',#408,#90);
#68=LINE('',#410,#91);
#69=LINE('',#412,#92);
#70=LINE('',#413,#93);
#71=LINE('',#416,#94);
#72=LINE('',#420,#95);
#73=LINE('',#426,#96);
#74=LINE('',#432,#97);
#75=LINE('',#435,#98);
#76=LINE('',#437,#99);
#77=LINE('',#438,#100);
#78=LINE('',#441,#101);
#79=LINE('',#442,#102);
#80=LINE('',#443,#103);
#81=VECTOR('',#311,10.);
#82=VECTOR('',#312,10.);
#83=VECTOR('',#313,10.);
#84=VECTOR('',#318,10.);
#85=VECTOR('',#319,10.);
#86=VECTOR('',#320,10.);
#87=VECTOR('',#325,10.);
#88=VECTOR('',#326,10.);
#89=VECTOR('',#331,10.);
#90=VECTOR('',#332,10.);
#91=VECTOR('',#333,10.);
#92=VECTOR('',#334,10.);
#93=VECTOR('',#335,10.);
#94=VECTOR('',#338,10.);
#95=VECTOR('',#343,5.);
#96=VECTOR('',#350,5.);
#97=VECTOR('',#359,5.);
#98=VECTOR('',#362,10.);
#99=VECTOR('',#363,10.);
#100=VECTOR('',#364,10.);
#101=VECTOR('',#367,10.);
#102=VECTOR('',#368,10.);
#103=VECTOR('',#369,10.);
#104=CIRCLE('',#282,25.);
#105=CIRCLE('',#283,5.);
#106=CIRCLE('',#286,25.);
#107=CIRCLE('',#287,5.);
#108=CIRCLE('',#290,25.);
#109=CIRCLE('',#292,5.);
#110=CIRCLE('',#294,5.);
#111=CIRCLE('',#295,5.);
#112=CIRCLE('',#298,5.);
#113=CIRCLE('',#302,25.);
#114=VERTEX_POINT('',#380);
#115=VERTEX_POINT('',#381);
#116=VERTEX_POINT('',#383);
#117=VERTEX_POINT('',#385);
#118=VERTEX_POINT('',#388);
#119=VERTEX_POINT('',#391);
#120=VERTEX_POINT('',#393);
#121=VERTEX_POINT('',#397);
#122=VERTEX_POINT('',#398);
#123=VERTEX_POINT('',#402);
#124=VERTEX_POINT('',#405);
#125=VERTEX_POINT('',#407);
#126=VERTEX_POINT('',#409);
#127=VERTEX_POINT('',#411);
#128=VERTEX_POINT('',#415);
#129=VERTEX_POINT('',#419);
#130=VERTEX_POINT('',#423);
#131=VERTEX_POINT('',#425);
#132=VERTEX_POINT('',#430);
#133=VERTEX_POINT('',#434);
#134=VERTEX_POINT('',#436);
#135=VERTEX_POINT('',#440);
#136=EDGE_CURVE('',#114,#115,#104,.T.);
#137=EDGE_CURVE('',#116,#114,#58,.T.);
#138=EDGE_CURVE('',#116,#117,#59,.T.);
#139=EDGE_CURVE('',#115,#117,#60,.T.);
#140=EDGE_CURVE('',#118,#118,#105,.T.);
#141=EDGE_CURVE('',#117,#119,#61,.T.);
#142=EDGE_CURVE('',#120,#116,#62,.T.);
#143=EDGE_CURVE('',#120,#119,#63,.T.);
#144=EDGE_CURVE('',#121,#122,#106,.T.);
#145=EDGE_CURVE('',#119,#121,#64,.T.);
#146=EDGE_CURVE('',#122,#120,#65,.T.);
#147=EDGE_CURVE('',#123,#123,#107,.T.);
#148=EDGE_CURVE('',#114,#124,#66,.T.);
#149=EDGE_CURVE('',#125,#124,#67,.T.);
#150=EDGE_CURVE('',#126,#125,#68,.T.);
#151=EDGE_CURVE('',#127,#126,#69,.T.);
#152=EDGE_CURVE('',#127,#122,#70,.T.);
#153=EDGE_CURVE('',#115,#128,#71,.T.);
#154=EDGE_CURVE('',#124,#128,#108,.T.);
#155=EDGE_CURVE('',#123,#129,#72,.T.);
#156=EDGE_CURVE('',#129,#129,#109,.T.);
#157=EDGE_CURVE('',#130,#130,#110,.T.);
#158=EDGE_CURVE('',#130,#131,#73,.T.);
#159=EDGE_CURVE('',#131,#131,#111,.T.);
#160=EDGE_CURVE('',#132,#132,#112,.T.);
#161=EDGE_CURVE('',#132,#118,#74,.T.);
#162=EDGE_CURVE('',#126,#133,#75,.T.);
#163=EDGE_CURVE('',#134,#125,#76,.T.);
#164=EDGE_CURVE('',#133,#134,#77,.T.);
#165=EDGE_CURVE('',#135,#121,#78,.T.);
#166=EDGE_CURVE('',#133,#135,#79,.T.);
#167=EDGE_CURVE('',#128,#134,#80,.T.);
#168=EDGE_CURVE('',#135,#127,#113,.T.);
#169=ORIENTED_EDGE('',*,*,#136,.F.);
#170=ORIENTED_EDGE('',*,*,#137,.F.);
#171=ORIENTED_EDGE('',*,*,#138,.T.);
#172=ORIENTED_EDGE('',*,*,#139,.F.);
#173=ORIENTED_EDGE('',*,*,#140,.F.);
#174=ORIENTED_EDGE('',*,*,#141,.F.);
#175=ORIENTED_EDGE('',*,*,#138,.F.);
#176=ORIENTED_EDGE('',*,*,#142,.F.);
#177=ORIENTED_EDGE('',*,*,#143,.T.);
#178=ORIENTED_EDGE('',*,*,#144,.F.);
#179=ORIENTED_EDGE('',*,*,#145,.F.);
#180=ORIENTED_EDGE('',*,*,#143,.F.);
#181=ORIENTED_EDGE('',*,*,#146,.F.);
#182=ORIENTED_EDGE('',*,*,#147,.F.);
#183=ORIENTED_EDGE('',*,*,#146,.T.);
#184=ORIENTED_EDGE('',*,*,#142,.T.);
#185=ORIENTED_EDGE('',*,*,#137,.T.);
#186=ORIENTED_EDGE('',*,*,#148,.T.);
#187=ORIENTED_EDGE('',*,*,#149,.F.);
#188=ORIENTED_EDGE('',*,*,#150,.F.);
#189=ORIENTED_EDGE('',*,*,#151,.F.);
#190=ORIENTED_EDGE('',*,*,#152,.T.);
#191=ORIENTED_EDGE('',*,*,#136,.T.);
#192=ORIENTED_EDGE('',*,*,#153,.T.);
#193=ORIENTED_EDGE('',*,*,#154,.F.);
#194=ORIENTED_EDGE('',*,*,#148,.F.);
#195=ORIENTED_EDGE('',*,*,#147,.T.);
#196=ORIENTED_EDGE('',*,*,#155,.T.);
#197=ORIENTED_EDGE('',*,*,#156,.F.);
#198=ORIENTED_EDGE('',*,*,#155,.F.);
#199=ORIENTED_EDGE('',*,*,#157,.F.);
#200=ORIENTED_EDGE('',*,*,#158,.T.);
#201=ORIENTED_EDGE('',*,*,#159,.F.);
#202=ORIENTED_EDGE('',*,*,#158,.F.);
#203=ORIENTED_EDGE('',*,*,#157,.T.);
#204=ORIENTED_EDGE('',*,*,#160,.F.);
#205=ORIENTED_EDGE('',*,*,#161,.T.);
#206=ORIENTED_EDGE('',*,*,#140,.T.);
#207=ORIENTED_EDGE('',*,*,#161,.F.);
#208=ORIENTED_EDGE('',*,*,#162,.F.);
#209=ORIENTED_EDGE('',*,*,#150,.T.);
#210=ORIENTED_EDGE('',*,*,#163,.F.);
#211=ORIENTED_EDGE('',*,*,#164,.F.);
#212=ORIENTED_EDGE('',*,*,#159,.T.);
#213=ORIENTED_EDGE('',*,*,#145,.T.);
#214=ORIENTED_EDGE('',*,*,#165,.F.);
#215=ORIENTED_EDGE('',*,*,#166,.F.);
#216=ORIENTED_EDGE('',*,*,#164,.T.);
#217=ORIENTED_EDGE('',*,*,#167,.F.);
#218=ORIENTED_EDGE('',*,*,#153,.F.);
#219=ORIENTED_EDGE('',*,*,#139,.T.);
#220=ORIENTED_EDGE('',*,*,#141,.T.);
#221=ORIENTED_EDGE('',*,*,#144,.T.);
#222=ORIENTED_EDGE('',*,*,#152,.F.);
#223=ORIENTED_EDGE('',*,*,#168,.F.);
#224=ORIENTED_EDGE('',*,*,#165,.T.);
#225=ORIENTED_EDGE('',*,*,#151,.T.);
#226=ORIENTED_EDGE('',*,*,#162,.T.);
#227=ORIENTED_EDGE('',*,*,#166,.T.);
#228=ORIENTED_EDGE('',*,*,#168,.T.);
#229=ORIENTED_EDGE('',*,*,#156,.T.);
#230=ORIENTED_EDGE('',*,*,#149,.T.);
#231=ORIENTED_EDGE('',*,*,#154,.T.);
#232=ORIENTED_EDGE('',*,*,#167,.T.);
#233=ORIENTED_EDGE('',*,*,#163,.T.);
#234=ORIENTED_EDGE('',*,*,#160,.T.);
#235=PLANE('',#281);
#236=PLANE('',#284);
#237=PLANE('',#285);
#238=PLANE('',#288);
#239=PLANE('',#296);
#240=PLANE('',#299);
#241=PLANE('',#300);
#242=PLANE('',#303);
#243=PLANE('',#304);
#244=ADVANCED_FACE('',(#25,#20),#235,.F.);
#245=ADVANCED_FACE('',(#26),#236,.F.);
#246=ADVANCED_FACE('',(#27,#21),#237,.F.);
#247=ADVANCED_FACE('',(#28),#238,.T.);
#248=ADVANCED_FACE('',(#29),#15,.T.);
#249=ADVANCED_FACE('',(#30),#16,.F.);
#250=ADVANCED_FACE('',(#31),#17,.T.);
#251=ADVANCED_FACE('',(#32),#239,.T.);
#252=ADVANCED_FACE('',(#33),#18,.F.);
#253=ADVANCED_FACE('',(#34,#22),#240,.T.);
#254=ADVANCED_FACE('',(#35),#241,.T.);
#255=ADVANCED_FACE('',(#36),#19,.T.);
#256=ADVANCED_FACE('',(#37,#23),#242,.T.);
#257=ADVANCED_FACE('',(#38,#24),#243,.F.);
#258=CLOSED_SHELL('',(#244,#245,#246,#247,#248,#249,#250,#251,#252,#253,
#254,#255,#256,#257));
#259=DERIVED_UNIT_ELEMENT(#262,1.);
#260=DERIVED_UNIT_ELEMENT(#453,-3.);
#261=DIMENSIONAL_EXPONENTS(0.,1.,0.,0.,0.,0.,0.);
#262=(
CONVERSION_BASED_UNIT('gram',#264)
MASS_UNIT()
NAMED_UNIT(#261)
);
#263=(
MASS_UNIT()
NAMED_UNIT(*)
SI_UNIT(.KILO.,.GRAM.)
);
#264=MASS_MEASURE_WITH_UNIT(MASS_MEASURE(0.001),#263);
#265=DERIVED_UNIT((#259,#260));
#266=MEASURE_REPRESENTATION_ITEM('density measure',
POSITIVE_RATIO_MEASURE(1.),#265);
#267=PROPERTY_DEFINITION_REPRESENTATION(#272,#269);
#268=PROPERTY_DEFINITION_REPRESENTATION(#273,#270);
#269=REPRESENTATION('material name',(#271),#450);
#270=REPRESENTATION('density',(#266),#450);
#271=DESCRIPTIVE_REPRESENTATION_ITEM('Generic','Generic');
#272=PROPERTY_DEFINITION('material property','material name',#460);
#273=PROPERTY_DEFINITION('material property','density of part',#460);
#274=DATE_TIME_ROLE('creation_date');
#275=APPLIED_DATE_AND_TIME_ASSIGNMENT(#276,#274,(#460));
#276=DATE_AND_TIME(#277,#278);
#277=CALENDAR_DATE(2026,19,3);
#278=LOCAL_TIME(0,0,0.,#279);
#279=COORDINATED_UNIVERSAL_TIME_OFFSET(0,0,.BEHIND.);
#280=AXIS2_PLACEMENT_3D('',#378,#305,#306);
#281=AXIS2_PLACEMENT_3D('',#379,#307,#308);
#282=AXIS2_PLACEMENT_3D('',#382,#309,#310);
#283=AXIS2_PLACEMENT_3D('',#389,#314,#315);
#284=AXIS2_PLACEMENT_3D('',#390,#316,#317);
#285=AXIS2_PLACEMENT_3D('',#396,#321,#322);
#286=AXIS2_PLACEMENT_3D('',#399,#323,#324);
#287=AXIS2_PLACEMENT_3D('',#403,#327,#328);
#288=AXIS2_PLACEMENT_3D('',#404,#329,#330);
#289=AXIS2_PLACEMENT_3D('',#414,#336,#337);
#290=AXIS2_PLACEMENT_3D('',#417,#339,#340);
#291=AXIS2_PLACEMENT_3D('',#418,#341,#342);
#292=AXIS2_PLACEMENT_3D('',#421,#344,#345);
#293=AXIS2_PLACEMENT_3D('',#422,#346,#347);
#294=AXIS2_PLACEMENT_3D('',#424,#348,#349);
#295=AXIS2_PLACEMENT_3D('',#427,#351,#352);
#296=AXIS2_PLACEMENT_3D('',#428,#353,#354);
#297=AXIS2_PLACEMENT_3D('',#429,#355,#356);
#298=AXIS2_PLACEMENT_3D('',#431,#357,#358);
#299=AXIS2_PLACEMENT_3D('',#433,#360,#361);
#300=AXIS2_PLACEMENT_3D('',#439,#365,#366);
#301=AXIS2_PLACEMENT_3D('',#444,#370,#371);
#302=AXIS2_PLACEMENT_3D('',#445,#372,#373);
#303=AXIS2_PLACEMENT_3D('',#446,#374,#375);
#304=AXIS2_PLACEMENT_3D('',#447,#376,#377);
#305=DIRECTION('axis',(0.,0.,1.));
#306=DIRECTION('refdir',(1.,0.,0.));
#307=DIRECTION('center_axis',(0.,-1.,0.));
#308=DIRECTION('ref_axis',(0.,0.,1.));
#309=DIRECTION('center_axis',(0.,-1.,0.));
#310=DIRECTION('ref_axis',(-1.,0.,0.));
#311=DIRECTION('',(0.,0.,1.));
#312=DIRECTION('',(-1.,0.,0.));
#313=DIRECTION('',(0.,0.,-1.));
#314=DIRECTION('center_axis',(0.,1.,0.));
#315=DIRECTION('ref_axis',(1.,0.,0.));
#316=DIRECTION('center_axis',(0.,1.77635683940025E-16,-1.));
#317=DIRECTION('ref_axis',(0.,-1.,-1.77635683940025E-16));
#318=DIRECTION('',(0.,1.,1.77635683940025E-16));
#319=DIRECTION('',(0.,-1.,-1.77635683940025E-16));
#320=DIRECTION('',(-1.,0.,0.));
#321=DIRECTION('center_axis',(0.,1.,0.));
#322=DIRECTION('ref_axis',(0.,0.,-1.));
#323=DIRECTION('center_axis',(0.,1.,0.));
#324=DIRECTION('ref_axis',(-1.,0.,0.));
#325=DIRECTION('',(0.,0.,1.));
#326=DIRECTION('',(0.,0.,-1.));
#327=DIRECTION('center_axis',(0.,-1.,0.));
#328=DIRECTION('ref_axis',(1.,0.,0.));
#329=DIRECTION('center_axis',(1.,0.,0.));
#330=DIRECTION('ref_axis',(0.,0.,1.));
#331=DIRECTION('',(0.,-1.,0.));
#332=DIRECTION('',(0.,0.,1.));
#333=DIRECTION('',(0.,-1.,0.));
#334=DIRECTION('',(0.,0.,-1.));
#335=DIRECTION('',(0.,-1.,0.));
#336=DIRECTION('center_axis',(0.,-1.,0.));
#337=DIRECTION('ref_axis',(-1.,0.,0.));
#338=DIRECTION('',(0.,-1.,0.));
#339=DIRECTION('center_axis',(0.,-1.,0.));
#340=DIRECTION('ref_axis',(-1.,0.,0.));
#341=DIRECTION('center_axis',(0.,-1.,0.));
#342=DIRECTION('ref_axis',(1.,0.,0.));
#343=DIRECTION('',(0.,1.,0.));
#344=DIRECTION('center_axis',(0.,-1.,0.));
#345=DIRECTION('ref_axis',(1.,0.,0.));
#346=DIRECTION('center_axis',(0.,0.,-1.));
#347=DIRECTION('ref_axis',(-1.,0.,0.));
#348=DIRECTION('center_axis',(0.,0.,-1.));
#349=DIRECTION('ref_axis',(-1.,0.,0.));
#350=DIRECTION('',(0.,0.,1.));
#351=DIRECTION('center_axis',(0.,0.,1.));
#352=DIRECTION('ref_axis',(-1.,0.,0.));
#353=DIRECTION('center_axis',(0.,0.,-1.));
#354=DIRECTION('ref_axis',(-1.,0.,0.));
#355=DIRECTION('center_axis',(0.,-1.,0.));
#356=DIRECTION('ref_axis',(1.,0.,0.));
#357=DIRECTION('center_axis',(0.,1.,0.));
#358=DIRECTION('ref_axis',(1.,0.,0.));
#359=DIRECTION('',(0.,1.,0.));
#360=DIRECTION('center_axis',(0.,0.,-1.));
#361=DIRECTION('ref_axis',(1.,0.,0.));
#362=DIRECTION('',(-1.,0.,0.));
#363=DIRECTION('',(1.,0.,0.));
#364=DIRECTION('',(0.,-1.,0.));
#365=DIRECTION('center_axis',(-1.,0.,0.));
#366=DIRECTION('ref_axis',(0.,0.,-1.));
#367=DIRECTION('',(0.,-1.,0.));
#368=DIRECTION('',(0.,0.,1.));
#369=DIRECTION('',(0.,0.,-1.));
#370=DIRECTION('center_axis',(0.,-1.,0.));
#371=DIRECTION('ref_axis',(-1.,0.,0.));
#372=DIRECTION('center_axis',(0.,1.,0.));
#373=DIRECTION('ref_axis',(-1.,0.,0.));
#374=DIRECTION('center_axis',(0.,1.,0.));
#375=DIRECTION('ref_axis',(0.,0.,1.));
#376=DIRECTION('center_axis',(0.,1.,0.));
#377=DIRECTION('ref_axis',(0.,0.,1.));
#378=CARTESIAN_POINT('',(0.,0.,0.));
#379=CARTESIAN_POINT('Origin',(50.,-75.,75.));
#380=CARTESIAN_POINT('',(50.,-75.,100.));
#381=CARTESIAN_POINT('',(0.,-75.,100.));
#382=CARTESIAN_POINT('Origin',(25.,-75.,100.));
#383=CARTESIAN_POINT('',(50.,-75.,75.));
#384=CARTESIAN_POINT('',(50.,-75.,37.5));
#385=CARTESIAN_POINT('',(0.,-75.,75.));
#386=CARTESIAN_POINT('',(50.,-75.,75.));
#387=CARTESIAN_POINT('',(0.,-75.,87.5));
#388=CARTESIAN_POINT('',(20.,-75.,100.));
#389=CARTESIAN_POINT('Origin',(25.,-75.,100.));
#390=CARTESIAN_POINT('Origin',(50.,-25.,75.));
#391=CARTESIAN_POINT('',(0.,-25.,75.));
#392=CARTESIAN_POINT('',(0.,-12.5,75.));
#393=CARTESIAN_POINT('',(50.,-25.,75.));
#394=CARTESIAN_POINT('',(50.,-12.5,75.));
#395=CARTESIAN_POINT('',(50.,-25.,75.));
#396=CARTESIAN_POINT('Origin',(50.,-25.,125.));
#397=CARTESIAN_POINT('',(0.,-25.,100.));
#398=CARTESIAN_POINT('',(50.,-25.,100.));
#399=CARTESIAN_POINT('Origin',(25.,-25.,100.));
#400=CARTESIAN_POINT('',(0.,-25.,112.5));
#401=CARTESIAN_POINT('',(50.,-25.,62.5));
#402=CARTESIAN_POINT('',(20.,-25.,100.));
#403=CARTESIAN_POINT('Origin',(25.,-25.,100.));
#404=CARTESIAN_POINT('Origin',(50.,0.,0.));
#405=CARTESIAN_POINT('',(50.,-100.,100.));
#406=CARTESIAN_POINT('',(50.,0.,100.));
#407=CARTESIAN_POINT('',(50.,-100.,0.));
#408=CARTESIAN_POINT('',(50.,-100.,100.));
#409=CARTESIAN_POINT('',(50.,0.,0.));
#410=CARTESIAN_POINT('',(50.,0.,0.));
#411=CARTESIAN_POINT('',(50.,0.,100.));
#412=CARTESIAN_POINT('',(50.,0.,100.));
#413=CARTESIAN_POINT('',(50.,0.,100.));
#414=CARTESIAN_POINT('Origin',(25.,0.,100.));
#415=CARTESIAN_POINT('',(0.,-100.,100.));
#416=CARTESIAN_POINT('',(0.,0.,100.));
#417=CARTESIAN_POINT('Origin',(25.,-100.,100.));
#418=CARTESIAN_POINT('Origin',(25.,0.,100.));
#419=CARTESIAN_POINT('',(20.,0.,100.));
#420=CARTESIAN_POINT('',(20.,0.,100.));
#421=CARTESIAN_POINT('Origin',(25.,0.,100.));
#422=CARTESIAN_POINT('Origin',(25.,-50.,0.));
#423=CARTESIAN_POINT('',(30.,-50.,-10.));
#424=CARTESIAN_POINT('Origin',(25.,-50.,-10.));
#425=CARTESIAN_POINT('',(30.,-50.,0.));
#426=CARTESIAN_POINT('',(30.,-50.,0.));
#427=CARTESIAN_POINT('Origin',(25.,-50.,0.));
#428=CARTESIAN_POINT('Origin',(25.,-50.,-10.));
#429=CARTESIAN_POINT('Origin',(25.,0.,100.));
#430=CARTESIAN_POINT('',(20.,-100.,100.));
#431=CARTESIAN_POINT('Origin',(25.,-100.,100.));
#432=CARTESIAN_POINT('',(20.,0.,100.));
#433=CARTESIAN_POINT('Origin',(0.,0.,0.));
#434=CARTESIAN_POINT('',(0.,0.,0.));
#435=CARTESIAN_POINT('',(50.,0.,0.));
#436=CARTESIAN_POINT('',(0.,-100.,0.));
#437=CARTESIAN_POINT('',(50.,-100.,0.));
#438=CARTESIAN_POINT('',(0.,0.,0.));
#439=CARTESIAN_POINT('Origin',(0.,0.,100.));
#440=CARTESIAN_POINT('',(0.,0.,100.));
#441=CARTESIAN_POINT('',(0.,0.,100.));
#442=CARTESIAN_POINT('',(0.,0.,0.));
#443=CARTESIAN_POINT('',(0.,-100.,0.));
#444=CARTESIAN_POINT('Origin',(25.,0.,100.));
#445=CARTESIAN_POINT('Origin',(25.,0.,100.));
#446=CARTESIAN_POINT('Origin',(25.,0.,62.5));
#447=CARTESIAN_POINT('Origin',(25.,-100.,62.5));
#448=UNCERTAINTY_MEASURE_WITH_UNIT(LENGTH_MEASURE(0.01),#452,
'DISTANCE_ACCURACY_VALUE',
'Maximum model space distance between geometric entities at asserted c
onnectivities');
#449=UNCERTAINTY_MEASURE_WITH_UNIT(LENGTH_MEASURE(0.01),#452,
'DISTANCE_ACCURACY_VALUE',
'Maximum model space distance between geometric entities at asserted c
onnectivities');
#450=(
GEOMETRIC_REPRESENTATION_CONTEXT(3)
GLOBAL_UNCERTAINTY_ASSIGNED_CONTEXT((#448))
GLOBAL_UNIT_ASSIGNED_CONTEXT((#452,#454,#455))
REPRESENTATION_CONTEXT('','3D')
);
#451=(
GEOMETRIC_REPRESENTATION_CONTEXT(3)
GLOBAL_UNCERTAINTY_ASSIGNED_CONTEXT((#449))
GLOBAL_UNIT_ASSIGNED_CONTEXT((#452,#454,#455))
REPRESENTATION_CONTEXT('','3D')
);
#452=(
LENGTH_UNIT()
NAMED_UNIT(*)
SI_UNIT(.MILLI.,.METRE.)
);
#453=(
LENGTH_UNIT()
NAMED_UNIT(*)
SI_UNIT(.CENTI.,.METRE.)
);
#454=(
NAMED_UNIT(*)
PLANE_ANGLE_UNIT()
SI_UNIT($,.RADIAN.)
);
#455=(
NAMED_UNIT(*)
SI_UNIT($,.STERADIAN.)
SOLID_ANGLE_UNIT()
);
#456=SHAPE_DEFINITION_REPRESENTATION(#457,#458);
#457=PRODUCT_DEFINITION_SHAPE('',$,#460);
#458=SHAPE_REPRESENTATION('',(#280),#450);
#459=PRODUCT_DEFINITION_CONTEXT('part definition',#464,'design');
#460=PRODUCT_DEFINITION('link4','link4',#461,#459);
#461=PRODUCT_DEFINITION_FORMATION('',$,#466);
#462=PRODUCT_RELATED_PRODUCT_CATEGORY('link4','link4',(#466));
#463=APPLICATION_PROTOCOL_DEFINITION('international standard',
'automotive_design',2009,#464);
#464=APPLICATION_CONTEXT(
'Core Data for Automotive Mechanical Design Process');
#465=PRODUCT_CONTEXT('part definition',#464,'mechanical');
#466=PRODUCT('link4','link4',$,(#465));
#467=PRESENTATION_STYLE_ASSIGNMENT((#468));
#468=SURFACE_STYLE_USAGE(.BOTH.,#471);
#469=SURFACE_STYLE_RENDERING_WITH_PROPERTIES($,#475,(#470));
#470=SURFACE_STYLE_TRANSPARENT(0.);
#471=SURFACE_SIDE_STYLE('',(#472,#469));
#472=SURFACE_STYLE_FILL_AREA(#473);
#473=FILL_AREA_STYLE('',(#474));
#474=FILL_AREA_STYLE_COLOUR('',#475);
#475=COLOUR_RGB('',0.749019607843137,0.749019607843137,0.749019607843137);
ENDSEC;
END-ISO-10303-21;
