ISO-10303-21;
HEADER;
/* Generated by software containing ST-Developer
 * from STEP Tools, Inc. (www.steptools.com) 
 */

FILE_DESCRIPTION(
/* description */ (''),
/* implementation_level */ '2;1');

FILE_NAME(
/* name */ 'link6.stp',
/* time_stamp */ '2026-05-05T09:09:24+02:00',
/* author */ ('panze'),
/* organization */ (''),
/* preprocessor_version */ 'ST-DEVELOPER v20.1',
/* originating_system */ 'Autodesk Inventor 2026',
/* authorisation */ '');

FILE_SCHEMA (('AUTOMOTIVE_DESIGN { 1 0 10303 214 3 1 1 }'));
ENDSEC;

DATA;
#10=MECHANICAL_DESIGN_GEOMETRIC_PRESENTATION_REPRESENTATION('',(#13),#1069);
#11=SHAPE_REPRESENTATION_RELATIONSHIP('SRR','None',#1076,#12);
#12=ADVANCED_BREP_SHAPE_REPRESENTATION('',(#14),#1068);
#13=STYLED_ITEM('',(#1085),#14);
#14=MANIFOLD_SOLID_BREP('Solid1',#632);
#15=FACE_BOUND('',#119,.T.);
#16=PLANE('',#660);
#17=PLANE('',#661);
#18=PLANE('',#662);
#19=PLANE('',#668);
#20=PLANE('',#674);
#21=PLANE('',#675);
#22=PLANE('',#681);
#23=PLANE('',#682);
#24=PLANE('',#683);
#25=PLANE('',#684);
#26=PLANE('',#685);
#27=PLANE('',#686);
#28=PLANE('',#687);
#29=PLANE('',#688);
#30=PLANE('',#689);
#31=PLANE('',#690);
#32=PLANE('',#691);
#33=PLANE('',#692);
#34=PLANE('',#693);
#35=PLANE('',#694);
#36=PLANE('',#695);
#37=PLANE('',#696);
#38=PLANE('',#697);
#39=PLANE('',#698);
#40=PLANE('',#699);
#41=PLANE('',#703);
#42=PLANE('',#704);
#43=PLANE('',#705);
#44=PLANE('',#706);
#45=PLANE('',#707);
#46=PLANE('',#708);
#47=FACE_OUTER_BOUND('',#83,.T.);
#48=FACE_OUTER_BOUND('',#84,.T.);
#49=FACE_OUTER_BOUND('',#85,.T.);
#50=FACE_OUTER_BOUND('',#86,.T.);
#51=FACE_OUTER_BOUND('',#87,.T.);
#52=FACE_OUTER_BOUND('',#88,.T.);
#53=FACE_OUTER_BOUND('',#89,.T.);
#54=FACE_OUTER_BOUND('',#90,.T.);
#55=FACE_OUTER_BOUND('',#91,.T.);
#56=FACE_OUTER_BOUND('',#92,.T.);
#57=FACE_OUTER_BOUND('',#93,.T.);
#58=FACE_OUTER_BOUND('',#94,.T.);
#59=FACE_OUTER_BOUND('',#95,.T.);
#60=FACE_OUTER_BOUND('',#96,.T.);
#61=FACE_OUTER_BOUND('',#97,.T.);
#62=FACE_OUTER_BOUND('',#98,.T.);
#63=FACE_OUTER_BOUND('',#99,.T.);
#64=FACE_OUTER_BOUND('',#100,.T.);
#65=FACE_OUTER_BOUND('',#101,.T.);
#66=FACE_OUTER_BOUND('',#102,.T.);
#67=FACE_OUTER_BOUND('',#103,.T.);
#68=FACE_OUTER_BOUND('',#104,.T.);
#69=FACE_OUTER_BOUND('',#105,.T.);
#70=FACE_OUTER_BOUND('',#106,.T.);
#71=FACE_OUTER_BOUND('',#107,.T.);
#72=FACE_OUTER_BOUND('',#108,.T.);
#73=FACE_OUTER_BOUND('',#109,.T.);
#74=FACE_OUTER_BOUND('',#110,.T.);
#75=FACE_OUTER_BOUND('',#111,.T.);
#76=FACE_OUTER_BOUND('',#112,.T.);
#77=FACE_OUTER_BOUND('',#113,.T.);
#78=FACE_OUTER_BOUND('',#114,.T.);
#79=FACE_OUTER_BOUND('',#115,.T.);
#80=FACE_OUTER_BOUND('',#116,.T.);
#81=FACE_OUTER_BOUND('',#117,.T.);
#82=FACE_OUTER_BOUND('',#118,.T.);
#83=EDGE_LOOP('',(#417,#418,#419,#420,#421,#422));
#84=EDGE_LOOP('',(#423));
#85=EDGE_LOOP('',(#424,#425,#426,#427,#428));
#86=EDGE_LOOP('',(#429,#430,#431,#432,#433));
#87=EDGE_LOOP('',(#434,#435,#436,#437,#438,#439));
#88=EDGE_LOOP('',(#440));
#89=EDGE_LOOP('',(#441,#442,#443,#444,#445,#446));
#90=EDGE_LOOP('',(#447));
#91=EDGE_LOOP('',(#448,#449,#450,#451,#452));
#92=EDGE_LOOP('',(#453,#454,#455,#456,#457,#458));
#93=EDGE_LOOP('',(#459));
#94=EDGE_LOOP('',(#460,#461,#462,#463,#464));
#95=EDGE_LOOP('',(#465,#466,#467,#468,#469,#470,#471,#472));
#96=EDGE_LOOP('',(#473,#474,#475,#476,#477,#478,#479,#480));
#97=EDGE_LOOP('',(#481,#482,#483,#484));
#98=EDGE_LOOP('',(#485,#486,#487,#488,#489));
#99=EDGE_LOOP('',(#490,#491,#492,#493,#494,#495));
#100=EDGE_LOOP('',(#496,#497,#498,#499,#500));
#101=EDGE_LOOP('',(#501,#502,#503,#504));
#102=EDGE_LOOP('',(#505,#506,#507,#508,#509,#510));
#103=EDGE_LOOP('',(#511,#512,#513,#514));
#104=EDGE_LOOP('',(#515,#516,#517,#518,#519));
#105=EDGE_LOOP('',(#520,#521,#522,#523,#524,#525));
#106=EDGE_LOOP('',(#526,#527,#528,#529,#530));
#107=EDGE_LOOP('',(#531,#532,#533,#534));
#108=EDGE_LOOP('',(#535,#536,#537,#538,#539,#540));
#109=EDGE_LOOP('',(#541,#542,#543,#544,#545,#546,#547,#548,#549,#550,#551,
#552));
#110=EDGE_LOOP('',(#553,#554,#555,#556));
#111=EDGE_LOOP('',(#557,#558,#559,#560));
#112=EDGE_LOOP('',(#561,#562,#563,#564));
#113=EDGE_LOOP('',(#565));
#114=EDGE_LOOP('',(#566,#567,#568,#569));
#115=EDGE_LOOP('',(#570,#571,#572,#573,#574,#575));
#116=EDGE_LOOP('',(#576,#577,#578,#579));
#117=EDGE_LOOP('',(#580,#581,#582,#583,#584,#585));
#118=EDGE_LOOP('',(#586,#587,#588,#589));
#119=EDGE_LOOP('',(#590));
#120=LINE('',#893,#189);
#121=LINE('',#902,#190);
#122=LINE('',#904,#191);
#123=LINE('',#905,#192);
#124=LINE('',#909,#193);
#125=LINE('',#911,#194);
#126=LINE('',#913,#195);
#127=LINE('',#920,#196);
#128=LINE('',#927,#197);
#129=LINE('',#936,#198);
#130=LINE('',#938,#199);
#131=LINE('',#939,#200);
#132=LINE('',#944,#201);
#133=LINE('',#953,#202);
#134=LINE('',#955,#203);
#135=LINE('',#956,#204);
#136=LINE('',#960,#205);
#137=LINE('',#962,#206);
#138=LINE('',#964,#207);
#139=LINE('',#966,#208);
#140=LINE('',#968,#209);
#141=LINE('',#970,#210);
#142=LINE('',#972,#211);
#143=LINE('',#973,#212);
#144=LINE('',#977,#213);
#145=LINE('',#979,#214);
#146=LINE('',#981,#215);
#147=LINE('',#983,#216);
#148=LINE('',#985,#217);
#149=LINE('',#987,#218);
#150=LINE('',#989,#219);
#151=LINE('',#990,#220);
#152=LINE('',#992,#221);
#153=LINE('',#993,#222);
#154=LINE('',#996,#223);
#155=LINE('',#997,#224);
#156=LINE('',#999,#225);
#157=LINE('',#1001,#226);
#158=LINE('',#1002,#227);
#159=LINE('',#1004,#228);
#160=LINE('',#1005,#229);
#161=LINE('',#1007,#230);
#162=LINE('',#1009,#231);
#163=LINE('',#1010,#232);
#164=LINE('',#1012,#233);
#165=LINE('',#1015,#234);
#166=LINE('',#1016,#235);
#167=LINE('',#1018,#236);
#168=LINE('',#1020,#237);
#169=LINE('',#1021,#238);
#170=LINE('',#1023,#239);
#171=LINE('',#1024,#240);
#172=LINE('',#1026,#241);
#173=LINE('',#1028,#242);
#174=LINE('',#1032,#243);
#175=LINE('',#1034,#244);
#176=LINE('',#1035,#245);
#177=LINE('',#1038,#246);
#178=LINE('',#1040,#247);
#179=LINE('',#1041,#248);
#180=LINE('',#1046,#249);
#181=LINE('',#1052,#250);
#182=LINE('',#1053,#251);
#183=LINE('',#1054,#252);
#184=LINE('',#1057,#253);
#185=LINE('',#1058,#254);
#186=LINE('',#1061,#255);
#187=LINE('',#1062,#256);
#188=LINE('',#1064,#257);
#189=VECTOR('',#715,60.);
#190=VECTOR('',#726,10.);
#191=VECTOR('',#727,10.);
#192=VECTOR('',#728,10.);
#193=VECTOR('',#731,10.);
#194=VECTOR('',#732,10.);
#195=VECTOR('',#733,10.);
#196=VECTOR('',#742,60.);
#197=VECTOR('',#751,60.);
#198=VECTOR('',#762,10.);
#199=VECTOR('',#763,10.);
#200=VECTOR('',#764,10.);
#201=VECTOR('',#769,60.);
#202=VECTOR('',#780,10.);
#203=VECTOR('',#781,10.);
#204=VECTOR('',#782,10.);
#205=VECTOR('',#785,10.);
#206=VECTOR('',#786,10.);
#207=VECTOR('',#787,10.);
#208=VECTOR('',#788,10.);
#209=VECTOR('',#789,10.);
#210=VECTOR('',#790,10.);
#211=VECTOR('',#791,10.);
#212=VECTOR('',#792,10.);
#213=VECTOR('',#795,10.);
#214=VECTOR('',#796,10.);
#215=VECTOR('',#797,10.);
#216=VECTOR('',#798,10.);
#217=VECTOR('',#799,10.);
#218=VECTOR('',#800,10.);
#219=VECTOR('',#801,10.);
#220=VECTOR('',#802,10.);
#221=VECTOR('',#805,10.);
#222=VECTOR('',#806,10.);
#223=VECTOR('',#809,10.);
#224=VECTOR('',#810,10.);
#225=VECTOR('',#813,10.);
#226=VECTOR('',#814,10.);
#227=VECTOR('',#815,10.);
#228=VECTOR('',#818,10.);
#229=VECTOR('',#819,10.);
#230=VECTOR('',#822,10.);
#231=VECTOR('',#825,10.);
#232=VECTOR('',#826,10.);
#233=VECTOR('',#829,10.);
#234=VECTOR('',#832,10.);
#235=VECTOR('',#833,10.);
#236=VECTOR('',#836,10.);
#237=VECTOR('',#837,10.);
#238=VECTOR('',#838,10.);
#239=VECTOR('',#841,10.);
#240=VECTOR('',#842,10.);
#241=VECTOR('',#845,10.);
#242=VECTOR('',#848,10.);
#243=VECTOR('',#853,10.);
#244=VECTOR('',#854,10.);
#245=VECTOR('',#855,10.);
#246=VECTOR('',#858,10.);
#247=VECTOR('',#859,10.);
#248=VECTOR('',#860,10.);
#249=VECTOR('',#865,5.);
#250=VECTOR('',#872,10.);
#251=VECTOR('',#873,10.);
#252=VECTOR('',#874,10.);
#253=VECTOR('',#877,10.);
#254=VECTOR('',#878,10.);
#255=VECTOR('',#881,10.);
#256=VECTOR('',#882,10.);
#257=VECTOR('',#885,10.);
#258=CIRCLE('',#656,60.);
#259=CIRCLE('',#657,60.);
#260=CIRCLE('',#658,60.);
#261=CIRCLE('',#659,60.);
#262=CIRCLE('',#663,60.);
#263=CIRCLE('',#664,60.);
#264=CIRCLE('',#666,60.);
#265=CIRCLE('',#667,60.);
#266=CIRCLE('',#670,60.);
#267=CIRCLE('',#671,60.);
#268=CIRCLE('',#672,60.);
#269=CIRCLE('',#673,60.);
#270=CIRCLE('',#677,60.);
#271=CIRCLE('',#678,60.);
#272=CIRCLE('',#679,60.);
#273=CIRCLE('',#680,60.);
#274=CIRCLE('',#701,5.);
#275=CIRCLE('',#702,5.);
#276=VERTEX_POINT('',#890);
#277=VERTEX_POINT('',#892);
#278=VERTEX_POINT('',#894);
#279=VERTEX_POINT('',#896);
#280=VERTEX_POINT('',#901);
#281=VERTEX_POINT('',#903);
#282=VERTEX_POINT('',#907);
#283=VERTEX_POINT('',#908);
#284=VERTEX_POINT('',#910);
#285=VERTEX_POINT('',#912);
#286=VERTEX_POINT('',#914);
#287=VERTEX_POINT('',#918);
#288=VERTEX_POINT('',#924);
#289=VERTEX_POINT('',#926);
#290=VERTEX_POINT('',#928);
#291=VERTEX_POINT('',#930);
#292=VERTEX_POINT('',#935);
#293=VERTEX_POINT('',#937);
#294=VERTEX_POINT('',#941);
#295=VERTEX_POINT('',#943);
#296=VERTEX_POINT('',#945);
#297=VERTEX_POINT('',#947);
#298=VERTEX_POINT('',#952);
#299=VERTEX_POINT('',#954);
#300=VERTEX_POINT('',#958);
#301=VERTEX_POINT('',#959);
#302=VERTEX_POINT('',#961);
#303=VERTEX_POINT('',#963);
#304=VERTEX_POINT('',#965);
#305=VERTEX_POINT('',#967);
#306=VERTEX_POINT('',#969);
#307=VERTEX_POINT('',#971);
#308=VERTEX_POINT('',#975);
#309=VERTEX_POINT('',#976);
#310=VERTEX_POINT('',#978);
#311=VERTEX_POINT('',#980);
#312=VERTEX_POINT('',#982);
#313=VERTEX_POINT('',#984);
#314=VERTEX_POINT('',#986);
#315=VERTEX_POINT('',#988);
#316=VERTEX_POINT('',#995);
#317=VERTEX_POINT('',#1000);
#318=VERTEX_POINT('',#1014);
#319=VERTEX_POINT('',#1019);
#320=VERTEX_POINT('',#1031);
#321=VERTEX_POINT('',#1033);
#322=VERTEX_POINT('',#1037);
#323=VERTEX_POINT('',#1039);
#324=VERTEX_POINT('',#1043);
#325=VERTEX_POINT('',#1045);
#326=VERTEX_POINT('',#1050);
#327=VERTEX_POINT('',#1051);
#328=VERTEX_POINT('',#1056);
#329=VERTEX_POINT('',#1060);
#330=EDGE_CURVE('',#276,#276,#258,.T.);
#331=EDGE_CURVE('',#276,#277,#120,.T.);
#332=EDGE_CURVE('',#277,#278,#259,.T.);
#333=EDGE_CURVE('',#279,#278,#260,.T.);
#334=EDGE_CURVE('',#279,#277,#261,.T.);
#335=EDGE_CURVE('',#280,#278,#121,.T.);
#336=EDGE_CURVE('',#279,#281,#122,.T.);
#337=EDGE_CURVE('',#281,#280,#123,.T.);
#338=EDGE_CURVE('',#282,#283,#124,.T.);
#339=EDGE_CURVE('',#283,#284,#125,.T.);
#340=EDGE_CURVE('',#284,#285,#126,.T.);
#341=EDGE_CURVE('',#286,#285,#262,.T.);
#342=EDGE_CURVE('',#282,#286,#263,.T.);
#343=EDGE_CURVE('',#287,#287,#264,.T.);
#344=EDGE_CURVE('',#287,#286,#127,.T.);
#345=EDGE_CURVE('',#282,#285,#265,.T.);
#346=EDGE_CURVE('',#288,#288,#266,.T.);
#347=EDGE_CURVE('',#288,#289,#128,.T.);
#348=EDGE_CURVE('',#289,#290,#267,.T.);
#349=EDGE_CURVE('',#291,#290,#268,.T.);
#350=EDGE_CURVE('',#291,#289,#269,.T.);
#351=EDGE_CURVE('',#292,#290,#129,.T.);
#352=EDGE_CURVE('',#291,#293,#130,.T.);
#353=EDGE_CURVE('',#293,#292,#131,.T.);
#354=EDGE_CURVE('',#294,#294,#270,.T.);
#355=EDGE_CURVE('',#294,#295,#132,.T.);
#356=EDGE_CURVE('',#295,#296,#271,.T.);
#357=EDGE_CURVE('',#297,#296,#272,.T.);
#358=EDGE_CURVE('',#297,#295,#273,.T.);
#359=EDGE_CURVE('',#298,#296,#133,.T.);
#360=EDGE_CURVE('',#297,#299,#134,.T.);
#361=EDGE_CURVE('',#299,#298,#135,.T.);
#362=EDGE_CURVE('',#300,#301,#136,.T.);
#363=EDGE_CURVE('',#302,#301,#137,.T.);
#364=EDGE_CURVE('',#303,#302,#138,.T.);
#365=EDGE_CURVE('',#304,#303,#139,.T.);
#366=EDGE_CURVE('',#305,#304,#140,.T.);
#367=EDGE_CURVE('',#306,#305,#141,.T.);
#368=EDGE_CURVE('',#307,#306,#142,.T.);
#369=EDGE_CURVE('',#300,#307,#143,.T.);
#370=EDGE_CURVE('',#308,#309,#144,.T.);
#371=EDGE_CURVE('',#310,#309,#145,.T.);
#372=EDGE_CURVE('',#311,#310,#146,.T.);
#373=EDGE_CURVE('',#312,#311,#147,.T.);
#374=EDGE_CURVE('',#313,#312,#148,.T.);
#375=EDGE_CURVE('',#314,#313,#149,.T.);
#376=EDGE_CURVE('',#315,#314,#150,.T.);
#377=EDGE_CURVE('',#308,#315,#151,.T.);
#378=EDGE_CURVE('',#313,#284,#152,.T.);
#379=EDGE_CURVE('',#314,#283,#153,.T.);
#380=EDGE_CURVE('',#316,#282,#154,.T.);
#381=EDGE_CURVE('',#315,#316,#155,.T.);
#382=EDGE_CURVE('',#308,#301,#156,.T.);
#383=EDGE_CURVE('',#317,#316,#157,.T.);
#384=EDGE_CURVE('',#302,#317,#158,.T.);
#385=EDGE_CURVE('',#278,#317,#159,.T.);
#386=EDGE_CURVE('',#303,#280,#160,.T.);
#387=EDGE_CURVE('',#304,#281,#161,.T.);
#388=EDGE_CURVE('',#290,#279,#162,.T.);
#389=EDGE_CURVE('',#305,#292,#163,.T.);
#390=EDGE_CURVE('',#306,#293,#164,.T.);
#391=EDGE_CURVE('',#318,#291,#165,.T.);
#392=EDGE_CURVE('',#307,#318,#166,.T.);
#393=EDGE_CURVE('',#300,#309,#167,.T.);
#394=EDGE_CURVE('',#319,#318,#168,.T.);
#395=EDGE_CURVE('',#310,#319,#169,.T.);
#396=EDGE_CURVE('',#296,#319,#170,.T.);
#397=EDGE_CURVE('',#311,#298,#171,.T.);
#398=EDGE_CURVE('',#312,#299,#172,.T.);
#399=EDGE_CURVE('',#285,#297,#173,.T.);
#400=EDGE_CURVE('',#309,#320,#174,.T.);
#401=EDGE_CURVE('',#320,#321,#175,.T.);
#402=EDGE_CURVE('',#321,#300,#176,.T.);
#403=EDGE_CURVE('',#301,#322,#177,.T.);
#404=EDGE_CURVE('',#322,#323,#178,.T.);
#405=EDGE_CURVE('',#323,#308,#179,.T.);
#406=EDGE_CURVE('',#324,#324,#274,.T.);
#407=EDGE_CURVE('',#324,#325,#180,.T.);
#408=EDGE_CURVE('',#325,#325,#275,.T.);
#409=EDGE_CURVE('',#326,#327,#181,.T.);
#410=EDGE_CURVE('',#327,#321,#182,.T.);
#411=EDGE_CURVE('',#326,#320,#183,.T.);
#412=EDGE_CURVE('',#328,#326,#184,.T.);
#413=EDGE_CURVE('',#328,#323,#185,.T.);
#414=EDGE_CURVE('',#329,#328,#186,.T.);
#415=EDGE_CURVE('',#329,#322,#187,.T.);
#416=EDGE_CURVE('',#327,#329,#188,.T.);
#417=ORIENTED_EDGE('',*,*,#330,.F.);
#418=ORIENTED_EDGE('',*,*,#331,.T.);
#419=ORIENTED_EDGE('',*,*,#332,.T.);
#420=ORIENTED_EDGE('',*,*,#333,.F.);
#421=ORIENTED_EDGE('',*,*,#334,.T.);
#422=ORIENTED_EDGE('',*,*,#331,.F.);
#423=ORIENTED_EDGE('',*,*,#330,.T.);
#424=ORIENTED_EDGE('',*,*,#335,.T.);
#425=ORIENTED_EDGE('',*,*,#332,.F.);
#426=ORIENTED_EDGE('',*,*,#334,.F.);
#427=ORIENTED_EDGE('',*,*,#336,.T.);
#428=ORIENTED_EDGE('',*,*,#337,.T.);
#429=ORIENTED_EDGE('',*,*,#338,.T.);
#430=ORIENTED_EDGE('',*,*,#339,.T.);
#431=ORIENTED_EDGE('',*,*,#340,.T.);
#432=ORIENTED_EDGE('',*,*,#341,.F.);
#433=ORIENTED_EDGE('',*,*,#342,.F.);
#434=ORIENTED_EDGE('',*,*,#343,.F.);
#435=ORIENTED_EDGE('',*,*,#344,.T.);
#436=ORIENTED_EDGE('',*,*,#341,.T.);
#437=ORIENTED_EDGE('',*,*,#345,.F.);
#438=ORIENTED_EDGE('',*,*,#342,.T.);
#439=ORIENTED_EDGE('',*,*,#344,.F.);
#440=ORIENTED_EDGE('',*,*,#343,.T.);
#441=ORIENTED_EDGE('',*,*,#346,.F.);
#442=ORIENTED_EDGE('',*,*,#347,.T.);
#443=ORIENTED_EDGE('',*,*,#348,.T.);
#444=ORIENTED_EDGE('',*,*,#349,.F.);
#445=ORIENTED_EDGE('',*,*,#350,.T.);
#446=ORIENTED_EDGE('',*,*,#347,.F.);
#447=ORIENTED_EDGE('',*,*,#346,.T.);
#448=ORIENTED_EDGE('',*,*,#351,.T.);
#449=ORIENTED_EDGE('',*,*,#348,.F.);
#450=ORIENTED_EDGE('',*,*,#350,.F.);
#451=ORIENTED_EDGE('',*,*,#352,.T.);
#452=ORIENTED_EDGE('',*,*,#353,.T.);
#453=ORIENTED_EDGE('',*,*,#354,.F.);
#454=ORIENTED_EDGE('',*,*,#355,.T.);
#455=ORIENTED_EDGE('',*,*,#356,.T.);
#456=ORIENTED_EDGE('',*,*,#357,.F.);
#457=ORIENTED_EDGE('',*,*,#358,.T.);
#458=ORIENTED_EDGE('',*,*,#355,.F.);
#459=ORIENTED_EDGE('',*,*,#354,.T.);
#460=ORIENTED_EDGE('',*,*,#359,.T.);
#461=ORIENTED_EDGE('',*,*,#356,.F.);
#462=ORIENTED_EDGE('',*,*,#358,.F.);
#463=ORIENTED_EDGE('',*,*,#360,.T.);
#464=ORIENTED_EDGE('',*,*,#361,.T.);
#465=ORIENTED_EDGE('',*,*,#362,.T.);
#466=ORIENTED_EDGE('',*,*,#363,.F.);
#467=ORIENTED_EDGE('',*,*,#364,.F.);
#468=ORIENTED_EDGE('',*,*,#365,.F.);
#469=ORIENTED_EDGE('',*,*,#366,.F.);
#470=ORIENTED_EDGE('',*,*,#367,.F.);
#471=ORIENTED_EDGE('',*,*,#368,.F.);
#472=ORIENTED_EDGE('',*,*,#369,.F.);
#473=ORIENTED_EDGE('',*,*,#370,.T.);
#474=ORIENTED_EDGE('',*,*,#371,.F.);
#475=ORIENTED_EDGE('',*,*,#372,.F.);
#476=ORIENTED_EDGE('',*,*,#373,.F.);
#477=ORIENTED_EDGE('',*,*,#374,.F.);
#478=ORIENTED_EDGE('',*,*,#375,.F.);
#479=ORIENTED_EDGE('',*,*,#376,.F.);
#480=ORIENTED_EDGE('',*,*,#377,.F.);
#481=ORIENTED_EDGE('',*,*,#375,.T.);
#482=ORIENTED_EDGE('',*,*,#378,.T.);
#483=ORIENTED_EDGE('',*,*,#339,.F.);
#484=ORIENTED_EDGE('',*,*,#379,.F.);
#485=ORIENTED_EDGE('',*,*,#376,.T.);
#486=ORIENTED_EDGE('',*,*,#379,.T.);
#487=ORIENTED_EDGE('',*,*,#338,.F.);
#488=ORIENTED_EDGE('',*,*,#380,.F.);
#489=ORIENTED_EDGE('',*,*,#381,.F.);
#490=ORIENTED_EDGE('',*,*,#363,.T.);
#491=ORIENTED_EDGE('',*,*,#382,.F.);
#492=ORIENTED_EDGE('',*,*,#377,.T.);
#493=ORIENTED_EDGE('',*,*,#381,.T.);
#494=ORIENTED_EDGE('',*,*,#383,.F.);
#495=ORIENTED_EDGE('',*,*,#384,.F.);
#496=ORIENTED_EDGE('',*,*,#364,.T.);
#497=ORIENTED_EDGE('',*,*,#384,.T.);
#498=ORIENTED_EDGE('',*,*,#385,.F.);
#499=ORIENTED_EDGE('',*,*,#335,.F.);
#500=ORIENTED_EDGE('',*,*,#386,.F.);
#501=ORIENTED_EDGE('',*,*,#365,.T.);
#502=ORIENTED_EDGE('',*,*,#386,.T.);
#503=ORIENTED_EDGE('',*,*,#337,.F.);
#504=ORIENTED_EDGE('',*,*,#387,.F.);
#505=ORIENTED_EDGE('',*,*,#366,.T.);
#506=ORIENTED_EDGE('',*,*,#387,.T.);
#507=ORIENTED_EDGE('',*,*,#336,.F.);
#508=ORIENTED_EDGE('',*,*,#388,.F.);
#509=ORIENTED_EDGE('',*,*,#351,.F.);
#510=ORIENTED_EDGE('',*,*,#389,.F.);
#511=ORIENTED_EDGE('',*,*,#367,.T.);
#512=ORIENTED_EDGE('',*,*,#389,.T.);
#513=ORIENTED_EDGE('',*,*,#353,.F.);
#514=ORIENTED_EDGE('',*,*,#390,.F.);
#515=ORIENTED_EDGE('',*,*,#368,.T.);
#516=ORIENTED_EDGE('',*,*,#390,.T.);
#517=ORIENTED_EDGE('',*,*,#352,.F.);
#518=ORIENTED_EDGE('',*,*,#391,.F.);
#519=ORIENTED_EDGE('',*,*,#392,.F.);
#520=ORIENTED_EDGE('',*,*,#371,.T.);
#521=ORIENTED_EDGE('',*,*,#393,.F.);
#522=ORIENTED_EDGE('',*,*,#369,.T.);
#523=ORIENTED_EDGE('',*,*,#392,.T.);
#524=ORIENTED_EDGE('',*,*,#394,.F.);
#525=ORIENTED_EDGE('',*,*,#395,.F.);
#526=ORIENTED_EDGE('',*,*,#372,.T.);
#527=ORIENTED_EDGE('',*,*,#395,.T.);
#528=ORIENTED_EDGE('',*,*,#396,.F.);
#529=ORIENTED_EDGE('',*,*,#359,.F.);
#530=ORIENTED_EDGE('',*,*,#397,.F.);
#531=ORIENTED_EDGE('',*,*,#373,.T.);
#532=ORIENTED_EDGE('',*,*,#397,.T.);
#533=ORIENTED_EDGE('',*,*,#361,.F.);
#534=ORIENTED_EDGE('',*,*,#398,.F.);
#535=ORIENTED_EDGE('',*,*,#374,.T.);
#536=ORIENTED_EDGE('',*,*,#398,.T.);
#537=ORIENTED_EDGE('',*,*,#360,.F.);
#538=ORIENTED_EDGE('',*,*,#399,.F.);
#539=ORIENTED_EDGE('',*,*,#340,.F.);
#540=ORIENTED_EDGE('',*,*,#378,.F.);
#541=ORIENTED_EDGE('',*,*,#333,.T.);
#542=ORIENTED_EDGE('',*,*,#385,.T.);
#543=ORIENTED_EDGE('',*,*,#383,.T.);
#544=ORIENTED_EDGE('',*,*,#380,.T.);
#545=ORIENTED_EDGE('',*,*,#345,.T.);
#546=ORIENTED_EDGE('',*,*,#399,.T.);
#547=ORIENTED_EDGE('',*,*,#357,.T.);
#548=ORIENTED_EDGE('',*,*,#396,.T.);
#549=ORIENTED_EDGE('',*,*,#394,.T.);
#550=ORIENTED_EDGE('',*,*,#391,.T.);
#551=ORIENTED_EDGE('',*,*,#349,.T.);
#552=ORIENTED_EDGE('',*,*,#388,.T.);
#553=ORIENTED_EDGE('',*,*,#393,.T.);
#554=ORIENTED_EDGE('',*,*,#400,.T.);
#555=ORIENTED_EDGE('',*,*,#401,.T.);
#556=ORIENTED_EDGE('',*,*,#402,.T.);
#557=ORIENTED_EDGE('',*,*,#382,.T.);
#558=ORIENTED_EDGE('',*,*,#403,.T.);
#559=ORIENTED_EDGE('',*,*,#404,.T.);
#560=ORIENTED_EDGE('',*,*,#405,.T.);
#561=ORIENTED_EDGE('',*,*,#406,.F.);
#562=ORIENTED_EDGE('',*,*,#407,.T.);
#563=ORIENTED_EDGE('',*,*,#408,.F.);
#564=ORIENTED_EDGE('',*,*,#407,.F.);
#565=ORIENTED_EDGE('',*,*,#406,.T.);
#566=ORIENTED_EDGE('',*,*,#409,.T.);
#567=ORIENTED_EDGE('',*,*,#410,.T.);
#568=ORIENTED_EDGE('',*,*,#401,.F.);
#569=ORIENTED_EDGE('',*,*,#411,.F.);
#570=ORIENTED_EDGE('',*,*,#412,.T.);
#571=ORIENTED_EDGE('',*,*,#411,.T.);
#572=ORIENTED_EDGE('',*,*,#400,.F.);
#573=ORIENTED_EDGE('',*,*,#370,.F.);
#574=ORIENTED_EDGE('',*,*,#405,.F.);
#575=ORIENTED_EDGE('',*,*,#413,.F.);
#576=ORIENTED_EDGE('',*,*,#414,.T.);
#577=ORIENTED_EDGE('',*,*,#413,.T.);
#578=ORIENTED_EDGE('',*,*,#404,.F.);
#579=ORIENTED_EDGE('',*,*,#415,.F.);
#580=ORIENTED_EDGE('',*,*,#416,.T.);
#581=ORIENTED_EDGE('',*,*,#415,.T.);
#582=ORIENTED_EDGE('',*,*,#403,.F.);
#583=ORIENTED_EDGE('',*,*,#362,.F.);
#584=ORIENTED_EDGE('',*,*,#402,.F.);
#585=ORIENTED_EDGE('',*,*,#410,.F.);
#586=ORIENTED_EDGE('',*,*,#416,.F.);
#587=ORIENTED_EDGE('',*,*,#409,.F.);
#588=ORIENTED_EDGE('',*,*,#412,.F.);
#589=ORIENTED_EDGE('',*,*,#414,.F.);
#590=ORIENTED_EDGE('',*,*,#408,.T.);
#591=CYLINDRICAL_SURFACE('',#655,60.);
#592=CYLINDRICAL_SURFACE('',#665,60.);
#593=CYLINDRICAL_SURFACE('',#669,60.);
#594=CYLINDRICAL_SURFACE('',#676,60.);
#595=CYLINDRICAL_SURFACE('',#700,5.);
#596=ADVANCED_FACE('',(#47),#591,.T.);
#597=ADVANCED_FACE('',(#48),#16,.T.);
#598=ADVANCED_FACE('',(#49),#17,.F.);
#599=ADVANCED_FACE('',(#50),#18,.F.);
#600=ADVANCED_FACE('',(#51),#592,.T.);
#601=ADVANCED_FACE('',(#52),#19,.T.);
#602=ADVANCED_FACE('',(#53),#593,.T.);
#603=ADVANCED_FACE('',(#54),#20,.T.);
#604=ADVANCED_FACE('',(#55),#21,.F.);
#605=ADVANCED_FACE('',(#56),#594,.T.);
#606=ADVANCED_FACE('',(#57),#22,.T.);
#607=ADVANCED_FACE('',(#58),#23,.F.);
#608=ADVANCED_FACE('',(#59),#24,.F.);
#609=ADVANCED_FACE('',(#60),#25,.F.);
#610=ADVANCED_FACE('',(#61),#26,.T.);
#611=ADVANCED_FACE('',(#62),#27,.T.);
#612=ADVANCED_FACE('',(#63),#28,.T.);
#613=ADVANCED_FACE('',(#64),#29,.T.);
#614=ADVANCED_FACE('',(#65),#30,.T.);
#615=ADVANCED_FACE('',(#66),#31,.T.);
#616=ADVANCED_FACE('',(#67),#32,.T.);
#617=ADVANCED_FACE('',(#68),#33,.T.);
#618=ADVANCED_FACE('',(#69),#34,.T.);
#619=ADVANCED_FACE('',(#70),#35,.T.);
#620=ADVANCED_FACE('',(#71),#36,.T.);
#621=ADVANCED_FACE('',(#72),#37,.T.);
#622=ADVANCED_FACE('',(#73),#38,.T.);
#623=ADVANCED_FACE('',(#74),#39,.T.);
#624=ADVANCED_FACE('',(#75),#40,.T.);
#625=ADVANCED_FACE('',(#76),#595,.T.);
#626=ADVANCED_FACE('',(#77),#41,.T.);
#627=ADVANCED_FACE('',(#78),#42,.T.);
#628=ADVANCED_FACE('',(#79),#43,.T.);
#629=ADVANCED_FACE('',(#80),#44,.T.);
#630=ADVANCED_FACE('',(#81),#45,.T.);
#631=ADVANCED_FACE('',(#82,#15),#46,.F.);
#632=CLOSED_SHELL('',(#596,#597,#598,#599,#600,#601,#602,#603,#604,#605,
#606,#607,#608,#609,#610,#611,#612,#613,#614,#615,#616,#617,#618,#619,#620,
#621,#622,#623,#624,#625,#626,#627,#628,#629,#630,#631));
#633=DERIVED_UNIT_ELEMENT(#636,1.);
#634=DERIVED_UNIT_ELEMENT(#1071,-3.);
#635=DIMENSIONAL_EXPONENTS(0.,1.,0.,0.,0.,0.,0.);
#636=(
CONVERSION_BASED_UNIT('gram',#638)
MASS_UNIT()
NAMED_UNIT(#635)
);
#637=(
MASS_UNIT()
NAMED_UNIT(*)
SI_UNIT(.KILO.,.GRAM.)
);
#638=MASS_MEASURE_WITH_UNIT(MASS_MEASURE(0.001),#637);
#639=DERIVED_UNIT((#633,#634));
#640=MEASURE_REPRESENTATION_ITEM('density measure',
POSITIVE_RATIO_MEASURE(1.),#639);
#641=PROPERTY_DEFINITION_REPRESENTATION(#646,#643);
#642=PROPERTY_DEFINITION_REPRESENTATION(#647,#644);
#643=REPRESENTATION('material name',(#645),#1068);
#644=REPRESENTATION('density',(#640),#1068);
#645=DESCRIPTIVE_REPRESENTATION_ITEM('Og\X\F3lny','Og\X\F3lny');
#646=PROPERTY_DEFINITION('material property','material name',#1078);
#647=PROPERTY_DEFINITION('material property','density of part',#1078);
#648=DATE_TIME_ROLE('creation_date');
#649=APPLIED_DATE_AND_TIME_ASSIGNMENT(#650,#648,(#1078));
#650=DATE_AND_TIME(#651,#652);
#651=CALENDAR_DATE(2026,19,3);
#652=LOCAL_TIME(0,0,0.,#653);
#653=COORDINATED_UNIVERSAL_TIME_OFFSET(0,0,.BEHIND.);
#654=AXIS2_PLACEMENT_3D('',#888,#709,#710);
#655=AXIS2_PLACEMENT_3D('',#889,#711,#712);
#656=AXIS2_PLACEMENT_3D('',#891,#713,#714);
#657=AXIS2_PLACEMENT_3D('',#895,#716,#717);
#658=AXIS2_PLACEMENT_3D('',#897,#718,#719);
#659=AXIS2_PLACEMENT_3D('',#898,#720,#721);
#660=AXIS2_PLACEMENT_3D('',#899,#722,#723);
#661=AXIS2_PLACEMENT_3D('',#900,#724,#725);
#662=AXIS2_PLACEMENT_3D('',#906,#729,#730);
#663=AXIS2_PLACEMENT_3D('',#915,#734,#735);
#664=AXIS2_PLACEMENT_3D('',#916,#736,#737);
#665=AXIS2_PLACEMENT_3D('',#917,#738,#739);
#666=AXIS2_PLACEMENT_3D('',#919,#740,#741);
#667=AXIS2_PLACEMENT_3D('',#921,#743,#744);
#668=AXIS2_PLACEMENT_3D('',#922,#745,#746);
#669=AXIS2_PLACEMENT_3D('',#923,#747,#748);
#670=AXIS2_PLACEMENT_3D('',#925,#749,#750);
#671=AXIS2_PLACEMENT_3D('',#929,#752,#753);
#672=AXIS2_PLACEMENT_3D('',#931,#754,#755);
#673=AXIS2_PLACEMENT_3D('',#932,#756,#757);
#674=AXIS2_PLACEMENT_3D('',#933,#758,#759);
#675=AXIS2_PLACEMENT_3D('',#934,#760,#761);
#676=AXIS2_PLACEMENT_3D('',#940,#765,#766);
#677=AXIS2_PLACEMENT_3D('',#942,#767,#768);
#678=AXIS2_PLACEMENT_3D('',#946,#770,#771);
#679=AXIS2_PLACEMENT_3D('',#948,#772,#773);
#680=AXIS2_PLACEMENT_3D('',#949,#774,#775);
#681=AXIS2_PLACEMENT_3D('',#950,#776,#777);
#682=AXIS2_PLACEMENT_3D('',#951,#778,#779);
#683=AXIS2_PLACEMENT_3D('',#957,#783,#784);
#684=AXIS2_PLACEMENT_3D('',#974,#793,#794);
#685=AXIS2_PLACEMENT_3D('',#991,#803,#804);
#686=AXIS2_PLACEMENT_3D('',#994,#807,#808);
#687=AXIS2_PLACEMENT_3D('',#998,#811,#812);
#688=AXIS2_PLACEMENT_3D('',#1003,#816,#817);
#689=AXIS2_PLACEMENT_3D('',#1006,#820,#821);
#690=AXIS2_PLACEMENT_3D('',#1008,#823,#824);
#691=AXIS2_PLACEMENT_3D('',#1011,#827,#828);
#692=AXIS2_PLACEMENT_3D('',#1013,#830,#831);
#693=AXIS2_PLACEMENT_3D('',#1017,#834,#835);
#694=AXIS2_PLACEMENT_3D('',#1022,#839,#840);
#695=AXIS2_PLACEMENT_3D('',#1025,#843,#844);
#696=AXIS2_PLACEMENT_3D('',#1027,#846,#847);
#697=AXIS2_PLACEMENT_3D('',#1029,#849,#850);
#698=AXIS2_PLACEMENT_3D('',#1030,#851,#852);
#699=AXIS2_PLACEMENT_3D('',#1036,#856,#857);
#700=AXIS2_PLACEMENT_3D('',#1042,#861,#862);
#701=AXIS2_PLACEMENT_3D('',#1044,#863,#864);
#702=AXIS2_PLACEMENT_3D('',#1047,#866,#867);
#703=AXIS2_PLACEMENT_3D('',#1048,#868,#869);
#704=AXIS2_PLACEMENT_3D('',#1049,#870,#871);
#705=AXIS2_PLACEMENT_3D('',#1055,#875,#876);
#706=AXIS2_PLACEMENT_3D('',#1059,#879,#880);
#707=AXIS2_PLACEMENT_3D('',#1063,#883,#884);
#708=AXIS2_PLACEMENT_3D('',#1065,#886,#887);
#709=DIRECTION('axis',(0.,0.,1.));
#710=DIRECTION('refdir',(1.,0.,0.));
#711=DIRECTION('center_axis',(0.,0.,1.));
#712=DIRECTION('ref_axis',(1.,0.,0.));
#713=DIRECTION('center_axis',(0.,0.,1.));
#714=DIRECTION('ref_axis',(1.,0.,0.));
#715=DIRECTION('',(0.,0.,-1.));
#716=DIRECTION('center_axis',(0.,0.,1.));
#717=DIRECTION('ref_axis',(1.,0.,0.));
#718=DIRECTION('center_axis',(0.,0.,-1.));
#719=DIRECTION('ref_axis',(1.,0.,0.));
#720=DIRECTION('center_axis',(0.,0.,1.));
#721=DIRECTION('ref_axis',(1.,0.,0.));
#722=DIRECTION('center_axis',(0.,0.,1.));
#723=DIRECTION('ref_axis',(1.,0.,0.));
#724=DIRECTION('center_axis',(0.,0.,1.));
#725=DIRECTION('ref_axis',(1.,0.,0.));
#726=DIRECTION('',(2.03012210217171E-16,-1.,0.));
#727=DIRECTION('',(0.,1.,0.));
#728=DIRECTION('',(-1.,0.,0.));
#729=DIRECTION('center_axis',(0.,0.,1.));
#730=DIRECTION('ref_axis',(1.,0.,0.));
#731=DIRECTION('',(-2.03012210217171E-16,1.,0.));
#732=DIRECTION('',(-1.,0.,0.));
#733=DIRECTION('',(4.06024420434343E-16,-1.,0.));
#734=DIRECTION('center_axis',(0.,0.,1.));
#735=DIRECTION('ref_axis',(1.,0.,0.));
#736=DIRECTION('center_axis',(0.,0.,1.));
#737=DIRECTION('ref_axis',(1.,0.,0.));
#738=DIRECTION('center_axis',(0.,0.,1.));
#739=DIRECTION('ref_axis',(1.,0.,0.));
#740=DIRECTION('center_axis',(0.,0.,1.));
#741=DIRECTION('ref_axis',(1.,0.,0.));
#742=DIRECTION('',(0.,0.,-1.));
#743=DIRECTION('center_axis',(0.,0.,-1.));
#744=DIRECTION('ref_axis',(1.,0.,0.));
#745=DIRECTION('center_axis',(0.,0.,1.));
#746=DIRECTION('ref_axis',(1.,0.,0.));
#747=DIRECTION('center_axis',(0.,0.,1.));
#748=DIRECTION('ref_axis',(1.,0.,0.));
#749=DIRECTION('center_axis',(0.,0.,1.));
#750=DIRECTION('ref_axis',(1.,0.,0.));
#751=DIRECTION('',(0.,0.,-1.));
#752=DIRECTION('center_axis',(0.,0.,1.));
#753=DIRECTION('ref_axis',(1.,0.,0.));
#754=DIRECTION('center_axis',(0.,0.,-1.));
#755=DIRECTION('ref_axis',(1.,0.,0.));
#756=DIRECTION('center_axis',(0.,0.,1.));
#757=DIRECTION('ref_axis',(1.,0.,0.));
#758=DIRECTION('center_axis',(0.,0.,1.));
#759=DIRECTION('ref_axis',(1.,0.,0.));
#760=DIRECTION('center_axis',(0.,0.,1.));
#761=DIRECTION('ref_axis',(1.,0.,0.));
#762=DIRECTION('',(0.,1.,0.));
#763=DIRECTION('',(2.03012210217171E-16,-1.,0.));
#764=DIRECTION('',(1.,0.,0.));
#765=DIRECTION('center_axis',(0.,0.,1.));
#766=DIRECTION('ref_axis',(1.,0.,0.));
#767=DIRECTION('center_axis',(0.,0.,1.));
#768=DIRECTION('ref_axis',(1.,0.,0.));
#769=DIRECTION('',(0.,0.,-1.));
#770=DIRECTION('center_axis',(0.,0.,1.));
#771=DIRECTION('ref_axis',(1.,0.,0.));
#772=DIRECTION('center_axis',(0.,0.,-1.));
#773=DIRECTION('ref_axis',(1.,0.,0.));
#774=DIRECTION('center_axis',(0.,0.,1.));
#775=DIRECTION('ref_axis',(1.,0.,0.));
#776=DIRECTION('center_axis',(0.,0.,1.));
#777=DIRECTION('ref_axis',(1.,0.,0.));
#778=DIRECTION('center_axis',(0.,0.,1.));
#779=DIRECTION('ref_axis',(1.,0.,0.));
#780=DIRECTION('',(-2.03012210217171E-16,1.,0.));
#781=DIRECTION('',(4.06024420434343E-16,-1.,0.));
#782=DIRECTION('',(1.,0.,0.));
#783=DIRECTION('center_axis',(0.,0.,1.));
#784=DIRECTION('ref_axis',(1.,0.,0.));
#785=DIRECTION('',(-1.77635683940025E-16,1.,0.));
#786=DIRECTION('',(-1.,3.66373598126302E-16,0.));
#787=DIRECTION('',(2.03012210217171E-16,-1.,0.));
#788=DIRECTION('',(-1.,0.,0.));
#789=DIRECTION('',(0.,1.,0.));
#790=DIRECTION('',(1.,0.,0.));
#791=DIRECTION('',(2.03012210217171E-16,-1.,0.));
#792=DIRECTION('',(1.,0.,0.));
#793=DIRECTION('center_axis',(0.,0.,1.));
#794=DIRECTION('ref_axis',(1.,0.,0.));
#795=DIRECTION('',(2.66453525910038E-16,-1.,0.));
#796=DIRECTION('',(1.,0.,0.));
#797=DIRECTION('',(-2.03012210217171E-16,1.,0.));
#798=DIRECTION('',(1.,0.,0.));
#799=DIRECTION('',(4.06024420434343E-16,-1.,0.));
#800=DIRECTION('',(-1.,0.,0.));
#801=DIRECTION('',(-2.03012210217171E-16,1.,0.));
#802=DIRECTION('',(-1.,3.66373598126302E-16,0.));
#803=DIRECTION('center_axis',(0.,1.,0.));
#804=DIRECTION('ref_axis',(-1.,0.,0.));
#805=DIRECTION('',(0.,0.,1.));
#806=DIRECTION('',(0.,0.,1.));
#807=DIRECTION('center_axis',(1.,2.03012210217171E-16,0.));
#808=DIRECTION('ref_axis',(-2.03012210217171E-16,1.,0.));
#809=DIRECTION('',(-2.03012210217171E-16,1.,0.));
#810=DIRECTION('',(0.,0.,1.));
#811=DIRECTION('center_axis',(3.66373598126302E-16,1.,0.));
#812=DIRECTION('ref_axis',(-1.,3.66373598126302E-16,0.));
#813=DIRECTION('',(1.,-3.66373598126302E-16,0.));
#814=DIRECTION('',(-1.,3.66373598126302E-16,0.));
#815=DIRECTION('',(0.,0.,1.));
#816=DIRECTION('center_axis',(-1.,-2.03012210217171E-16,0.));
#817=DIRECTION('ref_axis',(2.03012210217171E-16,-1.,0.));
#818=DIRECTION('',(2.03012210217171E-16,-1.,0.));
#819=DIRECTION('',(0.,0.,1.));
#820=DIRECTION('center_axis',(0.,1.,0.));
#821=DIRECTION('ref_axis',(-1.,0.,0.));
#822=DIRECTION('',(0.,0.,1.));
#823=DIRECTION('center_axis',(1.,0.,0.));
#824=DIRECTION('ref_axis',(0.,1.,0.));
#825=DIRECTION('',(0.,1.,0.));
#826=DIRECTION('',(0.,0.,1.));
#827=DIRECTION('center_axis',(0.,-1.,0.));
#828=DIRECTION('ref_axis',(1.,0.,0.));
#829=DIRECTION('',(0.,0.,1.));
#830=DIRECTION('center_axis',(-1.,-2.03012210217171E-16,0.));
#831=DIRECTION('ref_axis',(2.03012210217171E-16,-1.,0.));
#832=DIRECTION('',(2.03012210217171E-16,-1.,0.));
#833=DIRECTION('',(0.,0.,1.));
#834=DIRECTION('center_axis',(0.,-1.,0.));
#835=DIRECTION('ref_axis',(1.,0.,0.));
#836=DIRECTION('',(-1.,0.,0.));
#837=DIRECTION('',(1.,0.,0.));
#838=DIRECTION('',(0.,0.,1.));
#839=DIRECTION('center_axis',(1.,2.03012210217171E-16,0.));
#840=DIRECTION('ref_axis',(-2.03012210217171E-16,1.,0.));
#841=DIRECTION('',(-2.03012210217171E-16,1.,0.));
#842=DIRECTION('',(0.,0.,1.));
#843=DIRECTION('center_axis',(0.,-1.,0.));
#844=DIRECTION('ref_axis',(1.,0.,0.));
#845=DIRECTION('',(0.,0.,1.));
#846=DIRECTION('center_axis',(-1.,-4.06024420434343E-16,0.));
#847=DIRECTION('ref_axis',(4.06024420434343E-16,-1.,0.));
#848=DIRECTION('',(4.06024420434343E-16,-1.,0.));
#849=DIRECTION('center_axis',(0.,0.,1.));
#850=DIRECTION('ref_axis',(1.,0.,0.));
#851=DIRECTION('center_axis',(0.,0.,1.));
#852=DIRECTION('ref_axis',(1.,0.,0.));
#853=DIRECTION('',(2.66453525910038E-16,-1.,0.));
#854=DIRECTION('',(1.,0.,0.));
#855=DIRECTION('',(-1.77635683940025E-16,1.,0.));
#856=DIRECTION('center_axis',(0.,0.,1.));
#857=DIRECTION('ref_axis',(1.,0.,0.));
#858=DIRECTION('',(-1.77635683940025E-16,1.,0.));
#859=DIRECTION('',(-1.,-8.88178419700125E-17,0.));
#860=DIRECTION('',(2.66453525910038E-16,-1.,0.));
#861=DIRECTION('center_axis',(0.,0.,-1.));
#862=DIRECTION('ref_axis',(-1.,0.,0.));
#863=DIRECTION('center_axis',(0.,0.,-1.));
#864=DIRECTION('ref_axis',(-1.,0.,0.));
#865=DIRECTION('',(0.,0.,1.));
#866=DIRECTION('center_axis',(0.,0.,1.));
#867=DIRECTION('ref_axis',(-1.,0.,0.));
#868=DIRECTION('center_axis',(0.,0.,-1.));
#869=DIRECTION('ref_axis',(-1.,0.,0.));
#870=DIRECTION('center_axis',(0.,-1.,0.));
#871=DIRECTION('ref_axis',(1.,0.,0.));
#872=DIRECTION('',(1.,0.,0.));
#873=DIRECTION('',(0.,0.,1.));
#874=DIRECTION('',(0.,0.,1.));
#875=DIRECTION('center_axis',(-1.,-2.66453525910038E-16,0.));
#876=DIRECTION('ref_axis',(2.66453525910038E-16,-1.,0.));
#877=DIRECTION('',(2.66453525910038E-16,-1.,0.));
#878=DIRECTION('',(0.,0.,1.));
#879=DIRECTION('center_axis',(-8.88178419700125E-17,1.,0.));
#880=DIRECTION('ref_axis',(-1.,-8.88178419700125E-17,0.));
#881=DIRECTION('',(-1.,-8.88178419700125E-17,0.));
#882=DIRECTION('',(0.,0.,1.));
#883=DIRECTION('center_axis',(1.,1.77635683940025E-16,0.));
#884=DIRECTION('ref_axis',(-1.77635683940025E-16,1.,0.));
#885=DIRECTION('',(-1.77635683940025E-16,1.,0.));
#886=DIRECTION('center_axis',(0.,0.,1.));
#887=DIRECTION('ref_axis',(1.,0.,0.));
#888=CARTESIAN_POINT('',(0.,0.,0.));
#889=CARTESIAN_POINT('Origin',(187.5,350.,200.));
#890=CARTESIAN_POINT('',(127.5,350.,225.));
#891=CARTESIAN_POINT('Origin',(187.5,350.,225.));
#892=CARTESIAN_POINT('',(127.5,350.,200.));
#893=CARTESIAN_POINT('',(127.5,350.,200.));
#894=CARTESIAN_POINT('',(175.,291.316527028472,200.));
#895=CARTESIAN_POINT('Origin',(187.5,350.,200.));
#896=CARTESIAN_POINT('',(200.,291.316527028472,200.));
#897=CARTESIAN_POINT('Origin',(187.5,350.,200.));
#898=CARTESIAN_POINT('Origin',(187.5,350.,200.));
#899=CARTESIAN_POINT('Origin',(187.5,350.,225.));
#900=CARTESIAN_POINT('Origin',(187.5,350.,200.));
#901=CARTESIAN_POINT('',(175.,350.,200.));
#902=CARTESIAN_POINT('',(175.,350.,200.));
#903=CARTESIAN_POINT('',(200.,350.,200.));
#904=CARTESIAN_POINT('',(200.,-350.,200.));
#905=CARTESIAN_POINT('',(200.,350.,200.));
#906=CARTESIAN_POINT('Origin',(-187.5,350.,200.));
#907=CARTESIAN_POINT('',(-175.,291.316527028472,200.));
#908=CARTESIAN_POINT('',(-175.,350.,200.));
#909=CARTESIAN_POINT('',(-175.,-350.,200.));
#910=CARTESIAN_POINT('',(-200.,350.,200.));
#911=CARTESIAN_POINT('',(-175.,350.,200.));
#912=CARTESIAN_POINT('',(-200.,291.316527028473,200.));
#913=CARTESIAN_POINT('',(-200.,350.,200.));
#914=CARTESIAN_POINT('',(-247.5,350.,200.));
#915=CARTESIAN_POINT('Origin',(-187.5,350.,200.));
#916=CARTESIAN_POINT('Origin',(-187.5,350.,200.));
#917=CARTESIAN_POINT('Origin',(-187.5,350.,200.));
#918=CARTESIAN_POINT('',(-247.5,350.,225.));
#919=CARTESIAN_POINT('Origin',(-187.5,350.,225.));
#920=CARTESIAN_POINT('',(-247.5,350.,200.));
#921=CARTESIAN_POINT('Origin',(-187.5,350.,200.));
#922=CARTESIAN_POINT('Origin',(-187.5,350.,225.));
#923=CARTESIAN_POINT('Origin',(187.5,-350.,200.));
#924=CARTESIAN_POINT('',(127.5,-350.,225.));
#925=CARTESIAN_POINT('Origin',(187.5,-350.,225.));
#926=CARTESIAN_POINT('',(127.5,-350.,200.));
#927=CARTESIAN_POINT('',(127.5,-350.,200.));
#928=CARTESIAN_POINT('',(200.,-291.316527028472,200.));
#929=CARTESIAN_POINT('Origin',(187.5,-350.,200.));
#930=CARTESIAN_POINT('',(175.,-291.316527028472,200.));
#931=CARTESIAN_POINT('Origin',(187.5,-350.,200.));
#932=CARTESIAN_POINT('Origin',(187.5,-350.,200.));
#933=CARTESIAN_POINT('Origin',(187.5,-350.,225.));
#934=CARTESIAN_POINT('Origin',(187.5,-350.,200.));
#935=CARTESIAN_POINT('',(200.,-350.,200.));
#936=CARTESIAN_POINT('',(200.,-350.,200.));
#937=CARTESIAN_POINT('',(175.,-350.,200.));
#938=CARTESIAN_POINT('',(175.,350.,200.));
#939=CARTESIAN_POINT('',(175.,-350.,200.));
#940=CARTESIAN_POINT('Origin',(-187.5,-350.,200.));
#941=CARTESIAN_POINT('',(-247.5,-350.,225.));
#942=CARTESIAN_POINT('Origin',(-187.5,-350.,225.));
#943=CARTESIAN_POINT('',(-247.5,-350.,200.));
#944=CARTESIAN_POINT('',(-247.5,-350.,200.));
#945=CARTESIAN_POINT('',(-175.,-291.316527028472,200.));
#946=CARTESIAN_POINT('Origin',(-187.5,-350.,200.));
#947=CARTESIAN_POINT('',(-200.,-291.316527028472,200.));
#948=CARTESIAN_POINT('Origin',(-187.5,-350.,200.));
#949=CARTESIAN_POINT('Origin',(-187.5,-350.,200.));
#950=CARTESIAN_POINT('Origin',(-187.5,-350.,225.));
#951=CARTESIAN_POINT('Origin',(-187.5,-350.,200.));
#952=CARTESIAN_POINT('',(-175.,-350.,200.));
#953=CARTESIAN_POINT('',(-175.,-350.,200.));
#954=CARTESIAN_POINT('',(-200.,-350.,200.));
#955=CARTESIAN_POINT('',(-200.,350.,200.));
#956=CARTESIAN_POINT('',(-200.,-350.,200.));
#957=CARTESIAN_POINT('Origin',(-7.105427357601E-14,3.5527136788005E-14,
150.));
#958=CARTESIAN_POINT('',(25.,-12.5,150.));
#959=CARTESIAN_POINT('',(25.,12.5,150.));
#960=CARTESIAN_POINT('',(25.,-25.,150.));
#961=CARTESIAN_POINT('',(175.,12.4999999999999,150.));
#962=CARTESIAN_POINT('',(200.,12.4999999999999,150.));
#963=CARTESIAN_POINT('',(175.,350.,150.));
#964=CARTESIAN_POINT('',(175.,350.,150.));
#965=CARTESIAN_POINT('',(200.,350.,150.));
#966=CARTESIAN_POINT('',(200.,350.,150.));
#967=CARTESIAN_POINT('',(200.,-350.,150.));
#968=CARTESIAN_POINT('',(200.,-350.,150.));
#969=CARTESIAN_POINT('',(175.,-350.,150.));
#970=CARTESIAN_POINT('',(175.,-350.,150.));
#971=CARTESIAN_POINT('',(175.,-12.4999999999998,150.));
#972=CARTESIAN_POINT('',(175.,350.,150.));
#973=CARTESIAN_POINT('',(-200.,-12.5,150.));
#974=CARTESIAN_POINT('Origin',(-7.105427357601E-14,3.5527136788005E-14,
150.));
#975=CARTESIAN_POINT('',(-25.,12.5,150.));
#976=CARTESIAN_POINT('',(-25.,-12.5,150.));
#977=CARTESIAN_POINT('',(-25.,25.,150.));
#978=CARTESIAN_POINT('',(-175.,-12.5,150.));
#979=CARTESIAN_POINT('',(-200.,-12.5,150.));
#980=CARTESIAN_POINT('',(-175.,-350.,150.));
#981=CARTESIAN_POINT('',(-175.,-350.,150.));
#982=CARTESIAN_POINT('',(-200.,-350.,150.));
#983=CARTESIAN_POINT('',(-200.,-350.,150.));
#984=CARTESIAN_POINT('',(-200.,350.,150.));
#985=CARTESIAN_POINT('',(-200.,350.,150.));
#986=CARTESIAN_POINT('',(-175.,350.,150.));
#987=CARTESIAN_POINT('',(-175.,350.,150.));
#988=CARTESIAN_POINT('',(-175.,12.4999999999999,150.));
#989=CARTESIAN_POINT('',(-175.,-350.,150.));
#990=CARTESIAN_POINT('',(200.,12.4999999999999,150.));
#991=CARTESIAN_POINT('Origin',(-175.,350.,150.));
#992=CARTESIAN_POINT('',(-200.,350.,150.));
#993=CARTESIAN_POINT('',(-175.,350.,150.));
#994=CARTESIAN_POINT('Origin',(-175.,12.4999999999999,150.));
#995=CARTESIAN_POINT('',(-175.,12.4999999999999,200.));
#996=CARTESIAN_POINT('',(-175.,-350.,200.));
#997=CARTESIAN_POINT('',(-175.,12.4999999999999,150.));
#998=CARTESIAN_POINT('Origin',(175.,12.4999999999999,150.));
#999=CARTESIAN_POINT('',(87.5000000000001,12.5,150.));
#1000=CARTESIAN_POINT('',(175.,12.4999999999999,200.));
#1001=CARTESIAN_POINT('',(200.,12.4999999999999,200.));
#1002=CARTESIAN_POINT('',(175.,12.4999999999999,150.));
#1003=CARTESIAN_POINT('Origin',(175.,350.,150.));
#1004=CARTESIAN_POINT('',(175.,350.,200.));
#1005=CARTESIAN_POINT('',(175.,350.,150.));
#1006=CARTESIAN_POINT('Origin',(200.,350.,150.));
#1007=CARTESIAN_POINT('',(200.,350.,150.));
#1008=CARTESIAN_POINT('Origin',(200.,-350.,150.));
#1009=CARTESIAN_POINT('',(200.,-350.,200.));
#1010=CARTESIAN_POINT('',(200.,-350.,150.));
#1011=CARTESIAN_POINT('Origin',(175.,-350.,150.));
#1012=CARTESIAN_POINT('',(175.,-350.,150.));
#1013=CARTESIAN_POINT('Origin',(175.,-12.4999999999998,150.));
#1014=CARTESIAN_POINT('',(175.,-12.4999999999998,200.));
#1015=CARTESIAN_POINT('',(175.,350.,200.));
#1016=CARTESIAN_POINT('',(175.,-12.4999999999998,150.));
#1017=CARTESIAN_POINT('Origin',(-175.,-12.5,150.));
#1018=CARTESIAN_POINT('',(-87.5000000000001,-12.5,150.));
#1019=CARTESIAN_POINT('',(-175.,-12.5,200.));
#1020=CARTESIAN_POINT('',(-200.,-12.5,200.));
#1021=CARTESIAN_POINT('',(-175.,-12.5,150.));
#1022=CARTESIAN_POINT('Origin',(-175.,-350.,150.));
#1023=CARTESIAN_POINT('',(-175.,-350.,200.));
#1024=CARTESIAN_POINT('',(-175.,-350.,150.));
#1025=CARTESIAN_POINT('Origin',(-200.,-350.,150.));
#1026=CARTESIAN_POINT('',(-200.,-350.,150.));
#1027=CARTESIAN_POINT('Origin',(-200.,350.,150.));
#1028=CARTESIAN_POINT('',(-200.,350.,200.));
#1029=CARTESIAN_POINT('Origin',(-7.105427357601E-14,0.,200.));
#1030=CARTESIAN_POINT('Origin',(0.,-8.88178419700125E-15,150.));
#1031=CARTESIAN_POINT('',(-25.,-25.,150.));
#1032=CARTESIAN_POINT('',(-25.,25.,150.));
#1033=CARTESIAN_POINT('',(25.,-25.,150.));
#1034=CARTESIAN_POINT('',(-25.,-25.,150.));
#1035=CARTESIAN_POINT('',(25.,-25.,150.));
#1036=CARTESIAN_POINT('Origin',(0.,-8.88178419700125E-15,150.));
#1037=CARTESIAN_POINT('',(25.,25.,150.));
#1038=CARTESIAN_POINT('',(25.,-25.,150.));
#1039=CARTESIAN_POINT('',(-25.,25.,150.));
#1040=CARTESIAN_POINT('',(25.,25.,150.));
#1041=CARTESIAN_POINT('',(-25.,25.,150.));
#1042=CARTESIAN_POINT('Origin',(0.,0.,0.));
#1043=CARTESIAN_POINT('',(5.,-6.12323399573677E-16,-10.));
#1044=CARTESIAN_POINT('Origin',(0.,0.,-10.));
#1045=CARTESIAN_POINT('',(5.,-6.12323399573677E-16,0.));
#1046=CARTESIAN_POINT('',(5.,-6.12323399573677E-16,0.));
#1047=CARTESIAN_POINT('Origin',(0.,0.,0.));
#1048=CARTESIAN_POINT('Origin',(0.,0.,-10.));
#1049=CARTESIAN_POINT('Origin',(-25.,-25.,0.));
#1050=CARTESIAN_POINT('',(-25.,-25.,0.));
#1051=CARTESIAN_POINT('',(25.,-25.,0.));
#1052=CARTESIAN_POINT('',(-25.,-25.,0.));
#1053=CARTESIAN_POINT('',(25.,-25.,0.));
#1054=CARTESIAN_POINT('',(-25.,-25.,0.));
#1055=CARTESIAN_POINT('Origin',(-25.,25.,0.));
#1056=CARTESIAN_POINT('',(-25.,25.,0.));
#1057=CARTESIAN_POINT('',(-25.,25.,0.));
#1058=CARTESIAN_POINT('',(-25.,25.,0.));
#1059=CARTESIAN_POINT('Origin',(25.,25.,0.));
#1060=CARTESIAN_POINT('',(25.,25.,0.));
#1061=CARTESIAN_POINT('',(25.,25.,0.));
#1062=CARTESIAN_POINT('',(25.,25.,0.));
#1063=CARTESIAN_POINT('Origin',(25.,-25.,0.));
#1064=CARTESIAN_POINT('',(25.,-25.,0.));
#1065=CARTESIAN_POINT('Origin',(-2.22044604925031E-15,-6.66133814775094E-15,
0.));
#1066=UNCERTAINTY_MEASURE_WITH_UNIT(LENGTH_MEASURE(0.01),#1070,
'DISTANCE_ACCURACY_VALUE',
'Maximum model space distance between geometric entities at asserted c
onnectivities');
#1067=UNCERTAINTY_MEASURE_WITH_UNIT(LENGTH_MEASURE(0.01),#1070,
'DISTANCE_ACCURACY_VALUE',
'Maximum model space distance between geometric entities at asserted c
onnectivities');
#1068=(
GEOMETRIC_REPRESENTATION_CONTEXT(3)
GLOBAL_UNCERTAINTY_ASSIGNED_CONTEXT((#1066))
GLOBAL_UNIT_ASSIGNED_CONTEXT((#1070,#1072,#1073))
REPRESENTATION_CONTEXT('','3D')
);
#1069=(
GEOMETRIC_REPRESENTATION_CONTEXT(3)
GLOBAL_UNCERTAINTY_ASSIGNED_CONTEXT((#1067))
GLOBAL_UNIT_ASSIGNED_CONTEXT((#1070,#1072,#1073))
REPRESENTATION_CONTEXT('','3D')
);
#1070=(
LENGTH_UNIT()
NAMED_UNIT(*)
SI_UNIT(.MILLI.,.METRE.)
);
#1071=(
LENGTH_UNIT()
NAMED_UNIT(*)
SI_UNIT(.CENTI.,.METRE.)
);
#1072=(
NAMED_UNIT(*)
PLANE_ANGLE_UNIT()
SI_UNIT($,.RADIAN.)
);
#1073=(
NAMED_UNIT(*)
SI_UNIT($,.STERADIAN.)
SOLID_ANGLE_UNIT()
);
#1074=SHAPE_DEFINITION_REPRESENTATION(#1075,#1076);
#1075=PRODUCT_DEFINITION_SHAPE('',$,#1078);
#1076=SHAPE_REPRESENTATION('',(#654),#1068);
#1077=PRODUCT_DEFINITION_CONTEXT('part definition',#1082,'design');
#1078=PRODUCT_DEFINITION('LINK 6','link6',#1079,#1077);
#1079=PRODUCT_DEFINITION_FORMATION('',$,#1084);
#1080=PRODUCT_RELATED_PRODUCT_CATEGORY('link6','link6',(#1084));
#1081=APPLICATION_PROTOCOL_DEFINITION('international standard',
'automotive_design',2009,#1082);
#1082=APPLICATION_CONTEXT(
'Core Data for Automotive Mechanical Design Process');
#1083=PRODUCT_CONTEXT('part definition',#1082,'mechanical');
#1084=PRODUCT('LINK 6','link6',$,(#1083));
#1085=PRESENTATION_STYLE_ASSIGNMENT((#1086));
#1086=SURFACE_STYLE_USAGE(.BOTH.,#1089);
#1087=SURFACE_STYLE_RENDERING_WITH_PROPERTIES($,#1093,(#1088));
#1088=SURFACE_STYLE_TRANSPARENT(0.);
#1089=SURFACE_SIDE_STYLE('',(#1090,#1087));
#1090=SURFACE_STYLE_FILL_AREA(#1091);
#1091=FILL_AREA_STYLE('',(#1092));
#1092=FILL_AREA_STYLE_COLOUR('',#1093);
#1093=COLOUR_RGB('',0.749019607843137,0.749019607843137,0.749019607843137);
ENDSEC;
END-ISO-10303-21;
