ISO-10303-21;
HEADER;
/* Generated by software containing ST-Developer
 * from STEP Tools, Inc. (www.steptools.com) 
 */

FILE_DESCRIPTION(
/* description */ (''),
/* implementation_level */ '2;1');

FILE_NAME(
/* name */ 'link2_fixed.stp',
/* time_stamp */ '2026-05-06T15:51:28+02:00',
/* author */ ('panze'),
/* organization */ (''),
/* preprocessor_version */ 'ST-DEVELOPER v20.1',
/* originating_system */ 'Autodesk Inventor 2026',
/* authorisation */ '');

FILE_SCHEMA (('AUTOMOTIVE_DESIGN { 1 0 10303 214 3 1 1 }'));
ENDSEC;

DATA;
#10=MECHANICAL_DESIGN_GEOMETRIC_PRESENTATION_REPRESENTATION('',(#13),#340);
#11=SHAPE_REPRESENTATION_RELATIONSHIP('SRR','None',#347,#12);
#12=ADVANCED_BREP_SHAPE_REPRESENTATION('',(#14),#339);
#13=STYLED_ITEM('',(#356),#14);
#14=MANIFOLD_SOLID_BREP('Bry\X2\0142\X0\a1',#191);
#15=CYLINDRICAL_SURFACE('',#222,5.);
#16=CYLINDRICAL_SURFACE('',#224,5.);
#17=CYLINDRICAL_SURFACE('',#226,75.);
#18=CYLINDRICAL_SURFACE('',#228,75.);
#19=FACE_BOUND('',#43,.T.);
#20=FACE_BOUND('',#45,.T.);
#21=FACE_BOUND('',#53,.T.);
#22=FACE_BOUND('',#54,.T.);
#23=CIRCLE('',#216,75.);
#24=CIRCLE('',#217,5.);
#25=CIRCLE('',#219,75.);
#26=CIRCLE('',#220,5.);
#27=CIRCLE('',#223,5.);
#28=CIRCLE('',#225,5.);
#29=CIRCLE('',#227,75.);
#30=CIRCLE('',#229,75.);
#31=FACE_OUTER_BOUND('',#41,.T.);
#32=FACE_OUTER_BOUND('',#42,.T.);
#33=FACE_OUTER_BOUND('',#44,.T.);
#34=FACE_OUTER_BOUND('',#46,.T.);
#35=FACE_OUTER_BOUND('',#47,.T.);
#36=FACE_OUTER_BOUND('',#48,.T.);
#37=FACE_OUTER_BOUND('',#49,.T.);
#38=FACE_OUTER_BOUND('',#50,.T.);
#39=FACE_OUTER_BOUND('',#51,.T.);
#40=FACE_OUTER_BOUND('',#52,.T.);
#41=EDGE_LOOP('',(#127,#128,#129,#130));
#42=EDGE_LOOP('',(#131,#132,#133,#134));
#43=EDGE_LOOP('',(#135));
#44=EDGE_LOOP('',(#136,#137,#138,#139));
#45=EDGE_LOOP('',(#140));
#46=EDGE_LOOP('',(#141,#142,#143,#144,#145,#146));
#47=EDGE_LOOP('',(#147,#148,#149,#150));
#48=EDGE_LOOP('',(#151,#152,#153,#154));
#49=EDGE_LOOP('',(#155,#156,#157,#158));
#50=EDGE_LOOP('',(#159,#160,#161,#162));
#51=EDGE_LOOP('',(#163,#164,#165,#166,#167,#168));
#52=EDGE_LOOP('',(#169,#170,#171,#172));
#53=EDGE_LOOP('',(#173));
#54=EDGE_LOOP('',(#174));
#55=LINE('',#290,#71);
#56=LINE('',#292,#72);
#57=LINE('',#294,#73);
#58=LINE('',#295,#74);
#59=LINE('',#300,#75);
#60=LINE('',#301,#76);
#61=LINE('',#306,#77);
#62=LINE('',#309,#78);
#63=LINE('',#314,#79);
#64=LINE('',#316,#80);
#65=LINE('',#317,#81);
#66=LINE('',#320,#82);
#67=LINE('',#324,#83);
#68=LINE('',#328,#84);
#69=LINE('',#333,#85);
#70=LINE('',#335,#86);
#71=VECTOR('',#236,10.);
#72=VECTOR('',#237,10.);
#73=VECTOR('',#238,10.);
#74=VECTOR('',#239,10.);
#75=VECTOR('',#244,10.);
#76=VECTOR('',#245,10.);
#77=VECTOR('',#250,10.);
#78=VECTOR('',#253,10.);
#79=VECTOR('',#258,10.);
#80=VECTOR('',#259,10.);
#81=VECTOR('',#260,10.);
#82=VECTOR('',#263,5.);
#83=VECTOR('',#268,5.);
#84=VECTOR('',#273,10.);
#85=VECTOR('',#280,10.);
#86=VECTOR('',#283,10.);
#87=VERTEX_POINT('',#288);
#88=VERTEX_POINT('',#289);
#89=VERTEX_POINT('',#291);
#90=VERTEX_POINT('',#293);
#91=VERTEX_POINT('',#297);
#92=VERTEX_POINT('',#298);
#93=VERTEX_POINT('',#302);
#94=VERTEX_POINT('',#305);
#95=VERTEX_POINT('',#307);
#96=VERTEX_POINT('',#310);
#97=VERTEX_POINT('',#313);
#98=VERTEX_POINT('',#315);
#99=VERTEX_POINT('',#319);
#100=VERTEX_POINT('',#323);
#101=VERTEX_POINT('',#327);
#102=VERTEX_POINT('',#331);
#103=EDGE_CURVE('',#87,#88,#55,.T.);
#104=EDGE_CURVE('',#87,#89,#56,.T.);
#105=EDGE_CURVE('',#90,#89,#57,.T.);
#106=EDGE_CURVE('',#88,#90,#58,.T.);
#107=EDGE_CURVE('',#91,#92,#23,.T.);
#108=EDGE_CURVE('',#92,#90,#59,.T.);
#109=EDGE_CURVE('',#89,#91,#60,.T.);
#110=EDGE_CURVE('',#93,#93,#24,.T.);
#111=EDGE_CURVE('',#94,#88,#61,.T.);
#112=EDGE_CURVE('',#95,#94,#25,.T.);
#113=EDGE_CURVE('',#87,#95,#62,.T.);
#114=EDGE_CURVE('',#96,#96,#26,.T.);
#115=EDGE_CURVE('',#97,#92,#63,.T.);
#116=EDGE_CURVE('',#98,#97,#64,.T.);
#117=EDGE_CURVE('',#94,#98,#65,.T.);
#118=EDGE_CURVE('',#93,#99,#66,.T.);
#119=EDGE_CURVE('',#99,#99,#27,.T.);
#120=EDGE_CURVE('',#96,#100,#67,.T.);
#121=EDGE_CURVE('',#100,#100,#28,.T.);
#122=EDGE_CURVE('',#91,#101,#68,.T.);
#123=EDGE_CURVE('',#97,#101,#29,.T.);
#124=EDGE_CURVE('',#102,#98,#30,.T.);
#125=EDGE_CURVE('',#95,#102,#69,.T.);
#126=EDGE_CURVE('',#101,#102,#70,.T.);
#127=ORIENTED_EDGE('',*,*,#103,.F.);
#128=ORIENTED_EDGE('',*,*,#104,.T.);
#129=ORIENTED_EDGE('',*,*,#105,.F.);
#130=ORIENTED_EDGE('',*,*,#106,.F.);
#131=ORIENTED_EDGE('',*,*,#107,.T.);
#132=ORIENTED_EDGE('',*,*,#108,.T.);
#133=ORIENTED_EDGE('',*,*,#105,.T.);
#134=ORIENTED_EDGE('',*,*,#109,.T.);
#135=ORIENTED_EDGE('',*,*,#110,.T.);
#136=ORIENTED_EDGE('',*,*,#103,.T.);
#137=ORIENTED_EDGE('',*,*,#111,.F.);
#138=ORIENTED_EDGE('',*,*,#112,.F.);
#139=ORIENTED_EDGE('',*,*,#113,.F.);
#140=ORIENTED_EDGE('',*,*,#114,.F.);
#141=ORIENTED_EDGE('',*,*,#115,.F.);
#142=ORIENTED_EDGE('',*,*,#116,.F.);
#143=ORIENTED_EDGE('',*,*,#117,.F.);
#144=ORIENTED_EDGE('',*,*,#111,.T.);
#145=ORIENTED_EDGE('',*,*,#106,.T.);
#146=ORIENTED_EDGE('',*,*,#108,.F.);
#147=ORIENTED_EDGE('',*,*,#110,.F.);
#148=ORIENTED_EDGE('',*,*,#118,.T.);
#149=ORIENTED_EDGE('',*,*,#119,.F.);
#150=ORIENTED_EDGE('',*,*,#118,.F.);
#151=ORIENTED_EDGE('',*,*,#114,.T.);
#152=ORIENTED_EDGE('',*,*,#120,.T.);
#153=ORIENTED_EDGE('',*,*,#121,.F.);
#154=ORIENTED_EDGE('',*,*,#120,.F.);
#155=ORIENTED_EDGE('',*,*,#122,.T.);
#156=ORIENTED_EDGE('',*,*,#123,.F.);
#157=ORIENTED_EDGE('',*,*,#115,.T.);
#158=ORIENTED_EDGE('',*,*,#107,.F.);
#159=ORIENTED_EDGE('',*,*,#112,.T.);
#160=ORIENTED_EDGE('',*,*,#117,.T.);
#161=ORIENTED_EDGE('',*,*,#124,.F.);
#162=ORIENTED_EDGE('',*,*,#125,.F.);
#163=ORIENTED_EDGE('',*,*,#113,.T.);
#164=ORIENTED_EDGE('',*,*,#125,.T.);
#165=ORIENTED_EDGE('',*,*,#126,.F.);
#166=ORIENTED_EDGE('',*,*,#122,.F.);
#167=ORIENTED_EDGE('',*,*,#109,.F.);
#168=ORIENTED_EDGE('',*,*,#104,.F.);
#169=ORIENTED_EDGE('',*,*,#126,.T.);
#170=ORIENTED_EDGE('',*,*,#124,.T.);
#171=ORIENTED_EDGE('',*,*,#116,.T.);
#172=ORIENTED_EDGE('',*,*,#123,.T.);
#173=ORIENTED_EDGE('',*,*,#121,.T.);
#174=ORIENTED_EDGE('',*,*,#119,.T.);
#175=PLANE('',#214);
#176=PLANE('',#215);
#177=PLANE('',#218);
#178=PLANE('',#221);
#179=PLANE('',#230);
#180=PLANE('',#231);
#181=ADVANCED_FACE('',(#31),#175,.T.);
#182=ADVANCED_FACE('',(#32,#19),#176,.T.);
#183=ADVANCED_FACE('',(#33,#20),#177,.F.);
#184=ADVANCED_FACE('',(#34),#178,.T.);
#185=ADVANCED_FACE('',(#35),#15,.F.);
#186=ADVANCED_FACE('',(#36),#16,.F.);
#187=ADVANCED_FACE('',(#37),#17,.T.);
#188=ADVANCED_FACE('',(#38),#18,.T.);
#189=ADVANCED_FACE('',(#39),#179,.T.);
#190=ADVANCED_FACE('',(#40,#21,#22),#180,.T.);
#191=CLOSED_SHELL('',(#181,#182,#183,#184,#185,#186,#187,#188,#189,#190));
#192=DERIVED_UNIT_ELEMENT(#195,1.);
#193=DERIVED_UNIT_ELEMENT(#342,-3.);
#194=DIMENSIONAL_EXPONENTS(0.,1.,0.,0.,0.,0.,0.);
#195=(
CONVERSION_BASED_UNIT('gram',#197)
MASS_UNIT()
NAMED_UNIT(#194)
);
#196=(
MASS_UNIT()
NAMED_UNIT(*)
SI_UNIT(.KILO.,.GRAM.)
);
#197=MASS_MEASURE_WITH_UNIT(MASS_MEASURE(0.001),#196);
#198=DERIVED_UNIT((#192,#193));
#199=MEASURE_REPRESENTATION_ITEM('density measure',
POSITIVE_RATIO_MEASURE(1.),#198);
#200=PROPERTY_DEFINITION_REPRESENTATION(#205,#202);
#201=PROPERTY_DEFINITION_REPRESENTATION(#206,#203);
#202=REPRESENTATION('material name',(#204),#339);
#203=REPRESENTATION('density',(#199),#339);
#204=DESCRIPTIVE_REPRESENTATION_ITEM('Generic','Generic');
#205=PROPERTY_DEFINITION('material property','material name',#349);
#206=PROPERTY_DEFINITION('material property','density of part',#349);
#207=DATE_TIME_ROLE('creation_date');
#208=APPLIED_DATE_AND_TIME_ASSIGNMENT(#209,#207,(#349));
#209=DATE_AND_TIME(#210,#211);
#210=CALENDAR_DATE(2026,6,5);
#211=LOCAL_TIME(15,28,0.,#212);
#212=COORDINATED_UNIVERSAL_TIME_OFFSET(0,0,.BEHIND.);
#213=AXIS2_PLACEMENT_3D('',#286,#232,#233);
#214=AXIS2_PLACEMENT_3D('',#287,#234,#235);
#215=AXIS2_PLACEMENT_3D('',#296,#240,#241);
#216=AXIS2_PLACEMENT_3D('',#299,#242,#243);
#217=AXIS2_PLACEMENT_3D('',#303,#246,#247);
#218=AXIS2_PLACEMENT_3D('',#304,#248,#249);
#219=AXIS2_PLACEMENT_3D('',#308,#251,#252);
#220=AXIS2_PLACEMENT_3D('',#311,#254,#255);
#221=AXIS2_PLACEMENT_3D('',#312,#256,#257);
#222=AXIS2_PLACEMENT_3D('',#318,#261,#262);
#223=AXIS2_PLACEMENT_3D('',#321,#264,#265);
#224=AXIS2_PLACEMENT_3D('',#322,#266,#267);
#225=AXIS2_PLACEMENT_3D('',#325,#269,#270);
#226=AXIS2_PLACEMENT_3D('',#326,#271,#272);
#227=AXIS2_PLACEMENT_3D('',#329,#274,#275);
#228=AXIS2_PLACEMENT_3D('',#330,#276,#277);
#229=AXIS2_PLACEMENT_3D('',#332,#278,#279);
#230=AXIS2_PLACEMENT_3D('',#334,#281,#282);
#231=AXIS2_PLACEMENT_3D('',#336,#284,#285);
#232=DIRECTION('axis',(0.,0.,1.));
#233=DIRECTION('refdir',(1.,0.,0.));
#234=DIRECTION('center_axis',(0.,-1.,0.));
#235=DIRECTION('ref_axis',(-1.,0.,0.));
#236=DIRECTION('',(1.,0.,0.));
#237=DIRECTION('',(0.,0.,-1.));
#238=DIRECTION('',(-1.,0.,0.));
#239=DIRECTION('',(0.,0.,-1.));
#240=DIRECTION('center_axis',(0.,-8.88178419700125E-17,-1.));
#241=DIRECTION('ref_axis',(-1.,0.,0.));
#242=DIRECTION('center_axis',(0.,-8.88178419700125E-17,-1.));
#243=DIRECTION('ref_axis',(-1.,0.,0.));
#244=DIRECTION('',(0.,-1.,8.88178419700125E-17));
#245=DIRECTION('',(0.,1.,-8.88178419700125E-17));
#246=DIRECTION('center_axis',(0.,8.88178419700125E-17,1.));
#247=DIRECTION('ref_axis',(1.,0.,0.));
#248=DIRECTION('center_axis',(0.,0.,1.));
#249=DIRECTION('ref_axis',(1.,0.,0.));
#250=DIRECTION('',(5.46571335200077E-17,1.,0.));
#251=DIRECTION('center_axis',(0.,0.,1.));
#252=DIRECTION('ref_axis',(-1.,0.,0.));
#253=DIRECTION('',(6.83214169000096E-18,-1.,0.));
#254=DIRECTION('center_axis',(0.,0.,-1.));
#255=DIRECTION('ref_axis',(-1.,0.,0.));
#256=DIRECTION('center_axis',(1.,-5.46571335200077E-17,0.));
#257=DIRECTION('ref_axis',(5.46571335200077E-17,1.,0.));
#258=DIRECTION('',(0.,0.,-1.));
#259=DIRECTION('',(5.46571335200077E-17,1.,0.));
#260=DIRECTION('',(0.,0.,1.));
#261=DIRECTION('center_axis',(0.,0.,1.));
#262=DIRECTION('ref_axis',(-1.,0.,0.));
#263=DIRECTION('',(0.,0.,1.));
#264=DIRECTION('center_axis',(0.,0.,-1.));
#265=DIRECTION('ref_axis',(-1.,0.,0.));
#266=DIRECTION('center_axis',(0.,0.,1.));
#267=DIRECTION('ref_axis',(-1.,0.,0.));
#268=DIRECTION('',(0.,0.,1.));
#269=DIRECTION('center_axis',(0.,0.,-1.));
#270=DIRECTION('ref_axis',(-1.,0.,0.));
#271=DIRECTION('center_axis',(0.,0.,1.));
#272=DIRECTION('ref_axis',(1.,0.,0.));
#273=DIRECTION('',(0.,0.,1.));
#274=DIRECTION('center_axis',(0.,0.,1.));
#275=DIRECTION('ref_axis',(1.,0.,0.));
#276=DIRECTION('center_axis',(0.,0.,1.));
#277=DIRECTION('ref_axis',(-1.,0.,0.));
#278=DIRECTION('center_axis',(0.,0.,1.));
#279=DIRECTION('ref_axis',(-1.,0.,0.));
#280=DIRECTION('',(0.,0.,1.));
#281=DIRECTION('center_axis',(-1.,-6.83214169000096E-18,0.));
#282=DIRECTION('ref_axis',(6.83214169000096E-18,-1.,0.));
#283=DIRECTION('',(6.83214169000096E-18,-1.,0.));
#284=DIRECTION('center_axis',(0.,0.,1.));
#285=DIRECTION('ref_axis',(1.,0.,0.));
#286=CARTESIAN_POINT('',(0.,0.,0.));
#287=CARTESIAN_POINT('Origin',(75.,1100.,50.));
#288=CARTESIAN_POINT('',(-75.,1100.,3.5527136788005E-14));
#289=CARTESIAN_POINT('',(75.,1100.,3.5527136788005E-14));
#290=CARTESIAN_POINT('',(-37.5,1100.,0.));
#291=CARTESIAN_POINT('',(-75.,1100.,-50.));
#292=CARTESIAN_POINT('',(-75.,1100.,50.));
#293=CARTESIAN_POINT('',(75.,1100.,-50.));
#294=CARTESIAN_POINT('',(75.,1100.,-50.));
#295=CARTESIAN_POINT('',(75.,1100.,50.));
#296=CARTESIAN_POINT('Origin',(0.,1200.,-50.));
#297=CARTESIAN_POINT('',(-75.,1225.,-50.));
#298=CARTESIAN_POINT('',(75.,1225.,-50.));
#299=CARTESIAN_POINT('Origin',(8.88178419700125E-15,1225.,-50.));
#300=CARTESIAN_POINT('',(75.,1225.,-50.));
#301=CARTESIAN_POINT('',(-75.,1100.,-50.));
#302=CARTESIAN_POINT('',(5.00000000000001,1225.,-50.));
#303=CARTESIAN_POINT('Origin',(8.88178419700125E-15,1225.,-50.));
#304=CARTESIAN_POINT('Origin',(1.77635683940025E-14,575.,0.));
#305=CARTESIAN_POINT('',(75.,-75.,0.));
#306=CARTESIAN_POINT('',(75.,-75.,0.));
#307=CARTESIAN_POINT('',(-75.,-75.,0.));
#308=CARTESIAN_POINT('Origin',(0.,-75.,0.));
#309=CARTESIAN_POINT('',(-75.,1225.,0.));
#310=CARTESIAN_POINT('',(5.,-75.,0.));
#311=CARTESIAN_POINT('Origin',(0.,-75.,0.));
#312=CARTESIAN_POINT('Origin',(75.,-75.,0.));
#313=CARTESIAN_POINT('',(75.,1225.,150.));
#314=CARTESIAN_POINT('',(75.,1225.,50.));
#315=CARTESIAN_POINT('',(75.,-75.,150.));
#316=CARTESIAN_POINT('',(75.,-75.,150.));
#317=CARTESIAN_POINT('',(75.,-75.,0.));
#318=CARTESIAN_POINT('Origin',(8.88178419700125E-15,1225.,0.));
#319=CARTESIAN_POINT('',(5.00000000000001,1225.,150.));
#320=CARTESIAN_POINT('',(5.00000000000001,1225.,0.));
#321=CARTESIAN_POINT('Origin',(8.88178419700125E-15,1225.,150.));
#322=CARTESIAN_POINT('Origin',(0.,-75.,0.));
#323=CARTESIAN_POINT('',(4.99999999999999,-75.,150.));
#324=CARTESIAN_POINT('',(5.,-75.,0.));
#325=CARTESIAN_POINT('Origin',(0.,-75.,150.));
#326=CARTESIAN_POINT('Origin',(8.88178419700125E-15,1225.,0.));
#327=CARTESIAN_POINT('',(-75.,1225.,150.));
#328=CARTESIAN_POINT('',(-75.,1225.,0.));
#329=CARTESIAN_POINT('Origin',(8.88178419700125E-15,1225.,150.));
#330=CARTESIAN_POINT('Origin',(0.,-75.,0.));
#331=CARTESIAN_POINT('',(-75.,-75.,150.));
#332=CARTESIAN_POINT('Origin',(0.,-75.,150.));
#333=CARTESIAN_POINT('',(-75.,-75.,0.));
#334=CARTESIAN_POINT('Origin',(-75.,1225.,0.));
#335=CARTESIAN_POINT('',(-75.,1225.,150.));
#336=CARTESIAN_POINT('Origin',(1.77635683940025E-14,575.,150.));
#337=UNCERTAINTY_MEASURE_WITH_UNIT(LENGTH_MEASURE(0.01),#341,
'DISTANCE_ACCURACY_VALUE',
'Maximum model space distance between geometric entities at asserted c
onnectivities');
#338=UNCERTAINTY_MEASURE_WITH_UNIT(LENGTH_MEASURE(0.01),#341,
'DISTANCE_ACCURACY_VALUE',
'Maximum model space distance between geometric entities at asserted c
onnectivities');
#339=(
GEOMETRIC_REPRESENTATION_CONTEXT(3)
GLOBAL_UNCERTAINTY_ASSIGNED_CONTEXT((#337))
GLOBAL_UNIT_ASSIGNED_CONTEXT((#341,#343,#344))
REPRESENTATION_CONTEXT('','3D')
);
#340=(
GEOMETRIC_REPRESENTATION_CONTEXT(3)
GLOBAL_UNCERTAINTY_ASSIGNED_CONTEXT((#338))
GLOBAL_UNIT_ASSIGNED_CONTEXT((#341,#343,#344))
REPRESENTATION_CONTEXT('','3D')
);
#341=(
LENGTH_UNIT()
NAMED_UNIT(*)
SI_UNIT(.MILLI.,.METRE.)
);
#342=(
LENGTH_UNIT()
NAMED_UNIT(*)
SI_UNIT(.CENTI.,.METRE.)
);
#343=(
NAMED_UNIT(*)
PLANE_ANGLE_UNIT()
SI_UNIT($,.RADIAN.)
);
#344=(
NAMED_UNIT(*)
SI_UNIT($,.STERADIAN.)
SOLID_ANGLE_UNIT()
);
#345=SHAPE_DEFINITION_REPRESENTATION(#346,#347);
#346=PRODUCT_DEFINITION_SHAPE('',$,#349);
#347=SHAPE_REPRESENTATION('',(#213),#339);
#348=PRODUCT_DEFINITION_CONTEXT('part definition',#353,'design');
#349=PRODUCT_DEFINITION('link2_fixed','link2_fixed',#350,#348);
#350=PRODUCT_DEFINITION_FORMATION('',$,#355);
#351=PRODUCT_RELATED_PRODUCT_CATEGORY('link2_fixed','link2_fixed',(#355));
#352=APPLICATION_PROTOCOL_DEFINITION('international standard',
'automotive_design',2009,#353);
#353=APPLICATION_CONTEXT(
'Core Data for Automotive Mechanical Design Process');
#354=PRODUCT_CONTEXT('part definition',#353,'mechanical');
#355=PRODUCT('link2_fixed','link2_fixed',$,(#354));
#356=PRESENTATION_STYLE_ASSIGNMENT((#357));
#357=SURFACE_STYLE_USAGE(.BOTH.,#360);
#358=SURFACE_STYLE_RENDERING_WITH_PROPERTIES($,#364,(#359));
#359=SURFACE_STYLE_TRANSPARENT(0.);
#360=SURFACE_SIDE_STYLE('',(#361,#358));
#361=SURFACE_STYLE_FILL_AREA(#362);
#362=FILL_AREA_STYLE('',(#363));
#363=FILL_AREA_STYLE_COLOUR('',#364);
#364=COLOUR_RGB('',0.749019607843137,0.749019607843137,0.749019607843137);
ENDSEC;
END-ISO-10303-21;
