ISO-10303-21;
HEADER;
/* Generated by software containing ST-Developer
 * from STEP Tools, Inc. (www.steptools.com) 
 */

FILE_DESCRIPTION(
/* description */ (''),
/* implementation_level */ '2;1');

FILE_NAME(
/* name */ 'link5.stp',
/* time_stamp */ '2026-05-05T08:15:08+02:00',
/* author */ ('panze'),
/* organization */ (''),
/* preprocessor_version */ 'ST-DEVELOPER v20.1',
/* originating_system */ 'Autodesk Inventor 2026',
/* authorisation */ '');

FILE_SCHEMA (('AUTOMOTIVE_DESIGN { 1 0 10303 214 3 1 1 }'));
ENDSEC;

DATA;
#10=MECHANICAL_DESIGN_GEOMETRIC_PRESENTATION_REPRESENTATION('',(#13),#287);
#11=SHAPE_REPRESENTATION_RELATIONSHIP('SRR','None',#294,#12);
#12=ADVANCED_BREP_SHAPE_REPRESENTATION('',(#14),#286);
#13=STYLED_ITEM('',(#303),#14);
#14=MANIFOLD_SOLID_BREP('Solid1',#159);
#15=FACE_BOUND('',#41,.T.);
#16=FACE_BOUND('',#44,.T.);
#17=FACE_BOUND('',#46,.T.);
#18=PLANE('',#192);
#19=PLANE('',#193);
#20=PLANE('',#194);
#21=PLANE('',#195);
#22=PLANE('',#196);
#23=CYLINDRICAL_SURFACE('',#184,5.);
#24=CYLINDRICAL_SURFACE('',#186,5.);
#25=CYLINDRICAL_SURFACE('',#189,25.);
#26=FACE_OUTER_BOUND('',#35,.T.);
#27=FACE_OUTER_BOUND('',#36,.T.);
#28=FACE_OUTER_BOUND('',#37,.T.);
#29=FACE_OUTER_BOUND('',#38,.T.);
#30=FACE_OUTER_BOUND('',#39,.T.);
#31=FACE_OUTER_BOUND('',#40,.T.);
#32=FACE_OUTER_BOUND('',#42,.T.);
#33=FACE_OUTER_BOUND('',#43,.T.);
#34=FACE_OUTER_BOUND('',#45,.T.);
#35=EDGE_LOOP('',(#111,#112,#113));
#36=EDGE_LOOP('',(#114,#115,#116,#117));
#37=EDGE_LOOP('',(#118,#119,#120,#121));
#38=EDGE_LOOP('',(#122,#123,#124,#125));
#39=EDGE_LOOP('',(#126,#127,#128,#129));
#40=EDGE_LOOP('',(#130,#131,#132,#133));
#41=EDGE_LOOP('',(#134));
#42=EDGE_LOOP('',(#135,#136,#137,#138));
#43=EDGE_LOOP('',(#139,#140,#141,#142));
#44=EDGE_LOOP('',(#143));
#45=EDGE_LOOP('',(#144,#145,#146,#147));
#46=EDGE_LOOP('',(#148));
#47=LINE('',#247,#60);
#48=LINE('',#251,#61);
#49=LINE('',#256,#62);
#50=LINE('',#263,#63);
#51=LINE('',#266,#64);
#52=LINE('',#269,#65);
#53=LINE('',#271,#66);
#54=LINE('',#272,#67);
#55=LINE('',#275,#68);
#56=LINE('',#277,#69);
#57=LINE('',#278,#70);
#58=LINE('',#280,#71);
#59=LINE('',#281,#72);
#60=VECTOR('',#203,2.5);
#61=VECTOR('',#208,5.);
#62=VECTOR('',#213,5.);
#63=VECTOR('',#220,10.);
#64=VECTOR('',#223,10.);
#65=VECTOR('',#226,10.);
#66=VECTOR('',#227,10.);
#67=VECTOR('',#228,10.);
#68=VECTOR('',#231,10.);
#69=VECTOR('',#232,10.);
#70=VECTOR('',#233,10.);
#71=VECTOR('',#236,10.);
#72=VECTOR('',#237,10.);
#73=CIRCLE('',#183,5.);
#74=CIRCLE('',#185,5.);
#75=CIRCLE('',#187,5.);
#76=CIRCLE('',#188,5.);
#77=CIRCLE('',#190,25.);
#78=CIRCLE('',#191,25.);
#79=VERTEX_POINT('',#244);
#80=VERTEX_POINT('',#246);
#81=VERTEX_POINT('',#249);
#82=VERTEX_POINT('',#253);
#83=VERTEX_POINT('',#255);
#84=VERTEX_POINT('',#259);
#85=VERTEX_POINT('',#260);
#86=VERTEX_POINT('',#262);
#87=VERTEX_POINT('',#264);
#88=VERTEX_POINT('',#268);
#89=VERTEX_POINT('',#270);
#90=VERTEX_POINT('',#274);
#91=VERTEX_POINT('',#276);
#92=EDGE_CURVE('',#79,#79,#73,.T.);
#93=EDGE_CURVE('',#79,#80,#47,.T.);
#94=EDGE_CURVE('',#81,#81,#74,.T.);
#95=EDGE_CURVE('',#81,#79,#48,.T.);
#96=EDGE_CURVE('',#82,#82,#75,.T.);
#97=EDGE_CURVE('',#82,#83,#49,.T.);
#98=EDGE_CURVE('',#83,#83,#76,.T.);
#99=EDGE_CURVE('',#84,#85,#77,.T.);
#100=EDGE_CURVE('',#85,#86,#50,.T.);
#101=EDGE_CURVE('',#87,#86,#78,.T.);
#102=EDGE_CURVE('',#84,#87,#51,.T.);
#103=EDGE_CURVE('',#88,#84,#52,.T.);
#104=EDGE_CURVE('',#89,#87,#53,.T.);
#105=EDGE_CURVE('',#88,#89,#54,.T.);
#106=EDGE_CURVE('',#90,#88,#55,.T.);
#107=EDGE_CURVE('',#91,#89,#56,.T.);
#108=EDGE_CURVE('',#90,#91,#57,.T.);
#109=EDGE_CURVE('',#85,#90,#58,.T.);
#110=EDGE_CURVE('',#86,#91,#59,.T.);
#111=ORIENTED_EDGE('',*,*,#92,.T.);
#112=ORIENTED_EDGE('',*,*,#93,.T.);
#113=ORIENTED_EDGE('',*,*,#93,.F.);
#114=ORIENTED_EDGE('',*,*,#94,.F.);
#115=ORIENTED_EDGE('',*,*,#95,.T.);
#116=ORIENTED_EDGE('',*,*,#92,.F.);
#117=ORIENTED_EDGE('',*,*,#95,.F.);
#118=ORIENTED_EDGE('',*,*,#96,.F.);
#119=ORIENTED_EDGE('',*,*,#97,.T.);
#120=ORIENTED_EDGE('',*,*,#98,.T.);
#121=ORIENTED_EDGE('',*,*,#97,.F.);
#122=ORIENTED_EDGE('',*,*,#99,.T.);
#123=ORIENTED_EDGE('',*,*,#100,.T.);
#124=ORIENTED_EDGE('',*,*,#101,.F.);
#125=ORIENTED_EDGE('',*,*,#102,.F.);
#126=ORIENTED_EDGE('',*,*,#103,.T.);
#127=ORIENTED_EDGE('',*,*,#102,.T.);
#128=ORIENTED_EDGE('',*,*,#104,.F.);
#129=ORIENTED_EDGE('',*,*,#105,.F.);
#130=ORIENTED_EDGE('',*,*,#106,.T.);
#131=ORIENTED_EDGE('',*,*,#105,.T.);
#132=ORIENTED_EDGE('',*,*,#107,.F.);
#133=ORIENTED_EDGE('',*,*,#108,.F.);
#134=ORIENTED_EDGE('',*,*,#94,.T.);
#135=ORIENTED_EDGE('',*,*,#109,.T.);
#136=ORIENTED_EDGE('',*,*,#108,.T.);
#137=ORIENTED_EDGE('',*,*,#110,.F.);
#138=ORIENTED_EDGE('',*,*,#100,.F.);
#139=ORIENTED_EDGE('',*,*,#110,.T.);
#140=ORIENTED_EDGE('',*,*,#107,.T.);
#141=ORIENTED_EDGE('',*,*,#104,.T.);
#142=ORIENTED_EDGE('',*,*,#101,.T.);
#143=ORIENTED_EDGE('',*,*,#96,.T.);
#144=ORIENTED_EDGE('',*,*,#109,.F.);
#145=ORIENTED_EDGE('',*,*,#99,.F.);
#146=ORIENTED_EDGE('',*,*,#103,.F.);
#147=ORIENTED_EDGE('',*,*,#106,.F.);
#148=ORIENTED_EDGE('',*,*,#98,.F.);
#149=CONICAL_SURFACE('',#182,2.5,1.02974425867665);
#150=ADVANCED_FACE('',(#26),#149,.F.);
#151=ADVANCED_FACE('',(#27),#23,.F.);
#152=ADVANCED_FACE('',(#28),#24,.F.);
#153=ADVANCED_FACE('',(#29),#25,.T.);
#154=ADVANCED_FACE('',(#30),#18,.T.);
#155=ADVANCED_FACE('',(#31,#15),#19,.T.);
#156=ADVANCED_FACE('',(#32),#20,.T.);
#157=ADVANCED_FACE('',(#33,#16),#21,.T.);
#158=ADVANCED_FACE('',(#34,#17),#22,.F.);
#159=CLOSED_SHELL('',(#150,#151,#152,#153,#154,#155,#156,#157,#158));
#160=DERIVED_UNIT_ELEMENT(#163,1.);
#161=DERIVED_UNIT_ELEMENT(#289,-3.);
#162=DIMENSIONAL_EXPONENTS(0.,1.,0.,0.,0.,0.,0.);
#163=(
CONVERSION_BASED_UNIT('gram',#165)
MASS_UNIT()
NAMED_UNIT(#162)
);
#164=(
MASS_UNIT()
NAMED_UNIT(*)
SI_UNIT(.KILO.,.GRAM.)
);
#165=MASS_MEASURE_WITH_UNIT(MASS_MEASURE(0.001),#164);
#166=DERIVED_UNIT((#160,#161));
#167=MEASURE_REPRESENTATION_ITEM('density measure',
POSITIVE_RATIO_MEASURE(1.),#166);
#168=PROPERTY_DEFINITION_REPRESENTATION(#173,#170);
#169=PROPERTY_DEFINITION_REPRESENTATION(#174,#171);
#170=REPRESENTATION('material name',(#172),#286);
#171=REPRESENTATION('density',(#167),#286);
#172=DESCRIPTIVE_REPRESENTATION_ITEM('Og\X\F3lny','Og\X\F3lny');
#173=PROPERTY_DEFINITION('material property','material name',#296);
#174=PROPERTY_DEFINITION('material property','density of part',#296);
#175=DATE_TIME_ROLE('creation_date');
#176=APPLIED_DATE_AND_TIME_ASSIGNMENT(#177,#175,(#296));
#177=DATE_AND_TIME(#178,#179);
#178=CALENDAR_DATE(2026,19,3);
#179=LOCAL_TIME(0,0,0.,#180);
#180=COORDINATED_UNIVERSAL_TIME_OFFSET(0,0,.BEHIND.);
#181=AXIS2_PLACEMENT_3D('',#242,#197,#198);
#182=AXIS2_PLACEMENT_3D('',#243,#199,#200);
#183=AXIS2_PLACEMENT_3D('',#245,#201,#202);
#184=AXIS2_PLACEMENT_3D('',#248,#204,#205);
#185=AXIS2_PLACEMENT_3D('',#250,#206,#207);
#186=AXIS2_PLACEMENT_3D('',#252,#209,#210);
#187=AXIS2_PLACEMENT_3D('',#254,#211,#212);
#188=AXIS2_PLACEMENT_3D('',#257,#214,#215);
#189=AXIS2_PLACEMENT_3D('',#258,#216,#217);
#190=AXIS2_PLACEMENT_3D('',#261,#218,#219);
#191=AXIS2_PLACEMENT_3D('',#265,#221,#222);
#192=AXIS2_PLACEMENT_3D('',#267,#224,#225);
#193=AXIS2_PLACEMENT_3D('',#273,#229,#230);
#194=AXIS2_PLACEMENT_3D('',#279,#234,#235);
#195=AXIS2_PLACEMENT_3D('',#282,#238,#239);
#196=AXIS2_PLACEMENT_3D('',#283,#240,#241);
#197=DIRECTION('axis',(0.,0.,1.));
#198=DIRECTION('refdir',(1.,0.,0.));
#199=DIRECTION('center_axis',(0.,1.,0.));
#200=DIRECTION('ref_axis',(1.,0.,0.));
#201=DIRECTION('center_axis',(0.,1.,0.));
#202=DIRECTION('ref_axis',(1.,0.,0.));
#203=DIRECTION('',(0.857167300702112,-0.515038074910054,-1.04972719113862E-16));
#204=DIRECTION('center_axis',(0.,1.,0.));
#205=DIRECTION('ref_axis',(1.,0.,0.));
#206=DIRECTION('center_axis',(0.,-1.,0.));
#207=DIRECTION('ref_axis',(1.,0.,0.));
#208=DIRECTION('',(0.,-1.,0.));
#209=DIRECTION('center_axis',(0.,0.,1.));
#210=DIRECTION('ref_axis',(-1.,0.,0.));
#211=DIRECTION('center_axis',(0.,0.,-1.));
#212=DIRECTION('ref_axis',(-1.,0.,0.));
#213=DIRECTION('',(0.,0.,-1.));
#214=DIRECTION('center_axis',(0.,0.,-1.));
#215=DIRECTION('ref_axis',(-1.,0.,0.));
#216=DIRECTION('center_axis',(0.,0.,1.));
#217=DIRECTION('ref_axis',(1.,0.,0.));
#218=DIRECTION('center_axis',(0.,0.,1.));
#219=DIRECTION('ref_axis',(1.,0.,0.));
#220=DIRECTION('',(0.,0.,1.));
#221=DIRECTION('center_axis',(0.,0.,1.));
#222=DIRECTION('ref_axis',(1.,0.,0.));
#223=DIRECTION('',(0.,0.,1.));
#224=DIRECTION('center_axis',(-1.,-2.22044604925031E-16,0.));
#225=DIRECTION('ref_axis',(2.22044604925031E-16,-1.,0.));
#226=DIRECTION('',(2.22044604925031E-16,-1.,0.));
#227=DIRECTION('',(2.22044604925031E-16,-1.,0.));
#228=DIRECTION('',(0.,0.,1.));
#229=DIRECTION('center_axis',(0.,1.,0.));
#230=DIRECTION('ref_axis',(-1.,0.,0.));
#231=DIRECTION('',(-1.,0.,0.));
#232=DIRECTION('',(-1.,0.,0.));
#233=DIRECTION('',(0.,0.,1.));
#234=DIRECTION('center_axis',(1.,2.66453525910038E-16,0.));
#235=DIRECTION('ref_axis',(-2.66453525910038E-16,1.,0.));
#236=DIRECTION('',(-2.66453525910038E-16,1.,0.));
#237=DIRECTION('',(-2.66453525910038E-16,1.,0.));
#238=DIRECTION('center_axis',(0.,0.,1.));
#239=DIRECTION('ref_axis',(1.,0.,0.));
#240=DIRECTION('center_axis',(0.,0.,1.));
#241=DIRECTION('ref_axis',(1.,0.,0.));
#242=CARTESIAN_POINT('',(0.,0.,0.));
#243=CARTESIAN_POINT('Origin',(-4.44089209850063E-14,190.497848452431,25.));
#244=CARTESIAN_POINT('',(-5.00000000000004,192.,25.));
#245=CARTESIAN_POINT('Origin',(-4.44089209850063E-14,192.,25.));
#246=CARTESIAN_POINT('',(-4.44089209850063E-14,188.995696904862,25.));
#247=CARTESIAN_POINT('',(-2.50000000000004,190.497848452431,25.));
#248=CARTESIAN_POINT('Origin',(-4.44089209850063E-14,196.,25.));
#249=CARTESIAN_POINT('',(-5.00000000000004,200.,25.));
#250=CARTESIAN_POINT('Origin',(-4.44089209850063E-14,200.,25.));
#251=CARTESIAN_POINT('',(-5.00000000000004,196.,25.));
#252=CARTESIAN_POINT('Origin',(0.,0.,0.));
#253=CARTESIAN_POINT('',(5.,6.12323399573677E-16,50.));
#254=CARTESIAN_POINT('Origin',(0.,0.,50.));
#255=CARTESIAN_POINT('',(5.,6.12323399573677E-16,0.));
#256=CARTESIAN_POINT('',(5.,6.12323399573677E-16,0.));
#257=CARTESIAN_POINT('Origin',(0.,0.,0.));
#258=CARTESIAN_POINT('Origin',(0.,0.,0.));
#259=CARTESIAN_POINT('',(-25.,0.,0.));
#260=CARTESIAN_POINT('',(25.,0.,0.));
#261=CARTESIAN_POINT('Origin',(0.,0.,0.));
#262=CARTESIAN_POINT('',(25.,0.,50.));
#263=CARTESIAN_POINT('',(25.,0.,0.));
#264=CARTESIAN_POINT('',(-25.,0.,50.));
#265=CARTESIAN_POINT('Origin',(0.,0.,50.));
#266=CARTESIAN_POINT('',(-25.,0.,0.));
#267=CARTESIAN_POINT('Origin',(-25.,200.,0.));
#268=CARTESIAN_POINT('',(-25.,200.,0.));
#269=CARTESIAN_POINT('',(-25.,200.,0.));
#270=CARTESIAN_POINT('',(-25.,200.,50.));
#271=CARTESIAN_POINT('',(-25.,200.,50.));
#272=CARTESIAN_POINT('',(-25.,200.,0.));
#273=CARTESIAN_POINT('Origin',(24.9999999999999,200.,0.));
#274=CARTESIAN_POINT('',(24.9999999999999,200.,0.));
#275=CARTESIAN_POINT('',(24.9999999999999,200.,0.));
#276=CARTESIAN_POINT('',(24.9999999999999,200.,50.));
#277=CARTESIAN_POINT('',(24.9999999999999,200.,50.));
#278=CARTESIAN_POINT('',(24.9999999999999,200.,0.));
#279=CARTESIAN_POINT('Origin',(25.,0.,0.));
#280=CARTESIAN_POINT('',(25.,0.,0.));
#281=CARTESIAN_POINT('',(25.,0.,50.));
#282=CARTESIAN_POINT('Origin',(-2.22044604925031E-14,87.5,50.));
#283=CARTESIAN_POINT('Origin',(-2.22044604925031E-14,87.5,0.));
#284=UNCERTAINTY_MEASURE_WITH_UNIT(LENGTH_MEASURE(0.01),#288,
'DISTANCE_ACCURACY_VALUE',
'Maximum model space distance between geometric entities at asserted c
onnectivities');
#285=UNCERTAINTY_MEASURE_WITH_UNIT(LENGTH_MEASURE(0.01),#288,
'DISTANCE_ACCURACY_VALUE',
'Maximum model space distance between geometric entities at asserted c
onnectivities');
#286=(
GEOMETRIC_REPRESENTATION_CONTEXT(3)
GLOBAL_UNCERTAINTY_ASSIGNED_CONTEXT((#284))
GLOBAL_UNIT_ASSIGNED_CONTEXT((#288,#290,#291))
REPRESENTATION_CONTEXT('','3D')
);
#287=(
GEOMETRIC_REPRESENTATION_CONTEXT(3)
GLOBAL_UNCERTAINTY_ASSIGNED_CONTEXT((#285))
GLOBAL_UNIT_ASSIGNED_CONTEXT((#288,#290,#291))
REPRESENTATION_CONTEXT('','3D')
);
#288=(
LENGTH_UNIT()
NAMED_UNIT(*)
SI_UNIT(.MILLI.,.METRE.)
);
#289=(
LENGTH_UNIT()
NAMED_UNIT(*)
SI_UNIT(.CENTI.,.METRE.)
);
#290=(
NAMED_UNIT(*)
PLANE_ANGLE_UNIT()
SI_UNIT($,.RADIAN.)
);
#291=(
NAMED_UNIT(*)
SI_UNIT($,.STERADIAN.)
SOLID_ANGLE_UNIT()
);
#292=SHAPE_DEFINITION_REPRESENTATION(#293,#294);
#293=PRODUCT_DEFINITION_SHAPE('',$,#296);
#294=SHAPE_REPRESENTATION('',(#181),#286);
#295=PRODUCT_DEFINITION_CONTEXT('part definition',#300,'design');
#296=PRODUCT_DEFINITION('link5','link5',#297,#295);
#297=PRODUCT_DEFINITION_FORMATION('',$,#302);
#298=PRODUCT_RELATED_PRODUCT_CATEGORY('link5','link5',(#302));
#299=APPLICATION_PROTOCOL_DEFINITION('international standard',
'automotive_design',2009,#300);
#300=APPLICATION_CONTEXT(
'Core Data for Automotive Mechanical Design Process');
#301=PRODUCT_CONTEXT('part definition',#300,'mechanical');
#302=PRODUCT('link5','link5',$,(#301));
#303=PRESENTATION_STYLE_ASSIGNMENT((#304));
#304=SURFACE_STYLE_USAGE(.BOTH.,#307);
#305=SURFACE_STYLE_RENDERING_WITH_PROPERTIES($,#311,(#306));
#306=SURFACE_STYLE_TRANSPARENT(0.);
#307=SURFACE_SIDE_STYLE('',(#308,#305));
#308=SURFACE_STYLE_FILL_AREA(#309);
#309=FILL_AREA_STYLE('',(#310));
#310=FILL_AREA_STYLE_COLOUR('',#311);
#311=COLOUR_RGB('',0.749019607843137,0.749019607843137,0.749019607843137);
ENDSEC;
END-ISO-10303-21;
