ISO-10303-21;
HEADER;
/* Generated by software containing ST-Developer
 * from STEP Tools, Inc. (www.steptools.com) 
 */

FILE_DESCRIPTION(
/* description */ (''),
/* implementation_level */ '2;1');

FILE_NAME(
/* name */ 'link1 v7.step',
/* time_stamp */ '2026-05-21T11:44:48+02:00',
/* author */ (''),
/* organization */ (''),
/* preprocessor_version */ 'ST-DEVELOPER v20.1',
/* originating_system */ 'Autodesk Translation Framework v15.8.0.0',
/* authorisation */ '');

FILE_SCHEMA (('AUTOMOTIVE_DESIGN { 1 0 10303 214 3 1 1 }'));
ENDSEC;

DATA;
#10=MECHANICAL_DESIGN_GEOMETRIC_PRESENTATION_REPRESENTATION('',(#13),#1707);
#11=SHAPE_REPRESENTATION_RELATIONSHIP('SRR','None',#1714,#12);
#12=ADVANCED_BREP_SHAPE_REPRESENTATION('',(#14),#1706);
#13=STYLED_ITEM('',(#1723),#14);
#14=MANIFOLD_SOLID_BREP('Body1',#981);
#15=B_SPLINE_CURVE_WITH_KNOTS('',3,(#1623,#1624,#1625,#1626,#1627,#1628,
#1629,#1630,#1631,#1632,#1633,#1634,#1635,#1636,#1637,#1638,#1639,#1640,
#1641,#1642,#1643,#1644,#1645,#1646,#1647,#1648,#1649,#1650,#1651,#1652),
 .UNSPECIFIED.,.F.,.F.,(4,2,2,2,2,2,2,2,2,2,2,2,2,2,4),(10.8902555435166,
14.2325663781911,17.6977940065457,21.1630216349002,22.8956354490775,24.6282492632547,
26.360863077432,28.0934768916093,29.8260907057865,31.5587045199638,33.2913183341411,
35.0239321483183,38.4891597766729,41.9543874050274,45.2966982397019),
 .UNSPECIFIED.);
#16=FACE_BOUND('',#142,.T.);
#17=FACE_BOUND('',#143,.T.);
#18=FACE_BOUND('',#144,.T.);
#19=FACE_BOUND('',#145,.T.);
#20=FACE_BOUND('',#146,.T.);
#21=FACE_BOUND('',#147,.T.);
#22=FACE_BOUND('',#148,.T.);
#23=FACE_BOUND('',#149,.T.);
#24=FACE_BOUND('',#150,.T.);
#25=FACE_BOUND('',#151,.T.);
#26=FACE_BOUND('',#152,.T.);
#27=FACE_BOUND('',#153,.T.);
#28=FACE_BOUND('',#154,.T.);
#29=FACE_BOUND('',#155,.T.);
#30=FACE_BOUND('',#156,.T.);
#31=FACE_BOUND('',#157,.T.);
#32=FACE_BOUND('',#158,.T.);
#33=FACE_BOUND('',#159,.T.);
#34=FACE_BOUND('',#160,.T.);
#35=FACE_BOUND('',#161,.T.);
#36=FACE_BOUND('',#162,.T.);
#37=FACE_BOUND('',#163,.T.);
#38=FACE_BOUND('',#164,.T.);
#39=FACE_BOUND('',#165,.T.);
#40=FACE_BOUND('',#166,.T.);
#41=FACE_BOUND('',#167,.T.);
#42=FACE_BOUND('',#168,.T.);
#43=FACE_BOUND('',#169,.T.);
#44=FACE_BOUND('',#170,.T.);
#45=FACE_BOUND('',#171,.T.);
#46=FACE_BOUND('',#172,.T.);
#47=FACE_BOUND('',#173,.T.);
#48=FACE_BOUND('',#174,.T.);
#49=FACE_BOUND('',#211,.T.);
#50=FACE_BOUND('',#212,.T.);
#51=FACE_BOUND('',#213,.T.);
#52=FACE_BOUND('',#214,.T.);
#53=FACE_BOUND('',#215,.T.);
#54=FACE_BOUND('',#216,.T.);
#55=FACE_BOUND('',#217,.T.);
#56=FACE_BOUND('',#218,.T.);
#57=FACE_BOUND('',#219,.T.);
#58=FACE_BOUND('',#220,.T.);
#59=FACE_BOUND('',#221,.T.);
#60=FACE_BOUND('',#222,.T.);
#61=FACE_BOUND('',#223,.T.);
#62=FACE_BOUND('',#224,.T.);
#63=FACE_BOUND('',#225,.T.);
#64=FACE_BOUND('',#226,.T.);
#65=FACE_BOUND('',#227,.T.);
#66=FACE_BOUND('',#228,.T.);
#67=FACE_BOUND('',#229,.T.);
#68=FACE_BOUND('',#230,.T.);
#69=FACE_BOUND('',#231,.T.);
#70=FACE_BOUND('',#232,.T.);
#71=FACE_BOUND('',#233,.T.);
#72=FACE_BOUND('',#234,.T.);
#73=FACE_BOUND('',#235,.T.);
#74=FACE_BOUND('',#236,.T.);
#75=FACE_BOUND('',#237,.T.);
#76=FACE_BOUND('',#238,.T.);
#77=FACE_BOUND('',#239,.T.);
#78=FACE_BOUND('',#240,.T.);
#79=FACE_BOUND('',#241,.T.);
#80=FACE_BOUND('',#242,.T.);
#81=FACE_BOUND('',#243,.T.);
#82=FACE_BOUND('',#248,.T.);
#83=FACE_BOUND('',#250,.T.);
#84=PLANE('',#998);
#85=PLANE('',#1102);
#86=PLANE('',#1103);
#87=PLANE('',#1112);
#88=PLANE('',#1113);
#89=PLANE('',#1114);
#90=PLANE('',#1115);
#91=PLANE('',#1116);
#92=PLANE('',#1117);
#93=FACE_OUTER_BOUND('',#140,.T.);
#94=FACE_OUTER_BOUND('',#141,.T.);
#95=FACE_OUTER_BOUND('',#175,.T.);
#96=FACE_OUTER_BOUND('',#176,.T.);
#97=FACE_OUTER_BOUND('',#177,.T.);
#98=FACE_OUTER_BOUND('',#178,.T.);
#99=FACE_OUTER_BOUND('',#179,.T.);
#100=FACE_OUTER_BOUND('',#180,.T.);
#101=FACE_OUTER_BOUND('',#181,.T.);
#102=FACE_OUTER_BOUND('',#182,.T.);
#103=FACE_OUTER_BOUND('',#183,.T.);
#104=FACE_OUTER_BOUND('',#184,.T.);
#105=FACE_OUTER_BOUND('',#185,.T.);
#106=FACE_OUTER_BOUND('',#186,.T.);
#107=FACE_OUTER_BOUND('',#187,.T.);
#108=FACE_OUTER_BOUND('',#188,.T.);
#109=FACE_OUTER_BOUND('',#189,.T.);
#110=FACE_OUTER_BOUND('',#190,.T.);
#111=FACE_OUTER_BOUND('',#191,.T.);
#112=FACE_OUTER_BOUND('',#192,.T.);
#113=FACE_OUTER_BOUND('',#193,.T.);
#114=FACE_OUTER_BOUND('',#194,.T.);
#115=FACE_OUTER_BOUND('',#195,.T.);
#116=FACE_OUTER_BOUND('',#196,.T.);
#117=FACE_OUTER_BOUND('',#197,.T.);
#118=FACE_OUTER_BOUND('',#198,.T.);
#119=FACE_OUTER_BOUND('',#199,.T.);
#120=FACE_OUTER_BOUND('',#200,.T.);
#121=FACE_OUTER_BOUND('',#201,.T.);
#122=FACE_OUTER_BOUND('',#202,.T.);
#123=FACE_OUTER_BOUND('',#203,.T.);
#124=FACE_OUTER_BOUND('',#204,.T.);
#125=FACE_OUTER_BOUND('',#205,.T.);
#126=FACE_OUTER_BOUND('',#206,.T.);
#127=FACE_OUTER_BOUND('',#207,.T.);
#128=FACE_OUTER_BOUND('',#208,.T.);
#129=FACE_OUTER_BOUND('',#209,.T.);
#130=FACE_OUTER_BOUND('',#210,.T.);
#131=FACE_OUTER_BOUND('',#244,.T.);
#132=FACE_OUTER_BOUND('',#245,.T.);
#133=FACE_OUTER_BOUND('',#246,.T.);
#134=FACE_OUTER_BOUND('',#247,.T.);
#135=FACE_OUTER_BOUND('',#249,.T.);
#136=FACE_OUTER_BOUND('',#251,.T.);
#137=FACE_OUTER_BOUND('',#252,.T.);
#138=FACE_OUTER_BOUND('',#253,.T.);
#139=FACE_OUTER_BOUND('',#254,.T.);
#140=EDGE_LOOP('',(#642,#643,#644,#645));
#141=EDGE_LOOP('',(#646));
#142=EDGE_LOOP('',(#647));
#143=EDGE_LOOP('',(#648));
#144=EDGE_LOOP('',(#649));
#145=EDGE_LOOP('',(#650));
#146=EDGE_LOOP('',(#651));
#147=EDGE_LOOP('',(#652));
#148=EDGE_LOOP('',(#653));
#149=EDGE_LOOP('',(#654));
#150=EDGE_LOOP('',(#655));
#151=EDGE_LOOP('',(#656));
#152=EDGE_LOOP('',(#657));
#153=EDGE_LOOP('',(#658));
#154=EDGE_LOOP('',(#659));
#155=EDGE_LOOP('',(#660));
#156=EDGE_LOOP('',(#661));
#157=EDGE_LOOP('',(#662));
#158=EDGE_LOOP('',(#663));
#159=EDGE_LOOP('',(#664));
#160=EDGE_LOOP('',(#665));
#161=EDGE_LOOP('',(#666));
#162=EDGE_LOOP('',(#667));
#163=EDGE_LOOP('',(#668));
#164=EDGE_LOOP('',(#669));
#165=EDGE_LOOP('',(#670));
#166=EDGE_LOOP('',(#671));
#167=EDGE_LOOP('',(#672));
#168=EDGE_LOOP('',(#673));
#169=EDGE_LOOP('',(#674));
#170=EDGE_LOOP('',(#675));
#171=EDGE_LOOP('',(#676));
#172=EDGE_LOOP('',(#677));
#173=EDGE_LOOP('',(#678));
#174=EDGE_LOOP('',(#679));
#175=EDGE_LOOP('',(#680,#681,#682,#683));
#176=EDGE_LOOP('',(#684,#685,#686,#687));
#177=EDGE_LOOP('',(#688,#689,#690,#691));
#178=EDGE_LOOP('',(#692,#693,#694,#695));
#179=EDGE_LOOP('',(#696,#697,#698,#699));
#180=EDGE_LOOP('',(#700,#701,#702,#703));
#181=EDGE_LOOP('',(#704,#705,#706,#707));
#182=EDGE_LOOP('',(#708,#709,#710,#711));
#183=EDGE_LOOP('',(#712,#713,#714,#715));
#184=EDGE_LOOP('',(#716,#717,#718,#719));
#185=EDGE_LOOP('',(#720,#721,#722,#723));
#186=EDGE_LOOP('',(#724,#725,#726,#727));
#187=EDGE_LOOP('',(#728,#729,#730,#731));
#188=EDGE_LOOP('',(#732,#733,#734,#735));
#189=EDGE_LOOP('',(#736,#737,#738,#739));
#190=EDGE_LOOP('',(#740,#741,#742,#743));
#191=EDGE_LOOP('',(#744,#745,#746,#747));
#192=EDGE_LOOP('',(#748,#749,#750,#751));
#193=EDGE_LOOP('',(#752,#753,#754,#755));
#194=EDGE_LOOP('',(#756,#757,#758,#759));
#195=EDGE_LOOP('',(#760,#761,#762,#763));
#196=EDGE_LOOP('',(#764,#765,#766,#767));
#197=EDGE_LOOP('',(#768,#769,#770,#771));
#198=EDGE_LOOP('',(#772,#773,#774,#775));
#199=EDGE_LOOP('',(#776,#777,#778,#779));
#200=EDGE_LOOP('',(#780,#781,#782,#783));
#201=EDGE_LOOP('',(#784,#785,#786,#787));
#202=EDGE_LOOP('',(#788,#789,#790,#791));
#203=EDGE_LOOP('',(#792,#793,#794,#795));
#204=EDGE_LOOP('',(#796,#797,#798,#799));
#205=EDGE_LOOP('',(#800,#801,#802,#803));
#206=EDGE_LOOP('',(#804,#805,#806,#807));
#207=EDGE_LOOP('',(#808,#809,#810,#811));
#208=EDGE_LOOP('',(#812,#813,#814,#815,#816,#817));
#209=EDGE_LOOP('',(#818,#819,#820));
#210=EDGE_LOOP('',(#821));
#211=EDGE_LOOP('',(#822));
#212=EDGE_LOOP('',(#823));
#213=EDGE_LOOP('',(#824));
#214=EDGE_LOOP('',(#825));
#215=EDGE_LOOP('',(#826));
#216=EDGE_LOOP('',(#827));
#217=EDGE_LOOP('',(#828));
#218=EDGE_LOOP('',(#829));
#219=EDGE_LOOP('',(#830));
#220=EDGE_LOOP('',(#831));
#221=EDGE_LOOP('',(#832));
#222=EDGE_LOOP('',(#833));
#223=EDGE_LOOP('',(#834));
#224=EDGE_LOOP('',(#835));
#225=EDGE_LOOP('',(#836));
#226=EDGE_LOOP('',(#837));
#227=EDGE_LOOP('',(#838));
#228=EDGE_LOOP('',(#839));
#229=EDGE_LOOP('',(#840));
#230=EDGE_LOOP('',(#841));
#231=EDGE_LOOP('',(#842));
#232=EDGE_LOOP('',(#843));
#233=EDGE_LOOP('',(#844));
#234=EDGE_LOOP('',(#845));
#235=EDGE_LOOP('',(#846));
#236=EDGE_LOOP('',(#847));
#237=EDGE_LOOP('',(#848));
#238=EDGE_LOOP('',(#849));
#239=EDGE_LOOP('',(#850));
#240=EDGE_LOOP('',(#851));
#241=EDGE_LOOP('',(#852));
#242=EDGE_LOOP('',(#853));
#243=EDGE_LOOP('',(#854));
#244=EDGE_LOOP('',(#855,#856,#857,#858));
#245=EDGE_LOOP('',(#859,#860,#861,#862));
#246=EDGE_LOOP('',(#863,#864,#865,#866));
#247=EDGE_LOOP('',(#867,#868,#869,#870,#871,#872));
#248=EDGE_LOOP('',(#873));
#249=EDGE_LOOP('',(#874,#875,#876,#877));
#250=EDGE_LOOP('',(#878));
#251=EDGE_LOOP('',(#879,#880,#881,#882,#883));
#252=EDGE_LOOP('',(#884,#885,#886,#887,#888));
#253=EDGE_LOOP('',(#889,#890,#891));
#254=EDGE_LOOP('',(#892,#893,#894,#895));
#255=LINE('',#1421,#305);
#256=LINE('',#1492,#306);
#257=LINE('',#1496,#307);
#258=LINE('',#1500,#308);
#259=LINE('',#1504,#309);
#260=LINE('',#1508,#310);
#261=LINE('',#1512,#311);
#262=LINE('',#1516,#312);
#263=LINE('',#1520,#313);
#264=LINE('',#1524,#314);
#265=LINE('',#1528,#315);
#266=LINE('',#1532,#316);
#267=LINE('',#1536,#317);
#268=LINE('',#1540,#318);
#269=LINE('',#1544,#319);
#270=LINE('',#1548,#320);
#271=LINE('',#1552,#321);
#272=LINE('',#1556,#322);
#273=LINE('',#1560,#323);
#274=LINE('',#1564,#324);
#275=LINE('',#1568,#325);
#276=LINE('',#1572,#326);
#277=LINE('',#1576,#327);
#278=LINE('',#1580,#328);
#279=LINE('',#1584,#329);
#280=LINE('',#1588,#330);
#281=LINE('',#1592,#331);
#282=LINE('',#1596,#332);
#283=LINE('',#1600,#333);
#284=LINE('',#1604,#334);
#285=LINE('',#1608,#335);
#286=LINE('',#1612,#336);
#287=LINE('',#1616,#337);
#288=LINE('',#1621,#338);
#289=LINE('',#1654,#339);
#290=LINE('',#1660,#340);
#291=LINE('',#1664,#341);
#292=LINE('',#1667,#342);
#293=LINE('',#1676,#343);
#294=LINE('',#1678,#344);
#295=LINE('',#1682,#345);
#296=LINE('',#1686,#346);
#297=LINE('',#1689,#347);
#298=LINE('',#1690,#348);
#299=LINE('',#1691,#349);
#300=LINE('',#1695,#350);
#301=LINE('',#1696,#351);
#302=LINE('',#1697,#352);
#303=LINE('',#1699,#353);
#304=LINE('',#1701,#354);
#305=VECTOR('',#1124,155.);
#306=VECTOR('',#1197,7.);
#307=VECTOR('',#1202,7.);
#308=VECTOR('',#1207,7.);
#309=VECTOR('',#1212,7.);
#310=VECTOR('',#1217,7.);
#311=VECTOR('',#1222,7.);
#312=VECTOR('',#1227,7.);
#313=VECTOR('',#1232,7.);
#314=VECTOR('',#1237,7.);
#315=VECTOR('',#1242,7.);
#316=VECTOR('',#1247,7.);
#317=VECTOR('',#1252,7.);
#318=VECTOR('',#1257,7.);
#319=VECTOR('',#1262,7.);
#320=VECTOR('',#1267,7.);
#321=VECTOR('',#1272,7.);
#322=VECTOR('',#1277,7.);
#323=VECTOR('',#1282,7.);
#324=VECTOR('',#1287,7.);
#325=VECTOR('',#1292,7.);
#326=VECTOR('',#1297,7.);
#327=VECTOR('',#1302,7.);
#328=VECTOR('',#1307,7.);
#329=VECTOR('',#1312,7.);
#330=VECTOR('',#1317,7.);
#331=VECTOR('',#1322,7.);
#332=VECTOR('',#1327,7.);
#333=VECTOR('',#1332,7.);
#334=VECTOR('',#1337,7.);
#335=VECTOR('',#1342,7.);
#336=VECTOR('',#1347,7.);
#337=VECTOR('',#1352,7.);
#338=VECTOR('',#1357,10.);
#339=VECTOR('',#1358,10.);
#340=VECTOR('',#1365,10.);
#341=VECTOR('',#1368,10.);
#342=VECTOR('',#1373,10.);
#343=VECTOR('',#1384,160.);
#344=VECTOR('',#1387,130.);
#345=VECTOR('',#1390,10.);
#346=VECTOR('',#1393,10.);
#347=VECTOR('',#1398,10.);
#348=VECTOR('',#1399,10.);
#349=VECTOR('',#1400,10.);
#350=VECTOR('',#1403,10.);
#351=VECTOR('',#1404,10.);
#352=VECTOR('',#1405,10.);
#353=VECTOR('',#1408,10.);
#354=VECTOR('',#1411,10.);
#355=CIRCLE('',#996,155.);
#356=CIRCLE('',#997,155.);
#357=CIRCLE('',#999,130.);
#358=CIRCLE('',#1000,7.);
#359=CIRCLE('',#1001,7.);
#360=CIRCLE('',#1002,7.);
#361=CIRCLE('',#1003,7.);
#362=CIRCLE('',#1004,7.);
#363=CIRCLE('',#1005,7.);
#364=CIRCLE('',#1006,7.);
#365=CIRCLE('',#1007,7.);
#366=CIRCLE('',#1008,7.);
#367=CIRCLE('',#1009,7.);
#368=CIRCLE('',#1010,7.);
#369=CIRCLE('',#1011,7.);
#370=CIRCLE('',#1012,7.);
#371=CIRCLE('',#1013,7.);
#372=CIRCLE('',#1014,7.);
#373=CIRCLE('',#1015,7.);
#374=CIRCLE('',#1016,7.);
#375=CIRCLE('',#1017,7.);
#376=CIRCLE('',#1018,7.);
#377=CIRCLE('',#1019,7.);
#378=CIRCLE('',#1020,7.);
#379=CIRCLE('',#1021,7.);
#380=CIRCLE('',#1022,7.);
#381=CIRCLE('',#1023,7.);
#382=CIRCLE('',#1024,7.);
#383=CIRCLE('',#1025,7.);
#384=CIRCLE('',#1026,7.);
#385=CIRCLE('',#1027,7.);
#386=CIRCLE('',#1028,7.);
#387=CIRCLE('',#1029,7.);
#388=CIRCLE('',#1030,7.);
#389=CIRCLE('',#1031,7.);
#390=CIRCLE('',#1033,7.);
#391=CIRCLE('',#1035,7.);
#392=CIRCLE('',#1037,7.);
#393=CIRCLE('',#1039,7.);
#394=CIRCLE('',#1041,7.);
#395=CIRCLE('',#1043,7.);
#396=CIRCLE('',#1045,7.);
#397=CIRCLE('',#1047,7.);
#398=CIRCLE('',#1049,7.);
#399=CIRCLE('',#1051,7.);
#400=CIRCLE('',#1053,7.);
#401=CIRCLE('',#1055,7.);
#402=CIRCLE('',#1057,7.);
#403=CIRCLE('',#1059,7.);
#404=CIRCLE('',#1061,7.);
#405=CIRCLE('',#1063,7.);
#406=CIRCLE('',#1065,7.);
#407=CIRCLE('',#1067,7.);
#408=CIRCLE('',#1069,7.);
#409=CIRCLE('',#1071,7.);
#410=CIRCLE('',#1073,7.);
#411=CIRCLE('',#1075,7.);
#412=CIRCLE('',#1077,7.);
#413=CIRCLE('',#1079,7.);
#414=CIRCLE('',#1081,7.);
#415=CIRCLE('',#1083,7.);
#416=CIRCLE('',#1085,7.);
#417=CIRCLE('',#1087,7.);
#418=CIRCLE('',#1089,7.);
#419=CIRCLE('',#1091,7.);
#420=CIRCLE('',#1093,7.);
#421=CIRCLE('',#1095,7.);
#422=CIRCLE('',#1097,175.);
#423=CIRCLE('',#1099,225.);
#424=CIRCLE('',#1100,225.);
#425=CIRCLE('',#1101,225.);
#426=CIRCLE('',#1104,160.);
#427=CIRCLE('',#1105,130.);
#428=CIRCLE('',#1107,160.);
#429=CIRCLE('',#1110,225.);
#430=CIRCLE('',#1111,225.);
#431=VERTEX_POINT('',#1418);
#432=VERTEX_POINT('',#1420);
#433=VERTEX_POINT('',#1424);
#434=VERTEX_POINT('',#1426);
#435=VERTEX_POINT('',#1428);
#436=VERTEX_POINT('',#1430);
#437=VERTEX_POINT('',#1432);
#438=VERTEX_POINT('',#1434);
#439=VERTEX_POINT('',#1436);
#440=VERTEX_POINT('',#1438);
#441=VERTEX_POINT('',#1440);
#442=VERTEX_POINT('',#1442);
#443=VERTEX_POINT('',#1444);
#444=VERTEX_POINT('',#1446);
#445=VERTEX_POINT('',#1448);
#446=VERTEX_POINT('',#1450);
#447=VERTEX_POINT('',#1452);
#448=VERTEX_POINT('',#1454);
#449=VERTEX_POINT('',#1456);
#450=VERTEX_POINT('',#1458);
#451=VERTEX_POINT('',#1460);
#452=VERTEX_POINT('',#1462);
#453=VERTEX_POINT('',#1464);
#454=VERTEX_POINT('',#1466);
#455=VERTEX_POINT('',#1468);
#456=VERTEX_POINT('',#1470);
#457=VERTEX_POINT('',#1472);
#458=VERTEX_POINT('',#1474);
#459=VERTEX_POINT('',#1476);
#460=VERTEX_POINT('',#1478);
#461=VERTEX_POINT('',#1480);
#462=VERTEX_POINT('',#1482);
#463=VERTEX_POINT('',#1484);
#464=VERTEX_POINT('',#1486);
#465=VERTEX_POINT('',#1488);
#466=VERTEX_POINT('',#1491);
#467=VERTEX_POINT('',#1495);
#468=VERTEX_POINT('',#1499);
#469=VERTEX_POINT('',#1503);
#470=VERTEX_POINT('',#1507);
#471=VERTEX_POINT('',#1511);
#472=VERTEX_POINT('',#1515);
#473=VERTEX_POINT('',#1519);
#474=VERTEX_POINT('',#1523);
#475=VERTEX_POINT('',#1527);
#476=VERTEX_POINT('',#1531);
#477=VERTEX_POINT('',#1535);
#478=VERTEX_POINT('',#1539);
#479=VERTEX_POINT('',#1543);
#480=VERTEX_POINT('',#1547);
#481=VERTEX_POINT('',#1551);
#482=VERTEX_POINT('',#1555);
#483=VERTEX_POINT('',#1559);
#484=VERTEX_POINT('',#1563);
#485=VERTEX_POINT('',#1567);
#486=VERTEX_POINT('',#1571);
#487=VERTEX_POINT('',#1575);
#488=VERTEX_POINT('',#1579);
#489=VERTEX_POINT('',#1583);
#490=VERTEX_POINT('',#1587);
#491=VERTEX_POINT('',#1591);
#492=VERTEX_POINT('',#1595);
#493=VERTEX_POINT('',#1599);
#494=VERTEX_POINT('',#1603);
#495=VERTEX_POINT('',#1607);
#496=VERTEX_POINT('',#1611);
#497=VERTEX_POINT('',#1615);
#498=VERTEX_POINT('',#1619);
#499=VERTEX_POINT('',#1620);
#500=VERTEX_POINT('',#1622);
#501=VERTEX_POINT('',#1653);
#502=VERTEX_POINT('',#1657);
#503=VERTEX_POINT('',#1659);
#504=VERTEX_POINT('',#1661);
#505=VERTEX_POINT('',#1663);
#506=VERTEX_POINT('',#1669);
#507=VERTEX_POINT('',#1671);
#508=VERTEX_POINT('',#1674);
#509=VERTEX_POINT('',#1680);
#510=VERTEX_POINT('',#1681);
#511=VERTEX_POINT('',#1683);
#512=VERTEX_POINT('',#1685);
#513=VERTEX_POINT('',#1693);
#514=VERTEX_POINT('',#1694);
#515=EDGE_CURVE('',#431,#431,#355,.T.);
#516=EDGE_CURVE('',#431,#432,#255,.T.);
#517=EDGE_CURVE('',#432,#432,#356,.T.);
#518=EDGE_CURVE('',#433,#433,#357,.T.);
#519=EDGE_CURVE('',#434,#434,#358,.T.);
#520=EDGE_CURVE('',#435,#435,#359,.T.);
#521=EDGE_CURVE('',#436,#436,#360,.T.);
#522=EDGE_CURVE('',#437,#437,#361,.T.);
#523=EDGE_CURVE('',#438,#438,#362,.T.);
#524=EDGE_CURVE('',#439,#439,#363,.T.);
#525=EDGE_CURVE('',#440,#440,#364,.T.);
#526=EDGE_CURVE('',#441,#441,#365,.T.);
#527=EDGE_CURVE('',#442,#442,#366,.T.);
#528=EDGE_CURVE('',#443,#443,#367,.T.);
#529=EDGE_CURVE('',#444,#444,#368,.T.);
#530=EDGE_CURVE('',#445,#445,#369,.T.);
#531=EDGE_CURVE('',#446,#446,#370,.T.);
#532=EDGE_CURVE('',#447,#447,#371,.T.);
#533=EDGE_CURVE('',#448,#448,#372,.T.);
#534=EDGE_CURVE('',#449,#449,#373,.T.);
#535=EDGE_CURVE('',#450,#450,#374,.T.);
#536=EDGE_CURVE('',#451,#451,#375,.T.);
#537=EDGE_CURVE('',#452,#452,#376,.T.);
#538=EDGE_CURVE('',#453,#453,#377,.T.);
#539=EDGE_CURVE('',#454,#454,#378,.T.);
#540=EDGE_CURVE('',#455,#455,#379,.T.);
#541=EDGE_CURVE('',#456,#456,#380,.T.);
#542=EDGE_CURVE('',#457,#457,#381,.T.);
#543=EDGE_CURVE('',#458,#458,#382,.T.);
#544=EDGE_CURVE('',#459,#459,#383,.T.);
#545=EDGE_CURVE('',#460,#460,#384,.T.);
#546=EDGE_CURVE('',#461,#461,#385,.T.);
#547=EDGE_CURVE('',#462,#462,#386,.T.);
#548=EDGE_CURVE('',#463,#463,#387,.T.);
#549=EDGE_CURVE('',#464,#464,#388,.T.);
#550=EDGE_CURVE('',#465,#465,#389,.T.);
#551=EDGE_CURVE('',#465,#466,#256,.T.);
#552=EDGE_CURVE('',#466,#466,#390,.T.);
#553=EDGE_CURVE('',#464,#467,#257,.T.);
#554=EDGE_CURVE('',#467,#467,#391,.T.);
#555=EDGE_CURVE('',#463,#468,#258,.T.);
#556=EDGE_CURVE('',#468,#468,#392,.T.);
#557=EDGE_CURVE('',#462,#469,#259,.T.);
#558=EDGE_CURVE('',#469,#469,#393,.T.);
#559=EDGE_CURVE('',#461,#470,#260,.T.);
#560=EDGE_CURVE('',#470,#470,#394,.T.);
#561=EDGE_CURVE('',#460,#471,#261,.T.);
#562=EDGE_CURVE('',#471,#471,#395,.T.);
#563=EDGE_CURVE('',#459,#472,#262,.T.);
#564=EDGE_CURVE('',#472,#472,#396,.T.);
#565=EDGE_CURVE('',#458,#473,#263,.T.);
#566=EDGE_CURVE('',#473,#473,#397,.T.);
#567=EDGE_CURVE('',#457,#474,#264,.T.);
#568=EDGE_CURVE('',#474,#474,#398,.T.);
#569=EDGE_CURVE('',#456,#475,#265,.T.);
#570=EDGE_CURVE('',#475,#475,#399,.T.);
#571=EDGE_CURVE('',#455,#476,#266,.T.);
#572=EDGE_CURVE('',#476,#476,#400,.T.);
#573=EDGE_CURVE('',#454,#477,#267,.T.);
#574=EDGE_CURVE('',#477,#477,#401,.T.);
#575=EDGE_CURVE('',#453,#478,#268,.T.);
#576=EDGE_CURVE('',#478,#478,#402,.T.);
#577=EDGE_CURVE('',#452,#479,#269,.T.);
#578=EDGE_CURVE('',#479,#479,#403,.T.);
#579=EDGE_CURVE('',#451,#480,#270,.T.);
#580=EDGE_CURVE('',#480,#480,#404,.T.);
#581=EDGE_CURVE('',#450,#481,#271,.T.);
#582=EDGE_CURVE('',#481,#481,#405,.T.);
#583=EDGE_CURVE('',#449,#482,#272,.T.);
#584=EDGE_CURVE('',#482,#482,#406,.T.);
#585=EDGE_CURVE('',#448,#483,#273,.T.);
#586=EDGE_CURVE('',#483,#483,#407,.T.);
#587=EDGE_CURVE('',#447,#484,#274,.T.);
#588=EDGE_CURVE('',#484,#484,#408,.T.);
#589=EDGE_CURVE('',#446,#485,#275,.T.);
#590=EDGE_CURVE('',#485,#485,#409,.T.);
#591=EDGE_CURVE('',#445,#486,#276,.T.);
#592=EDGE_CURVE('',#486,#486,#410,.T.);
#593=EDGE_CURVE('',#444,#487,#277,.T.);
#594=EDGE_CURVE('',#487,#487,#411,.T.);
#595=EDGE_CURVE('',#443,#488,#278,.T.);
#596=EDGE_CURVE('',#488,#488,#412,.T.);
#597=EDGE_CURVE('',#442,#489,#279,.T.);
#598=EDGE_CURVE('',#489,#489,#413,.T.);
#599=EDGE_CURVE('',#441,#490,#280,.T.);
#600=EDGE_CURVE('',#490,#490,#414,.T.);
#601=EDGE_CURVE('',#440,#491,#281,.T.);
#602=EDGE_CURVE('',#491,#491,#415,.T.);
#603=EDGE_CURVE('',#439,#492,#282,.T.);
#604=EDGE_CURVE('',#492,#492,#416,.T.);
#605=EDGE_CURVE('',#438,#493,#283,.T.);
#606=EDGE_CURVE('',#493,#493,#417,.T.);
#607=EDGE_CURVE('',#437,#494,#284,.T.);
#608=EDGE_CURVE('',#494,#494,#418,.T.);
#609=EDGE_CURVE('',#436,#495,#285,.T.);
#610=EDGE_CURVE('',#495,#495,#419,.T.);
#611=EDGE_CURVE('',#435,#496,#286,.T.);
#612=EDGE_CURVE('',#496,#496,#420,.T.);
#613=EDGE_CURVE('',#434,#497,#287,.T.);
#614=EDGE_CURVE('',#497,#497,#421,.T.);
#615=EDGE_CURVE('',#498,#499,#288,.T.);
#616=EDGE_CURVE('',#500,#498,#15,.T.);
#617=EDGE_CURVE('',#501,#500,#289,.T.);
#618=EDGE_CURVE('',#499,#501,#422,.T.);
#619=EDGE_CURVE('',#502,#498,#423,.T.);
#620=EDGE_CURVE('',#503,#502,#290,.T.);
#621=EDGE_CURVE('',#503,#504,#424,.T.);
#622=EDGE_CURVE('',#504,#505,#291,.T.);
#623=EDGE_CURVE('',#500,#505,#425,.T.);
#624=EDGE_CURVE('',#499,#502,#292,.T.);
#625=EDGE_CURVE('',#506,#506,#426,.T.);
#626=EDGE_CURVE('',#507,#507,#427,.T.);
#627=EDGE_CURVE('',#508,#508,#428,.T.);
#628=EDGE_CURVE('',#508,#506,#293,.T.);
#629=EDGE_CURVE('',#507,#433,#294,.T.);
#630=EDGE_CURVE('',#509,#510,#295,.T.);
#631=EDGE_CURVE('',#510,#511,#429,.T.);
#632=EDGE_CURVE('',#511,#512,#296,.T.);
#633=EDGE_CURVE('',#509,#512,#430,.T.);
#634=EDGE_CURVE('',#505,#501,#297,.T.);
#635=EDGE_CURVE('',#505,#509,#298,.T.);
#636=EDGE_CURVE('',#502,#512,#299,.T.);
#637=EDGE_CURVE('',#513,#514,#300,.T.);
#638=EDGE_CURVE('',#513,#511,#301,.T.);
#639=EDGE_CURVE('',#514,#510,#302,.T.);
#640=EDGE_CURVE('',#514,#504,#303,.T.);
#641=EDGE_CURVE('',#503,#513,#304,.T.);
#642=ORIENTED_EDGE('',*,*,#515,.F.);
#643=ORIENTED_EDGE('',*,*,#516,.T.);
#644=ORIENTED_EDGE('',*,*,#517,.T.);
#645=ORIENTED_EDGE('',*,*,#516,.F.);
#646=ORIENTED_EDGE('',*,*,#517,.F.);
#647=ORIENTED_EDGE('',*,*,#518,.F.);
#648=ORIENTED_EDGE('',*,*,#519,.F.);
#649=ORIENTED_EDGE('',*,*,#520,.F.);
#650=ORIENTED_EDGE('',*,*,#521,.F.);
#651=ORIENTED_EDGE('',*,*,#522,.F.);
#652=ORIENTED_EDGE('',*,*,#523,.F.);
#653=ORIENTED_EDGE('',*,*,#524,.F.);
#654=ORIENTED_EDGE('',*,*,#525,.F.);
#655=ORIENTED_EDGE('',*,*,#526,.F.);
#656=ORIENTED_EDGE('',*,*,#527,.F.);
#657=ORIENTED_EDGE('',*,*,#528,.F.);
#658=ORIENTED_EDGE('',*,*,#529,.F.);
#659=ORIENTED_EDGE('',*,*,#530,.F.);
#660=ORIENTED_EDGE('',*,*,#531,.F.);
#661=ORIENTED_EDGE('',*,*,#532,.F.);
#662=ORIENTED_EDGE('',*,*,#533,.F.);
#663=ORIENTED_EDGE('',*,*,#534,.F.);
#664=ORIENTED_EDGE('',*,*,#535,.F.);
#665=ORIENTED_EDGE('',*,*,#536,.F.);
#666=ORIENTED_EDGE('',*,*,#537,.F.);
#667=ORIENTED_EDGE('',*,*,#538,.F.);
#668=ORIENTED_EDGE('',*,*,#539,.F.);
#669=ORIENTED_EDGE('',*,*,#540,.F.);
#670=ORIENTED_EDGE('',*,*,#541,.F.);
#671=ORIENTED_EDGE('',*,*,#542,.F.);
#672=ORIENTED_EDGE('',*,*,#543,.F.);
#673=ORIENTED_EDGE('',*,*,#544,.F.);
#674=ORIENTED_EDGE('',*,*,#545,.F.);
#675=ORIENTED_EDGE('',*,*,#546,.F.);
#676=ORIENTED_EDGE('',*,*,#547,.F.);
#677=ORIENTED_EDGE('',*,*,#548,.F.);
#678=ORIENTED_EDGE('',*,*,#549,.F.);
#679=ORIENTED_EDGE('',*,*,#550,.F.);
#680=ORIENTED_EDGE('',*,*,#550,.T.);
#681=ORIENTED_EDGE('',*,*,#551,.T.);
#682=ORIENTED_EDGE('',*,*,#552,.F.);
#683=ORIENTED_EDGE('',*,*,#551,.F.);
#684=ORIENTED_EDGE('',*,*,#549,.T.);
#685=ORIENTED_EDGE('',*,*,#553,.T.);
#686=ORIENTED_EDGE('',*,*,#554,.F.);
#687=ORIENTED_EDGE('',*,*,#553,.F.);
#688=ORIENTED_EDGE('',*,*,#548,.T.);
#689=ORIENTED_EDGE('',*,*,#555,.T.);
#690=ORIENTED_EDGE('',*,*,#556,.F.);
#691=ORIENTED_EDGE('',*,*,#555,.F.);
#692=ORIENTED_EDGE('',*,*,#547,.T.);
#693=ORIENTED_EDGE('',*,*,#557,.T.);
#694=ORIENTED_EDGE('',*,*,#558,.F.);
#695=ORIENTED_EDGE('',*,*,#557,.F.);
#696=ORIENTED_EDGE('',*,*,#546,.T.);
#697=ORIENTED_EDGE('',*,*,#559,.T.);
#698=ORIENTED_EDGE('',*,*,#560,.F.);
#699=ORIENTED_EDGE('',*,*,#559,.F.);
#700=ORIENTED_EDGE('',*,*,#545,.T.);
#701=ORIENTED_EDGE('',*,*,#561,.T.);
#702=ORIENTED_EDGE('',*,*,#562,.F.);
#703=ORIENTED_EDGE('',*,*,#561,.F.);
#704=ORIENTED_EDGE('',*,*,#544,.T.);
#705=ORIENTED_EDGE('',*,*,#563,.T.);
#706=ORIENTED_EDGE('',*,*,#564,.F.);
#707=ORIENTED_EDGE('',*,*,#563,.F.);
#708=ORIENTED_EDGE('',*,*,#543,.T.);
#709=ORIENTED_EDGE('',*,*,#565,.T.);
#710=ORIENTED_EDGE('',*,*,#566,.F.);
#711=ORIENTED_EDGE('',*,*,#565,.F.);
#712=ORIENTED_EDGE('',*,*,#542,.T.);
#713=ORIENTED_EDGE('',*,*,#567,.T.);
#714=ORIENTED_EDGE('',*,*,#568,.F.);
#715=ORIENTED_EDGE('',*,*,#567,.F.);
#716=ORIENTED_EDGE('',*,*,#541,.T.);
#717=ORIENTED_EDGE('',*,*,#569,.T.);
#718=ORIENTED_EDGE('',*,*,#570,.F.);
#719=ORIENTED_EDGE('',*,*,#569,.F.);
#720=ORIENTED_EDGE('',*,*,#540,.T.);
#721=ORIENTED_EDGE('',*,*,#571,.T.);
#722=ORIENTED_EDGE('',*,*,#572,.F.);
#723=ORIENTED_EDGE('',*,*,#571,.F.);
#724=ORIENTED_EDGE('',*,*,#539,.T.);
#725=ORIENTED_EDGE('',*,*,#573,.T.);
#726=ORIENTED_EDGE('',*,*,#574,.F.);
#727=ORIENTED_EDGE('',*,*,#573,.F.);
#728=ORIENTED_EDGE('',*,*,#538,.T.);
#729=ORIENTED_EDGE('',*,*,#575,.T.);
#730=ORIENTED_EDGE('',*,*,#576,.F.);
#731=ORIENTED_EDGE('',*,*,#575,.F.);
#732=ORIENTED_EDGE('',*,*,#537,.T.);
#733=ORIENTED_EDGE('',*,*,#577,.T.);
#734=ORIENTED_EDGE('',*,*,#578,.F.);
#735=ORIENTED_EDGE('',*,*,#577,.F.);
#736=ORIENTED_EDGE('',*,*,#536,.T.);
#737=ORIENTED_EDGE('',*,*,#579,.T.);
#738=ORIENTED_EDGE('',*,*,#580,.F.);
#739=ORIENTED_EDGE('',*,*,#579,.F.);
#740=ORIENTED_EDGE('',*,*,#535,.T.);
#741=ORIENTED_EDGE('',*,*,#581,.T.);
#742=ORIENTED_EDGE('',*,*,#582,.F.);
#743=ORIENTED_EDGE('',*,*,#581,.F.);
#744=ORIENTED_EDGE('',*,*,#534,.T.);
#745=ORIENTED_EDGE('',*,*,#583,.T.);
#746=ORIENTED_EDGE('',*,*,#584,.F.);
#747=ORIENTED_EDGE('',*,*,#583,.F.);
#748=ORIENTED_EDGE('',*,*,#533,.T.);
#749=ORIENTED_EDGE('',*,*,#585,.T.);
#750=ORIENTED_EDGE('',*,*,#586,.F.);
#751=ORIENTED_EDGE('',*,*,#585,.F.);
#752=ORIENTED_EDGE('',*,*,#532,.T.);
#753=ORIENTED_EDGE('',*,*,#587,.T.);
#754=ORIENTED_EDGE('',*,*,#588,.F.);
#755=ORIENTED_EDGE('',*,*,#587,.F.);
#756=ORIENTED_EDGE('',*,*,#531,.T.);
#757=ORIENTED_EDGE('',*,*,#589,.T.);
#758=ORIENTED_EDGE('',*,*,#590,.F.);
#759=ORIENTED_EDGE('',*,*,#589,.F.);
#760=ORIENTED_EDGE('',*,*,#530,.T.);
#761=ORIENTED_EDGE('',*,*,#591,.T.);
#762=ORIENTED_EDGE('',*,*,#592,.F.);
#763=ORIENTED_EDGE('',*,*,#591,.F.);
#764=ORIENTED_EDGE('',*,*,#529,.T.);
#765=ORIENTED_EDGE('',*,*,#593,.T.);
#766=ORIENTED_EDGE('',*,*,#594,.F.);
#767=ORIENTED_EDGE('',*,*,#593,.F.);
#768=ORIENTED_EDGE('',*,*,#528,.T.);
#769=ORIENTED_EDGE('',*,*,#595,.T.);
#770=ORIENTED_EDGE('',*,*,#596,.F.);
#771=ORIENTED_EDGE('',*,*,#595,.F.);
#772=ORIENTED_EDGE('',*,*,#527,.T.);
#773=ORIENTED_EDGE('',*,*,#597,.T.);
#774=ORIENTED_EDGE('',*,*,#598,.F.);
#775=ORIENTED_EDGE('',*,*,#597,.F.);
#776=ORIENTED_EDGE('',*,*,#526,.T.);
#777=ORIENTED_EDGE('',*,*,#599,.T.);
#778=ORIENTED_EDGE('',*,*,#600,.F.);
#779=ORIENTED_EDGE('',*,*,#599,.F.);
#780=ORIENTED_EDGE('',*,*,#525,.T.);
#781=ORIENTED_EDGE('',*,*,#601,.T.);
#782=ORIENTED_EDGE('',*,*,#602,.F.);
#783=ORIENTED_EDGE('',*,*,#601,.F.);
#784=ORIENTED_EDGE('',*,*,#524,.T.);
#785=ORIENTED_EDGE('',*,*,#603,.T.);
#786=ORIENTED_EDGE('',*,*,#604,.F.);
#787=ORIENTED_EDGE('',*,*,#603,.F.);
#788=ORIENTED_EDGE('',*,*,#523,.T.);
#789=ORIENTED_EDGE('',*,*,#605,.T.);
#790=ORIENTED_EDGE('',*,*,#606,.F.);
#791=ORIENTED_EDGE('',*,*,#605,.F.);
#792=ORIENTED_EDGE('',*,*,#522,.T.);
#793=ORIENTED_EDGE('',*,*,#607,.T.);
#794=ORIENTED_EDGE('',*,*,#608,.F.);
#795=ORIENTED_EDGE('',*,*,#607,.F.);
#796=ORIENTED_EDGE('',*,*,#521,.T.);
#797=ORIENTED_EDGE('',*,*,#609,.T.);
#798=ORIENTED_EDGE('',*,*,#610,.F.);
#799=ORIENTED_EDGE('',*,*,#609,.F.);
#800=ORIENTED_EDGE('',*,*,#520,.T.);
#801=ORIENTED_EDGE('',*,*,#611,.T.);
#802=ORIENTED_EDGE('',*,*,#612,.F.);
#803=ORIENTED_EDGE('',*,*,#611,.F.);
#804=ORIENTED_EDGE('',*,*,#519,.T.);
#805=ORIENTED_EDGE('',*,*,#613,.T.);
#806=ORIENTED_EDGE('',*,*,#614,.F.);
#807=ORIENTED_EDGE('',*,*,#613,.F.);
#808=ORIENTED_EDGE('',*,*,#615,.F.);
#809=ORIENTED_EDGE('',*,*,#616,.F.);
#810=ORIENTED_EDGE('',*,*,#617,.F.);
#811=ORIENTED_EDGE('',*,*,#618,.F.);
#812=ORIENTED_EDGE('',*,*,#616,.T.);
#813=ORIENTED_EDGE('',*,*,#619,.F.);
#814=ORIENTED_EDGE('',*,*,#620,.F.);
#815=ORIENTED_EDGE('',*,*,#621,.T.);
#816=ORIENTED_EDGE('',*,*,#622,.T.);
#817=ORIENTED_EDGE('',*,*,#623,.F.);
#818=ORIENTED_EDGE('',*,*,#615,.T.);
#819=ORIENTED_EDGE('',*,*,#624,.T.);
#820=ORIENTED_EDGE('',*,*,#619,.T.);
#821=ORIENTED_EDGE('',*,*,#625,.F.);
#822=ORIENTED_EDGE('',*,*,#626,.T.);
#823=ORIENTED_EDGE('',*,*,#614,.T.);
#824=ORIENTED_EDGE('',*,*,#612,.T.);
#825=ORIENTED_EDGE('',*,*,#610,.T.);
#826=ORIENTED_EDGE('',*,*,#608,.T.);
#827=ORIENTED_EDGE('',*,*,#606,.T.);
#828=ORIENTED_EDGE('',*,*,#604,.T.);
#829=ORIENTED_EDGE('',*,*,#602,.T.);
#830=ORIENTED_EDGE('',*,*,#600,.T.);
#831=ORIENTED_EDGE('',*,*,#598,.T.);
#832=ORIENTED_EDGE('',*,*,#596,.T.);
#833=ORIENTED_EDGE('',*,*,#594,.T.);
#834=ORIENTED_EDGE('',*,*,#592,.T.);
#835=ORIENTED_EDGE('',*,*,#590,.T.);
#836=ORIENTED_EDGE('',*,*,#588,.T.);
#837=ORIENTED_EDGE('',*,*,#586,.T.);
#838=ORIENTED_EDGE('',*,*,#584,.T.);
#839=ORIENTED_EDGE('',*,*,#582,.T.);
#840=ORIENTED_EDGE('',*,*,#580,.T.);
#841=ORIENTED_EDGE('',*,*,#578,.T.);
#842=ORIENTED_EDGE('',*,*,#576,.T.);
#843=ORIENTED_EDGE('',*,*,#574,.T.);
#844=ORIENTED_EDGE('',*,*,#572,.T.);
#845=ORIENTED_EDGE('',*,*,#570,.T.);
#846=ORIENTED_EDGE('',*,*,#568,.T.);
#847=ORIENTED_EDGE('',*,*,#566,.T.);
#848=ORIENTED_EDGE('',*,*,#564,.T.);
#849=ORIENTED_EDGE('',*,*,#562,.T.);
#850=ORIENTED_EDGE('',*,*,#560,.T.);
#851=ORIENTED_EDGE('',*,*,#558,.T.);
#852=ORIENTED_EDGE('',*,*,#556,.T.);
#853=ORIENTED_EDGE('',*,*,#554,.T.);
#854=ORIENTED_EDGE('',*,*,#552,.T.);
#855=ORIENTED_EDGE('',*,*,#627,.F.);
#856=ORIENTED_EDGE('',*,*,#628,.T.);
#857=ORIENTED_EDGE('',*,*,#625,.T.);
#858=ORIENTED_EDGE('',*,*,#628,.F.);
#859=ORIENTED_EDGE('',*,*,#626,.F.);
#860=ORIENTED_EDGE('',*,*,#629,.T.);
#861=ORIENTED_EDGE('',*,*,#518,.T.);
#862=ORIENTED_EDGE('',*,*,#629,.F.);
#863=ORIENTED_EDGE('',*,*,#630,.T.);
#864=ORIENTED_EDGE('',*,*,#631,.T.);
#865=ORIENTED_EDGE('',*,*,#632,.T.);
#866=ORIENTED_EDGE('',*,*,#633,.F.);
#867=ORIENTED_EDGE('',*,*,#634,.F.);
#868=ORIENTED_EDGE('',*,*,#635,.T.);
#869=ORIENTED_EDGE('',*,*,#633,.T.);
#870=ORIENTED_EDGE('',*,*,#636,.F.);
#871=ORIENTED_EDGE('',*,*,#624,.F.);
#872=ORIENTED_EDGE('',*,*,#618,.T.);
#873=ORIENTED_EDGE('',*,*,#515,.T.);
#874=ORIENTED_EDGE('',*,*,#637,.F.);
#875=ORIENTED_EDGE('',*,*,#638,.T.);
#876=ORIENTED_EDGE('',*,*,#631,.F.);
#877=ORIENTED_EDGE('',*,*,#639,.F.);
#878=ORIENTED_EDGE('',*,*,#627,.T.);
#879=ORIENTED_EDGE('',*,*,#640,.F.);
#880=ORIENTED_EDGE('',*,*,#639,.T.);
#881=ORIENTED_EDGE('',*,*,#630,.F.);
#882=ORIENTED_EDGE('',*,*,#635,.F.);
#883=ORIENTED_EDGE('',*,*,#622,.F.);
#884=ORIENTED_EDGE('',*,*,#641,.F.);
#885=ORIENTED_EDGE('',*,*,#620,.T.);
#886=ORIENTED_EDGE('',*,*,#636,.T.);
#887=ORIENTED_EDGE('',*,*,#632,.F.);
#888=ORIENTED_EDGE('',*,*,#638,.F.);
#889=ORIENTED_EDGE('',*,*,#617,.T.);
#890=ORIENTED_EDGE('',*,*,#623,.T.);
#891=ORIENTED_EDGE('',*,*,#634,.T.);
#892=ORIENTED_EDGE('',*,*,#641,.T.);
#893=ORIENTED_EDGE('',*,*,#637,.T.);
#894=ORIENTED_EDGE('',*,*,#640,.T.);
#895=ORIENTED_EDGE('',*,*,#621,.F.);
#896=CYLINDRICAL_SURFACE('',#995,155.);
#897=CYLINDRICAL_SURFACE('',#1032,7.);
#898=CYLINDRICAL_SURFACE('',#1034,7.);
#899=CYLINDRICAL_SURFACE('',#1036,7.);
#900=CYLINDRICAL_SURFACE('',#1038,7.);
#901=CYLINDRICAL_SURFACE('',#1040,7.);
#902=CYLINDRICAL_SURFACE('',#1042,7.);
#903=CYLINDRICAL_SURFACE('',#1044,7.);
#904=CYLINDRICAL_SURFACE('',#1046,7.);
#905=CYLINDRICAL_SURFACE('',#1048,7.);
#906=CYLINDRICAL_SURFACE('',#1050,7.);
#907=CYLINDRICAL_SURFACE('',#1052,7.);
#908=CYLINDRICAL_SURFACE('',#1054,7.);
#909=CYLINDRICAL_SURFACE('',#1056,7.);
#910=CYLINDRICAL_SURFACE('',#1058,7.);
#911=CYLINDRICAL_SURFACE('',#1060,7.);
#912=CYLINDRICAL_SURFACE('',#1062,7.);
#913=CYLINDRICAL_SURFACE('',#1064,7.);
#914=CYLINDRICAL_SURFACE('',#1066,7.);
#915=CYLINDRICAL_SURFACE('',#1068,7.);
#916=CYLINDRICAL_SURFACE('',#1070,7.);
#917=CYLINDRICAL_SURFACE('',#1072,7.);
#918=CYLINDRICAL_SURFACE('',#1074,7.);
#919=CYLINDRICAL_SURFACE('',#1076,7.);
#920=CYLINDRICAL_SURFACE('',#1078,7.);
#921=CYLINDRICAL_SURFACE('',#1080,7.);
#922=CYLINDRICAL_SURFACE('',#1082,7.);
#923=CYLINDRICAL_SURFACE('',#1084,7.);
#924=CYLINDRICAL_SURFACE('',#1086,7.);
#925=CYLINDRICAL_SURFACE('',#1088,7.);
#926=CYLINDRICAL_SURFACE('',#1090,7.);
#927=CYLINDRICAL_SURFACE('',#1092,7.);
#928=CYLINDRICAL_SURFACE('',#1094,7.);
#929=CYLINDRICAL_SURFACE('',#1096,175.);
#930=CYLINDRICAL_SURFACE('',#1098,225.);
#931=CYLINDRICAL_SURFACE('',#1106,160.);
#932=CYLINDRICAL_SURFACE('',#1108,130.);
#933=CYLINDRICAL_SURFACE('',#1109,225.);
#934=ADVANCED_FACE('',(#93),#896,.F.);
#935=ADVANCED_FACE('',(#94,#16,#17,#18,#19,#20,#21,#22,#23,#24,#25,#26,
#27,#28,#29,#30,#31,#32,#33,#34,#35,#36,#37,#38,#39,#40,#41,#42,#43,#44,
#45,#46,#47,#48),#84,.F.);
#936=ADVANCED_FACE('',(#95),#897,.F.);
#937=ADVANCED_FACE('',(#96),#898,.F.);
#938=ADVANCED_FACE('',(#97),#899,.F.);
#939=ADVANCED_FACE('',(#98),#900,.F.);
#940=ADVANCED_FACE('',(#99),#901,.F.);
#941=ADVANCED_FACE('',(#100),#902,.F.);
#942=ADVANCED_FACE('',(#101),#903,.F.);
#943=ADVANCED_FACE('',(#102),#904,.F.);
#944=ADVANCED_FACE('',(#103),#905,.F.);
#945=ADVANCED_FACE('',(#104),#906,.F.);
#946=ADVANCED_FACE('',(#105),#907,.F.);
#947=ADVANCED_FACE('',(#106),#908,.F.);
#948=ADVANCED_FACE('',(#107),#909,.F.);
#949=ADVANCED_FACE('',(#108),#910,.F.);
#950=ADVANCED_FACE('',(#109),#911,.F.);
#951=ADVANCED_FACE('',(#110),#912,.F.);
#952=ADVANCED_FACE('',(#111),#913,.F.);
#953=ADVANCED_FACE('',(#112),#914,.F.);
#954=ADVANCED_FACE('',(#113),#915,.F.);
#955=ADVANCED_FACE('',(#114),#916,.F.);
#956=ADVANCED_FACE('',(#115),#917,.F.);
#957=ADVANCED_FACE('',(#116),#918,.F.);
#958=ADVANCED_FACE('',(#117),#919,.F.);
#959=ADVANCED_FACE('',(#118),#920,.F.);
#960=ADVANCED_FACE('',(#119),#921,.F.);
#961=ADVANCED_FACE('',(#120),#922,.F.);
#962=ADVANCED_FACE('',(#121),#923,.F.);
#963=ADVANCED_FACE('',(#122),#924,.F.);
#964=ADVANCED_FACE('',(#123),#925,.F.);
#965=ADVANCED_FACE('',(#124),#926,.F.);
#966=ADVANCED_FACE('',(#125),#927,.F.);
#967=ADVANCED_FACE('',(#126),#928,.F.);
#968=ADVANCED_FACE('',(#127),#929,.F.);
#969=ADVANCED_FACE('',(#128),#930,.T.);
#970=ADVANCED_FACE('',(#129),#85,.T.);
#971=ADVANCED_FACE('',(#130,#49,#50,#51,#52,#53,#54,#55,#56,#57,#58,#59,
#60,#61,#62,#63,#64,#65,#66,#67,#68,#69,#70,#71,#72,#73,#74,#75,#76,#77,
#78,#79,#80,#81),#86,.F.);
#972=ADVANCED_FACE('',(#131),#931,.F.);
#973=ADVANCED_FACE('',(#132),#932,.F.);
#974=ADVANCED_FACE('',(#133),#933,.T.);
#975=ADVANCED_FACE('',(#134,#82),#87,.T.);
#976=ADVANCED_FACE('',(#135,#83),#88,.T.);
#977=ADVANCED_FACE('',(#136),#89,.T.);
#978=ADVANCED_FACE('',(#137),#90,.T.);
#979=ADVANCED_FACE('',(#138),#91,.T.);
#980=ADVANCED_FACE('',(#139),#92,.F.);
#981=CLOSED_SHELL('',(#934,#935,#936,#937,#938,#939,#940,#941,#942,#943,
#944,#945,#946,#947,#948,#949,#950,#951,#952,#953,#954,#955,#956,#957,#958,
#959,#960,#961,#962,#963,#964,#965,#966,#967,#968,#969,#970,#971,#972,#973,
#974,#975,#976,#977,#978,#979,#980));
#982=DERIVED_UNIT_ELEMENT(#984,1.);
#983=DERIVED_UNIT_ELEMENT(#1709,-3.);
#984=(
MASS_UNIT()
NAMED_UNIT(*)
SI_UNIT(.KILO.,.GRAM.)
);
#985=DERIVED_UNIT((#982,#983));
#986=MEASURE_REPRESENTATION_ITEM('density measure',
POSITIVE_RATIO_MEASURE(7850.),#985);
#987=PROPERTY_DEFINITION_REPRESENTATION(#992,#989);
#988=PROPERTY_DEFINITION_REPRESENTATION(#993,#990);
#989=REPRESENTATION('material name',(#991),#1706);
#990=REPRESENTATION('density',(#986),#1706);
#991=DESCRIPTIVE_REPRESENTATION_ITEM('Steel','Steel');
#992=PROPERTY_DEFINITION('material property','material name',#1716);
#993=PROPERTY_DEFINITION('material property','density of part',#1716);
#994=AXIS2_PLACEMENT_3D('',#1416,#1118,#1119);
#995=AXIS2_PLACEMENT_3D('',#1417,#1120,#1121);
#996=AXIS2_PLACEMENT_3D('',#1419,#1122,#1123);
#997=AXIS2_PLACEMENT_3D('',#1422,#1125,#1126);
#998=AXIS2_PLACEMENT_3D('',#1423,#1127,#1128);
#999=AXIS2_PLACEMENT_3D('',#1425,#1129,#1130);
#1000=AXIS2_PLACEMENT_3D('',#1427,#1131,#1132);
#1001=AXIS2_PLACEMENT_3D('',#1429,#1133,#1134);
#1002=AXIS2_PLACEMENT_3D('',#1431,#1135,#1136);
#1003=AXIS2_PLACEMENT_3D('',#1433,#1137,#1138);
#1004=AXIS2_PLACEMENT_3D('',#1435,#1139,#1140);
#1005=AXIS2_PLACEMENT_3D('',#1437,#1141,#1142);
#1006=AXIS2_PLACEMENT_3D('',#1439,#1143,#1144);
#1007=AXIS2_PLACEMENT_3D('',#1441,#1145,#1146);
#1008=AXIS2_PLACEMENT_3D('',#1443,#1147,#1148);
#1009=AXIS2_PLACEMENT_3D('',#1445,#1149,#1150);
#1010=AXIS2_PLACEMENT_3D('',#1447,#1151,#1152);
#1011=AXIS2_PLACEMENT_3D('',#1449,#1153,#1154);
#1012=AXIS2_PLACEMENT_3D('',#1451,#1155,#1156);
#1013=AXIS2_PLACEMENT_3D('',#1453,#1157,#1158);
#1014=AXIS2_PLACEMENT_3D('',#1455,#1159,#1160);
#1015=AXIS2_PLACEMENT_3D('',#1457,#1161,#1162);
#1016=AXIS2_PLACEMENT_3D('',#1459,#1163,#1164);
#1017=AXIS2_PLACEMENT_3D('',#1461,#1165,#1166);
#1018=AXIS2_PLACEMENT_3D('',#1463,#1167,#1168);
#1019=AXIS2_PLACEMENT_3D('',#1465,#1169,#1170);
#1020=AXIS2_PLACEMENT_3D('',#1467,#1171,#1172);
#1021=AXIS2_PLACEMENT_3D('',#1469,#1173,#1174);
#1022=AXIS2_PLACEMENT_3D('',#1471,#1175,#1176);
#1023=AXIS2_PLACEMENT_3D('',#1473,#1177,#1178);
#1024=AXIS2_PLACEMENT_3D('',#1475,#1179,#1180);
#1025=AXIS2_PLACEMENT_3D('',#1477,#1181,#1182);
#1026=AXIS2_PLACEMENT_3D('',#1479,#1183,#1184);
#1027=AXIS2_PLACEMENT_3D('',#1481,#1185,#1186);
#1028=AXIS2_PLACEMENT_3D('',#1483,#1187,#1188);
#1029=AXIS2_PLACEMENT_3D('',#1485,#1189,#1190);
#1030=AXIS2_PLACEMENT_3D('',#1487,#1191,#1192);
#1031=AXIS2_PLACEMENT_3D('',#1489,#1193,#1194);
#1032=AXIS2_PLACEMENT_3D('',#1490,#1195,#1196);
#1033=AXIS2_PLACEMENT_3D('',#1493,#1198,#1199);
#1034=AXIS2_PLACEMENT_3D('',#1494,#1200,#1201);
#1035=AXIS2_PLACEMENT_3D('',#1497,#1203,#1204);
#1036=AXIS2_PLACEMENT_3D('',#1498,#1205,#1206);
#1037=AXIS2_PLACEMENT_3D('',#1501,#1208,#1209);
#1038=AXIS2_PLACEMENT_3D('',#1502,#1210,#1211);
#1039=AXIS2_PLACEMENT_3D('',#1505,#1213,#1214);
#1040=AXIS2_PLACEMENT_3D('',#1506,#1215,#1216);
#1041=AXIS2_PLACEMENT_3D('',#1509,#1218,#1219);
#1042=AXIS2_PLACEMENT_3D('',#1510,#1220,#1221);
#1043=AXIS2_PLACEMENT_3D('',#1513,#1223,#1224);
#1044=AXIS2_PLACEMENT_3D('',#1514,#1225,#1226);
#1045=AXIS2_PLACEMENT_3D('',#1517,#1228,#1229);
#1046=AXIS2_PLACEMENT_3D('',#1518,#1230,#1231);
#1047=AXIS2_PLACEMENT_3D('',#1521,#1233,#1234);
#1048=AXIS2_PLACEMENT_3D('',#1522,#1235,#1236);
#1049=AXIS2_PLACEMENT_3D('',#1525,#1238,#1239);
#1050=AXIS2_PLACEMENT_3D('',#1526,#1240,#1241);
#1051=AXIS2_PLACEMENT_3D('',#1529,#1243,#1244);
#1052=AXIS2_PLACEMENT_3D('',#1530,#1245,#1246);
#1053=AXIS2_PLACEMENT_3D('',#1533,#1248,#1249);
#1054=AXIS2_PLACEMENT_3D('',#1534,#1250,#1251);
#1055=AXIS2_PLACEMENT_3D('',#1537,#1253,#1254);
#1056=AXIS2_PLACEMENT_3D('',#1538,#1255,#1256);
#1057=AXIS2_PLACEMENT_3D('',#1541,#1258,#1259);
#1058=AXIS2_PLACEMENT_3D('',#1542,#1260,#1261);
#1059=AXIS2_PLACEMENT_3D('',#1545,#1263,#1264);
#1060=AXIS2_PLACEMENT_3D('',#1546,#1265,#1266);
#1061=AXIS2_PLACEMENT_3D('',#1549,#1268,#1269);
#1062=AXIS2_PLACEMENT_3D('',#1550,#1270,#1271);
#1063=AXIS2_PLACEMENT_3D('',#1553,#1273,#1274);
#1064=AXIS2_PLACEMENT_3D('',#1554,#1275,#1276);
#1065=AXIS2_PLACEMENT_3D('',#1557,#1278,#1279);
#1066=AXIS2_PLACEMENT_3D('',#1558,#1280,#1281);
#1067=AXIS2_PLACEMENT_3D('',#1561,#1283,#1284);
#1068=AXIS2_PLACEMENT_3D('',#1562,#1285,#1286);
#1069=AXIS2_PLACEMENT_3D('',#1565,#1288,#1289);
#1070=AXIS2_PLACEMENT_3D('',#1566,#1290,#1291);
#1071=AXIS2_PLACEMENT_3D('',#1569,#1293,#1294);
#1072=AXIS2_PLACEMENT_3D('',#1570,#1295,#1296);
#1073=AXIS2_PLACEMENT_3D('',#1573,#1298,#1299);
#1074=AXIS2_PLACEMENT_3D('',#1574,#1300,#1301);
#1075=AXIS2_PLACEMENT_3D('',#1577,#1303,#1304);
#1076=AXIS2_PLACEMENT_3D('',#1578,#1305,#1306);
#1077=AXIS2_PLACEMENT_3D('',#1581,#1308,#1309);
#1078=AXIS2_PLACEMENT_3D('',#1582,#1310,#1311);
#1079=AXIS2_PLACEMENT_3D('',#1585,#1313,#1314);
#1080=AXIS2_PLACEMENT_3D('',#1586,#1315,#1316);
#1081=AXIS2_PLACEMENT_3D('',#1589,#1318,#1319);
#1082=AXIS2_PLACEMENT_3D('',#1590,#1320,#1321);
#1083=AXIS2_PLACEMENT_3D('',#1593,#1323,#1324);
#1084=AXIS2_PLACEMENT_3D('',#1594,#1325,#1326);
#1085=AXIS2_PLACEMENT_3D('',#1597,#1328,#1329);
#1086=AXIS2_PLACEMENT_3D('',#1598,#1330,#1331);
#1087=AXIS2_PLACEMENT_3D('',#1601,#1333,#1334);
#1088=AXIS2_PLACEMENT_3D('',#1602,#1335,#1336);
#1089=AXIS2_PLACEMENT_3D('',#1605,#1338,#1339);
#1090=AXIS2_PLACEMENT_3D('',#1606,#1340,#1341);
#1091=AXIS2_PLACEMENT_3D('',#1609,#1343,#1344);
#1092=AXIS2_PLACEMENT_3D('',#1610,#1345,#1346);
#1093=AXIS2_PLACEMENT_3D('',#1613,#1348,#1349);
#1094=AXIS2_PLACEMENT_3D('',#1614,#1350,#1351);
#1095=AXIS2_PLACEMENT_3D('',#1617,#1353,#1354);
#1096=AXIS2_PLACEMENT_3D('',#1618,#1355,#1356);
#1097=AXIS2_PLACEMENT_3D('',#1655,#1359,#1360);
#1098=AXIS2_PLACEMENT_3D('',#1656,#1361,#1362);
#1099=AXIS2_PLACEMENT_3D('',#1658,#1363,#1364);
#1100=AXIS2_PLACEMENT_3D('',#1662,#1366,#1367);
#1101=AXIS2_PLACEMENT_3D('',#1665,#1369,#1370);
#1102=AXIS2_PLACEMENT_3D('',#1666,#1371,#1372);
#1103=AXIS2_PLACEMENT_3D('',#1668,#1374,#1375);
#1104=AXIS2_PLACEMENT_3D('',#1670,#1376,#1377);
#1105=AXIS2_PLACEMENT_3D('',#1672,#1378,#1379);
#1106=AXIS2_PLACEMENT_3D('',#1673,#1380,#1381);
#1107=AXIS2_PLACEMENT_3D('',#1675,#1382,#1383);
#1108=AXIS2_PLACEMENT_3D('',#1677,#1385,#1386);
#1109=AXIS2_PLACEMENT_3D('',#1679,#1388,#1389);
#1110=AXIS2_PLACEMENT_3D('',#1684,#1391,#1392);
#1111=AXIS2_PLACEMENT_3D('',#1687,#1394,#1395);
#1112=AXIS2_PLACEMENT_3D('',#1688,#1396,#1397);
#1113=AXIS2_PLACEMENT_3D('',#1692,#1401,#1402);
#1114=AXIS2_PLACEMENT_3D('',#1698,#1406,#1407);
#1115=AXIS2_PLACEMENT_3D('',#1700,#1409,#1410);
#1116=AXIS2_PLACEMENT_3D('',#1702,#1412,#1413);
#1117=AXIS2_PLACEMENT_3D('',#1703,#1414,#1415);
#1118=DIRECTION('axis',(0.,0.,1.));
#1119=DIRECTION('refdir',(1.,0.,0.));
#1120=DIRECTION('center_axis',(0.,-1.,0.));
#1121=DIRECTION('ref_axis',(0.,0.,1.));
#1122=DIRECTION('center_axis',(-3.06161699786838E-17,-1.,0.));
#1123=DIRECTION('ref_axis',(0.,0.,1.));
#1124=DIRECTION('',(0.,-1.,0.));
#1125=DIRECTION('center_axis',(0.,-1.,0.));
#1126=DIRECTION('ref_axis',(0.,0.,1.));
#1127=DIRECTION('center_axis',(0.,-1.,0.));
#1128=DIRECTION('ref_axis',(0.,0.,1.));
#1129=DIRECTION('center_axis',(0.,1.,0.));
#1130=DIRECTION('ref_axis',(0.,0.,-1.));
#1131=DIRECTION('center_axis',(0.,1.,0.));
#1132=DIRECTION('ref_axis',(0.,0.,1.));
#1133=DIRECTION('center_axis',(0.,1.,0.));
#1134=DIRECTION('ref_axis',(0.,0.,1.));
#1135=DIRECTION('center_axis',(0.,1.,0.));
#1136=DIRECTION('ref_axis',(0.,0.,1.));
#1137=DIRECTION('center_axis',(0.,1.,0.));
#1138=DIRECTION('ref_axis',(0.,0.,1.));
#1139=DIRECTION('center_axis',(0.,1.,0.));
#1140=DIRECTION('ref_axis',(0.,0.,1.));
#1141=DIRECTION('center_axis',(0.,1.,0.));
#1142=DIRECTION('ref_axis',(0.,0.,1.));
#1143=DIRECTION('center_axis',(0.,1.,0.));
#1144=DIRECTION('ref_axis',(0.,0.,1.));
#1145=DIRECTION('center_axis',(0.,1.,0.));
#1146=DIRECTION('ref_axis',(0.,0.,1.));
#1147=DIRECTION('center_axis',(0.,1.,0.));
#1148=DIRECTION('ref_axis',(0.,0.,1.));
#1149=DIRECTION('center_axis',(0.,1.,0.));
#1150=DIRECTION('ref_axis',(0.,0.,1.));
#1151=DIRECTION('center_axis',(0.,1.,0.));
#1152=DIRECTION('ref_axis',(0.,0.,1.));
#1153=DIRECTION('center_axis',(0.,1.,0.));
#1154=DIRECTION('ref_axis',(0.,0.,1.));
#1155=DIRECTION('center_axis',(0.,1.,0.));
#1156=DIRECTION('ref_axis',(0.,0.,1.));
#1157=DIRECTION('center_axis',(0.,1.,0.));
#1158=DIRECTION('ref_axis',(0.,0.,1.));
#1159=DIRECTION('center_axis',(0.,1.,0.));
#1160=DIRECTION('ref_axis',(0.,0.,1.));
#1161=DIRECTION('center_axis',(0.,1.,0.));
#1162=DIRECTION('ref_axis',(0.,0.,1.));
#1163=DIRECTION('center_axis',(0.,1.,0.));
#1164=DIRECTION('ref_axis',(0.,0.,1.));
#1165=DIRECTION('center_axis',(0.,1.,0.));
#1166=DIRECTION('ref_axis',(0.,0.,1.));
#1167=DIRECTION('center_axis',(0.,1.,0.));
#1168=DIRECTION('ref_axis',(0.,0.,1.));
#1169=DIRECTION('center_axis',(0.,1.,0.));
#1170=DIRECTION('ref_axis',(0.,0.,1.));
#1171=DIRECTION('center_axis',(0.,1.,0.));
#1172=DIRECTION('ref_axis',(0.,0.,1.));
#1173=DIRECTION('center_axis',(0.,1.,0.));
#1174=DIRECTION('ref_axis',(0.,0.,1.));
#1175=DIRECTION('center_axis',(0.,1.,0.));
#1176=DIRECTION('ref_axis',(0.,0.,1.));
#1177=DIRECTION('center_axis',(0.,1.,0.));
#1178=DIRECTION('ref_axis',(0.,0.,1.));
#1179=DIRECTION('center_axis',(0.,1.,0.));
#1180=DIRECTION('ref_axis',(0.,0.,1.));
#1181=DIRECTION('center_axis',(0.,1.,0.));
#1182=DIRECTION('ref_axis',(0.,0.,1.));
#1183=DIRECTION('center_axis',(0.,1.,0.));
#1184=DIRECTION('ref_axis',(0.,0.,1.));
#1185=DIRECTION('center_axis',(0.,1.,0.));
#1186=DIRECTION('ref_axis',(0.,0.,1.));
#1187=DIRECTION('center_axis',(0.,1.,0.));
#1188=DIRECTION('ref_axis',(0.,0.,1.));
#1189=DIRECTION('center_axis',(0.,1.,0.));
#1190=DIRECTION('ref_axis',(0.,0.,1.));
#1191=DIRECTION('center_axis',(0.,1.,0.));
#1192=DIRECTION('ref_axis',(0.,0.,1.));
#1193=DIRECTION('center_axis',(0.,1.,0.));
#1194=DIRECTION('ref_axis',(0.,0.,1.));
#1195=DIRECTION('center_axis',(0.,-1.,0.));
#1196=DIRECTION('ref_axis',(0.,0.,1.));
#1197=DIRECTION('',(0.,-1.,0.));
#1198=DIRECTION('center_axis',(0.,1.,0.));
#1199=DIRECTION('ref_axis',(0.,0.,1.));
#1200=DIRECTION('center_axis',(0.,-1.,0.));
#1201=DIRECTION('ref_axis',(0.,0.,1.));
#1202=DIRECTION('',(0.,-1.,0.));
#1203=DIRECTION('center_axis',(0.,1.,0.));
#1204=DIRECTION('ref_axis',(0.,0.,1.));
#1205=DIRECTION('center_axis',(0.,-1.,0.));
#1206=DIRECTION('ref_axis',(0.,0.,1.));
#1207=DIRECTION('',(0.,-1.,0.));
#1208=DIRECTION('center_axis',(0.,1.,0.));
#1209=DIRECTION('ref_axis',(0.,0.,1.));
#1210=DIRECTION('center_axis',(0.,-1.,0.));
#1211=DIRECTION('ref_axis',(0.,0.,1.));
#1212=DIRECTION('',(0.,-1.,0.));
#1213=DIRECTION('center_axis',(0.,1.,0.));
#1214=DIRECTION('ref_axis',(0.,0.,1.));
#1215=DIRECTION('center_axis',(0.,-1.,0.));
#1216=DIRECTION('ref_axis',(0.,0.,1.));
#1217=DIRECTION('',(0.,-1.,0.));
#1218=DIRECTION('center_axis',(0.,1.,0.));
#1219=DIRECTION('ref_axis',(0.,0.,1.));
#1220=DIRECTION('center_axis',(0.,-1.,0.));
#1221=DIRECTION('ref_axis',(0.,0.,1.));
#1222=DIRECTION('',(0.,-1.,0.));
#1223=DIRECTION('center_axis',(0.,1.,0.));
#1224=DIRECTION('ref_axis',(0.,0.,1.));
#1225=DIRECTION('center_axis',(0.,-1.,0.));
#1226=DIRECTION('ref_axis',(0.,0.,1.));
#1227=DIRECTION('',(0.,-1.,0.));
#1228=DIRECTION('center_axis',(0.,1.,0.));
#1229=DIRECTION('ref_axis',(0.,0.,1.));
#1230=DIRECTION('center_axis',(0.,-1.,0.));
#1231=DIRECTION('ref_axis',(0.,0.,1.));
#1232=DIRECTION('',(0.,-1.,0.));
#1233=DIRECTION('center_axis',(0.,1.,0.));
#1234=DIRECTION('ref_axis',(0.,0.,1.));
#1235=DIRECTION('center_axis',(0.,-1.,0.));
#1236=DIRECTION('ref_axis',(0.,0.,1.));
#1237=DIRECTION('',(0.,-1.,0.));
#1238=DIRECTION('center_axis',(0.,1.,0.));
#1239=DIRECTION('ref_axis',(0.,0.,1.));
#1240=DIRECTION('center_axis',(0.,-1.,0.));
#1241=DIRECTION('ref_axis',(0.,0.,1.));
#1242=DIRECTION('',(0.,-1.,0.));
#1243=DIRECTION('center_axis',(0.,1.,0.));
#1244=DIRECTION('ref_axis',(0.,0.,1.));
#1245=DIRECTION('center_axis',(0.,-1.,0.));
#1246=DIRECTION('ref_axis',(0.,0.,1.));
#1247=DIRECTION('',(0.,-1.,0.));
#1248=DIRECTION('center_axis',(0.,1.,0.));
#1249=DIRECTION('ref_axis',(0.,0.,1.));
#1250=DIRECTION('center_axis',(0.,-1.,0.));
#1251=DIRECTION('ref_axis',(0.,0.,1.));
#1252=DIRECTION('',(0.,-1.,0.));
#1253=DIRECTION('center_axis',(0.,1.,0.));
#1254=DIRECTION('ref_axis',(0.,0.,1.));
#1255=DIRECTION('center_axis',(0.,-1.,0.));
#1256=DIRECTION('ref_axis',(0.,0.,1.));
#1257=DIRECTION('',(0.,-1.,0.));
#1258=DIRECTION('center_axis',(0.,1.,0.));
#1259=DIRECTION('ref_axis',(0.,0.,1.));
#1260=DIRECTION('center_axis',(0.,-1.,0.));
#1261=DIRECTION('ref_axis',(0.,0.,1.));
#1262=DIRECTION('',(0.,-1.,0.));
#1263=DIRECTION('center_axis',(0.,1.,0.));
#1264=DIRECTION('ref_axis',(0.,0.,1.));
#1265=DIRECTION('center_axis',(0.,-1.,0.));
#1266=DIRECTION('ref_axis',(0.,0.,1.));
#1267=DIRECTION('',(0.,-1.,0.));
#1268=DIRECTION('center_axis',(0.,1.,0.));
#1269=DIRECTION('ref_axis',(0.,0.,1.));
#1270=DIRECTION('center_axis',(0.,-1.,0.));
#1271=DIRECTION('ref_axis',(0.,0.,1.));
#1272=DIRECTION('',(0.,-1.,0.));
#1273=DIRECTION('center_axis',(0.,1.,0.));
#1274=DIRECTION('ref_axis',(0.,0.,1.));
#1275=DIRECTION('center_axis',(0.,-1.,0.));
#1276=DIRECTION('ref_axis',(0.,0.,1.));
#1277=DIRECTION('',(0.,-1.,0.));
#1278=DIRECTION('center_axis',(0.,1.,0.));
#1279=DIRECTION('ref_axis',(0.,0.,1.));
#1280=DIRECTION('center_axis',(0.,-1.,0.));
#1281=DIRECTION('ref_axis',(0.,0.,1.));
#1282=DIRECTION('',(0.,-1.,0.));
#1283=DIRECTION('center_axis',(0.,1.,0.));
#1284=DIRECTION('ref_axis',(0.,0.,1.));
#1285=DIRECTION('center_axis',(0.,-1.,0.));
#1286=DIRECTION('ref_axis',(0.,0.,1.));
#1287=DIRECTION('',(0.,-1.,0.));
#1288=DIRECTION('center_axis',(0.,1.,0.));
#1289=DIRECTION('ref_axis',(0.,0.,1.));
#1290=DIRECTION('center_axis',(0.,-1.,0.));
#1291=DIRECTION('ref_axis',(0.,0.,1.));
#1292=DIRECTION('',(0.,-1.,0.));
#1293=DIRECTION('center_axis',(0.,1.,0.));
#1294=DIRECTION('ref_axis',(0.,0.,1.));
#1295=DIRECTION('center_axis',(0.,-1.,0.));
#1296=DIRECTION('ref_axis',(0.,0.,1.));
#1297=DIRECTION('',(0.,-1.,0.));
#1298=DIRECTION('center_axis',(0.,1.,0.));
#1299=DIRECTION('ref_axis',(0.,0.,1.));
#1300=DIRECTION('center_axis',(0.,-1.,0.));
#1301=DIRECTION('ref_axis',(0.,0.,1.));
#1302=DIRECTION('',(0.,-1.,0.));
#1303=DIRECTION('center_axis',(0.,1.,0.));
#1304=DIRECTION('ref_axis',(0.,0.,1.));
#1305=DIRECTION('center_axis',(0.,-1.,0.));
#1306=DIRECTION('ref_axis',(0.,0.,1.));
#1307=DIRECTION('',(0.,-1.,0.));
#1308=DIRECTION('center_axis',(0.,1.,0.));
#1309=DIRECTION('ref_axis',(0.,0.,1.));
#1310=DIRECTION('center_axis',(0.,-1.,0.));
#1311=DIRECTION('ref_axis',(0.,0.,1.));
#1312=DIRECTION('',(0.,-1.,0.));
#1313=DIRECTION('center_axis',(0.,1.,0.));
#1314=DIRECTION('ref_axis',(0.,0.,1.));
#1315=DIRECTION('center_axis',(0.,-1.,0.));
#1316=DIRECTION('ref_axis',(0.,0.,1.));
#1317=DIRECTION('',(0.,-1.,0.));
#1318=DIRECTION('center_axis',(0.,1.,0.));
#1319=DIRECTION('ref_axis',(0.,0.,1.));
#1320=DIRECTION('center_axis',(0.,-1.,0.));
#1321=DIRECTION('ref_axis',(0.,0.,1.));
#1322=DIRECTION('',(0.,-1.,0.));
#1323=DIRECTION('center_axis',(0.,1.,0.));
#1324=DIRECTION('ref_axis',(0.,0.,1.));
#1325=DIRECTION('center_axis',(0.,-1.,0.));
#1326=DIRECTION('ref_axis',(0.,0.,1.));
#1327=DIRECTION('',(0.,-1.,0.));
#1328=DIRECTION('center_axis',(0.,1.,0.));
#1329=DIRECTION('ref_axis',(0.,0.,1.));
#1330=DIRECTION('center_axis',(0.,-1.,0.));
#1331=DIRECTION('ref_axis',(0.,0.,1.));
#1332=DIRECTION('',(0.,-1.,0.));
#1333=DIRECTION('center_axis',(0.,1.,0.));
#1334=DIRECTION('ref_axis',(0.,0.,1.));
#1335=DIRECTION('center_axis',(0.,-1.,0.));
#1336=DIRECTION('ref_axis',(0.,0.,1.));
#1337=DIRECTION('',(0.,-1.,0.));
#1338=DIRECTION('center_axis',(0.,1.,0.));
#1339=DIRECTION('ref_axis',(0.,0.,1.));
#1340=DIRECTION('center_axis',(0.,-1.,0.));
#1341=DIRECTION('ref_axis',(0.,0.,1.));
#1342=DIRECTION('',(0.,-1.,0.));
#1343=DIRECTION('center_axis',(0.,1.,0.));
#1344=DIRECTION('ref_axis',(0.,0.,1.));
#1345=DIRECTION('center_axis',(0.,-1.,0.));
#1346=DIRECTION('ref_axis',(0.,0.,1.));
#1347=DIRECTION('',(0.,-1.,0.));
#1348=DIRECTION('center_axis',(0.,1.,0.));
#1349=DIRECTION('ref_axis',(0.,0.,1.));
#1350=DIRECTION('center_axis',(0.,-1.,0.));
#1351=DIRECTION('ref_axis',(0.,0.,1.));
#1352=DIRECTION('',(0.,-1.,0.));
#1353=DIRECTION('center_axis',(0.,1.,0.));
#1354=DIRECTION('ref_axis',(0.,0.,1.));
#1355=DIRECTION('center_axis',(0.,1.,0.));
#1356=DIRECTION('ref_axis',(1.,0.,0.));
#1357=DIRECTION('',(0.,-1.,0.));
#1358=DIRECTION('',(0.,1.,0.));
#1359=DIRECTION('center_axis',(0.,1.,0.));
#1360=DIRECTION('ref_axis',(1.,0.,0.));
#1361=DIRECTION('center_axis',(0.,0.,1.));
#1362=DIRECTION('ref_axis',(1.,0.,0.));
#1363=DIRECTION('center_axis',(0.,0.,1.));
#1364=DIRECTION('ref_axis',(1.,0.,0.));
#1365=DIRECTION('',(0.,0.,1.));
#1366=DIRECTION('center_axis',(0.,0.,1.));
#1367=DIRECTION('ref_axis',(1.,0.,0.));
#1368=DIRECTION('',(0.,0.,1.));
#1369=DIRECTION('center_axis',(0.,0.,1.));
#1370=DIRECTION('ref_axis',(1.,0.,0.));
#1371=DIRECTION('center_axis',(0.,0.,1.));
#1372=DIRECTION('ref_axis',(1.,0.,0.));
#1373=DIRECTION('',(1.,-3.06161699786838E-17,0.));
#1374=DIRECTION('center_axis',(0.,1.,0.));
#1375=DIRECTION('ref_axis',(0.,0.,-1.));
#1376=DIRECTION('center_axis',(0.,1.,0.));
#1377=DIRECTION('ref_axis',(0.,0.,-1.));
#1378=DIRECTION('center_axis',(0.,1.,0.));
#1379=DIRECTION('ref_axis',(0.,0.,-1.));
#1380=DIRECTION('center_axis',(0.,1.,0.));
#1381=DIRECTION('ref_axis',(0.,0.,-1.));
#1382=DIRECTION('center_axis',(0.,1.,0.));
#1383=DIRECTION('ref_axis',(0.,0.,-1.));
#1384=DIRECTION('',(0.,1.,0.));
#1385=DIRECTION('center_axis',(0.,1.,0.));
#1386=DIRECTION('ref_axis',(0.,0.,-1.));
#1387=DIRECTION('',(0.,1.,0.));
#1388=DIRECTION('center_axis',(0.,1.,0.));
#1389=DIRECTION('ref_axis',(-1.,0.,0.));
#1390=DIRECTION('',(0.,-1.,0.));
#1391=DIRECTION('center_axis',(0.,1.,0.));
#1392=DIRECTION('ref_axis',(-1.,0.,0.));
#1393=DIRECTION('',(1.57898385724467E-16,1.,0.));
#1394=DIRECTION('center_axis',(0.,1.,0.));
#1395=DIRECTION('ref_axis',(-1.,0.,0.));
#1396=DIRECTION('center_axis',(3.06161699786838E-17,1.,0.));
#1397=DIRECTION('ref_axis',(-1.,3.06161699786838E-17,0.));
#1398=DIRECTION('',(1.,-3.06161699786838E-17,0.));
#1399=DIRECTION('',(0.,0.,1.));
#1400=DIRECTION('',(0.,0.,1.));
#1401=DIRECTION('center_axis',(0.,-1.,0.));
#1402=DIRECTION('ref_axis',(1.,0.,0.));
#1403=DIRECTION('',(-1.,0.,0.));
#1404=DIRECTION('',(0.,0.,1.));
#1405=DIRECTION('',(0.,0.,1.));
#1406=DIRECTION('center_axis',(-1.,0.,0.));
#1407=DIRECTION('ref_axis',(0.,-1.,0.));
#1408=DIRECTION('',(0.,1.,0.));
#1409=DIRECTION('center_axis',(1.,-1.57898385724467E-16,0.));
#1410=DIRECTION('ref_axis',(1.57898385724467E-16,1.,0.));
#1411=DIRECTION('',(-1.57898385724467E-16,-1.,0.));
#1412=DIRECTION('center_axis',(0.,0.,1.));
#1413=DIRECTION('ref_axis',(1.,0.,0.));
#1414=DIRECTION('center_axis',(0.,0.,1.));
#1415=DIRECTION('ref_axis',(1.,0.,0.));
#1416=CARTESIAN_POINT('',(0.,0.,0.));
#1417=CARTESIAN_POINT('Origin',(-1.37772764904077E-14,-7.5,200.));
#1418=CARTESIAN_POINT('',(5.20474889637625E-15,4.44089209850063E-15,45.));
#1419=CARTESIAN_POINT('Origin',(-1.37772764904077E-14,0.,200.));
#1420=CARTESIAN_POINT('',(5.20474889637625E-15,-15.,45.));
#1421=CARTESIAN_POINT('',(5.20474889637625E-15,-7.5,45.));
#1422=CARTESIAN_POINT('Origin',(-1.37772764904077E-14,-15.,200.));
#1423=CARTESIAN_POINT('Origin',(-1.37772764904077E-14,-15.,200.));
#1424=CARTESIAN_POINT('',(2.14313189850787E-15,-15.,330.));
#1425=CARTESIAN_POINT('Origin',(-1.37772764904077E-14,-15.,200.));
#1426=CARTESIAN_POINT('',(98.9949493661167,-15.,291.994949366117));
#1427=CARTESIAN_POINT('Origin',(98.9949493661167,-15.,298.994949366117));
#1428=CARTESIAN_POINT('',(-1.77573785876366E-15,-15.,333.));
#1429=CARTESIAN_POINT('Origin',(-9.18485099360516E-16,-15.,340.));
#1430=CARTESIAN_POINT('',(129.34313455158,-15.,246.575680531113));
#1431=CARTESIAN_POINT('Origin',(129.34313455158,-15.,253.575680531113));
#1432=CARTESIAN_POINT('',(27.312645082258,-15.,330.309939256452));
#1433=CARTESIAN_POINT('Origin',(27.312645082258,-15.,337.309939256452));
#1434=CARTESIAN_POINT('',(129.34313455158,-15.,139.424319468887));
#1435=CARTESIAN_POINT('Origin',(129.34313455158,-15.,146.424319468887));
#1436=CARTESIAN_POINT('',(-98.9949493661167,-15.,94.0050506338834));
#1437=CARTESIAN_POINT('Origin',(-98.9949493661167,-15.,101.005050633883));
#1438=CARTESIAN_POINT('',(27.312645082258,-15.,55.6900607435478));
#1439=CARTESIAN_POINT('Origin',(27.312645082258,-15.,62.6900607435478));
#1440=CARTESIAN_POINT('',(-77.7798326227443,-15.,76.5942542776436));
#1441=CARTESIAN_POINT('Origin',(-77.7798326227443,-15.,83.5942542776436));
#1442=CARTESIAN_POINT('',(53.5756805311126,-15.,322.34313455158));
#1443=CARTESIAN_POINT('Origin',(53.5756805311126,-15.,329.34313455158));
#1444=CARTESIAN_POINT('',(77.7798326227443,-15.,76.5942542776436));
#1445=CARTESIAN_POINT('Origin',(77.7798326227443,-15.,83.5942542776436));
#1446=CARTESIAN_POINT('',(-27.312645082258,-15.,330.309939256452));
#1447=CARTESIAN_POINT('Origin',(-27.312645082258,-15.,337.309939256452));
#1448=CARTESIAN_POINT('',(-129.34313455158,-15.,139.424319468887));
#1449=CARTESIAN_POINT('Origin',(-129.34313455158,-15.,146.424319468887));
#1450=CARTESIAN_POINT('',(98.9949493661166,-15.,94.0050506338834));
#1451=CARTESIAN_POINT('Origin',(98.9949493661166,-15.,101.005050633883));
#1452=CARTESIAN_POINT('',(137.309939256452,-15.,165.687354917742));
#1453=CARTESIAN_POINT('Origin',(137.309939256452,-15.,172.687354917742));
#1454=CARTESIAN_POINT('',(-1.03482654527951E-14,-15.,53.));
#1455=CARTESIAN_POINT('Origin',(-9.491012693392E-15,-15.,60.));
#1456=CARTESIAN_POINT('',(77.7798326227443,-15.,309.405745722356));
#1457=CARTESIAN_POINT('Origin',(77.7798326227443,-15.,316.405745722356));
#1458=CARTESIAN_POINT('',(53.5756805311126,-15.,63.6568654484199));
#1459=CARTESIAN_POINT('Origin',(53.5756805311126,-15.,70.6568654484199));
#1460=CARTESIAN_POINT('',(-140.,-15.,193.));
#1461=CARTESIAN_POINT('Origin',(-140.,-15.,200.));
#1462=CARTESIAN_POINT('',(116.405745722356,-15.,270.779832622744));
#1463=CARTESIAN_POINT('Origin',(116.405745722356,-15.,277.779832622744));
#1464=CARTESIAN_POINT('',(137.309939256452,-15.,220.312645082258));
#1465=CARTESIAN_POINT('Origin',(137.309939256452,-15.,227.312645082258));
#1466=CARTESIAN_POINT('',(-77.7798326227443,-15.,309.405745722356));
#1467=CARTESIAN_POINT('Origin',(-77.7798326227443,-15.,316.405745722356));
#1468=CARTESIAN_POINT('',(-116.405745722356,-15.,115.220167377256));
#1469=CARTESIAN_POINT('Origin',(-116.405745722356,-15.,122.220167377256));
#1470=CARTESIAN_POINT('',(-137.309939256452,-15.,220.312645082258));
#1471=CARTESIAN_POINT('Origin',(-137.309939256452,-15.,227.312645082258));
#1472=CARTESIAN_POINT('',(-137.309939256452,-15.,165.687354917742));
#1473=CARTESIAN_POINT('Origin',(-137.309939256452,-15.,172.687354917742));
#1474=CARTESIAN_POINT('',(-53.5756805311127,-15.,322.34313455158));
#1475=CARTESIAN_POINT('Origin',(-53.5756805311127,-15.,329.34313455158));
#1476=CARTESIAN_POINT('',(116.405745722356,-15.,115.220167377256));
#1477=CARTESIAN_POINT('Origin',(116.405745722356,-15.,122.220167377256));
#1478=CARTESIAN_POINT('',(-98.9949493661167,-15.,291.994949366117));
#1479=CARTESIAN_POINT('Origin',(-98.9949493661167,-15.,298.994949366117));
#1480=CARTESIAN_POINT('',(-116.405745722356,-15.,270.779832622744));
#1481=CARTESIAN_POINT('Origin',(-116.405745722356,-15.,277.779832622744));
#1482=CARTESIAN_POINT('',(140.,-15.,193.));
#1483=CARTESIAN_POINT('Origin',(140.,-15.,200.));
#1484=CARTESIAN_POINT('',(-129.34313455158,-15.,246.575680531113));
#1485=CARTESIAN_POINT('Origin',(-129.34313455158,-15.,253.575680531113));
#1486=CARTESIAN_POINT('',(-53.5756805311126,-15.,63.6568654484199));
#1487=CARTESIAN_POINT('Origin',(-53.5756805311126,-15.,70.6568654484199));
#1488=CARTESIAN_POINT('',(-27.312645082258,-15.,55.6900607435477));
#1489=CARTESIAN_POINT('Origin',(-27.312645082258,-15.,62.6900607435477));
#1490=CARTESIAN_POINT('Origin',(-27.312645082258,-123.75,62.6900607435477));
#1491=CARTESIAN_POINT('',(-27.312645082258,-66.,55.6900607435477));
#1492=CARTESIAN_POINT('',(-27.312645082258,-123.75,55.6900607435477));
#1493=CARTESIAN_POINT('Origin',(-27.312645082258,-66.,62.6900607435477));
#1494=CARTESIAN_POINT('Origin',(-53.5756805311126,-123.75,70.6568654484199));
#1495=CARTESIAN_POINT('',(-53.5756805311126,-66.,63.6568654484199));
#1496=CARTESIAN_POINT('',(-53.5756805311126,-123.75,63.6568654484199));
#1497=CARTESIAN_POINT('Origin',(-53.5756805311126,-66.,70.6568654484199));
#1498=CARTESIAN_POINT('Origin',(-129.34313455158,-123.75,253.575680531113));
#1499=CARTESIAN_POINT('',(-129.34313455158,-66.,246.575680531113));
#1500=CARTESIAN_POINT('',(-129.34313455158,-123.75,246.575680531113));
#1501=CARTESIAN_POINT('Origin',(-129.34313455158,-66.,253.575680531113));
#1502=CARTESIAN_POINT('Origin',(140.,-123.75,200.));
#1503=CARTESIAN_POINT('',(140.,-66.,193.));
#1504=CARTESIAN_POINT('',(140.,-123.75,193.));
#1505=CARTESIAN_POINT('Origin',(140.,-66.,200.));
#1506=CARTESIAN_POINT('Origin',(-116.405745722356,-123.75,277.779832622744));
#1507=CARTESIAN_POINT('',(-116.405745722356,-66.,270.779832622744));
#1508=CARTESIAN_POINT('',(-116.405745722356,-123.75,270.779832622744));
#1509=CARTESIAN_POINT('Origin',(-116.405745722356,-66.,277.779832622744));
#1510=CARTESIAN_POINT('Origin',(-98.9949493661167,-123.75,298.994949366117));
#1511=CARTESIAN_POINT('',(-98.9949493661167,-66.,291.994949366117));
#1512=CARTESIAN_POINT('',(-98.9949493661167,-123.75,291.994949366117));
#1513=CARTESIAN_POINT('Origin',(-98.9949493661167,-66.,298.994949366117));
#1514=CARTESIAN_POINT('Origin',(116.405745722356,-123.75,122.220167377256));
#1515=CARTESIAN_POINT('',(116.405745722356,-66.,115.220167377256));
#1516=CARTESIAN_POINT('',(116.405745722356,-123.75,115.220167377256));
#1517=CARTESIAN_POINT('Origin',(116.405745722356,-66.,122.220167377256));
#1518=CARTESIAN_POINT('Origin',(-53.5756805311127,-123.75,329.34313455158));
#1519=CARTESIAN_POINT('',(-53.5756805311127,-66.,322.34313455158));
#1520=CARTESIAN_POINT('',(-53.5756805311127,-123.75,322.34313455158));
#1521=CARTESIAN_POINT('Origin',(-53.5756805311127,-66.,329.34313455158));
#1522=CARTESIAN_POINT('Origin',(-137.309939256452,-123.75,172.687354917742));
#1523=CARTESIAN_POINT('',(-137.309939256452,-66.,165.687354917742));
#1524=CARTESIAN_POINT('',(-137.309939256452,-123.75,165.687354917742));
#1525=CARTESIAN_POINT('Origin',(-137.309939256452,-66.,172.687354917742));
#1526=CARTESIAN_POINT('Origin',(-137.309939256452,-123.75,227.312645082258));
#1527=CARTESIAN_POINT('',(-137.309939256452,-66.,220.312645082258));
#1528=CARTESIAN_POINT('',(-137.309939256452,-123.75,220.312645082258));
#1529=CARTESIAN_POINT('Origin',(-137.309939256452,-66.,227.312645082258));
#1530=CARTESIAN_POINT('Origin',(-116.405745722356,-123.75,122.220167377256));
#1531=CARTESIAN_POINT('',(-116.405745722356,-66.,115.220167377256));
#1532=CARTESIAN_POINT('',(-116.405745722356,-123.75,115.220167377256));
#1533=CARTESIAN_POINT('Origin',(-116.405745722356,-66.,122.220167377256));
#1534=CARTESIAN_POINT('Origin',(-77.7798326227443,-123.75,316.405745722356));
#1535=CARTESIAN_POINT('',(-77.7798326227443,-66.,309.405745722356));
#1536=CARTESIAN_POINT('',(-77.7798326227443,-123.75,309.405745722356));
#1537=CARTESIAN_POINT('Origin',(-77.7798326227443,-66.,316.405745722356));
#1538=CARTESIAN_POINT('Origin',(137.309939256452,-123.75,227.312645082258));
#1539=CARTESIAN_POINT('',(137.309939256452,-66.,220.312645082258));
#1540=CARTESIAN_POINT('',(137.309939256452,-123.75,220.312645082258));
#1541=CARTESIAN_POINT('Origin',(137.309939256452,-66.,227.312645082258));
#1542=CARTESIAN_POINT('Origin',(116.405745722356,-123.75,277.779832622744));
#1543=CARTESIAN_POINT('',(116.405745722356,-66.,270.779832622744));
#1544=CARTESIAN_POINT('',(116.405745722356,-123.75,270.779832622744));
#1545=CARTESIAN_POINT('Origin',(116.405745722356,-66.,277.779832622744));
#1546=CARTESIAN_POINT('Origin',(-140.,-123.75,200.));
#1547=CARTESIAN_POINT('',(-140.,-66.,193.));
#1548=CARTESIAN_POINT('',(-140.,-123.75,193.));
#1549=CARTESIAN_POINT('Origin',(-140.,-66.,200.));
#1550=CARTESIAN_POINT('Origin',(53.5756805311126,-123.75,70.6568654484199));
#1551=CARTESIAN_POINT('',(53.5756805311126,-66.,63.6568654484199));
#1552=CARTESIAN_POINT('',(53.5756805311126,-123.75,63.6568654484199));
#1553=CARTESIAN_POINT('Origin',(53.5756805311126,-66.,70.6568654484199));
#1554=CARTESIAN_POINT('Origin',(77.7798326227443,-123.75,316.405745722356));
#1555=CARTESIAN_POINT('',(77.7798326227443,-66.,309.405745722356));
#1556=CARTESIAN_POINT('',(77.7798326227443,-123.75,309.405745722356));
#1557=CARTESIAN_POINT('Origin',(77.7798326227443,-66.,316.405745722356));
#1558=CARTESIAN_POINT('Origin',(-9.491012693392E-15,-123.75,60.));
#1559=CARTESIAN_POINT('',(-1.03482654527951E-14,-66.,53.));
#1560=CARTESIAN_POINT('',(-8.63375993398885E-15,-123.75,53.));
#1561=CARTESIAN_POINT('Origin',(-9.491012693392E-15,-66.,60.));
#1562=CARTESIAN_POINT('Origin',(137.309939256452,-123.75,172.687354917742));
#1563=CARTESIAN_POINT('',(137.309939256452,-66.,165.687354917742));
#1564=CARTESIAN_POINT('',(137.309939256452,-123.75,165.687354917742));
#1565=CARTESIAN_POINT('Origin',(137.309939256452,-66.,172.687354917742));
#1566=CARTESIAN_POINT('Origin',(98.9949493661166,-123.75,101.005050633883));
#1567=CARTESIAN_POINT('',(98.9949493661166,-66.,94.0050506338834));
#1568=CARTESIAN_POINT('',(98.9949493661166,-123.75,94.0050506338834));
#1569=CARTESIAN_POINT('Origin',(98.9949493661166,-66.,101.005050633883));
#1570=CARTESIAN_POINT('Origin',(-129.34313455158,-123.75,146.424319468887));
#1571=CARTESIAN_POINT('',(-129.34313455158,-66.,139.424319468887));
#1572=CARTESIAN_POINT('',(-129.34313455158,-123.75,139.424319468887));
#1573=CARTESIAN_POINT('Origin',(-129.34313455158,-66.,146.424319468887));
#1574=CARTESIAN_POINT('Origin',(-27.312645082258,-123.75,337.309939256452));
#1575=CARTESIAN_POINT('',(-27.312645082258,-66.,330.309939256452));
#1576=CARTESIAN_POINT('',(-27.312645082258,-123.75,330.309939256452));
#1577=CARTESIAN_POINT('Origin',(-27.312645082258,-66.,337.309939256452));
#1578=CARTESIAN_POINT('Origin',(77.7798326227443,-123.75,83.5942542776436));
#1579=CARTESIAN_POINT('',(77.7798326227443,-66.,76.5942542776436));
#1580=CARTESIAN_POINT('',(77.7798326227443,-123.75,76.5942542776436));
#1581=CARTESIAN_POINT('Origin',(77.7798326227443,-66.,83.5942542776436));
#1582=CARTESIAN_POINT('Origin',(53.5756805311126,-123.75,329.34313455158));
#1583=CARTESIAN_POINT('',(53.5756805311126,-66.,322.34313455158));
#1584=CARTESIAN_POINT('',(53.5756805311126,-123.75,322.34313455158));
#1585=CARTESIAN_POINT('Origin',(53.5756805311126,-66.,329.34313455158));
#1586=CARTESIAN_POINT('Origin',(-77.7798326227443,-123.75,83.5942542776436));
#1587=CARTESIAN_POINT('',(-77.7798326227443,-66.,76.5942542776436));
#1588=CARTESIAN_POINT('',(-77.7798326227443,-123.75,76.5942542776436));
#1589=CARTESIAN_POINT('Origin',(-77.7798326227443,-66.,83.5942542776436));
#1590=CARTESIAN_POINT('Origin',(27.312645082258,-123.75,62.6900607435478));
#1591=CARTESIAN_POINT('',(27.312645082258,-66.,55.6900607435478));
#1592=CARTESIAN_POINT('',(27.312645082258,-123.75,55.6900607435478));
#1593=CARTESIAN_POINT('Origin',(27.312645082258,-66.,62.6900607435478));
#1594=CARTESIAN_POINT('Origin',(-98.9949493661167,-123.75,101.005050633883));
#1595=CARTESIAN_POINT('',(-98.9949493661167,-66.,94.0050506338834));
#1596=CARTESIAN_POINT('',(-98.9949493661167,-123.75,94.0050506338834));
#1597=CARTESIAN_POINT('Origin',(-98.9949493661167,-66.,101.005050633883));
#1598=CARTESIAN_POINT('Origin',(129.34313455158,-123.75,146.424319468887));
#1599=CARTESIAN_POINT('',(129.34313455158,-66.,139.424319468887));
#1600=CARTESIAN_POINT('',(129.34313455158,-123.75,139.424319468887));
#1601=CARTESIAN_POINT('Origin',(129.34313455158,-66.,146.424319468887));
#1602=CARTESIAN_POINT('Origin',(27.312645082258,-123.75,337.309939256452));
#1603=CARTESIAN_POINT('',(27.312645082258,-66.,330.309939256452));
#1604=CARTESIAN_POINT('',(27.312645082258,-123.75,330.309939256452));
#1605=CARTESIAN_POINT('Origin',(27.312645082258,-66.,337.309939256452));
#1606=CARTESIAN_POINT('Origin',(129.34313455158,-123.75,253.575680531113));
#1607=CARTESIAN_POINT('',(129.34313455158,-66.,246.575680531113));
#1608=CARTESIAN_POINT('',(129.34313455158,-123.75,246.575680531113));
#1609=CARTESIAN_POINT('Origin',(129.34313455158,-66.,253.575680531113));
#1610=CARTESIAN_POINT('Origin',(-9.18485099360516E-16,-123.75,340.));
#1611=CARTESIAN_POINT('',(-1.77573785876366E-15,-66.,333.));
#1612=CARTESIAN_POINT('',(-6.12323399573683E-17,-123.75,333.));
#1613=CARTESIAN_POINT('Origin',(-9.18485099360516E-16,-66.,340.));
#1614=CARTESIAN_POINT('Origin',(98.9949493661167,-123.75,298.994949366117));
#1615=CARTESIAN_POINT('',(98.9949493661167,-66.,291.994949366117));
#1616=CARTESIAN_POINT('',(98.9949493661167,-123.75,291.994949366117));
#1617=CARTESIAN_POINT('Origin',(98.9949493661167,-66.,298.994949366117));
#1618=CARTESIAN_POINT('Origin',(-2.02066721859313E-15,8.88178419700125E-15,
200.));
#1619=CARTESIAN_POINT('',(143.614066163451,173.205080756888,100.));
#1620=CARTESIAN_POINT('',(143.614066163451,2.49172558421371E-15,100.));
#1621=CARTESIAN_POINT('',(143.614066163451,8.88178419700125E-15,100.));
#1622=CARTESIAN_POINT('',(-143.614066163451,173.205080756888,100.));
#1623=CARTESIAN_POINT('Ctrl Pts',(-143.614066163451,173.205080756888,100.));
#1624=CARTESIAN_POINT('Ctrl Pts',(-137.599807060175,178.191840966274,91.36267795218));
#1625=CARTESIAN_POINT('Ctrl Pts',(-130.885334973556,183.213396438783,83.3979615582642));
#1626=CARTESIAN_POINT('Ctrl Pts',(-116.339397248305,192.79196345663,68.8520238330135));
#1627=CARTESIAN_POINT('Ctrl Pts',(-107.92000832561,197.698853315946,61.7811826183426));
#1628=CARTESIAN_POINT('Ctrl Pts',(-89.3638421807424,206.750256374491,49.1183463869063));
#1629=CARTESIAN_POINT('Ctrl Pts',(-79.2255169391331,210.891096171162,43.5259944092832));
#1630=CARTESIAN_POINT('Ctrl Pts',(-63.1405161200567,216.032312055846,36.6836659086341));
#1631=CARTESIAN_POINT('Ctrl Pts',(-57.6279173564396,217.571527733117,34.6559767443462));
#1632=CARTESIAN_POINT('Ctrl Pts',(-46.3914125715754,220.241193645929,31.1584774860522));
#1633=CARTESIAN_POINT('Ctrl Pts',(-40.6674687756017,221.371564906784,29.6887284707485));
#1634=CARTESIAN_POINT('Ctrl Pts',(-29.110627996897,223.185537399329,27.337486509452));
#1635=CARTESIAN_POINT('Ctrl Pts',(-23.2766519517116,223.869239934559,26.455849073433));
#1636=CARTESIAN_POINT('Ctrl Pts',(-11.6090317561583,224.776487864374,25.2870776714294));
#1637=CARTESIAN_POINT('Ctrl Pts',(-5.77537938059088,225.,25.0000000000001));
#1638=CARTESIAN_POINT('Ctrl Pts',(5.7753793805909,225.,25.0000000000001));
#1639=CARTESIAN_POINT('Ctrl Pts',(11.6090317561583,224.776487864374,25.2870776714294));
#1640=CARTESIAN_POINT('Ctrl Pts',(23.2766519517116,223.869239934559,26.455849073433));
#1641=CARTESIAN_POINT('Ctrl Pts',(29.110627996897,223.185537399329,27.337486509452));
#1642=CARTESIAN_POINT('Ctrl Pts',(40.6674687756017,221.371564906784,29.6887284707485));
#1643=CARTESIAN_POINT('Ctrl Pts',(46.3914125715754,220.241193645929,31.1584774860522));
#1644=CARTESIAN_POINT('Ctrl Pts',(57.6279173564396,217.571527733117,34.6559767443462));
#1645=CARTESIAN_POINT('Ctrl Pts',(63.1405161200567,216.032312055846,36.6836659086341));
#1646=CARTESIAN_POINT('Ctrl Pts',(79.2255169391331,210.891096171162,43.5259944092832));
#1647=CARTESIAN_POINT('Ctrl Pts',(89.3638421807424,206.750256374491,49.1183463869063));
#1648=CARTESIAN_POINT('Ctrl Pts',(107.92000832561,197.698853315946,61.7811826183426));
#1649=CARTESIAN_POINT('Ctrl Pts',(116.339397248305,192.79196345663,68.8520238330135));
#1650=CARTESIAN_POINT('Ctrl Pts',(130.885334973556,183.213396438783,83.3979615582642));
#1651=CARTESIAN_POINT('Ctrl Pts',(137.599807060175,178.191840966274,91.36267795218));
#1652=CARTESIAN_POINT('Ctrl Pts',(143.614066163451,173.205080756888,100.));
#1653=CARTESIAN_POINT('',(-143.614066163451,1.1285550906194E-14,100.));
#1654=CARTESIAN_POINT('',(-143.614066163451,8.88178419700125E-15,100.));
#1655=CARTESIAN_POINT('Origin',(-2.02066721859313E-15,8.88178419700125E-15,
200.));
#1656=CARTESIAN_POINT('Origin',(0.,0.,0.));
#1657=CARTESIAN_POINT('',(225.,0.,100.));
#1658=CARTESIAN_POINT('Origin',(0.,0.,100.));
#1659=CARTESIAN_POINT('',(225.,0.,0.));
#1660=CARTESIAN_POINT('',(225.,0.,0.));
#1661=CARTESIAN_POINT('',(-225.,2.75545529808154E-14,0.));
#1662=CARTESIAN_POINT('Origin',(0.,0.,0.));
#1663=CARTESIAN_POINT('',(-225.,2.75545529808154E-14,100.));
#1664=CARTESIAN_POINT('',(-225.,2.75545529808154E-14,0.));
#1665=CARTESIAN_POINT('Origin',(0.,0.,100.));
#1666=CARTESIAN_POINT('Origin',(-3.5527136788005E-14,0.,100.));
#1667=CARTESIAN_POINT('',(112.5,3.44431912260193E-15,100.));
#1668=CARTESIAN_POINT('Origin',(-1.37772764904077E-14,-66.,200.));
#1669=CARTESIAN_POINT('',(5.81707229594993E-15,-66.,360.));
#1670=CARTESIAN_POINT('Origin',(-1.37772764904077E-14,-66.,200.));
#1671=CARTESIAN_POINT('',(2.14313189850787E-15,-66.,330.));
#1672=CARTESIAN_POINT('Origin',(-1.37772764904077E-14,-66.,200.));
#1673=CARTESIAN_POINT('Origin',(-1.37772764904077E-14,-145.5,200.));
#1674=CARTESIAN_POINT('',(5.81707229594993E-15,-225.,360.));
#1675=CARTESIAN_POINT('Origin',(-1.37772764904077E-14,-225.,200.));
#1676=CARTESIAN_POINT('',(5.81707229594993E-15,-145.5,360.));
#1677=CARTESIAN_POINT('Origin',(-1.37772764904077E-14,-112.5,200.));
#1678=CARTESIAN_POINT('',(2.14313189850787E-15,-112.5,330.));
#1679=CARTESIAN_POINT('Origin',(0.,-112.5,200.));
#1680=CARTESIAN_POINT('',(-225.,0.,200.));
#1681=CARTESIAN_POINT('',(-225.,-225.,200.));
#1682=CARTESIAN_POINT('',(-225.,1.37772764904077E-14,200.));
#1683=CARTESIAN_POINT('',(225.,-225.,200.));
#1684=CARTESIAN_POINT('Origin',(-1.37772764904077E-14,-225.,200.));
#1685=CARTESIAN_POINT('',(225.,0.,200.));
#1686=CARTESIAN_POINT('',(225.,-225.,200.));
#1687=CARTESIAN_POINT('Origin',(-1.37772764904077E-14,0.,200.));
#1688=CARTESIAN_POINT('Origin',(225.,0.,100.));
#1689=CARTESIAN_POINT('',(112.5,3.44431912260193E-15,100.));
#1690=CARTESIAN_POINT('',(-225.,1.37772764904077E-14,100.));
#1691=CARTESIAN_POINT('',(225.,0.,100.));
#1692=CARTESIAN_POINT('Origin',(-225.,-225.,0.));
#1693=CARTESIAN_POINT('',(225.,-225.,0.));
#1694=CARTESIAN_POINT('',(-225.,-225.,0.));
#1695=CARTESIAN_POINT('',(225.,-225.,0.));
#1696=CARTESIAN_POINT('',(225.,-225.,0.));
#1697=CARTESIAN_POINT('',(-225.,-225.,0.));
#1698=CARTESIAN_POINT('Origin',(-225.,0.,0.));
#1699=CARTESIAN_POINT('',(-225.,-225.,0.));
#1700=CARTESIAN_POINT('Origin',(225.,-225.,0.));
#1701=CARTESIAN_POINT('',(225.,0.,0.));
#1702=CARTESIAN_POINT('Origin',(-3.5527136788005E-14,0.,100.));
#1703=CARTESIAN_POINT('Origin',(-3.5527136788005E-14,0.,0.));
#1704=UNCERTAINTY_MEASURE_WITH_UNIT(LENGTH_MEASURE(0.01),#1708,
'DISTANCE_ACCURACY_VALUE',
'Maximum model space distance between geometric entities at asserted c
onnectivities');
#1705=UNCERTAINTY_MEASURE_WITH_UNIT(LENGTH_MEASURE(0.01),#1708,
'DISTANCE_ACCURACY_VALUE',
'Maximum model space distance between geometric entities at asserted c
onnectivities');
#1706=(
GEOMETRIC_REPRESENTATION_CONTEXT(3)
GLOBAL_UNCERTAINTY_ASSIGNED_CONTEXT((#1704))
GLOBAL_UNIT_ASSIGNED_CONTEXT((#1708,#1710,#1711))
REPRESENTATION_CONTEXT('','3D')
);
#1707=(
GEOMETRIC_REPRESENTATION_CONTEXT(3)
GLOBAL_UNCERTAINTY_ASSIGNED_CONTEXT((#1705))
GLOBAL_UNIT_ASSIGNED_CONTEXT((#1708,#1710,#1711))
REPRESENTATION_CONTEXT('','3D')
);
#1708=(
LENGTH_UNIT()
NAMED_UNIT(*)
SI_UNIT(.MILLI.,.METRE.)
);
#1709=(
LENGTH_UNIT()
NAMED_UNIT(*)
SI_UNIT($,.METRE.)
);
#1710=(
NAMED_UNIT(*)
PLANE_ANGLE_UNIT()
SI_UNIT($,.RADIAN.)
);
#1711=(
NAMED_UNIT(*)
SI_UNIT($,.STERADIAN.)
SOLID_ANGLE_UNIT()
);
#1712=SHAPE_DEFINITION_REPRESENTATION(#1713,#1714);
#1713=PRODUCT_DEFINITION_SHAPE('',$,#1716);
#1714=SHAPE_REPRESENTATION('',(#994),#1706);
#1715=PRODUCT_DEFINITION_CONTEXT('part definition',#1720,'design');
#1716=PRODUCT_DEFINITION('link1','link1 v7',#1717,#1715);
#1717=PRODUCT_DEFINITION_FORMATION('',$,#1722);
#1718=PRODUCT_RELATED_PRODUCT_CATEGORY('link1 v7','link1 v7',(#1722));
#1719=APPLICATION_PROTOCOL_DEFINITION('international standard',
'automotive_design',2009,#1720);
#1720=APPLICATION_CONTEXT(
'Core Data for Automotive Mechanical Design Process');
#1721=PRODUCT_CONTEXT('part definition',#1720,'mechanical');
#1722=PRODUCT('link1','link1 v7',$,(#1721));
#1723=PRESENTATION_STYLE_ASSIGNMENT((#1724));
#1724=SURFACE_STYLE_USAGE(.BOTH.,#1725);
#1725=SURFACE_SIDE_STYLE('',(#1726));
#1726=SURFACE_STYLE_FILL_AREA(#1727);
#1727=FILL_AREA_STYLE('Steel - Satin',(#1728));
#1728=FILL_AREA_STYLE_COLOUR('Steel - Satin',#1729);
#1729=COLOUR_RGB('Steel - Satin',0.627450980392157,0.627450980392157,0.627450980392157);
ENDSEC;
END-ISO-10303-21;
