ISO-10303-21;
HEADER;
/* Generated by software containing ST-Developer
 * from STEP Tools, Inc. (www.steptools.com) 
 */

FILE_DESCRIPTION(
/* description */ (''),
/* implementation_level */ '2;1');

FILE_NAME(
/* name */ 'link4 v3.step',
/* time_stamp */ '2026-05-21T11:45:22+02:00',
/* author */ (''),
/* organization */ (''),
/* preprocessor_version */ 'ST-DEVELOPER v20.1',
/* originating_system */ 'Autodesk Translation Framework v15.8.0.0',
/* authorisation */ '');

FILE_SCHEMA (('AUTOMOTIVE_DESIGN { 1 0 10303 214 3 1 1 }'));
ENDSEC;

DATA;
#10=MECHANICAL_DESIGN_GEOMETRIC_PRESENTATION_REPRESENTATION('',(#13),#1590);
#11=SHAPE_REPRESENTATION_RELATIONSHIP('SRR','None',#1597,#12);
#12=ADVANCED_BREP_SHAPE_REPRESENTATION('',(#14),#1589);
#13=STYLED_ITEM('',(#1606),#14);
#14=MANIFOLD_SOLID_BREP('Body1',#700);
#15=B_SPLINE_CURVE_WITH_KNOTS('',3,(#1079,#1080,#1081,#1082,#1083,#1084,
#1085,#1086,#1087,#1088,#1089,#1090,#1091,#1092,#1093,#1094,#1095,#1096,
#1097,#1098,#1099,#1100,#1101,#1102,#1103,#1104,#1105,#1106,#1107,#1108,
#1109,#1110,#1111,#1112,#1113,#1114,#1115),.UNSPECIFIED.,.F.,.F.,(4,3,3,
3,3,3,3,3,3,3,3,3,4),(0.0650298335927817,0.191110677878079,0.317431193191641,
0.443269630412559,0.458909042070679,0.585333212428915,0.710949030839507,
0.83634676479561,0.962631499398792,1.08904762302458,1.21487996518378,1.33900015319703,
1.4219264195871),.UNSPECIFIED.);
#16=B_SPLINE_CURVE_WITH_KNOTS('',3,(#1117,#1118,#1119,#1120),
 .UNSPECIFIED.,.F.,.F.,(4,4),(-9.61400553597067,0.38606399377686),
 .UNSPECIFIED.);
#17=B_SPLINE_CURVE_WITH_KNOTS('',3,(#1122,#1123,#1124,#1125,#1126,#1127,
#1128,#1129,#1130,#1131,#1132,#1133,#1134,#1135,#1136,#1137,#1138,#1139,
#1140,#1141,#1142,#1143,#1144,#1145,#1146,#1147,#1148,#1149,#1150,#1151,
#1152,#1153,#1154,#1155,#1156,#1157,#1158),.UNSPECIFIED.,.F.,.F.,(4,3,3,
3,3,3,3,3,3,3,3,3,4),(0.,0.123905595494447,0.249228086550003,0.37570885412928,
0.502200230422488,0.62775656714407,0.710977596264732,0.837401803758584,
0.963017660377511,1.08903271556157,1.21535052599091,1.34127178670081,1.35689698455301),
 .UNSPECIFIED.);
#18=B_SPLINE_CURVE_WITH_KNOTS('',3,(#1160,#1161,#1162,#1163,#1164,#1165,
#1166,#1167,#1168,#1169,#1170,#1171,#1172,#1173,#1174,#1175,#1176,#1177,
#1178,#1179,#1180,#1181,#1182,#1183,#1184),.UNSPECIFIED.,.F.,.F.,(4,3,3,
3,3,3,3,3,4),(-0.962940240420119,-0.856468936496524,-0.745680448370902,
-0.623447488395169,-0.540620311744688,-0.40783316134485,-0.203916580672425,
-0.0914743132353945,0.),.UNSPECIFIED.);
#19=B_SPLINE_CURVE_WITH_KNOTS('',3,(#1186,#1187,#1188,#1189),
 .UNSPECIFIED.,.F.,.F.,(4,4),(-4.45807460633049E-7,9.22794198800127),
 .UNSPECIFIED.);
#20=B_SPLINE_CURVE_WITH_KNOTS('',3,(#1190,#1191,#1192,#1193,#1194,#1195,
#1196,#1197,#1198,#1199,#1200,#1201,#1202,#1203,#1204,#1205,#1206,#1207,
#1208,#1209,#1210,#1211,#1212,#1213,#1214,#1215,#1216,#1217),
 .UNSPECIFIED.,.F.,.F.,(4,3,3,3,3,3,3,3,3,4),(-0.963542804207691,-0.855153555432783,
-0.729471979820483,-0.565492338297757,-0.433860751597326,-0.42193000893111,
-0.300007212317011,-0.186467478987302,-0.0805063677125574,0.),
 .UNSPECIFIED.);
#21=B_SPLINE_CURVE_WITH_KNOTS('',3,(#1275,#1276,#1277,#1278,#1279,#1280,
#1281,#1282,#1283,#1284,#1285,#1286,#1287,#1288,#1289,#1290,#1291,#1292,
#1293,#1294,#1295,#1296,#1297,#1298,#1299),.UNSPECIFIED.,.F.,.F.,(4,3,3,
3,3,3,3,3,4),(-0.962940240420103,-0.856468936496528,-0.745680448376621,
-0.623447488424501,-0.540620311744683,-0.40783316133518,-0.20391658066759,
-0.0914743132232241,0.),.UNSPECIFIED.);
#22=B_SPLINE_CURVE_WITH_KNOTS('',3,(#1352,#1353,#1354,#1355,#1356,#1357,
#1358,#1359,#1360,#1361,#1362,#1363,#1364,#1365,#1366,#1367,#1368,#1369,
#1370,#1371,#1372,#1373,#1374,#1375,#1376,#1377,#1378,#1379,#1380,#1381,
#1382,#1383,#1384,#1385,#1386,#1387,#1388),.UNSPECIFIED.,.F.,.F.,(4,3,3,
3,3,3,3,3,3,3,3,3,4),(0.0650298335927817,0.191110677877956,0.317431193191852,
0.443269630412847,0.458909042070678,0.585333212428693,0.710949030839499,
0.836346764795978,0.962631499398963,1.08904762302474,1.21487996518396,1.339000153197,
1.42192641958707),.UNSPECIFIED.);
#23=B_SPLINE_CURVE_WITH_KNOTS('',3,(#1390,#1391,#1392,#1393),
 .UNSPECIFIED.,.F.,.F.,(4,4),(-9.61400553597067,0.38606399377686),
 .UNSPECIFIED.);
#24=B_SPLINE_CURVE_WITH_KNOTS('',3,(#1394,#1395,#1396,#1397,#1398,#1399,
#1400,#1401,#1402,#1403,#1404,#1405,#1406,#1407,#1408,#1409,#1410,#1411,
#1412,#1413,#1414,#1415,#1416,#1417,#1418,#1419,#1420,#1421,#1422,#1423,
#1424,#1425,#1426,#1427,#1428,#1429,#1430),.UNSPECIFIED.,.F.,.F.,(4,3,3,
3,3,3,3,3,3,3,3,3,4),(0.,0.123905595494443,0.249228086550591,0.375708854129921,
0.502200230423327,0.627756567144915,0.710977596264732,0.837401803758523,
0.96301766037751,1.08903271556151,1.2153505259908,1.34127178670083,1.35689698455301),
 .UNSPECIFIED.);
#25=B_SPLINE_CURVE_WITH_KNOTS('',3,(#1432,#1433,#1434,#1435),
 .UNSPECIFIED.,.F.,.F.,(4,4),(-4.45807460190801E-7,9.22794198800127),
 .UNSPECIFIED.);
#26=B_SPLINE_CURVE_WITH_KNOTS('',3,(#1436,#1437,#1438,#1439,#1440,#1441,
#1442,#1443,#1444,#1445,#1446,#1447,#1448,#1449,#1450,#1451,#1452,#1453,
#1454,#1455,#1456,#1457,#1458,#1459,#1460,#1461,#1462,#1463),
 .UNSPECIFIED.,.F.,.F.,(4,3,3,3,3,3,3,3,3,4),(-0.963542804207704,-0.855153555443315,
-0.729471979861353,-0.565492338323289,-0.433860751598774,-0.421930008931099,
-0.300007212316996,-0.186467478991682,-0.0805063677162162,0.),
 .UNSPECIFIED.);
#27=B_SPLINE_SURFACE_WITH_KNOTS('',3,3,((#1053,#1054,#1055,#1056),(#1057,
#1058,#1059,#1060),(#1061,#1062,#1063,#1064),(#1065,#1066,#1067,#1068),
(#1069,#1070,#1071,#1072),(#1073,#1074,#1075,#1076)),.UNSPECIFIED.,.F.,
 .F.,.F.,(4,1,1,4),(4,4),(0.,0.285714285714286,0.571428571428571,1.),(-0.38606399377686,
9.61400553597067),.UNSPECIFIED.);
#28=B_SPLINE_SURFACE_WITH_KNOTS('',3,3,((#1228,#1229,#1230,#1231),(#1232,
#1233,#1234,#1235),(#1236,#1237,#1238,#1239),(#1240,#1241,#1242,#1243),
(#1244,#1245,#1246,#1247),(#1248,#1249,#1250,#1251),(#1252,#1253,#1254,
#1255),(#1256,#1257,#1258,#1259),(#1260,#1261,#1262,#1263),(#1264,#1265,
#1266,#1267)),.UNSPECIFIED.,.F.,.F.,.F.,(4,1,1,1,1,1,1,4),(4,4),(0.,0.142857142857143,
0.285714285714286,0.428571428571429,0.571428571428571,0.714285714285714,
0.857142857142857,1.),(0.,1.),.UNSPECIFIED.);
#29=B_SPLINE_SURFACE_WITH_KNOTS('',3,3,((#1303,#1304,#1305,#1306),(#1307,
#1308,#1309,#1310),(#1311,#1312,#1313,#1314),(#1315,#1316,#1317,#1318),
(#1319,#1320,#1321,#1322)),.UNSPECIFIED.,.F.,.F.,.F.,(4,1,4),(4,4),(0.,
0.571428571428571,1.),(0.,0.890171321660346),.UNSPECIFIED.);
#30=B_SPLINE_SURFACE_WITH_KNOTS('',3,3,((#1326,#1327,#1328,#1329),(#1330,
#1331,#1332,#1333),(#1334,#1335,#1336,#1337),(#1338,#1339,#1340,#1341),
(#1342,#1343,#1344,#1345),(#1346,#1347,#1348,#1349)),.UNSPECIFIED.,.F.,
 .F.,.F.,(4,1,1,4),(4,4),(0.,0.285714285714286,0.571428571428571,1.),(-0.38606399377686,
9.61400553597067),.UNSPECIFIED.);
#31=B_SPLINE_SURFACE_WITH_KNOTS('',3,3,((#1526,#1527,#1528,#1529),(#1530,
#1531,#1532,#1533),(#1534,#1535,#1536,#1537),(#1538,#1539,#1540,#1541),
(#1542,#1543,#1544,#1545)),.UNSPECIFIED.,.F.,.F.,.F.,(4,1,4),(4,4),(0.,
0.571428571428571,1.),(0.,0.890171321660346),.UNSPECIFIED.);
#32=B_SPLINE_SURFACE_WITH_KNOTS('',3,3,((#1547,#1548,#1549,#1550),(#1551,
#1552,#1553,#1554),(#1555,#1556,#1557,#1558),(#1559,#1560,#1561,#1562),
(#1563,#1564,#1565,#1566),(#1567,#1568,#1569,#1570),(#1571,#1572,#1573,
#1574),(#1575,#1576,#1577,#1578),(#1579,#1580,#1581,#1582),(#1583,#1584,
#1585,#1586)),.UNSPECIFIED.,.F.,.F.,.F.,(4,1,1,1,1,1,1,4),(4,4),(0.,0.142857142857143,
0.285714285714286,0.428571428571429,0.571428571428571,0.714285714285714,
0.857142857142857,1.),(0.,1.),.UNSPECIFIED.);
#33=FACE_BOUND('',#111,.T.);
#34=FACE_BOUND('',#112,.T.);
#35=FACE_BOUND('',#113,.T.);
#36=FACE_BOUND('',#114,.T.);
#37=FACE_BOUND('',#115,.T.);
#38=FACE_BOUND('',#116,.T.);
#39=FACE_BOUND('',#117,.T.);
#40=FACE_BOUND('',#118,.T.);
#41=FACE_BOUND('',#119,.T.);
#42=FACE_BOUND('',#120,.T.);
#43=FACE_BOUND('',#121,.T.);
#44=FACE_BOUND('',#122,.T.);
#45=FACE_BOUND('',#142,.T.);
#46=FACE_BOUND('',#146,.T.);
#47=FACE_BOUND('',#149,.T.);
#48=FACE_BOUND('',#151,.T.);
#49=FACE_BOUND('',#158,.T.);
#50=FACE_BOUND('',#160,.T.);
#51=FACE_BOUND('',#161,.T.);
#52=FACE_BOUND('',#162,.T.);
#53=FACE_BOUND('',#163,.T.);
#54=FACE_BOUND('',#164,.T.);
#55=FACE_BOUND('',#165,.T.);
#56=FACE_BOUND('',#166,.T.);
#57=FACE_BOUND('',#167,.T.);
#58=FACE_BOUND('',#168,.T.);
#59=FACE_BOUND('',#169,.T.);
#60=FACE_BOUND('',#170,.T.);
#61=FACE_BOUND('',#171,.T.);
#62=PLANE('',#717);
#63=PLANE('',#754);
#64=PLANE('',#758);
#65=PLANE('',#760);
#66=PLANE('',#763);
#67=PLANE('',#767);
#68=PLANE('',#771);
#69=PLANE('',#772);
#70=PLANE('',#775);
#71=PLANE('',#782);
#72=PLANE('',#783);
#73=FACE_OUTER_BOUND('',#109,.T.);
#74=FACE_OUTER_BOUND('',#110,.T.);
#75=FACE_OUTER_BOUND('',#123,.T.);
#76=FACE_OUTER_BOUND('',#124,.T.);
#77=FACE_OUTER_BOUND('',#125,.T.);
#78=FACE_OUTER_BOUND('',#126,.T.);
#79=FACE_OUTER_BOUND('',#127,.T.);
#80=FACE_OUTER_BOUND('',#128,.T.);
#81=FACE_OUTER_BOUND('',#129,.T.);
#82=FACE_OUTER_BOUND('',#130,.T.);
#83=FACE_OUTER_BOUND('',#131,.T.);
#84=FACE_OUTER_BOUND('',#132,.T.);
#85=FACE_OUTER_BOUND('',#133,.T.);
#86=FACE_OUTER_BOUND('',#134,.T.);
#87=FACE_OUTER_BOUND('',#135,.T.);
#88=FACE_OUTER_BOUND('',#136,.T.);
#89=FACE_OUTER_BOUND('',#137,.T.);
#90=FACE_OUTER_BOUND('',#138,.T.);
#91=FACE_OUTER_BOUND('',#139,.T.);
#92=FACE_OUTER_BOUND('',#140,.T.);
#93=FACE_OUTER_BOUND('',#141,.T.);
#94=FACE_OUTER_BOUND('',#143,.T.);
#95=FACE_OUTER_BOUND('',#144,.T.);
#96=FACE_OUTER_BOUND('',#145,.T.);
#97=FACE_OUTER_BOUND('',#147,.T.);
#98=FACE_OUTER_BOUND('',#148,.T.);
#99=FACE_OUTER_BOUND('',#150,.T.);
#100=FACE_OUTER_BOUND('',#152,.T.);
#101=FACE_OUTER_BOUND('',#153,.T.);
#102=FACE_OUTER_BOUND('',#154,.T.);
#103=FACE_OUTER_BOUND('',#155,.T.);
#104=FACE_OUTER_BOUND('',#156,.T.);
#105=FACE_OUTER_BOUND('',#157,.T.);
#106=FACE_OUTER_BOUND('',#159,.T.);
#107=FACE_OUTER_BOUND('',#172,.T.);
#108=FACE_OUTER_BOUND('',#173,.T.);
#109=EDGE_LOOP('',(#455,#456,#457,#458));
#110=EDGE_LOOP('',(#459));
#111=EDGE_LOOP('',(#460));
#112=EDGE_LOOP('',(#461));
#113=EDGE_LOOP('',(#462));
#114=EDGE_LOOP('',(#463));
#115=EDGE_LOOP('',(#464));
#116=EDGE_LOOP('',(#465));
#117=EDGE_LOOP('',(#466));
#118=EDGE_LOOP('',(#467));
#119=EDGE_LOOP('',(#468));
#120=EDGE_LOOP('',(#469));
#121=EDGE_LOOP('',(#470));
#122=EDGE_LOOP('',(#471));
#123=EDGE_LOOP('',(#472,#473,#474,#475));
#124=EDGE_LOOP('',(#476,#477,#478,#479));
#125=EDGE_LOOP('',(#480,#481,#482,#483));
#126=EDGE_LOOP('',(#484,#485,#486,#487));
#127=EDGE_LOOP('',(#488,#489,#490,#491));
#128=EDGE_LOOP('',(#492,#493,#494,#495));
#129=EDGE_LOOP('',(#496,#497,#498,#499));
#130=EDGE_LOOP('',(#500,#501,#502,#503));
#131=EDGE_LOOP('',(#504,#505,#506,#507));
#132=EDGE_LOOP('',(#508,#509,#510,#511));
#133=EDGE_LOOP('',(#512,#513,#514,#515));
#134=EDGE_LOOP('',(#516,#517,#518,#519));
#135=EDGE_LOOP('',(#520,#521,#522,#523,#524,#525));
#136=EDGE_LOOP('',(#526,#527,#528,#529,#530,#531));
#137=EDGE_LOOP('',(#532,#533,#534,#535,#536,#537,#538,#539));
#138=EDGE_LOOP('',(#540,#541,#542,#543));
#139=EDGE_LOOP('',(#544,#545,#546,#547,#548,#549));
#140=EDGE_LOOP('',(#550,#551,#552,#553,#554,#555));
#141=EDGE_LOOP('',(#556,#557,#558,#559));
#142=EDGE_LOOP('',(#560));
#143=EDGE_LOOP('',(#561,#562,#563,#564,#565,#566));
#144=EDGE_LOOP('',(#567,#568,#569,#570));
#145=EDGE_LOOP('',(#571,#572,#573,#574));
#146=EDGE_LOOP('',(#575));
#147=EDGE_LOOP('',(#576,#577,#578,#579));
#148=EDGE_LOOP('',(#580,#581,#582,#583));
#149=EDGE_LOOP('',(#584));
#150=EDGE_LOOP('',(#585,#586,#587,#588));
#151=EDGE_LOOP('',(#589));
#152=EDGE_LOOP('',(#590,#591,#592,#593,#594,#595));
#153=EDGE_LOOP('',(#596,#597,#598,#599));
#154=EDGE_LOOP('',(#600,#601,#602,#603));
#155=EDGE_LOOP('',(#604,#605,#606,#607));
#156=EDGE_LOOP('',(#608,#609,#610,#611));
#157=EDGE_LOOP('',(#612,#613,#614,#615));
#158=EDGE_LOOP('',(#616));
#159=EDGE_LOOP('',(#617,#618,#619,#620));
#160=EDGE_LOOP('',(#621));
#161=EDGE_LOOP('',(#622));
#162=EDGE_LOOP('',(#623));
#163=EDGE_LOOP('',(#624));
#164=EDGE_LOOP('',(#625));
#165=EDGE_LOOP('',(#626));
#166=EDGE_LOOP('',(#627));
#167=EDGE_LOOP('',(#628));
#168=EDGE_LOOP('',(#629));
#169=EDGE_LOOP('',(#630));
#170=EDGE_LOOP('',(#631));
#171=EDGE_LOOP('',(#632));
#172=EDGE_LOOP('',(#633,#634,#635,#636));
#173=EDGE_LOOP('',(#637,#638,#639,#640,#641,#642,#643,#644));
#174=LINE('',#978,#215);
#175=LINE('',#1007,#216);
#176=LINE('',#1011,#217);
#177=LINE('',#1015,#218);
#178=LINE('',#1019,#219);
#179=LINE('',#1023,#220);
#180=LINE('',#1027,#221);
#181=LINE('',#1031,#222);
#182=LINE('',#1035,#223);
#183=LINE('',#1039,#224);
#184=LINE('',#1043,#225);
#185=LINE('',#1047,#226);
#186=LINE('',#1051,#227);
#187=LINE('',#1220,#228);
#188=LINE('',#1224,#229);
#189=LINE('',#1226,#230);
#190=LINE('',#1227,#231);
#191=LINE('',#1269,#232);
#192=LINE('',#1273,#233);
#193=LINE('',#1301,#234);
#194=LINE('',#1302,#235);
#195=LINE('',#1324,#236);
#196=LINE('',#1466,#237);
#197=LINE('',#1468,#238);
#198=LINE('',#1470,#239);
#199=LINE('',#1474,#240);
#200=LINE('',#1480,#241);
#201=LINE('',#1484,#242);
#202=LINE('',#1485,#243);
#203=LINE('',#1488,#244);
#204=LINE('',#1491,#245);
#205=LINE('',#1494,#246);
#206=LINE('',#1499,#247);
#207=LINE('',#1500,#248);
#208=LINE('',#1502,#249);
#209=LINE('',#1509,#250);
#210=LINE('',#1510,#251);
#211=LINE('',#1511,#252);
#212=LINE('',#1516,#253);
#213=LINE('',#1520,#254);
#214=LINE('',#1546,#255);
#215=VECTOR('',#792,45.);
#216=VECTOR('',#823,4.);
#217=VECTOR('',#828,4.);
#218=VECTOR('',#833,4.);
#219=VECTOR('',#838,4.);
#220=VECTOR('',#843,4.);
#221=VECTOR('',#848,4.);
#222=VECTOR('',#853,4.);
#223=VECTOR('',#858,4.);
#224=VECTOR('',#863,4.);
#225=VECTOR('',#868,4.);
#226=VECTOR('',#873,4.);
#227=VECTOR('',#878,4.);
#228=VECTOR('',#883,10.);
#229=VECTOR('',#886,10.);
#230=VECTOR('',#887,10.);
#231=VECTOR('',#888,10.);
#232=VECTOR('',#889,119.115959044782);
#233=VECTOR('',#892,119.115959044782);
#234=VECTOR('',#893,10.);
#235=VECTOR('',#894,10.);
#236=VECTOR('',#895,119.115959044782);
#237=VECTOR('',#900,10.);
#238=VECTOR('',#901,10.);
#239=VECTOR('',#902,10.);
#240=VECTOR('',#907,10.);
#241=VECTOR('',#914,10.);
#242=VECTOR('',#917,10.);
#243=VECTOR('',#918,10.);
#244=VECTOR('',#921,10.);
#245=VECTOR('',#924,10.);
#246=VECTOR('',#927,10.);
#247=VECTOR('',#934,10.);
#248=VECTOR('',#935,10.);
#249=VECTOR('',#938,10.);
#250=VECTOR('',#947,10.);
#251=VECTOR('',#948,10.);
#252=VECTOR('',#949,10.);
#253=VECTOR('',#958,25.);
#254=VECTOR('',#963,25.);
#255=VECTOR('',#972,119.115959044782);
#256=CIRCLE('',#715,45.);
#257=CIRCLE('',#716,45.);
#258=CIRCLE('',#718,4.);
#259=CIRCLE('',#719,4.);
#260=CIRCLE('',#720,4.);
#261=CIRCLE('',#721,4.);
#262=CIRCLE('',#722,4.);
#263=CIRCLE('',#723,4.);
#264=CIRCLE('',#724,4.);
#265=CIRCLE('',#725,4.);
#266=CIRCLE('',#726,4.);
#267=CIRCLE('',#727,4.);
#268=CIRCLE('',#728,4.);
#269=CIRCLE('',#729,4.);
#270=CIRCLE('',#731,4.);
#271=CIRCLE('',#733,4.);
#272=CIRCLE('',#735,4.);
#273=CIRCLE('',#737,4.);
#274=CIRCLE('',#739,4.);
#275=CIRCLE('',#741,4.);
#276=CIRCLE('',#743,4.);
#277=CIRCLE('',#745,4.);
#278=CIRCLE('',#747,4.);
#279=CIRCLE('',#749,4.);
#280=CIRCLE('',#751,4.);
#281=CIRCLE('',#753,4.);
#282=CIRCLE('',#755,20.);
#283=CIRCLE('',#756,50.);
#284=CIRCLE('',#757,50.);
#285=CIRCLE('',#759,20.);
#286=CIRCLE('',#761,50.);
#287=CIRCLE('',#762,25.);
#288=CIRCLE('',#764,20.);
#289=CIRCLE('',#766,20.);
#290=CIRCLE('',#768,50.);
#291=CIRCLE('',#769,25.);
#292=CIRCLE('',#773,50.);
#293=CIRCLE('',#774,25.);
#294=CIRCLE('',#777,50.);
#295=CIRCLE('',#781,25.);
#296=CIRCLE('',#784,50.);
#297=CIRCLE('',#785,50.);
#298=VERTEX_POINT('',#975);
#299=VERTEX_POINT('',#977);
#300=VERTEX_POINT('',#981);
#301=VERTEX_POINT('',#983);
#302=VERTEX_POINT('',#985);
#303=VERTEX_POINT('',#987);
#304=VERTEX_POINT('',#989);
#305=VERTEX_POINT('',#991);
#306=VERTEX_POINT('',#993);
#307=VERTEX_POINT('',#995);
#308=VERTEX_POINT('',#997);
#309=VERTEX_POINT('',#999);
#310=VERTEX_POINT('',#1001);
#311=VERTEX_POINT('',#1003);
#312=VERTEX_POINT('',#1006);
#313=VERTEX_POINT('',#1010);
#314=VERTEX_POINT('',#1014);
#315=VERTEX_POINT('',#1018);
#316=VERTEX_POINT('',#1022);
#317=VERTEX_POINT('',#1026);
#318=VERTEX_POINT('',#1030);
#319=VERTEX_POINT('',#1034);
#320=VERTEX_POINT('',#1038);
#321=VERTEX_POINT('',#1042);
#322=VERTEX_POINT('',#1046);
#323=VERTEX_POINT('',#1050);
#324=VERTEX_POINT('',#1077);
#325=VERTEX_POINT('',#1078);
#326=VERTEX_POINT('',#1116);
#327=VERTEX_POINT('',#1121);
#328=VERTEX_POINT('',#1159);
#329=VERTEX_POINT('',#1185);
#330=VERTEX_POINT('',#1219);
#331=VERTEX_POINT('',#1221);
#332=VERTEX_POINT('',#1223);
#333=VERTEX_POINT('',#1225);
#334=VERTEX_POINT('',#1268);
#335=VERTEX_POINT('',#1270);
#336=VERTEX_POINT('',#1272);
#337=VERTEX_POINT('',#1274);
#338=VERTEX_POINT('',#1300);
#339=VERTEX_POINT('',#1323);
#340=VERTEX_POINT('',#1350);
#341=VERTEX_POINT('',#1351);
#342=VERTEX_POINT('',#1389);
#343=VERTEX_POINT('',#1431);
#344=VERTEX_POINT('',#1465);
#345=VERTEX_POINT('',#1467);
#346=VERTEX_POINT('',#1469);
#347=VERTEX_POINT('',#1473);
#348=VERTEX_POINT('',#1476);
#349=VERTEX_POINT('',#1479);
#350=VERTEX_POINT('',#1481);
#351=VERTEX_POINT('',#1483);
#352=VERTEX_POINT('',#1487);
#353=VERTEX_POINT('',#1489);
#354=VERTEX_POINT('',#1493);
#355=VERTEX_POINT('',#1496);
#356=VERTEX_POINT('',#1505);
#357=VERTEX_POINT('',#1508);
#358=VERTEX_POINT('',#1518);
#359=VERTEX_POINT('',#1523);
#360=EDGE_CURVE('',#298,#298,#256,.T.);
#361=EDGE_CURVE('',#298,#299,#174,.T.);
#362=EDGE_CURVE('',#299,#299,#257,.T.);
#363=EDGE_CURVE('',#300,#300,#258,.T.);
#364=EDGE_CURVE('',#301,#301,#259,.T.);
#365=EDGE_CURVE('',#302,#302,#260,.T.);
#366=EDGE_CURVE('',#303,#303,#261,.T.);
#367=EDGE_CURVE('',#304,#304,#262,.T.);
#368=EDGE_CURVE('',#305,#305,#263,.T.);
#369=EDGE_CURVE('',#306,#306,#264,.T.);
#370=EDGE_CURVE('',#307,#307,#265,.T.);
#371=EDGE_CURVE('',#308,#308,#266,.T.);
#372=EDGE_CURVE('',#309,#309,#267,.T.);
#373=EDGE_CURVE('',#310,#310,#268,.T.);
#374=EDGE_CURVE('',#311,#311,#269,.T.);
#375=EDGE_CURVE('',#311,#312,#175,.T.);
#376=EDGE_CURVE('',#312,#312,#270,.T.);
#377=EDGE_CURVE('',#310,#313,#176,.T.);
#378=EDGE_CURVE('',#313,#313,#271,.T.);
#379=EDGE_CURVE('',#309,#314,#177,.T.);
#380=EDGE_CURVE('',#314,#314,#272,.T.);
#381=EDGE_CURVE('',#308,#315,#178,.T.);
#382=EDGE_CURVE('',#315,#315,#273,.T.);
#383=EDGE_CURVE('',#307,#316,#179,.T.);
#384=EDGE_CURVE('',#316,#316,#274,.T.);
#385=EDGE_CURVE('',#306,#317,#180,.T.);
#386=EDGE_CURVE('',#317,#317,#275,.T.);
#387=EDGE_CURVE('',#305,#318,#181,.T.);
#388=EDGE_CURVE('',#318,#318,#276,.T.);
#389=EDGE_CURVE('',#304,#319,#182,.T.);
#390=EDGE_CURVE('',#319,#319,#277,.T.);
#391=EDGE_CURVE('',#303,#320,#183,.T.);
#392=EDGE_CURVE('',#320,#320,#278,.T.);
#393=EDGE_CURVE('',#302,#321,#184,.T.);
#394=EDGE_CURVE('',#321,#321,#279,.T.);
#395=EDGE_CURVE('',#301,#322,#185,.T.);
#396=EDGE_CURVE('',#322,#322,#280,.T.);
#397=EDGE_CURVE('',#300,#323,#186,.T.);
#398=EDGE_CURVE('',#323,#323,#281,.T.);
#399=EDGE_CURVE('',#324,#325,#15,.T.);
#400=EDGE_CURVE('',#325,#326,#16,.T.);
#401=EDGE_CURVE('',#326,#327,#17,.T.);
#402=EDGE_CURVE('',#327,#328,#18,.T.);
#403=EDGE_CURVE('',#328,#329,#19,.T.);
#404=EDGE_CURVE('',#329,#324,#20,.T.);
#405=EDGE_CURVE('',#324,#330,#187,.T.);
#406=EDGE_CURVE('',#331,#330,#282,.T.);
#407=EDGE_CURVE('',#331,#332,#188,.T.);
#408=EDGE_CURVE('',#333,#332,#189,.T.);
#409=EDGE_CURVE('',#325,#333,#190,.T.);
#410=EDGE_CURVE('',#334,#329,#191,.T.);
#411=EDGE_CURVE('',#334,#335,#283,.T.);
#412=EDGE_CURVE('',#335,#336,#192,.T.);
#413=EDGE_CURVE('',#337,#336,#21,.T.);
#414=EDGE_CURVE('',#338,#337,#193,.T.);
#415=EDGE_CURVE('',#330,#338,#194,.T.);
#416=EDGE_CURVE('',#339,#328,#195,.T.);
#417=EDGE_CURVE('',#339,#334,#284,.T.);
#418=EDGE_CURVE('',#340,#341,#22,.T.);
#419=EDGE_CURVE('',#341,#342,#23,.T.);
#420=EDGE_CURVE('',#342,#337,#24,.T.);
#421=EDGE_CURVE('',#336,#343,#25,.T.);
#422=EDGE_CURVE('',#343,#340,#26,.T.);
#423=EDGE_CURVE('',#342,#344,#196,.T.);
#424=EDGE_CURVE('',#345,#344,#197,.T.);
#425=EDGE_CURVE('',#345,#346,#198,.T.);
#426=EDGE_CURVE('',#338,#346,#285,.T.);
#427=EDGE_CURVE('',#341,#347,#199,.T.);
#428=EDGE_CURVE('',#344,#347,#286,.T.);
#429=EDGE_CURVE('',#348,#348,#287,.T.);
#430=EDGE_CURVE('',#340,#349,#200,.T.);
#431=EDGE_CURVE('',#349,#350,#288,.F.);
#432=EDGE_CURVE('',#350,#351,#201,.T.);
#433=EDGE_CURVE('',#347,#351,#202,.T.);
#434=EDGE_CURVE('',#330,#352,#203,.T.);
#435=EDGE_CURVE('',#353,#352,#289,.F.);
#436=EDGE_CURVE('',#353,#331,#204,.T.);
#437=EDGE_CURVE('',#354,#353,#205,.T.);
#438=EDGE_CURVE('',#332,#354,#290,.T.);
#439=EDGE_CURVE('',#355,#355,#291,.T.);
#440=EDGE_CURVE('',#346,#350,#206,.T.);
#441=EDGE_CURVE('',#349,#338,#207,.T.);
#442=EDGE_CURVE('',#349,#352,#208,.T.);
#443=EDGE_CURVE('',#351,#345,#292,.T.);
#444=EDGE_CURVE('',#356,#356,#293,.T.);
#445=EDGE_CURVE('',#326,#357,#209,.T.);
#446=EDGE_CURVE('',#354,#357,#210,.T.);
#447=EDGE_CURVE('',#352,#327,#211,.T.);
#448=EDGE_CURVE('',#333,#357,#294,.T.);
#449=EDGE_CURVE('',#356,#348,#212,.T.);
#450=EDGE_CURVE('',#358,#358,#295,.T.);
#451=EDGE_CURVE('',#358,#355,#213,.T.);
#452=EDGE_CURVE('',#359,#339,#296,.T.);
#453=EDGE_CURVE('',#335,#359,#297,.T.);
#454=EDGE_CURVE('',#359,#343,#214,.T.);
#455=ORIENTED_EDGE('',*,*,#360,.F.);
#456=ORIENTED_EDGE('',*,*,#361,.T.);
#457=ORIENTED_EDGE('',*,*,#362,.T.);
#458=ORIENTED_EDGE('',*,*,#361,.F.);
#459=ORIENTED_EDGE('',*,*,#362,.F.);
#460=ORIENTED_EDGE('',*,*,#363,.F.);
#461=ORIENTED_EDGE('',*,*,#364,.F.);
#462=ORIENTED_EDGE('',*,*,#365,.F.);
#463=ORIENTED_EDGE('',*,*,#366,.F.);
#464=ORIENTED_EDGE('',*,*,#367,.F.);
#465=ORIENTED_EDGE('',*,*,#368,.F.);
#466=ORIENTED_EDGE('',*,*,#369,.F.);
#467=ORIENTED_EDGE('',*,*,#370,.F.);
#468=ORIENTED_EDGE('',*,*,#371,.F.);
#469=ORIENTED_EDGE('',*,*,#372,.F.);
#470=ORIENTED_EDGE('',*,*,#373,.F.);
#471=ORIENTED_EDGE('',*,*,#374,.F.);
#472=ORIENTED_EDGE('',*,*,#374,.T.);
#473=ORIENTED_EDGE('',*,*,#375,.T.);
#474=ORIENTED_EDGE('',*,*,#376,.F.);
#475=ORIENTED_EDGE('',*,*,#375,.F.);
#476=ORIENTED_EDGE('',*,*,#373,.T.);
#477=ORIENTED_EDGE('',*,*,#377,.T.);
#478=ORIENTED_EDGE('',*,*,#378,.F.);
#479=ORIENTED_EDGE('',*,*,#377,.F.);
#480=ORIENTED_EDGE('',*,*,#372,.T.);
#481=ORIENTED_EDGE('',*,*,#379,.T.);
#482=ORIENTED_EDGE('',*,*,#380,.F.);
#483=ORIENTED_EDGE('',*,*,#379,.F.);
#484=ORIENTED_EDGE('',*,*,#371,.T.);
#485=ORIENTED_EDGE('',*,*,#381,.T.);
#486=ORIENTED_EDGE('',*,*,#382,.F.);
#487=ORIENTED_EDGE('',*,*,#381,.F.);
#488=ORIENTED_EDGE('',*,*,#370,.T.);
#489=ORIENTED_EDGE('',*,*,#383,.T.);
#490=ORIENTED_EDGE('',*,*,#384,.F.);
#491=ORIENTED_EDGE('',*,*,#383,.F.);
#492=ORIENTED_EDGE('',*,*,#369,.T.);
#493=ORIENTED_EDGE('',*,*,#385,.T.);
#494=ORIENTED_EDGE('',*,*,#386,.F.);
#495=ORIENTED_EDGE('',*,*,#385,.F.);
#496=ORIENTED_EDGE('',*,*,#368,.T.);
#497=ORIENTED_EDGE('',*,*,#387,.T.);
#498=ORIENTED_EDGE('',*,*,#388,.F.);
#499=ORIENTED_EDGE('',*,*,#387,.F.);
#500=ORIENTED_EDGE('',*,*,#367,.T.);
#501=ORIENTED_EDGE('',*,*,#389,.T.);
#502=ORIENTED_EDGE('',*,*,#390,.F.);
#503=ORIENTED_EDGE('',*,*,#389,.F.);
#504=ORIENTED_EDGE('',*,*,#366,.T.);
#505=ORIENTED_EDGE('',*,*,#391,.T.);
#506=ORIENTED_EDGE('',*,*,#392,.F.);
#507=ORIENTED_EDGE('',*,*,#391,.F.);
#508=ORIENTED_EDGE('',*,*,#365,.T.);
#509=ORIENTED_EDGE('',*,*,#393,.T.);
#510=ORIENTED_EDGE('',*,*,#394,.F.);
#511=ORIENTED_EDGE('',*,*,#393,.F.);
#512=ORIENTED_EDGE('',*,*,#364,.T.);
#513=ORIENTED_EDGE('',*,*,#395,.T.);
#514=ORIENTED_EDGE('',*,*,#396,.F.);
#515=ORIENTED_EDGE('',*,*,#395,.F.);
#516=ORIENTED_EDGE('',*,*,#363,.T.);
#517=ORIENTED_EDGE('',*,*,#397,.T.);
#518=ORIENTED_EDGE('',*,*,#398,.F.);
#519=ORIENTED_EDGE('',*,*,#397,.F.);
#520=ORIENTED_EDGE('',*,*,#399,.T.);
#521=ORIENTED_EDGE('',*,*,#400,.T.);
#522=ORIENTED_EDGE('',*,*,#401,.T.);
#523=ORIENTED_EDGE('',*,*,#402,.T.);
#524=ORIENTED_EDGE('',*,*,#403,.T.);
#525=ORIENTED_EDGE('',*,*,#404,.T.);
#526=ORIENTED_EDGE('',*,*,#399,.F.);
#527=ORIENTED_EDGE('',*,*,#405,.T.);
#528=ORIENTED_EDGE('',*,*,#406,.F.);
#529=ORIENTED_EDGE('',*,*,#407,.T.);
#530=ORIENTED_EDGE('',*,*,#408,.F.);
#531=ORIENTED_EDGE('',*,*,#409,.F.);
#532=ORIENTED_EDGE('',*,*,#404,.F.);
#533=ORIENTED_EDGE('',*,*,#410,.F.);
#534=ORIENTED_EDGE('',*,*,#411,.T.);
#535=ORIENTED_EDGE('',*,*,#412,.T.);
#536=ORIENTED_EDGE('',*,*,#413,.F.);
#537=ORIENTED_EDGE('',*,*,#414,.F.);
#538=ORIENTED_EDGE('',*,*,#415,.F.);
#539=ORIENTED_EDGE('',*,*,#405,.F.);
#540=ORIENTED_EDGE('',*,*,#403,.F.);
#541=ORIENTED_EDGE('',*,*,#416,.F.);
#542=ORIENTED_EDGE('',*,*,#417,.T.);
#543=ORIENTED_EDGE('',*,*,#410,.T.);
#544=ORIENTED_EDGE('',*,*,#418,.T.);
#545=ORIENTED_EDGE('',*,*,#419,.T.);
#546=ORIENTED_EDGE('',*,*,#420,.T.);
#547=ORIENTED_EDGE('',*,*,#413,.T.);
#548=ORIENTED_EDGE('',*,*,#421,.T.);
#549=ORIENTED_EDGE('',*,*,#422,.T.);
#550=ORIENTED_EDGE('',*,*,#420,.F.);
#551=ORIENTED_EDGE('',*,*,#423,.T.);
#552=ORIENTED_EDGE('',*,*,#424,.F.);
#553=ORIENTED_EDGE('',*,*,#425,.T.);
#554=ORIENTED_EDGE('',*,*,#426,.F.);
#555=ORIENTED_EDGE('',*,*,#414,.T.);
#556=ORIENTED_EDGE('',*,*,#419,.F.);
#557=ORIENTED_EDGE('',*,*,#427,.T.);
#558=ORIENTED_EDGE('',*,*,#428,.F.);
#559=ORIENTED_EDGE('',*,*,#423,.F.);
#560=ORIENTED_EDGE('',*,*,#429,.T.);
#561=ORIENTED_EDGE('',*,*,#418,.F.);
#562=ORIENTED_EDGE('',*,*,#430,.T.);
#563=ORIENTED_EDGE('',*,*,#431,.T.);
#564=ORIENTED_EDGE('',*,*,#432,.T.);
#565=ORIENTED_EDGE('',*,*,#433,.F.);
#566=ORIENTED_EDGE('',*,*,#427,.F.);
#567=ORIENTED_EDGE('',*,*,#406,.T.);
#568=ORIENTED_EDGE('',*,*,#434,.T.);
#569=ORIENTED_EDGE('',*,*,#435,.F.);
#570=ORIENTED_EDGE('',*,*,#436,.T.);
#571=ORIENTED_EDGE('',*,*,#436,.F.);
#572=ORIENTED_EDGE('',*,*,#437,.F.);
#573=ORIENTED_EDGE('',*,*,#438,.F.);
#574=ORIENTED_EDGE('',*,*,#407,.F.);
#575=ORIENTED_EDGE('',*,*,#439,.F.);
#576=ORIENTED_EDGE('',*,*,#426,.T.);
#577=ORIENTED_EDGE('',*,*,#440,.T.);
#578=ORIENTED_EDGE('',*,*,#431,.F.);
#579=ORIENTED_EDGE('',*,*,#441,.T.);
#580=ORIENTED_EDGE('',*,*,#434,.F.);
#581=ORIENTED_EDGE('',*,*,#415,.T.);
#582=ORIENTED_EDGE('',*,*,#441,.F.);
#583=ORIENTED_EDGE('',*,*,#442,.T.);
#584=ORIENTED_EDGE('',*,*,#360,.T.);
#585=ORIENTED_EDGE('',*,*,#440,.F.);
#586=ORIENTED_EDGE('',*,*,#425,.F.);
#587=ORIENTED_EDGE('',*,*,#443,.F.);
#588=ORIENTED_EDGE('',*,*,#432,.F.);
#589=ORIENTED_EDGE('',*,*,#444,.F.);
#590=ORIENTED_EDGE('',*,*,#401,.F.);
#591=ORIENTED_EDGE('',*,*,#445,.T.);
#592=ORIENTED_EDGE('',*,*,#446,.F.);
#593=ORIENTED_EDGE('',*,*,#437,.T.);
#594=ORIENTED_EDGE('',*,*,#435,.T.);
#595=ORIENTED_EDGE('',*,*,#447,.T.);
#596=ORIENTED_EDGE('',*,*,#438,.T.);
#597=ORIENTED_EDGE('',*,*,#446,.T.);
#598=ORIENTED_EDGE('',*,*,#448,.F.);
#599=ORIENTED_EDGE('',*,*,#408,.T.);
#600=ORIENTED_EDGE('',*,*,#443,.T.);
#601=ORIENTED_EDGE('',*,*,#424,.T.);
#602=ORIENTED_EDGE('',*,*,#428,.T.);
#603=ORIENTED_EDGE('',*,*,#433,.T.);
#604=ORIENTED_EDGE('',*,*,#444,.T.);
#605=ORIENTED_EDGE('',*,*,#449,.T.);
#606=ORIENTED_EDGE('',*,*,#429,.F.);
#607=ORIENTED_EDGE('',*,*,#449,.F.);
#608=ORIENTED_EDGE('',*,*,#450,.F.);
#609=ORIENTED_EDGE('',*,*,#451,.T.);
#610=ORIENTED_EDGE('',*,*,#439,.T.);
#611=ORIENTED_EDGE('',*,*,#451,.F.);
#612=ORIENTED_EDGE('',*,*,#400,.F.);
#613=ORIENTED_EDGE('',*,*,#409,.T.);
#614=ORIENTED_EDGE('',*,*,#448,.T.);
#615=ORIENTED_EDGE('',*,*,#445,.F.);
#616=ORIENTED_EDGE('',*,*,#450,.T.);
#617=ORIENTED_EDGE('',*,*,#417,.F.);
#618=ORIENTED_EDGE('',*,*,#452,.F.);
#619=ORIENTED_EDGE('',*,*,#453,.F.);
#620=ORIENTED_EDGE('',*,*,#411,.F.);
#621=ORIENTED_EDGE('',*,*,#398,.T.);
#622=ORIENTED_EDGE('',*,*,#396,.T.);
#623=ORIENTED_EDGE('',*,*,#394,.T.);
#624=ORIENTED_EDGE('',*,*,#392,.T.);
#625=ORIENTED_EDGE('',*,*,#390,.T.);
#626=ORIENTED_EDGE('',*,*,#388,.T.);
#627=ORIENTED_EDGE('',*,*,#386,.T.);
#628=ORIENTED_EDGE('',*,*,#384,.T.);
#629=ORIENTED_EDGE('',*,*,#382,.T.);
#630=ORIENTED_EDGE('',*,*,#380,.T.);
#631=ORIENTED_EDGE('',*,*,#378,.T.);
#632=ORIENTED_EDGE('',*,*,#376,.T.);
#633=ORIENTED_EDGE('',*,*,#421,.F.);
#634=ORIENTED_EDGE('',*,*,#412,.F.);
#635=ORIENTED_EDGE('',*,*,#453,.T.);
#636=ORIENTED_EDGE('',*,*,#454,.T.);
#637=ORIENTED_EDGE('',*,*,#402,.F.);
#638=ORIENTED_EDGE('',*,*,#447,.F.);
#639=ORIENTED_EDGE('',*,*,#442,.F.);
#640=ORIENTED_EDGE('',*,*,#430,.F.);
#641=ORIENTED_EDGE('',*,*,#422,.F.);
#642=ORIENTED_EDGE('',*,*,#454,.F.);
#643=ORIENTED_EDGE('',*,*,#452,.T.);
#644=ORIENTED_EDGE('',*,*,#416,.T.);
#645=CYLINDRICAL_SURFACE('',#714,45.);
#646=CYLINDRICAL_SURFACE('',#730,4.);
#647=CYLINDRICAL_SURFACE('',#732,4.);
#648=CYLINDRICAL_SURFACE('',#734,4.);
#649=CYLINDRICAL_SURFACE('',#736,4.);
#650=CYLINDRICAL_SURFACE('',#738,4.);
#651=CYLINDRICAL_SURFACE('',#740,4.);
#652=CYLINDRICAL_SURFACE('',#742,4.);
#653=CYLINDRICAL_SURFACE('',#744,4.);
#654=CYLINDRICAL_SURFACE('',#746,4.);
#655=CYLINDRICAL_SURFACE('',#748,4.);
#656=CYLINDRICAL_SURFACE('',#750,4.);
#657=CYLINDRICAL_SURFACE('',#752,4.);
#658=CYLINDRICAL_SURFACE('',#765,20.);
#659=CYLINDRICAL_SURFACE('',#770,20.);
#660=CYLINDRICAL_SURFACE('',#776,50.);
#661=CYLINDRICAL_SURFACE('',#778,50.);
#662=CYLINDRICAL_SURFACE('',#779,25.);
#663=CYLINDRICAL_SURFACE('',#780,25.);
#664=ADVANCED_FACE('',(#73),#645,.F.);
#665=ADVANCED_FACE('',(#74,#33,#34,#35,#36,#37,#38,#39,#40,#41,#42,#43,
#44),#62,.F.);
#666=ADVANCED_FACE('',(#75),#646,.F.);
#667=ADVANCED_FACE('',(#76),#647,.F.);
#668=ADVANCED_FACE('',(#77),#648,.F.);
#669=ADVANCED_FACE('',(#78),#649,.F.);
#670=ADVANCED_FACE('',(#79),#650,.F.);
#671=ADVANCED_FACE('',(#80),#651,.F.);
#672=ADVANCED_FACE('',(#81),#652,.F.);
#673=ADVANCED_FACE('',(#82),#653,.F.);
#674=ADVANCED_FACE('',(#83),#654,.F.);
#675=ADVANCED_FACE('',(#84),#655,.F.);
#676=ADVANCED_FACE('',(#85),#656,.F.);
#677=ADVANCED_FACE('',(#86),#657,.F.);
#678=ADVANCED_FACE('',(#87),#27,.F.);
#679=ADVANCED_FACE('',(#88),#63,.T.);
#680=ADVANCED_FACE('',(#89),#28,.T.);
#681=ADVANCED_FACE('',(#90),#29,.T.);
#682=ADVANCED_FACE('',(#91),#30,.F.);
#683=ADVANCED_FACE('',(#92),#64,.T.);
#684=ADVANCED_FACE('',(#93,#45),#65,.T.);
#685=ADVANCED_FACE('',(#94),#66,.T.);
#686=ADVANCED_FACE('',(#95),#658,.F.);
#687=ADVANCED_FACE('',(#96,#46),#67,.F.);
#688=ADVANCED_FACE('',(#97),#659,.F.);
#689=ADVANCED_FACE('',(#98,#47),#68,.F.);
#690=ADVANCED_FACE('',(#99,#48),#69,.F.);
#691=ADVANCED_FACE('',(#100),#70,.T.);
#692=ADVANCED_FACE('',(#101),#660,.T.);
#693=ADVANCED_FACE('',(#102),#661,.T.);
#694=ADVANCED_FACE('',(#103),#662,.F.);
#695=ADVANCED_FACE('',(#104),#663,.F.);
#696=ADVANCED_FACE('',(#105,#49),#71,.T.);
#697=ADVANCED_FACE('',(#106,#50,#51,#52,#53,#54,#55,#56,#57,#58,#59,#60,
#61),#72,.F.);
#698=ADVANCED_FACE('',(#107),#31,.T.);
#699=ADVANCED_FACE('',(#108),#32,.T.);
#700=CLOSED_SHELL('',(#664,#665,#666,#667,#668,#669,#670,#671,#672,#673,
#674,#675,#676,#677,#678,#679,#680,#681,#682,#683,#684,#685,#686,#687,#688,
#689,#690,#691,#692,#693,#694,#695,#696,#697,#698,#699));
#701=DERIVED_UNIT_ELEMENT(#703,1.);
#702=DERIVED_UNIT_ELEMENT(#1592,-3.);
#703=(
MASS_UNIT()
NAMED_UNIT(*)
SI_UNIT(.KILO.,.GRAM.)
);
#704=DERIVED_UNIT((#701,#702));
#705=MEASURE_REPRESENTATION_ITEM('density measure',
POSITIVE_RATIO_MEASURE(7850.),#704);
#706=PROPERTY_DEFINITION_REPRESENTATION(#711,#708);
#707=PROPERTY_DEFINITION_REPRESENTATION(#712,#709);
#708=REPRESENTATION('material name',(#710),#1589);
#709=REPRESENTATION('density',(#705),#1589);
#710=DESCRIPTIVE_REPRESENTATION_ITEM('Steel','Steel');
#711=PROPERTY_DEFINITION('material property','material name',#1599);
#712=PROPERTY_DEFINITION('material property','density of part',#1599);
#713=AXIS2_PLACEMENT_3D('',#973,#786,#787);
#714=AXIS2_PLACEMENT_3D('',#974,#788,#789);
#715=AXIS2_PLACEMENT_3D('',#976,#790,#791);
#716=AXIS2_PLACEMENT_3D('',#979,#793,#794);
#717=AXIS2_PLACEMENT_3D('',#980,#795,#796);
#718=AXIS2_PLACEMENT_3D('',#982,#797,#798);
#719=AXIS2_PLACEMENT_3D('',#984,#799,#800);
#720=AXIS2_PLACEMENT_3D('',#986,#801,#802);
#721=AXIS2_PLACEMENT_3D('',#988,#803,#804);
#722=AXIS2_PLACEMENT_3D('',#990,#805,#806);
#723=AXIS2_PLACEMENT_3D('',#992,#807,#808);
#724=AXIS2_PLACEMENT_3D('',#994,#809,#810);
#725=AXIS2_PLACEMENT_3D('',#996,#811,#812);
#726=AXIS2_PLACEMENT_3D('',#998,#813,#814);
#727=AXIS2_PLACEMENT_3D('',#1000,#815,#816);
#728=AXIS2_PLACEMENT_3D('',#1002,#817,#818);
#729=AXIS2_PLACEMENT_3D('',#1004,#819,#820);
#730=AXIS2_PLACEMENT_3D('',#1005,#821,#822);
#731=AXIS2_PLACEMENT_3D('',#1008,#824,#825);
#732=AXIS2_PLACEMENT_3D('',#1009,#826,#827);
#733=AXIS2_PLACEMENT_3D('',#1012,#829,#830);
#734=AXIS2_PLACEMENT_3D('',#1013,#831,#832);
#735=AXIS2_PLACEMENT_3D('',#1016,#834,#835);
#736=AXIS2_PLACEMENT_3D('',#1017,#836,#837);
#737=AXIS2_PLACEMENT_3D('',#1020,#839,#840);
#738=AXIS2_PLACEMENT_3D('',#1021,#841,#842);
#739=AXIS2_PLACEMENT_3D('',#1024,#844,#845);
#740=AXIS2_PLACEMENT_3D('',#1025,#846,#847);
#741=AXIS2_PLACEMENT_3D('',#1028,#849,#850);
#742=AXIS2_PLACEMENT_3D('',#1029,#851,#852);
#743=AXIS2_PLACEMENT_3D('',#1032,#854,#855);
#744=AXIS2_PLACEMENT_3D('',#1033,#856,#857);
#745=AXIS2_PLACEMENT_3D('',#1036,#859,#860);
#746=AXIS2_PLACEMENT_3D('',#1037,#861,#862);
#747=AXIS2_PLACEMENT_3D('',#1040,#864,#865);
#748=AXIS2_PLACEMENT_3D('',#1041,#866,#867);
#749=AXIS2_PLACEMENT_3D('',#1044,#869,#870);
#750=AXIS2_PLACEMENT_3D('',#1045,#871,#872);
#751=AXIS2_PLACEMENT_3D('',#1048,#874,#875);
#752=AXIS2_PLACEMENT_3D('',#1049,#876,#877);
#753=AXIS2_PLACEMENT_3D('',#1052,#879,#880);
#754=AXIS2_PLACEMENT_3D('',#1218,#881,#882);
#755=AXIS2_PLACEMENT_3D('',#1222,#884,#885);
#756=AXIS2_PLACEMENT_3D('',#1271,#890,#891);
#757=AXIS2_PLACEMENT_3D('',#1325,#896,#897);
#758=AXIS2_PLACEMENT_3D('',#1464,#898,#899);
#759=AXIS2_PLACEMENT_3D('',#1471,#903,#904);
#760=AXIS2_PLACEMENT_3D('',#1472,#905,#906);
#761=AXIS2_PLACEMENT_3D('',#1475,#908,#909);
#762=AXIS2_PLACEMENT_3D('',#1477,#910,#911);
#763=AXIS2_PLACEMENT_3D('',#1478,#912,#913);
#764=AXIS2_PLACEMENT_3D('',#1482,#915,#916);
#765=AXIS2_PLACEMENT_3D('',#1486,#919,#920);
#766=AXIS2_PLACEMENT_3D('',#1490,#922,#923);
#767=AXIS2_PLACEMENT_3D('',#1492,#925,#926);
#768=AXIS2_PLACEMENT_3D('',#1495,#928,#929);
#769=AXIS2_PLACEMENT_3D('',#1497,#930,#931);
#770=AXIS2_PLACEMENT_3D('',#1498,#932,#933);
#771=AXIS2_PLACEMENT_3D('',#1501,#936,#937);
#772=AXIS2_PLACEMENT_3D('',#1503,#939,#940);
#773=AXIS2_PLACEMENT_3D('',#1504,#941,#942);
#774=AXIS2_PLACEMENT_3D('',#1506,#943,#944);
#775=AXIS2_PLACEMENT_3D('',#1507,#945,#946);
#776=AXIS2_PLACEMENT_3D('',#1512,#950,#951);
#777=AXIS2_PLACEMENT_3D('',#1513,#952,#953);
#778=AXIS2_PLACEMENT_3D('',#1514,#954,#955);
#779=AXIS2_PLACEMENT_3D('',#1515,#956,#957);
#780=AXIS2_PLACEMENT_3D('',#1517,#959,#960);
#781=AXIS2_PLACEMENT_3D('',#1519,#961,#962);
#782=AXIS2_PLACEMENT_3D('',#1521,#964,#965);
#783=AXIS2_PLACEMENT_3D('',#1522,#966,#967);
#784=AXIS2_PLACEMENT_3D('',#1524,#968,#969);
#785=AXIS2_PLACEMENT_3D('',#1525,#970,#971);
#786=DIRECTION('axis',(0.,0.,1.));
#787=DIRECTION('refdir',(1.,0.,0.));
#788=DIRECTION('center_axis',(0.,0.,-1.));
#789=DIRECTION('ref_axis',(1.,0.,0.));
#790=DIRECTION('center_axis',(0.,0.,-1.));
#791=DIRECTION('ref_axis',(1.,0.,0.));
#792=DIRECTION('',(0.,0.,-1.));
#793=DIRECTION('center_axis',(0.,0.,-1.));
#794=DIRECTION('ref_axis',(1.,0.,0.));
#795=DIRECTION('center_axis',(0.,0.,-1.));
#796=DIRECTION('ref_axis',(1.,0.,0.));
#797=DIRECTION('center_axis',(0.,0.,1.));
#798=DIRECTION('ref_axis',(1.,0.,0.));
#799=DIRECTION('center_axis',(0.,0.,1.));
#800=DIRECTION('ref_axis',(1.,0.,0.));
#801=DIRECTION('center_axis',(0.,0.,1.));
#802=DIRECTION('ref_axis',(1.,0.,0.));
#803=DIRECTION('center_axis',(0.,0.,1.));
#804=DIRECTION('ref_axis',(1.,0.,0.));
#805=DIRECTION('center_axis',(0.,0.,1.));
#806=DIRECTION('ref_axis',(1.,0.,0.));
#807=DIRECTION('center_axis',(0.,0.,1.));
#808=DIRECTION('ref_axis',(1.,0.,0.));
#809=DIRECTION('center_axis',(0.,0.,1.));
#810=DIRECTION('ref_axis',(1.,0.,0.));
#811=DIRECTION('center_axis',(0.,0.,1.));
#812=DIRECTION('ref_axis',(1.,0.,0.));
#813=DIRECTION('center_axis',(0.,0.,1.));
#814=DIRECTION('ref_axis',(1.,0.,0.));
#815=DIRECTION('center_axis',(0.,0.,1.));
#816=DIRECTION('ref_axis',(1.,0.,0.));
#817=DIRECTION('center_axis',(0.,0.,1.));
#818=DIRECTION('ref_axis',(1.,0.,0.));
#819=DIRECTION('center_axis',(0.,0.,1.));
#820=DIRECTION('ref_axis',(1.,0.,0.));
#821=DIRECTION('center_axis',(0.,0.,-1.));
#822=DIRECTION('ref_axis',(1.,0.,0.));
#823=DIRECTION('',(0.,0.,-1.));
#824=DIRECTION('center_axis',(0.,0.,1.));
#825=DIRECTION('ref_axis',(1.,0.,0.));
#826=DIRECTION('center_axis',(0.,0.,-1.));
#827=DIRECTION('ref_axis',(1.,0.,0.));
#828=DIRECTION('',(0.,0.,-1.));
#829=DIRECTION('center_axis',(0.,0.,1.));
#830=DIRECTION('ref_axis',(1.,0.,0.));
#831=DIRECTION('center_axis',(0.,0.,-1.));
#832=DIRECTION('ref_axis',(1.,0.,0.));
#833=DIRECTION('',(0.,0.,-1.));
#834=DIRECTION('center_axis',(0.,0.,1.));
#835=DIRECTION('ref_axis',(1.,0.,0.));
#836=DIRECTION('center_axis',(0.,0.,-1.));
#837=DIRECTION('ref_axis',(1.,0.,0.));
#838=DIRECTION('',(0.,0.,-1.));
#839=DIRECTION('center_axis',(0.,0.,1.));
#840=DIRECTION('ref_axis',(1.,0.,0.));
#841=DIRECTION('center_axis',(0.,0.,-1.));
#842=DIRECTION('ref_axis',(1.,0.,0.));
#843=DIRECTION('',(0.,0.,-1.));
#844=DIRECTION('center_axis',(0.,0.,1.));
#845=DIRECTION('ref_axis',(1.,0.,0.));
#846=DIRECTION('center_axis',(0.,0.,-1.));
#847=DIRECTION('ref_axis',(1.,0.,0.));
#848=DIRECTION('',(0.,0.,-1.));
#849=DIRECTION('center_axis',(0.,0.,1.));
#850=DIRECTION('ref_axis',(1.,0.,0.));
#851=DIRECTION('center_axis',(0.,0.,-1.));
#852=DIRECTION('ref_axis',(1.,0.,0.));
#853=DIRECTION('',(0.,0.,-1.));
#854=DIRECTION('center_axis',(0.,0.,1.));
#855=DIRECTION('ref_axis',(1.,0.,0.));
#856=DIRECTION('center_axis',(0.,0.,-1.));
#857=DIRECTION('ref_axis',(1.,0.,0.));
#858=DIRECTION('',(0.,0.,-1.));
#859=DIRECTION('center_axis',(0.,0.,1.));
#860=DIRECTION('ref_axis',(1.,0.,0.));
#861=DIRECTION('center_axis',(0.,0.,-1.));
#862=DIRECTION('ref_axis',(1.,0.,0.));
#863=DIRECTION('',(0.,0.,-1.));
#864=DIRECTION('center_axis',(0.,0.,1.));
#865=DIRECTION('ref_axis',(1.,0.,0.));
#866=DIRECTION('center_axis',(0.,0.,-1.));
#867=DIRECTION('ref_axis',(1.,0.,0.));
#868=DIRECTION('',(0.,0.,-1.));
#869=DIRECTION('center_axis',(0.,0.,1.));
#870=DIRECTION('ref_axis',(1.,0.,0.));
#871=DIRECTION('center_axis',(0.,0.,-1.));
#872=DIRECTION('ref_axis',(1.,0.,0.));
#873=DIRECTION('',(0.,0.,-1.));
#874=DIRECTION('center_axis',(0.,0.,1.));
#875=DIRECTION('ref_axis',(1.,0.,0.));
#876=DIRECTION('center_axis',(0.,0.,-1.));
#877=DIRECTION('ref_axis',(1.,0.,0.));
#878=DIRECTION('',(0.,0.,-1.));
#879=DIRECTION('center_axis',(0.,0.,1.));
#880=DIRECTION('ref_axis',(1.,0.,0.));
#881=DIRECTION('center_axis',(0.,1.,0.));
#882=DIRECTION('ref_axis',(-1.,0.,0.));
#883=DIRECTION('',(-1.,0.,0.));
#884=DIRECTION('center_axis',(0.,1.,0.));
#885=DIRECTION('ref_axis',(0.707106781186547,0.,-0.707106781186547));
#886=DIRECTION('',(0.,0.,1.));
#887=DIRECTION('',(-1.,0.,0.));
#888=DIRECTION('',(0.,0.,1.));
#889=DIRECTION('',(0.861058718915361,0.287019572971787,0.419759034817513));
#890=DIRECTION('center_axis',(0.,0.,1.));
#891=DIRECTION('ref_axis',(1.,0.,0.));
#892=DIRECTION('',(-0.861058718915361,0.287019572971787,0.419759034817513));
#893=DIRECTION('',(-1.,0.,0.));
#894=DIRECTION('',(-1.,0.,0.));
#895=DIRECTION('',(0.861058718915361,-0.287019572971787,0.419759034817513));
#896=DIRECTION('center_axis',(0.,0.,1.));
#897=DIRECTION('ref_axis',(1.,0.,0.));
#898=DIRECTION('center_axis',(0.,1.,0.));
#899=DIRECTION('ref_axis',(-1.,0.,0.));
#900=DIRECTION('',(0.,0.,1.));
#901=DIRECTION('',(-1.,0.,0.));
#902=DIRECTION('',(0.,0.,-1.));
#903=DIRECTION('center_axis',(0.,1.,0.));
#904=DIRECTION('ref_axis',(-0.707106781186547,0.,-0.707106781186547));
#905=DIRECTION('center_axis',(-1.,0.,0.));
#906=DIRECTION('ref_axis',(0.,-1.,0.));
#907=DIRECTION('',(0.,0.,1.));
#908=DIRECTION('center_axis',(1.,0.,0.));
#909=DIRECTION('ref_axis',(0.,1.,0.));
#910=DIRECTION('center_axis',(1.,0.,0.));
#911=DIRECTION('ref_axis',(0.,1.,0.));
#912=DIRECTION('center_axis',(0.,-1.,0.));
#913=DIRECTION('ref_axis',(1.,0.,0.));
#914=DIRECTION('',(1.,0.,0.));
#915=DIRECTION('center_axis',(0.,-1.,0.));
#916=DIRECTION('ref_axis',(-0.707106781186547,0.,-0.707106781186547));
#917=DIRECTION('',(0.,0.,1.));
#918=DIRECTION('',(1.,0.,0.));
#919=DIRECTION('center_axis',(0.,1.,0.));
#920=DIRECTION('ref_axis',(0.707106781186547,0.,-0.707106781186547));
#921=DIRECTION('',(0.,-1.,0.));
#922=DIRECTION('center_axis',(0.,-1.,0.));
#923=DIRECTION('ref_axis',(0.707106781186547,0.,-0.707106781186547));
#924=DIRECTION('',(0.,1.,0.));
#925=DIRECTION('center_axis',(1.,0.,0.));
#926=DIRECTION('ref_axis',(0.,0.,-1.));
#927=DIRECTION('',(0.,0.,-1.));
#928=DIRECTION('center_axis',(1.,0.,0.));
#929=DIRECTION('ref_axis',(0.,1.,0.));
#930=DIRECTION('center_axis',(-1.,0.,0.));
#931=DIRECTION('ref_axis',(0.,1.,0.));
#932=DIRECTION('center_axis',(0.,1.,0.));
#933=DIRECTION('ref_axis',(-0.707106781186547,0.,-0.707106781186547));
#934=DIRECTION('',(0.,-1.,0.));
#935=DIRECTION('',(0.,1.,0.));
#936=DIRECTION('center_axis',(0.,0.,-1.));
#937=DIRECTION('ref_axis',(-1.,0.,0.));
#938=DIRECTION('',(1.,0.,0.));
#939=DIRECTION('center_axis',(-1.,0.,0.));
#940=DIRECTION('ref_axis',(0.,0.,1.));
#941=DIRECTION('center_axis',(-1.,0.,0.));
#942=DIRECTION('ref_axis',(0.,1.,0.));
#943=DIRECTION('center_axis',(1.,0.,0.));
#944=DIRECTION('ref_axis',(0.,1.,0.));
#945=DIRECTION('center_axis',(0.,-1.,0.));
#946=DIRECTION('ref_axis',(1.,0.,0.));
#947=DIRECTION('',(0.,0.,1.));
#948=DIRECTION('',(1.,0.,0.));
#949=DIRECTION('',(1.,0.,0.));
#950=DIRECTION('center_axis',(1.,-6.12323399573676E-17,0.));
#951=DIRECTION('ref_axis',(0.,1.,0.));
#952=DIRECTION('center_axis',(1.,0.,0.));
#953=DIRECTION('ref_axis',(0.,1.,0.));
#954=DIRECTION('center_axis',(1.,-6.12323399573676E-17,0.));
#955=DIRECTION('ref_axis',(0.,1.,0.));
#956=DIRECTION('center_axis',(-1.,0.,0.));
#957=DIRECTION('ref_axis',(0.,1.,0.));
#958=DIRECTION('',(-1.,0.,0.));
#959=DIRECTION('center_axis',(-1.,0.,0.));
#960=DIRECTION('ref_axis',(0.,1.,0.));
#961=DIRECTION('center_axis',(-1.,0.,0.));
#962=DIRECTION('ref_axis',(0.,1.,0.));
#963=DIRECTION('',(-1.,0.,0.));
#964=DIRECTION('center_axis',(1.,0.,0.));
#965=DIRECTION('ref_axis',(0.,1.,0.));
#966=DIRECTION('center_axis',(0.,0.,1.));
#967=DIRECTION('ref_axis',(1.,0.,0.));
#968=DIRECTION('center_axis',(0.,0.,1.));
#969=DIRECTION('ref_axis',(1.,0.,0.));
#970=DIRECTION('center_axis',(0.,0.,1.));
#971=DIRECTION('ref_axis',(1.,0.,0.));
#972=DIRECTION('',(-0.861058718915361,-0.287019572971787,0.419759034817513));
#973=CARTESIAN_POINT('',(0.,0.,0.));
#974=CARTESIAN_POINT('Origin',(0.,-3.5527136788005E-15,40.));
#975=CARTESIAN_POINT('',(-45.,1.95819691736259E-15,50.));
#976=CARTESIAN_POINT('Origin',(0.,-3.5527136788005E-15,50.));
#977=CARTESIAN_POINT('',(-45.,1.95819691736259E-15,30.));
#978=CARTESIAN_POINT('',(-45.,1.95819691736259E-15,40.));
#979=CARTESIAN_POINT('Origin',(0.,-3.5527136788005E-15,30.));
#980=CARTESIAN_POINT('Origin',(0.,-3.5527136788005E-15,30.));
#981=CARTESIAN_POINT('',(-19.75,27.2798002192098,30.));
#982=CARTESIAN_POINT('Origin',(-15.75,27.2798002192098,30.));
#983=CARTESIAN_POINT('',(-35.5,1.34711147906209E-15,30.));
#984=CARTESIAN_POINT('Origin',(-31.5,1.83697019872103E-15,30.));
#985=CARTESIAN_POINT('',(-19.75,-27.2798002192098,30.));
#986=CARTESIAN_POINT('Origin',(-15.75,-27.2798002192098,30.));
#987=CARTESIAN_POINT('',(11.75,-27.2798002192098,30.));
#988=CARTESIAN_POINT('Origin',(15.75,-27.2798002192098,30.));
#989=CARTESIAN_POINT('',(27.5,-6.00076931582203E-15,30.));
#990=CARTESIAN_POINT('Origin',(31.5,-5.51091059616309E-15,30.));
#991=CARTESIAN_POINT('',(11.75,27.2798002192098,30.));
#992=CARTESIAN_POINT('Origin',(15.75,27.2798002192098,30.));
#993=CARTESIAN_POINT('',(-4.,31.5,30.));
#994=CARTESIAN_POINT('Origin',(0.,31.5,30.));
#995=CARTESIAN_POINT('',(23.2798002192098,15.75,30.));
#996=CARTESIAN_POINT('Origin',(27.2798002192098,15.75,30.));
#997=CARTESIAN_POINT('',(23.2798002192098,-15.75,30.));
#998=CARTESIAN_POINT('Origin',(27.2798002192098,-15.75,30.));
#999=CARTESIAN_POINT('',(-4.,-31.5,30.));
#1000=CARTESIAN_POINT('Origin',(-3.67394039744206E-15,-31.5,30.));
#1001=CARTESIAN_POINT('',(-31.2798002192098,-15.75,30.));
#1002=CARTESIAN_POINT('Origin',(-27.2798002192098,-15.75,30.));
#1003=CARTESIAN_POINT('',(-31.2798002192098,15.75,30.));
#1004=CARTESIAN_POINT('Origin',(-27.2798002192098,15.75,30.));
#1005=CARTESIAN_POINT('Origin',(-27.2798002192098,15.75,22.4967701618089));
#1006=CARTESIAN_POINT('',(-31.2798002192098,15.75,0.));
#1007=CARTESIAN_POINT('',(-31.2798002192098,15.75,22.4967701618089));
#1008=CARTESIAN_POINT('Origin',(-27.2798002192098,15.75,0.));
#1009=CARTESIAN_POINT('Origin',(-27.2798002192098,-15.75,22.4967701618089));
#1010=CARTESIAN_POINT('',(-31.2798002192098,-15.75,0.));
#1011=CARTESIAN_POINT('',(-31.2798002192098,-15.75,22.4967701618089));
#1012=CARTESIAN_POINT('Origin',(-27.2798002192098,-15.75,0.));
#1013=CARTESIAN_POINT('Origin',(-3.67394039744206E-15,-31.5,22.4967701618089));
#1014=CARTESIAN_POINT('',(-4.,-31.5,0.));
#1015=CARTESIAN_POINT('',(-4.,-31.5,22.4967701618089));
#1016=CARTESIAN_POINT('Origin',(-3.67394039744206E-15,-31.5,0.));
#1017=CARTESIAN_POINT('Origin',(27.2798002192098,-15.75,22.4967701618089));
#1018=CARTESIAN_POINT('',(23.2798002192098,-15.75,0.));
#1019=CARTESIAN_POINT('',(23.2798002192098,-15.75,22.4967701618089));
#1020=CARTESIAN_POINT('Origin',(27.2798002192098,-15.75,0.));
#1021=CARTESIAN_POINT('Origin',(27.2798002192098,15.75,22.4967701618089));
#1022=CARTESIAN_POINT('',(23.2798002192098,15.75,0.));
#1023=CARTESIAN_POINT('',(23.2798002192098,15.75,22.4967701618089));
#1024=CARTESIAN_POINT('Origin',(27.2798002192098,15.75,0.));
#1025=CARTESIAN_POINT('Origin',(0.,31.5,22.4967701618089));
#1026=CARTESIAN_POINT('',(-4.,31.5,0.));
#1027=CARTESIAN_POINT('',(-4.,31.5,22.4967701618089));
#1028=CARTESIAN_POINT('Origin',(0.,31.5,0.));
#1029=CARTESIAN_POINT('Origin',(15.75,27.2798002192098,22.4967701618089));
#1030=CARTESIAN_POINT('',(11.75,27.2798002192098,0.));
#1031=CARTESIAN_POINT('',(11.75,27.2798002192098,22.4967701618089));
#1032=CARTESIAN_POINT('Origin',(15.75,27.2798002192098,0.));
#1033=CARTESIAN_POINT('Origin',(31.5,-5.51091059616309E-15,22.4967701618089));
#1034=CARTESIAN_POINT('',(27.5,-6.00076931582203E-15,0.));
#1035=CARTESIAN_POINT('',(27.5,-5.02105187650415E-15,22.4967701618089));
#1036=CARTESIAN_POINT('Origin',(31.5,-5.51091059616309E-15,0.));
#1037=CARTESIAN_POINT('Origin',(15.75,-27.2798002192098,22.4967701618089));
#1038=CARTESIAN_POINT('',(11.75,-27.2798002192098,0.));
#1039=CARTESIAN_POINT('',(11.75,-27.2798002192098,22.4967701618089));
#1040=CARTESIAN_POINT('Origin',(15.75,-27.2798002192098,0.));
#1041=CARTESIAN_POINT('Origin',(-15.75,-27.2798002192098,22.4967701618089));
#1042=CARTESIAN_POINT('',(-19.75,-27.2798002192098,0.));
#1043=CARTESIAN_POINT('',(-19.75,-27.2798002192098,22.4967701618089));
#1044=CARTESIAN_POINT('Origin',(-15.75,-27.2798002192098,0.));
#1045=CARTESIAN_POINT('Origin',(-31.5,1.83697019872103E-15,22.4967701618089));
#1046=CARTESIAN_POINT('',(-35.5,1.34711147906209E-15,0.));
#1047=CARTESIAN_POINT('',(-35.5,2.32682891837997E-15,22.4967701618089));
#1048=CARTESIAN_POINT('Origin',(-31.5,1.83697019872103E-15,0.));
#1049=CARTESIAN_POINT('Origin',(-15.75,27.2798002192098,22.4967701618089));
#1050=CARTESIAN_POINT('',(-19.75,27.2798002192098,0.));
#1051=CARTESIAN_POINT('',(-19.75,27.2798002192098,22.4967701618089));
#1052=CARTESIAN_POINT('Origin',(-15.75,27.2798002192098,0.));
#1053=CARTESIAN_POINT('Ctrl Pts',(138.700177435515,-50.1136061266529,44.5151087184143));
#1054=CARTESIAN_POINT('Ctrl Pts',(139.01422418464,-16.71314269935,44.4561224406746));
#1055=CARTESIAN_POINT('Ctrl Pts',(139.01422418464,16.7131426993499,44.4561224406746));
#1056=CARTESIAN_POINT('Ctrl Pts',(138.700177435515,50.1136061266529,44.5151087184143));
#1057=CARTESIAN_POINT('Ctrl Pts',(140.622369821994,-50.1077478417972,45.4437291137494));
#1058=CARTESIAN_POINT('Ctrl Pts',(140.890278864406,-16.7105955126639,45.4038887221637));
#1059=CARTESIAN_POINT('Ctrl Pts',(140.890278864406,16.7105955126638,45.4038887221637));
#1060=CARTESIAN_POINT('Ctrl Pts',(140.622369821994,50.1077478417972,45.4437291137494));
#1061=CARTESIAN_POINT('Ctrl Pts',(144.16360033066,-50.092111294282,47.9223414197168));
#1062=CARTESIAN_POINT('Ctrl Pts',(144.337998116568,-16.7040422997359,47.8959319818124));
#1063=CARTESIAN_POINT('Ctrl Pts',(144.337998116568,16.7040422997357,47.8959319818124));
#1064=CARTESIAN_POINT('Ctrl Pts',(144.16360033066,50.092111294282,47.9223414197168));
#1065=CARTESIAN_POINT('Ctrl Pts',(148.690010291345,-50.0538351802305,53.9896428633837));
#1066=CARTESIAN_POINT('Ctrl Pts',(148.73161848614,-16.6885339417469,53.9116420119759));
#1067=CARTESIAN_POINT('Ctrl Pts',(148.73161848614,16.6885339417468,53.9116420119759));
#1068=CARTESIAN_POINT('Ctrl Pts',(148.690010291345,50.0538351802305,53.9896428633837));
#1069=CARTESIAN_POINT('Ctrl Pts',(150.,-50.020200576751,59.3211997182301));
#1070=CARTESIAN_POINT('Ctrl Pts',(149.999617094184,-16.6751361796905,59.1607550767198));
#1071=CARTESIAN_POINT('Ctrl Pts',(149.999617094184,16.6751361796904,59.1607550767198));
#1072=CARTESIAN_POINT('Ctrl Pts',(150.,50.0202005767511,59.3211997182301));
#1073=CARTESIAN_POINT('Ctrl Pts',(150.,-50.0000000064784,62.5232737065526));
#1074=CARTESIAN_POINT('Ctrl Pts',(150.,-16.6670977572116,62.312990110129));
#1075=CARTESIAN_POINT('Ctrl Pts',(150.,16.6670977572115,62.3129901101289));
#1076=CARTESIAN_POINT('Ctrl Pts',(150.,50.0000000064784,62.5232737065526));
#1077=CARTESIAN_POINT('',(145.594032461928,50.,50.));
#1078=CARTESIAN_POINT('',(150.,50.0000000064781,62.5232737065935));
#1079=CARTESIAN_POINT('Ctrl Pts',(145.592318417818,49.999995603094,50.0006969823624));
#1080=CARTESIAN_POINT('Ctrl Pts',(145.855160045191,49.999995420614,50.3279854750918));
#1081=CARTESIAN_POINT('Ctrl Pts',(146.107447422861,49.9999954397907,50.6631434912062));
#1082=CARTESIAN_POINT('Ctrl Pts',(146.348837659024,49.9999956782451,51.005631045643));
#1083=CARTESIAN_POINT('Ctrl Pts',(146.590686761453,49.9999959171528,51.3487696454056));
#1084=CARTESIAN_POINT('Ctrl Pts',(146.821597602883,49.9999963734233,51.6992661100111));
#1085=CARTESIAN_POINT('Ctrl Pts',(147.041186654182,49.9999968448821,52.0566125369889));
#1086=CARTESIAN_POINT('Ctrl Pts',(147.259937685855,49.9999973145417,52.4125952196571));
#1087=CARTESIAN_POINT('Ctrl Pts',(147.467453488827,49.9999977964154,52.7753761331693));
#1088=CARTESIAN_POINT('Ctrl Pts',(147.663311674405,49.9999979148823,53.1444813570047));
#1089=CARTESIAN_POINT('Ctrl Pts',(147.687653257617,49.9999979296055,53.1903543721836));
#1090=CARTESIAN_POINT('Ctrl Pts',(147.711814719525,49.9999979385241,53.2363251030412));
#1091=CARTESIAN_POINT('Ctrl Pts',(147.735795198672,49.9999979407601,53.2823926650398));
#1092=CARTESIAN_POINT('Ctrl Pts',(147.929645980737,49.9999979588356,53.6547885986859));
#1093=CARTESIAN_POINT('Ctrl Pts',(148.111674287718,49.9999975490043,54.0335106398743));
#1094=CARTESIAN_POINT('Ctrl Pts',(148.281711671219,49.9999970483005,54.4179647193377));
#1095=CARTESIAN_POINT('Ctrl Pts',(148.450661841336,49.9999965507981,54.799960612182));
#1096=CARTESIAN_POINT('Ctrl Pts',(148.607774035514,49.9999959602281,55.1876160069934));
#1097=CARTESIAN_POINT('Ctrl Pts',(148.752833584877,49.9999955316339,55.5803605774557));
#1098=CARTESIAN_POINT('Ctrl Pts',(148.897641203824,49.9999951037842,55.9724230535396));
#1099=CARTESIAN_POINT('Ctrl Pts',(149.030038430626,49.9999947668648,56.3684747646502));
#1100=CARTESIAN_POINT('Ctrl Pts',(149.149965973685,49.9999946480695,56.7678911325781));
#1101=CARTESIAN_POINT('Ctrl Pts',(149.270741824006,49.9999945284338,57.1701327714709));
#1102=CARTESIAN_POINT('Ctrl Pts',(149.37887113712,49.9999946268351,57.575787338771));
#1103=CARTESIAN_POINT('Ctrl Pts',(149.474246076976,49.9999949285335,57.9842404640524));
#1104=CARTESIAN_POINT('Ctrl Pts',(149.569720246721,49.9999952305458,58.3931185516785));
#1105=CARTESIAN_POINT('Ctrl Pts',(149.652413630805,49.9999957329339,58.8048015531823));
#1106=CARTESIAN_POINT('Ctrl Pts',(149.722168508324,49.9999963258244,59.2186888898752));
#1107=CARTESIAN_POINT('Ctrl Pts',(149.791601262339,49.999996915977,59.630664921669));
#1108=CARTESIAN_POINT('Ctrl Pts',(149.848214831652,49.9999975924678,60.0448255044457));
#1109=CARTESIAN_POINT('Ctrl Pts',(149.891802877323,49.9999982027871,60.4605859776243));
#1110=CARTESIAN_POINT('Ctrl Pts',(149.934797836575,49.9999988048019,60.870689351796));
#1111=CARTESIAN_POINT('Ctrl Pts',(149.965119351605,49.9999993393182,61.2823498689014));
#1112=CARTESIAN_POINT('Ctrl Pts',(149.982519062131,49.9999996646783,61.6950062800067));
#1113=CARTESIAN_POINT('Ctrl Pts',(149.994144028652,49.9999998820555,61.9707072439082));
#1114=CARTESIAN_POINT('Ctrl Pts',(150.,50.0000000062267,62.2468527373907));
#1115=CARTESIAN_POINT('Ctrl Pts',(150.,50.0000000064783,62.5232737065526));
#1116=CARTESIAN_POINT('',(150.,-50.0000000064781,62.5232737065935));
#1117=CARTESIAN_POINT('Ctrl Pts',(150.,50.0000000064784,62.5232737065526));
#1118=CARTESIAN_POINT('Ctrl Pts',(150.,16.6670977572115,62.3129901101289));
#1119=CARTESIAN_POINT('Ctrl Pts',(150.,-16.6670977572116,62.312990110129));
#1120=CARTESIAN_POINT('Ctrl Pts',(150.,-50.0000000064784,62.5232737065526));
#1121=CARTESIAN_POINT('',(145.594032461928,-50.,50.));
#1122=CARTESIAN_POINT('Ctrl Pts',(150.,-50.0000000064784,62.5232737065526));
#1123=CARTESIAN_POINT('Ctrl Pts',(150.,-50.0000000061023,62.1102550549008));
#1124=CARTESIAN_POINT('Ctrl Pts',(149.986928763597,-49.9999997264015,61.6978518058663));
#1125=CARTESIAN_POINT('Ctrl Pts',(149.961067805281,-49.9999992794785,61.2866264572742));
#1126=CARTESIAN_POINT('Ctrl Pts',(149.934911119586,-49.9999988274447,60.8706986304065));
#1127=CARTESIAN_POINT('Ctrl Pts',(149.89567048407,-49.9999982074487,60.4559753044355));
#1128=CARTESIAN_POINT('Ctrl Pts',(149.843584071671,-49.999997572229,60.0430333105592));
#1129=CARTESIAN_POINT('Ctrl Pts',(149.791016257504,-49.9999969311383,59.6262747550017));
#1130=CARTESIAN_POINT('Ctrl Pts',(149.725364053902,-49.9999962778733,59.211330082682));
#1131=CARTESIAN_POINT('Ctrl Pts',(149.646819386084,-49.9999957577894,58.798794767721));
#1132=CARTESIAN_POINT('Ctrl Pts',(149.568268130246,-49.999995237662,58.3862248509054));
#1133=CARTESIAN_POINT('Ctrl Pts',(149.476822109591,-49.9999948541012,57.9760641631169));
#1134=CARTESIAN_POINT('Ctrl Pts',(149.372622262268,-49.9999946905174,57.5689187995587));
#1135=CARTESIAN_POINT('Ctrl Pts',(149.269192672836,-49.9999945281429,57.1647831038331));
#1136=CARTESIAN_POINT('Ctrl Pts',(149.153196928881,-49.9999945856698,56.7636178174792));
#1137=CARTESIAN_POINT('Ctrl Pts',(149.024725098275,-49.9999948350797,56.3660336871464));
#1138=CARTESIAN_POINT('Ctrl Pts',(148.939571626653,-49.9999950003932,56.1025076768128));
#1139=CARTESIAN_POINT('Ctrl Pts',(148.848936087688,-49.9999952476887,55.8405553486932));
#1140=CARTESIAN_POINT('Ctrl Pts',(148.752833589404,-49.9999955316339,55.5803605897124));
#1141=CARTESIAN_POINT('Ctrl Pts',(148.606840565748,-49.9999959629861,55.1850886635799));
#1142=CARTESIAN_POINT('Ctrl Pts',(148.4486393326,-49.9999965584665,54.7949716125313));
#1143=CARTESIAN_POINT('Ctrl Pts',(148.278448565227,-49.9999970578927,54.4105908747588));
#1144=CARTESIAN_POINT('Ctrl Pts',(148.109345990206,-49.9999975541256,54.0286678506776));
#1145=CARTESIAN_POINT('Ctrl Pts',(147.92840650728,-49.9999979587201,53.6524075153068));
#1146=CARTESIAN_POINT('Ctrl Pts',(147.735795198672,-49.9999979407601,53.2823926650398));
#1147=CARTESIAN_POINT('Ctrl Pts',(147.542571784554,-49.9999979227431,52.911201932991));
#1148=CARTESIAN_POINT('Ctrl Pts',(147.33760214809,-49.999997482922,52.5462959059142));
#1149=CARTESIAN_POINT('Ctrl Pts',(147.121316168832,-49.9999970174127,52.188147462032));
#1150=CARTESIAN_POINT('Ctrl Pts',(146.904510555514,-49.9999965507851,51.8291385549312));
#1151=CARTESIAN_POINT('Ctrl Pts',(146.676333832882,-49.9999960611837,51.4769192921414));
#1152=CARTESIAN_POINT('Ctrl Pts',(146.43717459328,-49.9999957748144,51.1319936919655));
#1153=CARTESIAN_POINT('Ctrl Pts',(146.198766146691,-49.999995489344,50.7881509173192));
#1154=CARTESIAN_POINT('Ctrl Pts',(145.949443674482,-49.9999954085093,50.4515556603978));
#1155=CARTESIAN_POINT('Ctrl Pts',(145.689553216431,-49.9999955438596,50.1227412079687));
#1156=CARTESIAN_POINT('Ctrl Pts',(145.657304176006,-49.9999955606548,50.0819395923646));
#1157=CARTESIAN_POINT('Ctrl Pts',(145.624892368671,-49.9999955804793,50.041257830289));
#1158=CARTESIAN_POINT('Ctrl Pts',(145.592318417818,-49.9999956030941,50.0006969823624));
#1159=CARTESIAN_POINT('',(138.735329888441,-46.2451099628138,44.5085660830173));
#1160=CARTESIAN_POINT('Ctrl Pts',(145.594032461928,-50.,50.));
#1161=CARTESIAN_POINT('Ctrl Pts',(145.396201696562,-49.8394148466135,49.7526357283498));
#1162=CARTESIAN_POINT('Ctrl Pts',(145.192089992784,-49.6797995296155,49.5093607638244));
#1163=CARTESIAN_POINT('Ctrl Pts',(144.98173932758,-49.5216236155269,49.27047665081));
#1164=CARTESIAN_POINT('Ctrl Pts',(144.762859391715,-49.3570340056133,49.0219062967069));
#1165=CARTESIAN_POINT('Ctrl Pts',(144.537224615645,-49.1940030575189,48.7780900925636));
#1166=CARTESIAN_POINT('Ctrl Pts',(144.304936820026,-49.0330841749066,48.5393677711474));
#1167=CARTESIAN_POINT('Ctrl Pts',(144.048653651034,-48.8555423411794,48.2759853886215));
#1168=CARTESIAN_POINT('Ctrl Pts',(143.78427214692,-48.6805715722776,48.0188036433896));
#1169=CARTESIAN_POINT('Ctrl Pts',(143.511990882827,-48.5089424380359,47.7682788018808));
#1170=CARTESIAN_POINT('Ctrl Pts',(143.327488369233,-48.3926435557783,47.5985188180998));
#1171=CARTESIAN_POINT('Ctrl Pts',(143.139359920509,-48.2778796369506,47.4318154534987));
#1172=CARTESIAN_POINT('Ctrl Pts',(142.947679432379,-48.1648957136065,47.2683106700755));
#1173=CARTESIAN_POINT('Ctrl Pts',(142.640380465599,-47.9837617690659,47.0061825239099));
#1174=CARTESIAN_POINT('Ctrl Pts',(142.323514064694,-47.8069879452117,46.7519641355595));
#1175=CARTESIAN_POINT('Ctrl Pts',(141.997318383597,-47.6356927952186,46.506375010288));
#1176=CARTESIAN_POINT('Ctrl Pts',(141.49639108966,-47.3726408269581,46.1292323837243));
#1177=CARTESIAN_POINT('Ctrl Pts',(140.973472661494,-47.1225135960308,45.7724398637172));
#1178=CARTESIAN_POINT('Ctrl Pts',(140.429519755528,-46.889400830018,45.4386031444457));
#1179=CARTESIAN_POINT('Ctrl Pts',(140.129577014608,-46.7608594044381,45.2545212147427));
#1180=CARTESIAN_POINT('Ctrl Pts',(139.823239140708,-46.6374915022264,45.0774191425266));
#1181=CARTESIAN_POINT('Ctrl Pts',(139.510638732582,-46.5199699724755,44.9077338001955));
#1182=CARTESIAN_POINT('Ctrl Pts',(139.25633127061,-46.4243635651221,44.769690958214));
#1183=CARTESIAN_POINT('Ctrl Pts',(138.997879071669,-46.3326263572228,44.6365566477982));
#1184=CARTESIAN_POINT('Ctrl Pts',(138.735329888441,-46.2451099628138,44.5085660830173));
#1185=CARTESIAN_POINT('',(138.735329888441,46.2451099628138,44.5085660830173));
#1186=CARTESIAN_POINT('Ctrl Pts',(138.735145589279,-46.245110113116,44.5085407751521));
#1187=CARTESIAN_POINT('Ctrl Pts',(139.002568133386,-15.4218002389083,44.4583117550953));
#1188=CARTESIAN_POINT('Ctrl Pts',(139.002568133386,15.4218002389082,44.4583117550954));
#1189=CARTESIAN_POINT('Ctrl Pts',(138.735145589279,46.245110113116,44.5085407751521));
#1190=CARTESIAN_POINT('Ctrl Pts',(138.735329888441,46.2451099628138,44.5085660830173));
#1191=CARTESIAN_POINT('Ctrl Pts',(139.046233954872,46.3487446516241,44.6601292551668));
#1192=CARTESIAN_POINT('Ctrl Pts',(139.351394177216,46.4582985554382,44.8189053569042));
#1193=CARTESIAN_POINT('Ctrl Pts',(139.650727474266,46.5731861329221,44.9845038479766));
#1194=CARTESIAN_POINT('Ctrl Pts',(139.997816146175,46.7064027749752,45.1765217788345));
#1195=CARTESIAN_POINT('Ctrl Pts',(140.337069491092,46.8467903455425,45.3777126236631));
#1196=CARTESIAN_POINT('Ctrl Pts',(140.66829282777,46.9934065722072,45.5874675160264));
#1197=CARTESIAN_POINT('Ctrl Pts',(141.100447531018,47.1847001343125,45.8611395470286));
#1198=CARTESIAN_POINT('Ctrl Pts',(141.518928400829,47.3865948850812,46.1493901740393));
#1199=CARTESIAN_POINT('Ctrl Pts',(141.923235967007,47.5969668199983,46.450867084809));
#1200=CARTESIAN_POINT('Ctrl Pts',(142.247786295064,47.7658389515216,46.6928720297499));
#1201=CARTESIAN_POINT('Ctrl Pts',(142.563200320507,47.9401720653578,46.9433996943502));
#1202=CARTESIAN_POINT('Ctrl Pts',(142.869242623881,48.1188769870141,47.2017505789089));
#1203=CARTESIAN_POINT('Ctrl Pts',(142.896981497642,48.1350743336154,47.2251668272313));
#1204=CARTESIAN_POINT('Ctrl Pts',(142.924643415414,48.1513076099489,47.2486473443648));
#1205=CARTESIAN_POINT('Ctrl Pts',(142.952228224431,48.1675760148253,47.272191609463));
#1206=CARTESIAN_POINT('Ctrl Pts',(143.234123254226,48.3338263040543,47.5127954616539));
#1207=CARTESIAN_POINT('Ctrl Pts',(143.508328727147,48.5039237975128,47.7603190555606));
#1208=CARTESIAN_POINT('Ctrl Pts',(143.774615840739,48.6770913392593,48.0143105028823));
#1209=CARTESIAN_POINT('Ctrl Pts',(144.022593812916,48.8383523754008,48.2508382236843));
#1210=CARTESIAN_POINT('Ctrl Pts',(144.263704250294,49.0022755020876,48.492974952711));
#1211=CARTESIAN_POINT('Ctrl Pts',(144.497801565546,49.1682502453386,48.7403557512293));
#1212=CARTESIAN_POINT('Ctrl Pts',(144.716273204885,49.3231464012716,48.9712242194766));
#1213=CARTESIAN_POINT('Ctrl Pts',(144.928636492824,49.4798293200062,49.2066600525925));
#1214=CARTESIAN_POINT('Ctrl Pts',(145.13481395812,49.6378209186149,49.4463666200362));
#1215=CARTESIAN_POINT('Ctrl Pts',(145.291461983376,49.757858634151,49.6284891443244));
#1216=CARTESIAN_POINT('Ctrl Pts',(145.444539966645,49.8786521234011,49.8130769699556));
#1217=CARTESIAN_POINT('Ctrl Pts',(145.594032461928,50.,50.));
#1218=CARTESIAN_POINT('Origin',(150.,50.,50.));
#1219=CARTESIAN_POINT('',(80.,50.,50.));
#1220=CARTESIAN_POINT('',(-150.,50.,50.));
#1221=CARTESIAN_POINT('',(100.,50.,70.));
#1222=CARTESIAN_POINT('Origin',(80.,50.,70.));
#1223=CARTESIAN_POINT('',(100.,50.,100.));
#1224=CARTESIAN_POINT('',(100.,50.,100.));
#1225=CARTESIAN_POINT('',(150.,50.,100.));
#1226=CARTESIAN_POINT('',(-150.,50.,100.));
#1227=CARTESIAN_POINT('',(150.,50.,50.));
#1228=CARTESIAN_POINT('Ctrl Pts',(47.4341649025257,15.8113883008419,0.));
#1229=CARTESIAN_POINT('Ctrl Pts',(81.6227766016838,27.2075922005613,16.6666666666667));
#1230=CARTESIAN_POINT('Ctrl Pts',(115.811388300842,38.6037961002806,33.3333333333333));
#1231=CARTESIAN_POINT('Ctrl Pts',(150.,50.,50.));
#1232=CARTESIAN_POINT('Ctrl Pts',(45.553293691772,21.454001933103,0.));
#1233=CARTESIAN_POINT('Ctrl Pts',(75.605934621899,30.9691500194402,16.6666666666667));
#1234=CARTESIAN_POINT('Ctrl Pts',(105.661644784159,40.4848519136628,33.3333333333333));
#1235=CARTESIAN_POINT('Ctrl Pts',(135.714285714286,50.,50.));
#1236=CARTESIAN_POINT('Ctrl Pts',(39.7568207224149,32.0585549797396,0.));
#1237=CARTESIAN_POINT('Ctrl Pts',(62.2188991621941,38.0385955955836,16.6666666666667));
#1238=CARTESIAN_POINT('Ctrl Pts',(84.6807787030779,44.019959384156,33.3333333333333));
#1239=CARTESIAN_POINT('Ctrl Pts',(107.142857142857,50.,50.));
#1240=CARTESIAN_POINT('Ctrl Pts',(26.0539891218926,43.9317793815104,0.));
#1241=CARTESIAN_POINT('Ctrl Pts',(38.7980186536288,45.9553670738416,16.6666666666666));
#1242=CARTESIAN_POINT('Ctrl Pts',(51.5416847539781,47.9764123076688,33.3333333333333));
#1243=CARTESIAN_POINT('Ctrl Pts',(64.2857142857143,50.,50.));
#1244=CARTESIAN_POINT('Ctrl Pts',(9.06476845235798,50.2603989277257,0.));
#1245=CARTESIAN_POINT('Ctrl Pts',(13.1860771492769,50.1727643186815,16.6666666666667));
#1246=CARTESIAN_POINT('Ctrl Pts',(17.3072627316525,50.0876346090442,33.3333333333333));
#1247=CARTESIAN_POINT('Ctrl Pts',(21.4285714285714,50.,50.));
#1248=CARTESIAN_POINT('Ctrl Pts',(-9.06525018560036,50.2655016406057,0.));
#1249=CARTESIAN_POINT('Ctrl Pts',(-13.1865638508726,50.1779350758392,16.6666666666666));
#1250=CARTESIAN_POINT('Ctrl Pts',(-17.3072577632992,50.0875665647665,33.3333333333333));
#1251=CARTESIAN_POINT('Ctrl Pts',(-21.4285714285714,50.,50.));
#1252=CARTESIAN_POINT('Ctrl Pts',(-26.0515674332145,43.9270465544862,0.));
#1253=CARTESIAN_POINT('Ctrl Pts',(-38.7956554983291,45.9505424823195,16.6666666666667));
#1254=CARTESIAN_POINT('Ctrl Pts',(-51.5416262205997,47.9765040721667,33.3333333333333));
#1255=CARTESIAN_POINT('Ctrl Pts',(-64.2857142857143,50.,50.));
#1256=CARTESIAN_POINT('Ctrl Pts',(-39.7584771446007,32.0615319362611,0.));
#1257=CARTESIAN_POINT('Ctrl Pts',(-62.2205148784477,38.041752833473,16.6666666666666));
#1258=CARTESIAN_POINT('Ctrl Pts',(-84.6808194090102,44.0197791027882,33.3333333333334));
#1259=CARTESIAN_POINT('Ctrl Pts',(-107.142857142857,50.,50.));
#1260=CARTESIAN_POINT('Ctrl Pts',(-45.553293691772,21.454001933103,0.));
#1261=CARTESIAN_POINT('Ctrl Pts',(-75.6059696493341,30.9690498160232,16.6666666666667));
#1262=CARTESIAN_POINT('Ctrl Pts',(-105.661609756724,40.4849521170797,33.3333333333333));
#1263=CARTESIAN_POINT('Ctrl Pts',(-135.714285714286,50.,50.));
#1264=CARTESIAN_POINT('Ctrl Pts',(-47.4341649025257,15.8113883008419,0.));
#1265=CARTESIAN_POINT('Ctrl Pts',(-81.6227766016838,27.2075922005613,16.6666666666667));
#1266=CARTESIAN_POINT('Ctrl Pts',(-115.811388300842,38.6037961002806,33.3333333333333));
#1267=CARTESIAN_POINT('Ctrl Pts',(-150.,50.,50.));
#1268=CARTESIAN_POINT('',(47.4341649025257,15.8113883008419,0.));
#1269=CARTESIAN_POINT('',(47.4341649025257,15.8113883008419,0.));
#1270=CARTESIAN_POINT('',(-47.4341649025257,15.8113883008419,0.));
#1271=CARTESIAN_POINT('Origin',(0.,0.,0.));
#1272=CARTESIAN_POINT('',(-138.735329888441,46.2451099628138,44.5085660830173));
#1273=CARTESIAN_POINT('',(-47.4341649025257,15.8113883008419,0.));
#1274=CARTESIAN_POINT('',(-145.594032461928,50.,50.));
#1275=CARTESIAN_POINT('Ctrl Pts',(-145.594032461928,50.,50.));
#1276=CARTESIAN_POINT('Ctrl Pts',(-145.396201696562,49.8394148466135,49.7526357283499));
#1277=CARTESIAN_POINT('Ctrl Pts',(-145.192089992784,49.6797995296156,49.5093607638245));
#1278=CARTESIAN_POINT('Ctrl Pts',(-144.98173932758,49.5216236155269,49.2704766508101));
#1279=CARTESIAN_POINT('Ctrl Pts',(-144.762859391727,49.3570340056219,49.0219062967198));
#1280=CARTESIAN_POINT('Ctrl Pts',(-144.537224615668,49.1940030575358,48.7780900925888));
#1281=CARTESIAN_POINT('Ctrl Pts',(-144.304936820062,49.0330841749316,48.5393677711845));
#1282=CARTESIAN_POINT('Ctrl Pts',(-144.04865365112,48.8555423412384,48.2759853887088));
#1283=CARTESIAN_POINT('Ctrl Pts',(-143.784272147059,48.6805715723696,48.0188036435248));
#1284=CARTESIAN_POINT('Ctrl Pts',(-143.511990883024,48.5089424381595,47.7682788020612));
#1285=CARTESIAN_POINT('Ctrl Pts',(-143.327488369367,48.3926435558596,47.5985188182179));
#1286=CARTESIAN_POINT('Ctrl Pts',(-143.139359920577,48.2778796369907,47.4318154535567));
#1287=CARTESIAN_POINT('Ctrl Pts',(-142.947679432379,48.1648957136065,47.2683106700755));
#1288=CARTESIAN_POINT('Ctrl Pts',(-142.640380465577,47.9837617690527,47.0061825238908));
#1289=CARTESIAN_POINT('Ctrl Pts',(-142.323514064647,47.806987945186,46.7519641355224));
#1290=CARTESIAN_POINT('Ctrl Pts',(-141.997318383526,47.6356927951812,46.5063750102343));
#1291=CARTESIAN_POINT('Ctrl Pts',(-141.496391089599,47.3726408269282,46.1292323836815));
#1292=CARTESIAN_POINT('Ctrl Pts',(-140.973472661443,47.1225135960079,45.7724398636845));
#1293=CARTESIAN_POINT('Ctrl Pts',(-140.429519755489,46.8894008300014,45.438603144422));
#1294=CARTESIAN_POINT('Ctrl Pts',(-140.129577014549,46.7608594044136,45.2545212147076));
#1295=CARTESIAN_POINT('Ctrl Pts',(-139.823239140628,46.6374915021946,45.077419142481));
#1296=CARTESIAN_POINT('Ctrl Pts',(-139.510638732481,46.5199699724374,44.9077338001404));
#1297=CARTESIAN_POINT('Ctrl Pts',(-139.256331270541,46.4243635650977,44.7696909581786));
#1298=CARTESIAN_POINT('Ctrl Pts',(-138.997879071634,46.3326263572112,44.6365566477812));
#1299=CARTESIAN_POINT('Ctrl Pts',(-138.735329888441,46.2451099628138,44.5085660830173));
#1300=CARTESIAN_POINT('',(-80.,50.,50.));
#1301=CARTESIAN_POINT('',(-150.,50.,50.));
#1302=CARTESIAN_POINT('',(-150.,50.,50.));
#1303=CARTESIAN_POINT('Ctrl Pts',(47.4341649025257,-15.8113883008419,0.));
#1304=CARTESIAN_POINT('Ctrl Pts',(77.8678865644976,-25.9559621881659,14.8361886943391));
#1305=CARTESIAN_POINT('Ctrl Pts',(108.30160822647,-36.1005360754898,29.6723773886782));
#1306=CARTESIAN_POINT('Ctrl Pts',(138.735329888441,-46.2451099628138,44.5085660830173));
#1307=CARTESIAN_POINT('Ctrl Pts',(49.3721926936024,-9.99730492761165,0.));
#1308=CARTESIAN_POINT('Ctrl Pts',(79.2294472017306,-16.2149378864136,14.8361886943391));
#1309=CARTESIAN_POINT('Ctrl Pts',(109.090926411193,-22.4332796892717,29.6723773886782));
#1310=CARTESIAN_POINT('Ctrl Pts',(138.948180919321,-28.6509126480736,44.5085660830173));
#1311=CARTESIAN_POINT('Ctrl Pts',(50.8696183941846,0.805368006568155,0.));
#1312=CARTESIAN_POINT('Ctrl Pts',(80.2844793869863,1.27283489325678,14.8361886943391));
#1313=CARTESIAN_POINT('Ctrl Pts',(109.697780212126,1.74044114481251,29.6723773886782));
#1314=CARTESIAN_POINT('Ctrl Pts',(139.112641204928,2.20790803150114,44.5085660830173));
#1315=CARTESIAN_POINT('Ctrl Pts',(48.8876857458332,11.4508257709192,0.));
#1316=CARTESIAN_POINT('Ctrl Pts',(78.8899700645393,18.6502128287286,14.8361886943391));
#1317=CARTESIAN_POINT('Ctrl Pts',(108.892683842895,25.8500749189492,29.6723773886782));
#1318=CARTESIAN_POINT('Ctrl Pts',(138.894968161601,33.0494619767586,44.5085660830173));
#1319=CARTESIAN_POINT('Ctrl Pts',(47.4341649025257,15.8113883008419,0.));
#1320=CARTESIAN_POINT('Ctrl Pts',(77.8678865644976,25.9559621881659,14.8361886943391));
#1321=CARTESIAN_POINT('Ctrl Pts',(108.30160822647,36.1005360754898,29.6723773886782));
#1322=CARTESIAN_POINT('Ctrl Pts',(138.735329888441,46.2451099628138,44.5085660830173));
#1323=CARTESIAN_POINT('',(47.4341649025257,-15.8113883008419,0.));
#1324=CARTESIAN_POINT('',(47.4341649025257,-15.8113883008419,0.));
#1325=CARTESIAN_POINT('Origin',(0.,0.,0.));
#1326=CARTESIAN_POINT('Ctrl Pts',(-138.700177435515,50.1136061266529,44.5151087184143));
#1327=CARTESIAN_POINT('Ctrl Pts',(-139.01422418464,16.71314269935,44.4561224406746));
#1328=CARTESIAN_POINT('Ctrl Pts',(-139.01422418464,-16.71314269935,44.4561224406746));
#1329=CARTESIAN_POINT('Ctrl Pts',(-138.700177435515,-50.1136061266529,44.5151087184143));
#1330=CARTESIAN_POINT('Ctrl Pts',(-140.622369821994,50.1077478417972,45.4437291137494));
#1331=CARTESIAN_POINT('Ctrl Pts',(-140.890278864406,16.7105955126639,45.4038887221637));
#1332=CARTESIAN_POINT('Ctrl Pts',(-140.890278864406,-16.710595512664,45.4038887221637));
#1333=CARTESIAN_POINT('Ctrl Pts',(-140.622369821994,-50.1077478417972,45.4437291137494));
#1334=CARTESIAN_POINT('Ctrl Pts',(-144.16360033066,50.092111294282,47.9223414197168));
#1335=CARTESIAN_POINT('Ctrl Pts',(-144.337998116568,16.7040422997359,47.8959319818124));
#1336=CARTESIAN_POINT('Ctrl Pts',(-144.337998116568,-16.7040422997357,47.8959319818124));
#1337=CARTESIAN_POINT('Ctrl Pts',(-144.16360033066,-50.0921112942821,47.9223414197168));
#1338=CARTESIAN_POINT('Ctrl Pts',(-148.690010291345,50.0538351802305,53.9896428633837));
#1339=CARTESIAN_POINT('Ctrl Pts',(-148.73161848614,16.6885339417469,53.9116420119759));
#1340=CARTESIAN_POINT('Ctrl Pts',(-148.73161848614,-16.6885339417469,53.9116420119759));
#1341=CARTESIAN_POINT('Ctrl Pts',(-148.690010291345,-50.0538351802306,53.9896428633837));
#1342=CARTESIAN_POINT('Ctrl Pts',(-150.,50.020200576751,59.3211997182301));
#1343=CARTESIAN_POINT('Ctrl Pts',(-149.999617094184,16.6751361796905,59.1607550767198));
#1344=CARTESIAN_POINT('Ctrl Pts',(-149.999617094184,-16.6751361796904,59.1607550767198));
#1345=CARTESIAN_POINT('Ctrl Pts',(-150.,-50.0202005767511,59.3211997182301));
#1346=CARTESIAN_POINT('Ctrl Pts',(-150.,50.0000000064784,62.5232737065526));
#1347=CARTESIAN_POINT('Ctrl Pts',(-150.,16.6670977572116,62.3129901101289));
#1348=CARTESIAN_POINT('Ctrl Pts',(-150.,-16.6670977572116,62.3129901101289));
#1349=CARTESIAN_POINT('Ctrl Pts',(-150.,-50.0000000064784,62.5232737065526));
#1350=CARTESIAN_POINT('',(-145.594032461928,-50.,50.));
#1351=CARTESIAN_POINT('',(-150.,-50.0000000064781,62.5232737065935));
#1352=CARTESIAN_POINT('Ctrl Pts',(-145.592318417818,-49.9999956030941,50.0006969823624));
#1353=CARTESIAN_POINT('Ctrl Pts',(-145.85516004519,-49.999995420614,50.3279854750915));
#1354=CARTESIAN_POINT('Ctrl Pts',(-146.10744742286,-49.9999954397908,50.6631434912055));
#1355=CARTESIAN_POINT('Ctrl Pts',(-146.348837659024,-49.9999956782451,51.005631045642));
#1356=CARTESIAN_POINT('Ctrl Pts',(-146.590686761453,-49.9999959171528,51.3487696454055));
#1357=CARTESIAN_POINT('Ctrl Pts',(-146.821597602884,-49.9999963734233,51.699266110012));
#1358=CARTESIAN_POINT('Ctrl Pts',(-147.041186654183,-49.9999968448821,52.0566125369907));
#1359=CARTESIAN_POINT('Ctrl Pts',(-147.259937685856,-49.9999973145417,52.4125952196591));
#1360=CARTESIAN_POINT('Ctrl Pts',(-147.467453488828,-49.9999977964154,52.7753761331716));
#1361=CARTESIAN_POINT('Ctrl Pts',(-147.663311674407,-49.9999979148823,53.1444813570072));
#1362=CARTESIAN_POINT('Ctrl Pts',(-147.687653257618,-49.9999979296055,53.1903543721853));
#1363=CARTESIAN_POINT('Ctrl Pts',(-147.711814719526,-49.9999979385241,53.2363251030421));
#1364=CARTESIAN_POINT('Ctrl Pts',(-147.735795198672,-49.9999979407602,53.2823926650398));
#1365=CARTESIAN_POINT('Ctrl Pts',(-147.929645980737,-49.9999979588357,53.6547885986853));
#1366=CARTESIAN_POINT('Ctrl Pts',(-148.111674287717,-49.9999975490043,54.033510639873));
#1367=CARTESIAN_POINT('Ctrl Pts',(-148.281711671218,-49.9999970483005,54.4179647193357));
#1368=CARTESIAN_POINT('Ctrl Pts',(-148.450661841336,-49.9999965507981,54.7999606121807));
#1369=CARTESIAN_POINT('Ctrl Pts',(-148.607774035514,-49.9999959602281,55.1876160069927));
#1370=CARTESIAN_POINT('Ctrl Pts',(-148.752833584877,-49.9999955316339,55.5803605774557));
#1371=CARTESIAN_POINT('Ctrl Pts',(-148.897641203825,-49.9999951037842,55.9724230535408));
#1372=CARTESIAN_POINT('Ctrl Pts',(-149.030038430626,-49.9999947668648,56.3684747646526));
#1373=CARTESIAN_POINT('Ctrl Pts',(-149.149965973686,-49.9999946480695,56.7678911325818));
#1374=CARTESIAN_POINT('Ctrl Pts',(-149.270741824007,-49.9999945284338,57.170132771474));
#1375=CARTESIAN_POINT('Ctrl Pts',(-149.37887113712,-49.9999946268351,57.5757873387734));
#1376=CARTESIAN_POINT('Ctrl Pts',(-149.474246076977,-49.9999949285335,57.9842404640542));
#1377=CARTESIAN_POINT('Ctrl Pts',(-149.569720246722,-49.9999952305459,58.3931185516803));
#1378=CARTESIAN_POINT('Ctrl Pts',(-149.652413630805,-49.9999957329339,58.804801553184));
#1379=CARTESIAN_POINT('Ctrl Pts',(-149.722168508324,-49.9999963258244,59.2186888898769));
#1380=CARTESIAN_POINT('Ctrl Pts',(-149.79160126234,-49.999996915977,59.6306649216707));
#1381=CARTESIAN_POINT('Ctrl Pts',(-149.848214831653,-49.9999975924679,60.0448255044476));
#1382=CARTESIAN_POINT('Ctrl Pts',(-149.891802877323,-49.9999982027871,60.4605859776263));
#1383=CARTESIAN_POINT('Ctrl Pts',(-149.934797836576,-49.999998804802,60.8706893517973));
#1384=CARTESIAN_POINT('Ctrl Pts',(-149.965119351605,-49.9999993393182,61.282349868902));
#1385=CARTESIAN_POINT('Ctrl Pts',(-149.982519062131,-49.9999996646784,61.6950062800067));
#1386=CARTESIAN_POINT('Ctrl Pts',(-149.994144028652,-49.9999998820556,61.9707072439082));
#1387=CARTESIAN_POINT('Ctrl Pts',(-150.,-50.0000000062267,62.2468527373907));
#1388=CARTESIAN_POINT('Ctrl Pts',(-150.,-50.0000000064784,62.5232737065526));
#1389=CARTESIAN_POINT('',(-150.,50.0000000064781,62.5232737065935));
#1390=CARTESIAN_POINT('Ctrl Pts',(-150.,-50.0000000064784,62.5232737065526));
#1391=CARTESIAN_POINT('Ctrl Pts',(-150.,-16.6670977572116,62.3129901101289));
#1392=CARTESIAN_POINT('Ctrl Pts',(-150.,16.6670977572116,62.3129901101289));
#1393=CARTESIAN_POINT('Ctrl Pts',(-150.,50.0000000064784,62.5232737065526));
#1394=CARTESIAN_POINT('Ctrl Pts',(-150.,50.0000000064783,62.5232737065526));
#1395=CARTESIAN_POINT('Ctrl Pts',(-150.,50.0000000061023,62.1102550549008));
#1396=CARTESIAN_POINT('Ctrl Pts',(-149.986928763597,49.9999997264015,61.6978518058664));
#1397=CARTESIAN_POINT('Ctrl Pts',(-149.961067805281,49.9999992794785,61.2866264572742));
#1398=CARTESIAN_POINT('Ctrl Pts',(-149.934911119586,49.9999988274447,60.8706986304045));
#1399=CARTESIAN_POINT('Ctrl Pts',(-149.89567048407,49.9999982074487,60.4559753044316));
#1400=CARTESIAN_POINT('Ctrl Pts',(-149.84358407167,49.999997572229,60.0430333105534));
#1401=CARTESIAN_POINT('Ctrl Pts',(-149.791016257503,49.9999969311383,59.6262747549957));
#1402=CARTESIAN_POINT('Ctrl Pts',(-149.725364053901,49.9999962778733,59.2113300826759));
#1403=CARTESIAN_POINT('Ctrl Pts',(-149.646819386083,49.9999957577894,58.7987947677148));
#1404=CARTESIAN_POINT('Ctrl Pts',(-149.568268130244,49.9999952376619,58.3862248508985));
#1405=CARTESIAN_POINT('Ctrl Pts',(-149.476822109589,49.9999948541012,57.9760641631094));
#1406=CARTESIAN_POINT('Ctrl Pts',(-149.372622262266,49.9999946905174,57.5689187995506));
#1407=CARTESIAN_POINT('Ctrl Pts',(-149.269192672834,49.9999945281429,57.164783103825));
#1408=CARTESIAN_POINT('Ctrl Pts',(-149.153196928878,49.9999945856697,56.7636178174711));
#1409=CARTESIAN_POINT('Ctrl Pts',(-149.024725098272,49.9999948350797,56.3660336871384));
#1410=CARTESIAN_POINT('Ctrl Pts',(-148.939571626651,49.9999950003932,56.1025076768075));
#1411=CARTESIAN_POINT('Ctrl Pts',(-148.848936087687,49.9999952476887,55.8405553486906));
#1412=CARTESIAN_POINT('Ctrl Pts',(-148.752833589404,49.9999955316339,55.5803605897124));
#1413=CARTESIAN_POINT('Ctrl Pts',(-148.606840565749,49.9999959629861,55.1850886635801));
#1414=CARTESIAN_POINT('Ctrl Pts',(-148.4486393326,49.9999965584665,54.7949716125317));
#1415=CARTESIAN_POINT('Ctrl Pts',(-148.278448565227,49.9999970578927,54.4105908747593));
#1416=CARTESIAN_POINT('Ctrl Pts',(-148.109345990206,49.9999975541256,54.028667850678));
#1417=CARTESIAN_POINT('Ctrl Pts',(-147.92840650728,49.9999979587201,53.652407515307));
#1418=CARTESIAN_POINT('Ctrl Pts',(-147.735795198672,49.9999979407601,53.2823926650398));
#1419=CARTESIAN_POINT('Ctrl Pts',(-147.542571784554,49.9999979227431,52.9112019329912));
#1420=CARTESIAN_POINT('Ctrl Pts',(-147.33760214809,49.999997482922,52.5462959059145));
#1421=CARTESIAN_POINT('Ctrl Pts',(-147.121316168832,49.9999970174127,52.1881474620325));
#1422=CARTESIAN_POINT('Ctrl Pts',(-146.904510555514,49.9999965507851,51.8291385549319));
#1423=CARTESIAN_POINT('Ctrl Pts',(-146.676333832882,49.9999960611837,51.4769192921421));
#1424=CARTESIAN_POINT('Ctrl Pts',(-146.437174593281,49.9999957748144,51.1319936919663));
#1425=CARTESIAN_POINT('Ctrl Pts',(-146.198766146691,49.999995489344,50.7881509173197));
#1426=CARTESIAN_POINT('Ctrl Pts',(-145.949443674483,49.9999954085093,50.4515556603979));
#1427=CARTESIAN_POINT('Ctrl Pts',(-145.68955321643,49.9999955438596,50.1227412079685));
#1428=CARTESIAN_POINT('Ctrl Pts',(-145.657304176006,49.9999955606548,50.0819395923645));
#1429=CARTESIAN_POINT('Ctrl Pts',(-145.62489236867,49.9999955804793,50.041257830289));
#1430=CARTESIAN_POINT('Ctrl Pts',(-145.592318417818,49.9999956030941,50.0006969823624));
#1431=CARTESIAN_POINT('',(-138.735329888441,-46.2451099628138,44.5085660830173));
#1432=CARTESIAN_POINT('Ctrl Pts',(-138.735145589279,46.245110113116,44.5085407751521));
#1433=CARTESIAN_POINT('Ctrl Pts',(-139.002568133386,15.4218002389083,44.4583117550953));
#1434=CARTESIAN_POINT('Ctrl Pts',(-139.002568133386,-15.4218002389082,44.4583117550954));
#1435=CARTESIAN_POINT('Ctrl Pts',(-138.735145589279,-46.2451101131159,44.5085407751521));
#1436=CARTESIAN_POINT('Ctrl Pts',(-138.735329888441,-46.2451099628138,44.5085660830173));
#1437=CARTESIAN_POINT('Ctrl Pts',(-139.046233954842,-46.348744651614,44.6601292551521));
#1438=CARTESIAN_POINT('Ctrl Pts',(-139.351394177157,-46.458298555417,44.8189053568734));
#1439=CARTESIAN_POINT('Ctrl Pts',(-139.650727474179,-46.5731861328887,44.9845038479284));
#1440=CARTESIAN_POINT('Ctrl Pts',(-139.997816146005,-46.7064027749084,45.1765217787384));
#1441=CARTESIAN_POINT('Ctrl Pts',(-140.337069490844,-46.8467903454389,45.3777126235146));
#1442=CARTESIAN_POINT('Ctrl Pts',(-140.668292827447,-46.9934065720642,45.5874675158217));
#1443=CARTESIAN_POINT('Ctrl Pts',(-141.100447530742,-47.1847001341821,45.8611395468422));
#1444=CARTESIAN_POINT('Ctrl Pts',(-141.518928400598,-47.3865948849659,46.1493901738744));
#1445=CARTESIAN_POINT('Ctrl Pts',(-141.923235966818,-47.5969668199,46.4508670846681));
#1446=CARTESIAN_POINT('Ctrl Pts',(-142.247786294938,-47.7658389514521,46.69287202965));
#1447=CARTESIAN_POINT('Ctrl Pts',(-142.563200320441,-47.9401720653193,46.9433996942945));
#1448=CARTESIAN_POINT('Ctrl Pts',(-142.86924262387,-48.1188769870082,47.2017505789003));
#1449=CARTESIAN_POINT('Ctrl Pts',(-142.896981497635,-48.1350743336114,47.2251668272256));
#1450=CARTESIAN_POINT('Ctrl Pts',(-142.924643415411,-48.1513076099469,47.2486473443619));
#1451=CARTESIAN_POINT('Ctrl Pts',(-142.952228224431,-48.1675760148253,47.272191609463));
#1452=CARTESIAN_POINT('Ctrl Pts',(-143.234123254226,-48.3338263040543,47.5127954616539));
#1453=CARTESIAN_POINT('Ctrl Pts',(-143.508328727147,-48.5039237975128,47.7603190555607));
#1454=CARTESIAN_POINT('Ctrl Pts',(-143.774615840739,-48.6770913392594,48.0143105028824));
#1455=CARTESIAN_POINT('Ctrl Pts',(-144.022593812906,-48.8383523753946,48.2508382236752));
#1456=CARTESIAN_POINT('Ctrl Pts',(-144.263704250275,-49.0022755020749,48.4929749526924));
#1457=CARTESIAN_POINT('Ctrl Pts',(-144.497801565519,-49.1682502453194,48.7403557512007));
#1458=CARTESIAN_POINT('Ctrl Pts',(-144.71627320486,-49.3231464012533,48.9712242194492));
#1459=CARTESIAN_POINT('Ctrl Pts',(-144.928636492801,-49.4798293199889,49.2066600525664));
#1460=CARTESIAN_POINT('Ctrl Pts',(-145.134813958098,-49.6378209185986,49.4463666200114));
#1461=CARTESIAN_POINT('Ctrl Pts',(-145.291461983362,-49.75785863414,49.6284891443076));
#1462=CARTESIAN_POINT('Ctrl Pts',(-145.444539966638,-49.8786521233956,49.8130769699471));
#1463=CARTESIAN_POINT('Ctrl Pts',(-145.594032461928,-50.,50.));
#1464=CARTESIAN_POINT('Origin',(150.,50.,50.));
#1465=CARTESIAN_POINT('',(-150.,50.,100.));
#1466=CARTESIAN_POINT('',(-150.,50.,50.));
#1467=CARTESIAN_POINT('',(-100.,50.,100.));
#1468=CARTESIAN_POINT('',(-150.,50.,100.));
#1469=CARTESIAN_POINT('',(-100.,50.,70.));
#1470=CARTESIAN_POINT('',(-100.,50.,50.));
#1471=CARTESIAN_POINT('Origin',(-80.,50.,70.));
#1472=CARTESIAN_POINT('Origin',(-150.,50.,50.));
#1473=CARTESIAN_POINT('',(-150.,-50.,100.));
#1474=CARTESIAN_POINT('',(-150.,-50.,50.));
#1475=CARTESIAN_POINT('Origin',(-150.,3.06161699786838E-15,100.));
#1476=CARTESIAN_POINT('',(-150.,-25.,100.));
#1477=CARTESIAN_POINT('Origin',(-150.,2.64303417129025E-15,100.));
#1478=CARTESIAN_POINT('Origin',(-150.,-50.,50.));
#1479=CARTESIAN_POINT('',(-80.,-50.,50.));
#1480=CARTESIAN_POINT('',(150.,-50.,50.));
#1481=CARTESIAN_POINT('',(-100.,-50.,70.));
#1482=CARTESIAN_POINT('Origin',(-80.,-50.,70.));
#1483=CARTESIAN_POINT('',(-100.,-50.,100.));
#1484=CARTESIAN_POINT('',(-100.,-50.,50.));
#1485=CARTESIAN_POINT('',(150.,-50.,100.));
#1486=CARTESIAN_POINT('Origin',(80.,-50.,70.));
#1487=CARTESIAN_POINT('',(80.,-50.,50.));
#1488=CARTESIAN_POINT('',(80.,-50.,50.));
#1489=CARTESIAN_POINT('',(100.,-50.,70.));
#1490=CARTESIAN_POINT('Origin',(80.,-50.,70.));
#1491=CARTESIAN_POINT('',(100.,-50.,70.));
#1492=CARTESIAN_POINT('Origin',(100.,-50.,150.));
#1493=CARTESIAN_POINT('',(100.,-50.,100.));
#1494=CARTESIAN_POINT('',(100.,-50.,100.));
#1495=CARTESIAN_POINT('Origin',(100.,-1.53080849893419E-14,100.));
#1496=CARTESIAN_POINT('',(100.,-25.,100.));
#1497=CARTESIAN_POINT('Origin',(100.,2.64303417129025E-15,100.));
#1498=CARTESIAN_POINT('Origin',(-80.,-50.,70.));
#1499=CARTESIAN_POINT('',(-100.,-50.,70.));
#1500=CARTESIAN_POINT('',(-80.,-50.,50.));
#1501=CARTESIAN_POINT('Origin',(100.,-50.,50.));
#1502=CARTESIAN_POINT('',(150.,-50.,50.));
#1503=CARTESIAN_POINT('Origin',(-100.,-50.,50.));
#1504=CARTESIAN_POINT('Origin',(-100.,-3.06161699786838E-15,100.));
#1505=CARTESIAN_POINT('',(-100.,-25.,100.));
#1506=CARTESIAN_POINT('Origin',(-100.,2.64303417129025E-15,100.));
#1507=CARTESIAN_POINT('Origin',(-150.,-50.,50.));
#1508=CARTESIAN_POINT('',(150.,-50.,100.));
#1509=CARTESIAN_POINT('',(150.,-50.,50.));
#1510=CARTESIAN_POINT('',(150.,-50.,100.));
#1511=CARTESIAN_POINT('',(150.,-50.,50.));
#1512=CARTESIAN_POINT('Origin',(0.,-9.18485099360515E-15,100.));
#1513=CARTESIAN_POINT('Origin',(150.,3.06161699786838E-15,100.));
#1514=CARTESIAN_POINT('Origin',(0.,-9.18485099360515E-15,100.));
#1515=CARTESIAN_POINT('Origin',(-15.0032298381911,2.64303417129025E-15,
100.));
#1516=CARTESIAN_POINT('',(-15.0032298381911,-25.,100.));
#1517=CARTESIAN_POINT('Origin',(-15.0032298381911,2.64303417129025E-15,
100.));
#1518=CARTESIAN_POINT('',(150.,-25.,100.));
#1519=CARTESIAN_POINT('Origin',(150.,2.64303417129025E-15,100.));
#1520=CARTESIAN_POINT('',(-15.0032298381911,-25.,100.));
#1521=CARTESIAN_POINT('Origin',(150.,-50.,50.));
#1522=CARTESIAN_POINT('Origin',(2.10000596831503E-15,4.44089209850063E-15,
0.));
#1523=CARTESIAN_POINT('',(-47.4341649025257,-15.8113883008419,0.));
#1524=CARTESIAN_POINT('Origin',(0.,0.,0.));
#1525=CARTESIAN_POINT('Origin',(0.,0.,0.));
#1526=CARTESIAN_POINT('Ctrl Pts',(-47.4341649025257,15.8113883008419,0.));
#1527=CARTESIAN_POINT('Ctrl Pts',(-77.8678865644976,25.9559621881659,14.8361886943391));
#1528=CARTESIAN_POINT('Ctrl Pts',(-108.30160822647,36.1005360754898,29.6723773886782));
#1529=CARTESIAN_POINT('Ctrl Pts',(-138.735329888441,46.2451099628138,44.5085660830173));
#1530=CARTESIAN_POINT('Ctrl Pts',(-49.3721926936024,9.99730492761166,0.));
#1531=CARTESIAN_POINT('Ctrl Pts',(-79.2294472017306,16.2149378864136,14.8361886943391));
#1532=CARTESIAN_POINT('Ctrl Pts',(-109.090926411193,22.4332796892717,29.6723773886782));
#1533=CARTESIAN_POINT('Ctrl Pts',(-138.948180919321,28.6509126480736,44.5085660830173));
#1534=CARTESIAN_POINT('Ctrl Pts',(-50.8696183941846,-0.805368006568136,
0.));
#1535=CARTESIAN_POINT('Ctrl Pts',(-80.2844793869863,-1.27283489325677,14.8361886943391));
#1536=CARTESIAN_POINT('Ctrl Pts',(-109.697780212126,-1.74044114481251,29.6723773886782));
#1537=CARTESIAN_POINT('Ctrl Pts',(-139.112641204928,-2.20790803150114,44.5085660830173));
#1538=CARTESIAN_POINT('Ctrl Pts',(-48.8876857458333,-11.4508257709192,0.));
#1539=CARTESIAN_POINT('Ctrl Pts',(-78.8899700645393,-18.6502128287286,14.8361886943391));
#1540=CARTESIAN_POINT('Ctrl Pts',(-108.892683842895,-25.8500749189492,29.6723773886782));
#1541=CARTESIAN_POINT('Ctrl Pts',(-138.894968161601,-33.0494619767586,44.5085660830173));
#1542=CARTESIAN_POINT('Ctrl Pts',(-47.4341649025257,-15.8113883008418,0.));
#1543=CARTESIAN_POINT('Ctrl Pts',(-77.8678865644976,-25.9559621881658,14.8361886943391));
#1544=CARTESIAN_POINT('Ctrl Pts',(-108.30160822647,-36.1005360754898,29.6723773886782));
#1545=CARTESIAN_POINT('Ctrl Pts',(-138.735329888441,-46.2451099628138,44.5085660830173));
#1546=CARTESIAN_POINT('',(-47.4341649025257,-15.8113883008419,0.));
#1547=CARTESIAN_POINT('Ctrl Pts',(-47.4341649025257,-15.8113883008419,0.));
#1548=CARTESIAN_POINT('Ctrl Pts',(-81.6227766016838,-27.2075922005613,16.6666666666667));
#1549=CARTESIAN_POINT('Ctrl Pts',(-115.811388300842,-38.6037961002806,33.3333333333333));
#1550=CARTESIAN_POINT('Ctrl Pts',(-150.,-50.,50.));
#1551=CARTESIAN_POINT('Ctrl Pts',(-45.553293691772,-21.454001933103,0.));
#1552=CARTESIAN_POINT('Ctrl Pts',(-75.605934621899,-30.9691500194401,16.6666666666667));
#1553=CARTESIAN_POINT('Ctrl Pts',(-105.661644784159,-40.4848519136628,33.3333333333333));
#1554=CARTESIAN_POINT('Ctrl Pts',(-135.714285714286,-50.,50.));
#1555=CARTESIAN_POINT('Ctrl Pts',(-39.7568207224149,-32.0585549797396,0.));
#1556=CARTESIAN_POINT('Ctrl Pts',(-62.2188991621941,-38.0385955955836,16.6666666666667));
#1557=CARTESIAN_POINT('Ctrl Pts',(-84.6807787030779,-44.019959384156,33.3333333333333));
#1558=CARTESIAN_POINT('Ctrl Pts',(-107.142857142857,-50.,50.));
#1559=CARTESIAN_POINT('Ctrl Pts',(-26.0539891218926,-43.9317793815104,0.));
#1560=CARTESIAN_POINT('Ctrl Pts',(-38.7980186536288,-45.9553670738416,16.6666666666666));
#1561=CARTESIAN_POINT('Ctrl Pts',(-51.5416847539781,-47.9764123076688,33.3333333333333));
#1562=CARTESIAN_POINT('Ctrl Pts',(-64.2857142857143,-50.,50.));
#1563=CARTESIAN_POINT('Ctrl Pts',(-9.06476845235798,-50.2603989277257,0.));
#1564=CARTESIAN_POINT('Ctrl Pts',(-13.1860771492769,-50.1727643186815,16.6666666666667));
#1565=CARTESIAN_POINT('Ctrl Pts',(-17.3072627316525,-50.0876346090442,33.3333333333333));
#1566=CARTESIAN_POINT('Ctrl Pts',(-21.4285714285714,-50.,50.));
#1567=CARTESIAN_POINT('Ctrl Pts',(9.06525018560038,-50.2655016406057,0.));
#1568=CARTESIAN_POINT('Ctrl Pts',(13.1865638508726,-50.1779350758392,16.6666666666666));
#1569=CARTESIAN_POINT('Ctrl Pts',(17.3072577632992,-50.0875665647665,33.3333333333333));
#1570=CARTESIAN_POINT('Ctrl Pts',(21.4285714285714,-50.,50.));
#1571=CARTESIAN_POINT('Ctrl Pts',(26.0515674332145,-43.9270465544862,0.));
#1572=CARTESIAN_POINT('Ctrl Pts',(38.7956554983291,-45.9505424823195,16.6666666666667));
#1573=CARTESIAN_POINT('Ctrl Pts',(51.5416262205997,-47.9765040721667,33.3333333333333));
#1574=CARTESIAN_POINT('Ctrl Pts',(64.2857142857143,-50.,50.));
#1575=CARTESIAN_POINT('Ctrl Pts',(39.7584771446007,-32.0615319362611,0.));
#1576=CARTESIAN_POINT('Ctrl Pts',(62.2205148784477,-38.041752833473,16.6666666666666));
#1577=CARTESIAN_POINT('Ctrl Pts',(84.6808194090102,-44.0197791027882,33.3333333333334));
#1578=CARTESIAN_POINT('Ctrl Pts',(107.142857142857,-50.,50.));
#1579=CARTESIAN_POINT('Ctrl Pts',(45.553293691772,-21.454001933103,0.));
#1580=CARTESIAN_POINT('Ctrl Pts',(75.6059696493341,-30.9690498160232,16.6666666666667));
#1581=CARTESIAN_POINT('Ctrl Pts',(105.661609756724,-40.4849521170797,33.3333333333333));
#1582=CARTESIAN_POINT('Ctrl Pts',(135.714285714286,-50.,50.));
#1583=CARTESIAN_POINT('Ctrl Pts',(47.4341649025257,-15.8113883008419,0.));
#1584=CARTESIAN_POINT('Ctrl Pts',(81.6227766016838,-27.2075922005612,16.6666666666667));
#1585=CARTESIAN_POINT('Ctrl Pts',(115.811388300842,-38.6037961002806,33.3333333333333));
#1586=CARTESIAN_POINT('Ctrl Pts',(150.,-50.,50.));
#1587=UNCERTAINTY_MEASURE_WITH_UNIT(LENGTH_MEASURE(0.01),#1591,
'DISTANCE_ACCURACY_VALUE',
'Maximum model space distance between geometric entities at asserted c
onnectivities');
#1588=UNCERTAINTY_MEASURE_WITH_UNIT(LENGTH_MEASURE(0.01),#1591,
'DISTANCE_ACCURACY_VALUE',
'Maximum model space distance between geometric entities at asserted c
onnectivities');
#1589=(
GEOMETRIC_REPRESENTATION_CONTEXT(3)
GLOBAL_UNCERTAINTY_ASSIGNED_CONTEXT((#1587))
GLOBAL_UNIT_ASSIGNED_CONTEXT((#1591,#1593,#1594))
REPRESENTATION_CONTEXT('','3D')
);
#1590=(
GEOMETRIC_REPRESENTATION_CONTEXT(3)
GLOBAL_UNCERTAINTY_ASSIGNED_CONTEXT((#1588))
GLOBAL_UNIT_ASSIGNED_CONTEXT((#1591,#1593,#1594))
REPRESENTATION_CONTEXT('','3D')
);
#1591=(
LENGTH_UNIT()
NAMED_UNIT(*)
SI_UNIT(.MILLI.,.METRE.)
);
#1592=(
LENGTH_UNIT()
NAMED_UNIT(*)
SI_UNIT($,.METRE.)
);
#1593=(
NAMED_UNIT(*)
PLANE_ANGLE_UNIT()
SI_UNIT($,.RADIAN.)
);
#1594=(
NAMED_UNIT(*)
SI_UNIT($,.STERADIAN.)
SOLID_ANGLE_UNIT()
);
#1595=SHAPE_DEFINITION_REPRESENTATION(#1596,#1597);
#1596=PRODUCT_DEFINITION_SHAPE('',$,#1599);
#1597=SHAPE_REPRESENTATION('',(#713),#1589);
#1598=PRODUCT_DEFINITION_CONTEXT('part definition',#1603,'design');
#1599=PRODUCT_DEFINITION('link4','link4 v3',#1600,#1598);
#1600=PRODUCT_DEFINITION_FORMATION('',$,#1605);
#1601=PRODUCT_RELATED_PRODUCT_CATEGORY('link4 v3','link4 v3',(#1605));
#1602=APPLICATION_PROTOCOL_DEFINITION('international standard',
'automotive_design',2009,#1603);
#1603=APPLICATION_CONTEXT(
'Core Data for Automotive Mechanical Design Process');
#1604=PRODUCT_CONTEXT('part definition',#1603,'mechanical');
#1605=PRODUCT('link4','link4 v3',$,(#1604));
#1606=PRESENTATION_STYLE_ASSIGNMENT((#1607));
#1607=SURFACE_STYLE_USAGE(.BOTH.,#1608);
#1608=SURFACE_SIDE_STYLE('',(#1609));
#1609=SURFACE_STYLE_FILL_AREA(#1610);
#1610=FILL_AREA_STYLE('Steel - Satin',(#1611));
#1611=FILL_AREA_STYLE_COLOUR('Steel - Satin',#1612);
#1612=COLOUR_RGB('Steel - Satin',0.627450980392157,0.627450980392157,0.627450980392157);
ENDSEC;
END-ISO-10303-21;
