ISO-10303-21;
HEADER;
/* Generated by software containing ST-Developer
 * from STEP Tools, Inc. (www.steptools.com) 
 */

FILE_DESCRIPTION(
/* description */ (''),
/* implementation_level */ '2;1');

FILE_NAME(
/* name */ 'link2 v6.step',
/* time_stamp */ '2026-05-21T11:45:09+02:00',
/* author */ (''),
/* organization */ (''),
/* preprocessor_version */ 'ST-DEVELOPER v20.1',
/* originating_system */ 'Autodesk Translation Framework v15.8.0.0',
/* authorisation */ '');

FILE_SCHEMA (('AUTOMOTIVE_DESIGN { 1 0 10303 214 3 1 1 }'));
ENDSEC;

DATA;
#10=MECHANICAL_DESIGN_GEOMETRIC_PRESENTATION_REPRESENTATION('',(#13),#2178);
#11=SHAPE_REPRESENTATION_RELATIONSHIP('SRR','None',#2185,#12);
#12=ADVANCED_BREP_SHAPE_REPRESENTATION('',(#14),#2177);
#13=STYLED_ITEM('',(#2194),#14);
#14=MANIFOLD_SOLID_BREP('Body4',#1270);
#15=ELLIPSE('',#1316,140.014284985497,130.);
#16=ELLIPSE('',#1410,161.554944214035,150.);
#17=ELLIPSE('',#1412,161.554944214035,150.);
#18=ELLIPSE('',#1414,134.629120178363,125.);
#19=ELLIPSE('',#1415,134.629120178363,125.);
#20=ELLIPSE('',#1427,150.332963783729,150.);
#21=ELLIPSE('',#1439,150.332963783729,150.);
#22=FACE_BOUND('',#184,.T.);
#23=FACE_BOUND('',#185,.T.);
#24=FACE_BOUND('',#186,.T.);
#25=FACE_BOUND('',#187,.T.);
#26=FACE_BOUND('',#188,.T.);
#27=FACE_BOUND('',#189,.T.);
#28=FACE_BOUND('',#190,.T.);
#29=FACE_BOUND('',#191,.T.);
#30=FACE_BOUND('',#192,.T.);
#31=FACE_BOUND('',#193,.T.);
#32=FACE_BOUND('',#194,.T.);
#33=FACE_BOUND('',#195,.T.);
#34=FACE_BOUND('',#196,.T.);
#35=FACE_BOUND('',#197,.T.);
#36=FACE_BOUND('',#198,.T.);
#37=FACE_BOUND('',#199,.T.);
#38=FACE_BOUND('',#200,.T.);
#39=FACE_BOUND('',#201,.T.);
#40=FACE_BOUND('',#202,.T.);
#41=FACE_BOUND('',#203,.T.);
#42=FACE_BOUND('',#204,.T.);
#43=FACE_BOUND('',#205,.T.);
#44=FACE_BOUND('',#206,.T.);
#45=FACE_BOUND('',#207,.T.);
#46=FACE_BOUND('',#208,.T.);
#47=FACE_BOUND('',#249,.T.);
#48=FACE_BOUND('',#250,.T.);
#49=FACE_BOUND('',#251,.T.);
#50=FACE_BOUND('',#252,.T.);
#51=FACE_BOUND('',#253,.T.);
#52=FACE_BOUND('',#254,.T.);
#53=FACE_BOUND('',#255,.T.);
#54=FACE_BOUND('',#256,.T.);
#55=FACE_BOUND('',#257,.T.);
#56=FACE_BOUND('',#258,.T.);
#57=FACE_BOUND('',#259,.T.);
#58=FACE_BOUND('',#260,.T.);
#59=FACE_BOUND('',#261,.T.);
#60=FACE_BOUND('',#262,.T.);
#61=FACE_BOUND('',#263,.T.);
#62=FACE_BOUND('',#264,.T.);
#63=FACE_BOUND('',#265,.T.);
#64=FACE_BOUND('',#266,.T.);
#65=FACE_BOUND('',#267,.T.);
#66=FACE_BOUND('',#268,.T.);
#67=FACE_BOUND('',#269,.T.);
#68=FACE_BOUND('',#270,.T.);
#69=FACE_BOUND('',#271,.T.);
#70=FACE_BOUND('',#272,.T.);
#71=FACE_BOUND('',#273,.T.);
#72=FACE_BOUND('',#279,.T.);
#73=FACE_BOUND('',#280,.T.);
#74=FACE_BOUND('',#281,.T.);
#75=FACE_BOUND('',#282,.T.);
#76=FACE_BOUND('',#283,.T.);
#77=FACE_BOUND('',#284,.T.);
#78=FACE_BOUND('',#285,.T.);
#79=FACE_BOUND('',#286,.T.);
#80=FACE_BOUND('',#287,.T.);
#81=FACE_BOUND('',#288,.T.);
#82=FACE_BOUND('',#289,.T.);
#83=FACE_BOUND('',#290,.T.);
#84=FACE_BOUND('',#291,.T.);
#85=FACE_BOUND('',#299,.T.);
#86=FACE_BOUND('',#308,.T.);
#87=FACE_BOUND('',#309,.T.);
#88=FACE_BOUND('',#310,.T.);
#89=FACE_BOUND('',#311,.T.);
#90=FACE_BOUND('',#312,.T.);
#91=FACE_BOUND('',#313,.T.);
#92=FACE_BOUND('',#314,.T.);
#93=FACE_BOUND('',#315,.T.);
#94=FACE_BOUND('',#316,.T.);
#95=FACE_BOUND('',#317,.T.);
#96=FACE_BOUND('',#318,.T.);
#97=FACE_BOUND('',#319,.T.);
#98=FACE_BOUND('',#320,.T.);
#99=PLANE('',#1287);
#100=PLANE('',#1318);
#101=PLANE('',#1406);
#102=PLANE('',#1407);
#103=PLANE('',#1413);
#104=PLANE('',#1416);
#105=PLANE('',#1417);
#106=PLANE('',#1424);
#107=PLANE('',#1425);
#108=PLANE('',#1426);
#109=PLANE('',#1428);
#110=PLANE('',#1429);
#111=PLANE('',#1434);
#112=PLANE('',#1435);
#113=PLANE('',#1436);
#114=PLANE('',#1437);
#115=PLANE('',#1438);
#116=PLANE('',#1440);
#117=PLANE('',#1443);
#118=FACE_OUTER_BOUND('',#182,.T.);
#119=FACE_OUTER_BOUND('',#183,.T.);
#120=FACE_OUTER_BOUND('',#209,.T.);
#121=FACE_OUTER_BOUND('',#210,.T.);
#122=FACE_OUTER_BOUND('',#211,.T.);
#123=FACE_OUTER_BOUND('',#212,.T.);
#124=FACE_OUTER_BOUND('',#213,.T.);
#125=FACE_OUTER_BOUND('',#214,.T.);
#126=FACE_OUTER_BOUND('',#215,.T.);
#127=FACE_OUTER_BOUND('',#216,.T.);
#128=FACE_OUTER_BOUND('',#217,.T.);
#129=FACE_OUTER_BOUND('',#218,.T.);
#130=FACE_OUTER_BOUND('',#219,.T.);
#131=FACE_OUTER_BOUND('',#220,.T.);
#132=FACE_OUTER_BOUND('',#221,.T.);
#133=FACE_OUTER_BOUND('',#222,.T.);
#134=FACE_OUTER_BOUND('',#223,.T.);
#135=FACE_OUTER_BOUND('',#224,.T.);
#136=FACE_OUTER_BOUND('',#225,.T.);
#137=FACE_OUTER_BOUND('',#226,.T.);
#138=FACE_OUTER_BOUND('',#227,.T.);
#139=FACE_OUTER_BOUND('',#228,.T.);
#140=FACE_OUTER_BOUND('',#229,.T.);
#141=FACE_OUTER_BOUND('',#230,.T.);
#142=FACE_OUTER_BOUND('',#231,.T.);
#143=FACE_OUTER_BOUND('',#232,.T.);
#144=FACE_OUTER_BOUND('',#233,.T.);
#145=FACE_OUTER_BOUND('',#234,.T.);
#146=FACE_OUTER_BOUND('',#235,.T.);
#147=FACE_OUTER_BOUND('',#236,.T.);
#148=FACE_OUTER_BOUND('',#237,.T.);
#149=FACE_OUTER_BOUND('',#238,.T.);
#150=FACE_OUTER_BOUND('',#239,.T.);
#151=FACE_OUTER_BOUND('',#240,.T.);
#152=FACE_OUTER_BOUND('',#241,.T.);
#153=FACE_OUTER_BOUND('',#242,.T.);
#154=FACE_OUTER_BOUND('',#243,.T.);
#155=FACE_OUTER_BOUND('',#244,.T.);
#156=FACE_OUTER_BOUND('',#245,.T.);
#157=FACE_OUTER_BOUND('',#246,.T.);
#158=FACE_OUTER_BOUND('',#247,.T.);
#159=FACE_OUTER_BOUND('',#248,.T.);
#160=FACE_OUTER_BOUND('',#274,.T.);
#161=FACE_OUTER_BOUND('',#275,.T.);
#162=FACE_OUTER_BOUND('',#276,.T.);
#163=FACE_OUTER_BOUND('',#277,.T.);
#164=FACE_OUTER_BOUND('',#278,.T.);
#165=FACE_OUTER_BOUND('',#292,.T.);
#166=FACE_OUTER_BOUND('',#293,.T.);
#167=FACE_OUTER_BOUND('',#294,.T.);
#168=FACE_OUTER_BOUND('',#295,.T.);
#169=FACE_OUTER_BOUND('',#296,.T.);
#170=FACE_OUTER_BOUND('',#297,.T.);
#171=FACE_OUTER_BOUND('',#298,.T.);
#172=FACE_OUTER_BOUND('',#300,.T.);
#173=FACE_OUTER_BOUND('',#301,.T.);
#174=FACE_OUTER_BOUND('',#302,.T.);
#175=FACE_OUTER_BOUND('',#303,.T.);
#176=FACE_OUTER_BOUND('',#304,.T.);
#177=FACE_OUTER_BOUND('',#305,.T.);
#178=FACE_OUTER_BOUND('',#306,.T.);
#179=FACE_OUTER_BOUND('',#307,.T.);
#180=FACE_OUTER_BOUND('',#321,.T.);
#181=FACE_OUTER_BOUND('',#322,.T.);
#182=EDGE_LOOP('',(#827,#828,#829,#830));
#183=EDGE_LOOP('',(#831));
#184=EDGE_LOOP('',(#832));
#185=EDGE_LOOP('',(#833));
#186=EDGE_LOOP('',(#834));
#187=EDGE_LOOP('',(#835));
#188=EDGE_LOOP('',(#836));
#189=EDGE_LOOP('',(#837));
#190=EDGE_LOOP('',(#838));
#191=EDGE_LOOP('',(#839));
#192=EDGE_LOOP('',(#840));
#193=EDGE_LOOP('',(#841));
#194=EDGE_LOOP('',(#842));
#195=EDGE_LOOP('',(#843));
#196=EDGE_LOOP('',(#844));
#197=EDGE_LOOP('',(#845));
#198=EDGE_LOOP('',(#846));
#199=EDGE_LOOP('',(#847));
#200=EDGE_LOOP('',(#848));
#201=EDGE_LOOP('',(#849));
#202=EDGE_LOOP('',(#850));
#203=EDGE_LOOP('',(#851));
#204=EDGE_LOOP('',(#852));
#205=EDGE_LOOP('',(#853));
#206=EDGE_LOOP('',(#854));
#207=EDGE_LOOP('',(#855));
#208=EDGE_LOOP('',(#856));
#209=EDGE_LOOP('',(#857,#858,#859,#860,#861,#862));
#210=EDGE_LOOP('',(#863,#864,#865,#866,#867));
#211=EDGE_LOOP('',(#868,#869,#870,#871));
#212=EDGE_LOOP('',(#872,#873,#874,#875));
#213=EDGE_LOOP('',(#876,#877,#878,#879));
#214=EDGE_LOOP('',(#880,#881,#882,#883));
#215=EDGE_LOOP('',(#884,#885,#886,#887));
#216=EDGE_LOOP('',(#888,#889,#890,#891));
#217=EDGE_LOOP('',(#892,#893,#894,#895));
#218=EDGE_LOOP('',(#896,#897,#898,#899));
#219=EDGE_LOOP('',(#900,#901,#902,#903));
#220=EDGE_LOOP('',(#904,#905,#906,#907));
#221=EDGE_LOOP('',(#908,#909,#910,#911));
#222=EDGE_LOOP('',(#912,#913,#914,#915));
#223=EDGE_LOOP('',(#916,#917,#918,#919));
#224=EDGE_LOOP('',(#920,#921,#922,#923));
#225=EDGE_LOOP('',(#924,#925,#926,#927));
#226=EDGE_LOOP('',(#928,#929,#930,#931));
#227=EDGE_LOOP('',(#932,#933,#934,#935));
#228=EDGE_LOOP('',(#936,#937,#938,#939));
#229=EDGE_LOOP('',(#940,#941,#942,#943));
#230=EDGE_LOOP('',(#944,#945,#946,#947));
#231=EDGE_LOOP('',(#948,#949,#950,#951));
#232=EDGE_LOOP('',(#952,#953,#954,#955));
#233=EDGE_LOOP('',(#956,#957,#958,#959));
#234=EDGE_LOOP('',(#960,#961,#962,#963));
#235=EDGE_LOOP('',(#964,#965,#966,#967));
#236=EDGE_LOOP('',(#968,#969,#970,#971));
#237=EDGE_LOOP('',(#972,#973,#974,#975));
#238=EDGE_LOOP('',(#976,#977,#978,#979));
#239=EDGE_LOOP('',(#980,#981,#982,#983));
#240=EDGE_LOOP('',(#984,#985,#986,#987));
#241=EDGE_LOOP('',(#988,#989,#990,#991));
#242=EDGE_LOOP('',(#992,#993,#994,#995));
#243=EDGE_LOOP('',(#996,#997,#998,#999));
#244=EDGE_LOOP('',(#1000,#1001,#1002,#1003));
#245=EDGE_LOOP('',(#1004,#1005,#1006,#1007));
#246=EDGE_LOOP('',(#1008,#1009,#1010,#1011));
#247=EDGE_LOOP('',(#1012,#1013,#1014,#1015));
#248=EDGE_LOOP('',(#1016));
#249=EDGE_LOOP('',(#1017));
#250=EDGE_LOOP('',(#1018));
#251=EDGE_LOOP('',(#1019));
#252=EDGE_LOOP('',(#1020));
#253=EDGE_LOOP('',(#1021));
#254=EDGE_LOOP('',(#1022));
#255=EDGE_LOOP('',(#1023));
#256=EDGE_LOOP('',(#1024));
#257=EDGE_LOOP('',(#1025));
#258=EDGE_LOOP('',(#1026));
#259=EDGE_LOOP('',(#1027));
#260=EDGE_LOOP('',(#1028));
#261=EDGE_LOOP('',(#1029));
#262=EDGE_LOOP('',(#1030));
#263=EDGE_LOOP('',(#1031));
#264=EDGE_LOOP('',(#1032));
#265=EDGE_LOOP('',(#1033));
#266=EDGE_LOOP('',(#1034));
#267=EDGE_LOOP('',(#1035));
#268=EDGE_LOOP('',(#1036));
#269=EDGE_LOOP('',(#1037));
#270=EDGE_LOOP('',(#1038));
#271=EDGE_LOOP('',(#1039));
#272=EDGE_LOOP('',(#1040));
#273=EDGE_LOOP('',(#1041));
#274=EDGE_LOOP('',(#1042,#1043,#1044,#1045,#1046));
#275=EDGE_LOOP('',(#1047,#1048,#1049,#1050,#1051,#1052));
#276=EDGE_LOOP('',(#1053,#1054,#1055,#1056,#1057,#1058,#1059,#1060,#1061));
#277=EDGE_LOOP('',(#1062,#1063,#1064,#1065,#1066));
#278=EDGE_LOOP('',(#1067));
#279=EDGE_LOOP('',(#1068));
#280=EDGE_LOOP('',(#1069));
#281=EDGE_LOOP('',(#1070));
#282=EDGE_LOOP('',(#1071));
#283=EDGE_LOOP('',(#1072));
#284=EDGE_LOOP('',(#1073));
#285=EDGE_LOOP('',(#1074));
#286=EDGE_LOOP('',(#1075));
#287=EDGE_LOOP('',(#1076));
#288=EDGE_LOOP('',(#1077));
#289=EDGE_LOOP('',(#1078));
#290=EDGE_LOOP('',(#1079));
#291=EDGE_LOOP('',(#1080));
#292=EDGE_LOOP('',(#1081,#1082,#1083,#1084,#1085,#1086));
#293=EDGE_LOOP('',(#1087,#1088,#1089,#1090));
#294=EDGE_LOOP('',(#1091,#1092,#1093,#1094,#1095,#1096));
#295=EDGE_LOOP('',(#1097,#1098,#1099,#1100));
#296=EDGE_LOOP('',(#1101,#1102,#1103,#1104));
#297=EDGE_LOOP('',(#1105,#1106,#1107,#1108));
#298=EDGE_LOOP('',(#1109,#1110));
#299=EDGE_LOOP('',(#1111));
#300=EDGE_LOOP('',(#1112,#1113));
#301=EDGE_LOOP('',(#1114,#1115,#1116,#1117));
#302=EDGE_LOOP('',(#1118,#1119,#1120,#1121));
#303=EDGE_LOOP('',(#1122,#1123,#1124,#1125));
#304=EDGE_LOOP('',(#1126,#1127,#1128,#1129));
#305=EDGE_LOOP('',(#1130,#1131,#1132,#1133,#1134,#1135));
#306=EDGE_LOOP('',(#1136,#1137,#1138,#1139));
#307=EDGE_LOOP('',(#1140,#1141));
#308=EDGE_LOOP('',(#1142));
#309=EDGE_LOOP('',(#1143));
#310=EDGE_LOOP('',(#1144));
#311=EDGE_LOOP('',(#1145));
#312=EDGE_LOOP('',(#1146));
#313=EDGE_LOOP('',(#1147));
#314=EDGE_LOOP('',(#1148));
#315=EDGE_LOOP('',(#1149));
#316=EDGE_LOOP('',(#1150));
#317=EDGE_LOOP('',(#1151));
#318=EDGE_LOOP('',(#1152));
#319=EDGE_LOOP('',(#1153));
#320=EDGE_LOOP('',(#1154));
#321=EDGE_LOOP('',(#1155,#1156));
#322=EDGE_LOOP('',(#1157,#1158,#1159,#1160));
#323=LINE('',#1842,#394);
#324=LINE('',#1899,#395);
#325=LINE('',#1907,#396);
#326=LINE('',#1910,#397);
#327=LINE('',#1914,#398);
#328=LINE('',#1917,#399);
#329=LINE('',#1921,#400);
#330=LINE('',#1925,#401);
#331=LINE('',#1929,#402);
#332=LINE('',#1933,#403);
#333=LINE('',#1937,#404);
#334=LINE('',#1941,#405);
#335=LINE('',#1945,#406);
#336=LINE('',#1949,#407);
#337=LINE('',#1953,#408);
#338=LINE('',#1957,#409);
#339=LINE('',#1961,#410);
#340=LINE('',#1965,#411);
#341=LINE('',#1969,#412);
#342=LINE('',#1973,#413);
#343=LINE('',#1977,#414);
#344=LINE('',#1981,#415);
#345=LINE('',#1985,#416);
#346=LINE('',#1989,#417);
#347=LINE('',#1993,#418);
#348=LINE('',#1997,#419);
#349=LINE('',#2001,#420);
#350=LINE('',#2005,#421);
#351=LINE('',#2009,#422);
#352=LINE('',#2015,#423);
#353=LINE('',#2021,#424);
#354=LINE('',#2027,#425);
#355=LINE('',#2033,#426);
#356=LINE('',#2039,#427);
#357=LINE('',#2045,#428);
#358=LINE('',#2051,#429);
#359=LINE('',#2057,#430);
#360=LINE('',#2063,#431);
#361=LINE('',#2069,#432);
#362=LINE('',#2075,#433);
#363=LINE('',#2081,#434);
#364=LINE('',#2087,#435);
#365=LINE('',#2089,#436);
#366=LINE('',#2091,#437);
#367=LINE('',#2093,#438);
#368=LINE('',#2094,#439);
#369=LINE('',#2099,#440);
#370=LINE('',#2111,#441);
#371=LINE('',#2113,#442);
#372=LINE('',#2114,#443);
#373=LINE('',#2115,#444);
#374=LINE('',#2118,#445);
#375=LINE('',#2120,#446);
#376=LINE('',#2121,#447);
#377=LINE('',#2129,#448);
#378=LINE('',#2132,#449);
#379=LINE('',#2136,#450);
#380=LINE('',#2138,#451);
#381=LINE('',#2139,#452);
#382=LINE('',#2142,#453);
#383=LINE('',#2144,#454);
#384=LINE('',#2145,#455);
#385=LINE('',#2150,#456);
#386=LINE('',#2151,#457);
#387=LINE('',#2153,#458);
#388=LINE('',#2154,#459);
#389=LINE('',#2161,#460);
#390=LINE('',#2162,#461);
#391=LINE('',#2164,#462);
#392=LINE('',#2165,#463);
#393=LINE('',#2167,#464);
#394=VECTOR('',#1450,135.);
#395=VECTOR('',#1509,130.);
#396=VECTOR('',#1518,10.);
#397=VECTOR('',#1521,10.);
#398=VECTOR('',#1526,102.5);
#399=VECTOR('',#1529,5.);
#400=VECTOR('',#1534,5.);
#401=VECTOR('',#1539,5.);
#402=VECTOR('',#1544,5.);
#403=VECTOR('',#1549,5.);
#404=VECTOR('',#1554,5.);
#405=VECTOR('',#1559,5.);
#406=VECTOR('',#1564,5.);
#407=VECTOR('',#1569,5.);
#408=VECTOR('',#1574,5.);
#409=VECTOR('',#1579,5.);
#410=VECTOR('',#1584,5.);
#411=VECTOR('',#1589,5.);
#412=VECTOR('',#1594,5.);
#413=VECTOR('',#1599,5.);
#414=VECTOR('',#1604,5.);
#415=VECTOR('',#1609,5.);
#416=VECTOR('',#1614,5.);
#417=VECTOR('',#1619,5.);
#418=VECTOR('',#1624,5.);
#419=VECTOR('',#1629,5.);
#420=VECTOR('',#1634,5.);
#421=VECTOR('',#1639,5.);
#422=VECTOR('',#1644,5.);
#423=VECTOR('',#1651,8.);
#424=VECTOR('',#1658,8.);
#425=VECTOR('',#1665,8.);
#426=VECTOR('',#1672,8.);
#427=VECTOR('',#1679,8.);
#428=VECTOR('',#1686,8.);
#429=VECTOR('',#1693,8.);
#430=VECTOR('',#1700,8.);
#431=VECTOR('',#1707,8.);
#432=VECTOR('',#1714,8.);
#433=VECTOR('',#1721,8.);
#434=VECTOR('',#1728,8.);
#435=VECTOR('',#1735,10.);
#436=VECTOR('',#1736,10.);
#437=VECTOR('',#1737,10.);
#438=VECTOR('',#1738,10.);
#439=VECTOR('',#1739,10.);
#440=VECTOR('',#1744,10.);
#441=VECTOR('',#1757,10.);
#442=VECTOR('',#1758,10.);
#443=VECTOR('',#1759,10.);
#444=VECTOR('',#1760,10.);
#445=VECTOR('',#1763,10.);
#446=VECTOR('',#1764,10.);
#447=VECTOR('',#1765,10.);
#448=VECTOR('',#1776,125.);
#449=VECTOR('',#1779,50.);
#450=VECTOR('',#1784,10.);
#451=VECTOR('',#1785,10.);
#452=VECTOR('',#1786,10.);
#453=VECTOR('',#1789,10.);
#454=VECTOR('',#1790,10.);
#455=VECTOR('',#1791,10.);
#456=VECTOR('',#1796,10.);
#457=VECTOR('',#1797,10.);
#458=VECTOR('',#1800,10.);
#459=VECTOR('',#1801,10.);
#460=VECTOR('',#1814,10.);
#461=VECTOR('',#1815,10.);
#462=VECTOR('',#1818,10.);
#463=VECTOR('',#1819,10.);
#464=VECTOR('',#1822,10.);
#465=CIRCLE('',#1285,135.);
#466=CIRCLE('',#1286,135.);
#467=CIRCLE('',#1288,5.);
#468=CIRCLE('',#1289,5.);
#469=CIRCLE('',#1290,5.);
#470=CIRCLE('',#1291,5.);
#471=CIRCLE('',#1292,5.);
#472=CIRCLE('',#1293,5.);
#473=CIRCLE('',#1294,5.);
#474=CIRCLE('',#1295,5.);
#475=CIRCLE('',#1296,5.);
#476=CIRCLE('',#1297,5.);
#477=CIRCLE('',#1298,5.);
#478=CIRCLE('',#1299,5.);
#479=CIRCLE('',#1300,5.);
#480=CIRCLE('',#1301,5.);
#481=CIRCLE('',#1302,5.);
#482=CIRCLE('',#1303,5.);
#483=CIRCLE('',#1304,5.);
#484=CIRCLE('',#1305,5.);
#485=CIRCLE('',#1306,5.);
#486=CIRCLE('',#1307,5.);
#487=CIRCLE('',#1308,5.);
#488=CIRCLE('',#1309,5.);
#489=CIRCLE('',#1310,5.);
#490=CIRCLE('',#1311,5.);
#491=CIRCLE('',#1312,102.5);
#492=CIRCLE('',#1314,130.);
#493=CIRCLE('',#1315,130.);
#494=CIRCLE('',#1317,130.);
#495=CIRCLE('',#1319,150.);
#496=CIRCLE('',#1321,102.5);
#497=CIRCLE('',#1323,5.);
#498=CIRCLE('',#1325,5.);
#499=CIRCLE('',#1327,5.);
#500=CIRCLE('',#1329,5.);
#501=CIRCLE('',#1331,5.);
#502=CIRCLE('',#1333,5.);
#503=CIRCLE('',#1335,5.);
#504=CIRCLE('',#1337,5.);
#505=CIRCLE('',#1339,5.);
#506=CIRCLE('',#1341,5.);
#507=CIRCLE('',#1343,5.);
#508=CIRCLE('',#1345,5.);
#509=CIRCLE('',#1347,5.);
#510=CIRCLE('',#1349,5.);
#511=CIRCLE('',#1351,5.);
#512=CIRCLE('',#1353,5.);
#513=CIRCLE('',#1355,5.);
#514=CIRCLE('',#1357,5.);
#515=CIRCLE('',#1359,5.);
#516=CIRCLE('',#1361,5.);
#517=CIRCLE('',#1363,5.);
#518=CIRCLE('',#1365,5.);
#519=CIRCLE('',#1367,5.);
#520=CIRCLE('',#1369,5.);
#521=CIRCLE('',#1371,8.);
#522=CIRCLE('',#1372,8.);
#523=CIRCLE('',#1374,8.);
#524=CIRCLE('',#1375,8.);
#525=CIRCLE('',#1377,8.);
#526=CIRCLE('',#1378,8.);
#527=CIRCLE('',#1380,8.);
#528=CIRCLE('',#1381,8.);
#529=CIRCLE('',#1383,8.);
#530=CIRCLE('',#1384,8.);
#531=CIRCLE('',#1386,8.);
#532=CIRCLE('',#1387,8.);
#533=CIRCLE('',#1389,8.);
#534=CIRCLE('',#1390,8.);
#535=CIRCLE('',#1392,8.);
#536=CIRCLE('',#1393,8.);
#537=CIRCLE('',#1395,8.);
#538=CIRCLE('',#1396,8.);
#539=CIRCLE('',#1398,8.);
#540=CIRCLE('',#1399,8.);
#541=CIRCLE('',#1401,8.);
#542=CIRCLE('',#1402,8.);
#543=CIRCLE('',#1404,8.);
#544=CIRCLE('',#1405,8.);
#545=CIRCLE('',#1409,150.);
#546=CIRCLE('',#1411,150.);
#547=CIRCLE('',#1418,125.);
#548=CIRCLE('',#1419,50.);
#549=CIRCLE('',#1421,125.);
#550=CIRCLE('',#1423,50.);
#551=CIRCLE('',#1430,150.);
#552=CIRCLE('',#1431,150.);
#553=CIRCLE('',#1441,150.);
#554=VERTEX_POINT('',#1839);
#555=VERTEX_POINT('',#1841);
#556=VERTEX_POINT('',#1845);
#557=VERTEX_POINT('',#1847);
#558=VERTEX_POINT('',#1849);
#559=VERTEX_POINT('',#1851);
#560=VERTEX_POINT('',#1853);
#561=VERTEX_POINT('',#1855);
#562=VERTEX_POINT('',#1857);
#563=VERTEX_POINT('',#1859);
#564=VERTEX_POINT('',#1861);
#565=VERTEX_POINT('',#1863);
#566=VERTEX_POINT('',#1865);
#567=VERTEX_POINT('',#1867);
#568=VERTEX_POINT('',#1869);
#569=VERTEX_POINT('',#1871);
#570=VERTEX_POINT('',#1873);
#571=VERTEX_POINT('',#1875);
#572=VERTEX_POINT('',#1877);
#573=VERTEX_POINT('',#1879);
#574=VERTEX_POINT('',#1881);
#575=VERTEX_POINT('',#1883);
#576=VERTEX_POINT('',#1885);
#577=VERTEX_POINT('',#1887);
#578=VERTEX_POINT('',#1889);
#579=VERTEX_POINT('',#1891);
#580=VERTEX_POINT('',#1893);
#581=VERTEX_POINT('',#1896);
#582=VERTEX_POINT('',#1898);
#583=VERTEX_POINT('',#1900);
#584=VERTEX_POINT('',#1902);
#585=VERTEX_POINT('',#1906);
#586=VERTEX_POINT('',#1908);
#587=VERTEX_POINT('',#1912);
#588=VERTEX_POINT('',#1916);
#589=VERTEX_POINT('',#1920);
#590=VERTEX_POINT('',#1924);
#591=VERTEX_POINT('',#1928);
#592=VERTEX_POINT('',#1932);
#593=VERTEX_POINT('',#1936);
#594=VERTEX_POINT('',#1940);
#595=VERTEX_POINT('',#1944);
#596=VERTEX_POINT('',#1948);
#597=VERTEX_POINT('',#1952);
#598=VERTEX_POINT('',#1956);
#599=VERTEX_POINT('',#1960);
#600=VERTEX_POINT('',#1964);
#601=VERTEX_POINT('',#1968);
#602=VERTEX_POINT('',#1972);
#603=VERTEX_POINT('',#1976);
#604=VERTEX_POINT('',#1980);
#605=VERTEX_POINT('',#1984);
#606=VERTEX_POINT('',#1988);
#607=VERTEX_POINT('',#1992);
#608=VERTEX_POINT('',#1996);
#609=VERTEX_POINT('',#2000);
#610=VERTEX_POINT('',#2004);
#611=VERTEX_POINT('',#2008);
#612=VERTEX_POINT('',#2012);
#613=VERTEX_POINT('',#2014);
#614=VERTEX_POINT('',#2018);
#615=VERTEX_POINT('',#2020);
#616=VERTEX_POINT('',#2024);
#617=VERTEX_POINT('',#2026);
#618=VERTEX_POINT('',#2030);
#619=VERTEX_POINT('',#2032);
#620=VERTEX_POINT('',#2036);
#621=VERTEX_POINT('',#2038);
#622=VERTEX_POINT('',#2042);
#623=VERTEX_POINT('',#2044);
#624=VERTEX_POINT('',#2048);
#625=VERTEX_POINT('',#2050);
#626=VERTEX_POINT('',#2054);
#627=VERTEX_POINT('',#2056);
#628=VERTEX_POINT('',#2060);
#629=VERTEX_POINT('',#2062);
#630=VERTEX_POINT('',#2066);
#631=VERTEX_POINT('',#2068);
#632=VERTEX_POINT('',#2072);
#633=VERTEX_POINT('',#2074);
#634=VERTEX_POINT('',#2078);
#635=VERTEX_POINT('',#2080);
#636=VERTEX_POINT('',#2085);
#637=VERTEX_POINT('',#2086);
#638=VERTEX_POINT('',#2088);
#639=VERTEX_POINT('',#2090);
#640=VERTEX_POINT('',#2092);
#641=VERTEX_POINT('',#2096);
#642=VERTEX_POINT('',#2098);
#643=VERTEX_POINT('',#2100);
#644=VERTEX_POINT('',#2102);
#645=VERTEX_POINT('',#2106);
#646=VERTEX_POINT('',#2107);
#647=VERTEX_POINT('',#2109);
#648=VERTEX_POINT('',#2112);
#649=VERTEX_POINT('',#2117);
#650=VERTEX_POINT('',#2119);
#651=VERTEX_POINT('',#2123);
#652=VERTEX_POINT('',#2125);
#653=VERTEX_POINT('',#2131);
#654=VERTEX_POINT('',#2135);
#655=VERTEX_POINT('',#2137);
#656=VERTEX_POINT('',#2141);
#657=VERTEX_POINT('',#2143);
#658=VERTEX_POINT('',#2147);
#659=VERTEX_POINT('',#2149);
#660=EDGE_CURVE('',#554,#554,#465,.T.);
#661=EDGE_CURVE('',#554,#555,#323,.T.);
#662=EDGE_CURVE('',#555,#555,#466,.T.);
#663=EDGE_CURVE('',#556,#556,#467,.T.);
#664=EDGE_CURVE('',#557,#557,#468,.T.);
#665=EDGE_CURVE('',#558,#558,#469,.T.);
#666=EDGE_CURVE('',#559,#559,#470,.T.);
#667=EDGE_CURVE('',#560,#560,#471,.T.);
#668=EDGE_CURVE('',#561,#561,#472,.T.);
#669=EDGE_CURVE('',#562,#562,#473,.T.);
#670=EDGE_CURVE('',#563,#563,#474,.T.);
#671=EDGE_CURVE('',#564,#564,#475,.T.);
#672=EDGE_CURVE('',#565,#565,#476,.T.);
#673=EDGE_CURVE('',#566,#566,#477,.T.);
#674=EDGE_CURVE('',#567,#567,#478,.T.);
#675=EDGE_CURVE('',#568,#568,#479,.T.);
#676=EDGE_CURVE('',#569,#569,#480,.T.);
#677=EDGE_CURVE('',#570,#570,#481,.T.);
#678=EDGE_CURVE('',#571,#571,#482,.T.);
#679=EDGE_CURVE('',#572,#572,#483,.T.);
#680=EDGE_CURVE('',#573,#573,#484,.T.);
#681=EDGE_CURVE('',#574,#574,#485,.T.);
#682=EDGE_CURVE('',#575,#575,#486,.T.);
#683=EDGE_CURVE('',#576,#576,#487,.T.);
#684=EDGE_CURVE('',#577,#577,#488,.T.);
#685=EDGE_CURVE('',#578,#578,#489,.T.);
#686=EDGE_CURVE('',#579,#579,#490,.T.);
#687=EDGE_CURVE('',#580,#580,#491,.T.);
#688=EDGE_CURVE('',#581,#581,#492,.T.);
#689=EDGE_CURVE('',#581,#582,#324,.T.);
#690=EDGE_CURVE('',#583,#582,#493,.T.);
#691=EDGE_CURVE('',#584,#583,#15,.T.);
#692=EDGE_CURVE('',#582,#584,#494,.T.);
#693=EDGE_CURVE('',#585,#584,#325,.T.);
#694=EDGE_CURVE('',#586,#585,#495,.T.);
#695=EDGE_CURVE('',#583,#586,#326,.T.);
#696=EDGE_CURVE('',#587,#587,#496,.T.);
#697=EDGE_CURVE('',#587,#580,#327,.T.);
#698=EDGE_CURVE('',#579,#588,#328,.T.);
#699=EDGE_CURVE('',#588,#588,#497,.T.);
#700=EDGE_CURVE('',#578,#589,#329,.T.);
#701=EDGE_CURVE('',#589,#589,#498,.T.);
#702=EDGE_CURVE('',#577,#590,#330,.T.);
#703=EDGE_CURVE('',#590,#590,#499,.T.);
#704=EDGE_CURVE('',#576,#591,#331,.T.);
#705=EDGE_CURVE('',#591,#591,#500,.T.);
#706=EDGE_CURVE('',#575,#592,#332,.T.);
#707=EDGE_CURVE('',#592,#592,#501,.T.);
#708=EDGE_CURVE('',#574,#593,#333,.T.);
#709=EDGE_CURVE('',#593,#593,#502,.T.);
#710=EDGE_CURVE('',#573,#594,#334,.T.);
#711=EDGE_CURVE('',#594,#594,#503,.T.);
#712=EDGE_CURVE('',#572,#595,#335,.T.);
#713=EDGE_CURVE('',#595,#595,#504,.T.);
#714=EDGE_CURVE('',#571,#596,#336,.T.);
#715=EDGE_CURVE('',#596,#596,#505,.T.);
#716=EDGE_CURVE('',#570,#597,#337,.T.);
#717=EDGE_CURVE('',#597,#597,#506,.T.);
#718=EDGE_CURVE('',#569,#598,#338,.T.);
#719=EDGE_CURVE('',#598,#598,#507,.T.);
#720=EDGE_CURVE('',#568,#599,#339,.T.);
#721=EDGE_CURVE('',#599,#599,#508,.T.);
#722=EDGE_CURVE('',#567,#600,#340,.T.);
#723=EDGE_CURVE('',#600,#600,#509,.T.);
#724=EDGE_CURVE('',#566,#601,#341,.T.);
#725=EDGE_CURVE('',#601,#601,#510,.T.);
#726=EDGE_CURVE('',#565,#602,#342,.T.);
#727=EDGE_CURVE('',#602,#602,#511,.T.);
#728=EDGE_CURVE('',#564,#603,#343,.T.);
#729=EDGE_CURVE('',#603,#603,#512,.T.);
#730=EDGE_CURVE('',#563,#604,#344,.T.);
#731=EDGE_CURVE('',#604,#604,#513,.T.);
#732=EDGE_CURVE('',#562,#605,#345,.T.);
#733=EDGE_CURVE('',#605,#605,#514,.T.);
#734=EDGE_CURVE('',#561,#606,#346,.T.);
#735=EDGE_CURVE('',#606,#606,#515,.T.);
#736=EDGE_CURVE('',#560,#607,#347,.T.);
#737=EDGE_CURVE('',#607,#607,#516,.T.);
#738=EDGE_CURVE('',#559,#608,#348,.T.);
#739=EDGE_CURVE('',#608,#608,#517,.T.);
#740=EDGE_CURVE('',#558,#609,#349,.T.);
#741=EDGE_CURVE('',#609,#609,#518,.T.);
#742=EDGE_CURVE('',#557,#610,#350,.T.);
#743=EDGE_CURVE('',#610,#610,#519,.T.);
#744=EDGE_CURVE('',#556,#611,#351,.T.);
#745=EDGE_CURVE('',#611,#611,#520,.T.);
#746=EDGE_CURVE('',#612,#612,#521,.T.);
#747=EDGE_CURVE('',#612,#613,#352,.T.);
#748=EDGE_CURVE('',#613,#613,#522,.T.);
#749=EDGE_CURVE('',#614,#614,#523,.T.);
#750=EDGE_CURVE('',#614,#615,#353,.T.);
#751=EDGE_CURVE('',#615,#615,#524,.T.);
#752=EDGE_CURVE('',#616,#616,#525,.T.);
#753=EDGE_CURVE('',#616,#617,#354,.T.);
#754=EDGE_CURVE('',#617,#617,#526,.T.);
#755=EDGE_CURVE('',#618,#618,#527,.T.);
#756=EDGE_CURVE('',#618,#619,#355,.T.);
#757=EDGE_CURVE('',#619,#619,#528,.T.);
#758=EDGE_CURVE('',#620,#620,#529,.T.);
#759=EDGE_CURVE('',#620,#621,#356,.T.);
#760=EDGE_CURVE('',#621,#621,#530,.T.);
#761=EDGE_CURVE('',#622,#622,#531,.T.);
#762=EDGE_CURVE('',#622,#623,#357,.T.);
#763=EDGE_CURVE('',#623,#623,#532,.T.);
#764=EDGE_CURVE('',#624,#624,#533,.T.);
#765=EDGE_CURVE('',#624,#625,#358,.T.);
#766=EDGE_CURVE('',#625,#625,#534,.T.);
#767=EDGE_CURVE('',#626,#626,#535,.T.);
#768=EDGE_CURVE('',#626,#627,#359,.T.);
#769=EDGE_CURVE('',#627,#627,#536,.T.);
#770=EDGE_CURVE('',#628,#628,#537,.T.);
#771=EDGE_CURVE('',#628,#629,#360,.T.);
#772=EDGE_CURVE('',#629,#629,#538,.T.);
#773=EDGE_CURVE('',#630,#630,#539,.T.);
#774=EDGE_CURVE('',#630,#631,#361,.T.);
#775=EDGE_CURVE('',#631,#631,#540,.T.);
#776=EDGE_CURVE('',#632,#632,#541,.T.);
#777=EDGE_CURVE('',#632,#633,#362,.T.);
#778=EDGE_CURVE('',#633,#633,#542,.T.);
#779=EDGE_CURVE('',#634,#634,#543,.T.);
#780=EDGE_CURVE('',#634,#635,#363,.T.);
#781=EDGE_CURVE('',#635,#635,#544,.T.);
#782=EDGE_CURVE('',#636,#637,#364,.T.);
#783=EDGE_CURVE('',#636,#638,#365,.F.);
#784=EDGE_CURVE('',#639,#638,#366,.T.);
#785=EDGE_CURVE('',#640,#639,#367,.T.);
#786=EDGE_CURVE('',#637,#640,#368,.T.);
#787=EDGE_CURVE('',#637,#641,#545,.T.);
#788=EDGE_CURVE('',#641,#642,#369,.T.);
#789=EDGE_CURVE('',#643,#642,#16,.T.);
#790=EDGE_CURVE('',#644,#643,#546,.T.);
#791=EDGE_CURVE('',#636,#644,#17,.T.);
#792=EDGE_CURVE('',#645,#646,#18,.T.);
#793=EDGE_CURVE('',#646,#647,#19,.T.);
#794=EDGE_CURVE('',#643,#647,#370,.T.);
#795=EDGE_CURVE('',#642,#648,#371,.T.);
#796=EDGE_CURVE('',#638,#648,#372,.F.);
#797=EDGE_CURVE('',#645,#644,#373,.T.);
#798=EDGE_CURVE('',#641,#649,#374,.T.);
#799=EDGE_CURVE('',#650,#649,#375,.T.);
#800=EDGE_CURVE('',#650,#648,#376,.T.);
#801=EDGE_CURVE('',#651,#651,#547,.T.);
#802=EDGE_CURVE('',#652,#652,#548,.T.);
#803=EDGE_CURVE('',#647,#645,#549,.T.);
#804=EDGE_CURVE('',#646,#651,#377,.T.);
#805=EDGE_CURVE('',#652,#653,#378,.T.);
#806=EDGE_CURVE('',#653,#653,#550,.T.);
#807=EDGE_CURVE('',#586,#654,#379,.T.);
#808=EDGE_CURVE('',#654,#655,#380,.T.);
#809=EDGE_CURVE('',#585,#655,#381,.T.);
#810=EDGE_CURVE('',#656,#585,#382,.T.);
#811=EDGE_CURVE('',#655,#657,#383,.T.);
#812=EDGE_CURVE('',#656,#657,#384,.T.);
#813=EDGE_CURVE('',#658,#656,#20,.T.);
#814=EDGE_CURVE('',#657,#659,#385,.T.);
#815=EDGE_CURVE('',#658,#659,#386,.T.);
#816=EDGE_CURVE('',#586,#658,#387,.T.);
#817=EDGE_CURVE('',#659,#654,#388,.T.);
#818=EDGE_CURVE('',#658,#656,#551,.T.);
#819=EDGE_CURVE('',#656,#658,#552,.T.);
#820=EDGE_CURVE('',#639,#654,#389,.T.);
#821=EDGE_CURVE('',#640,#659,#390,.T.);
#822=EDGE_CURVE('',#649,#640,#391,.T.);
#823=EDGE_CURVE('',#649,#657,#392,.T.);
#824=EDGE_CURVE('',#650,#655,#393,.T.);
#825=EDGE_CURVE('',#637,#641,#21,.T.);
#826=EDGE_CURVE('',#641,#637,#553,.T.);
#827=ORIENTED_EDGE('',*,*,#660,.F.);
#828=ORIENTED_EDGE('',*,*,#661,.T.);
#829=ORIENTED_EDGE('',*,*,#662,.T.);
#830=ORIENTED_EDGE('',*,*,#661,.F.);
#831=ORIENTED_EDGE('',*,*,#662,.F.);
#832=ORIENTED_EDGE('',*,*,#663,.F.);
#833=ORIENTED_EDGE('',*,*,#664,.F.);
#834=ORIENTED_EDGE('',*,*,#665,.F.);
#835=ORIENTED_EDGE('',*,*,#666,.F.);
#836=ORIENTED_EDGE('',*,*,#667,.F.);
#837=ORIENTED_EDGE('',*,*,#668,.F.);
#838=ORIENTED_EDGE('',*,*,#669,.F.);
#839=ORIENTED_EDGE('',*,*,#670,.F.);
#840=ORIENTED_EDGE('',*,*,#671,.F.);
#841=ORIENTED_EDGE('',*,*,#672,.F.);
#842=ORIENTED_EDGE('',*,*,#673,.F.);
#843=ORIENTED_EDGE('',*,*,#674,.F.);
#844=ORIENTED_EDGE('',*,*,#675,.F.);
#845=ORIENTED_EDGE('',*,*,#676,.F.);
#846=ORIENTED_EDGE('',*,*,#677,.F.);
#847=ORIENTED_EDGE('',*,*,#678,.F.);
#848=ORIENTED_EDGE('',*,*,#679,.F.);
#849=ORIENTED_EDGE('',*,*,#680,.F.);
#850=ORIENTED_EDGE('',*,*,#681,.F.);
#851=ORIENTED_EDGE('',*,*,#682,.F.);
#852=ORIENTED_EDGE('',*,*,#683,.F.);
#853=ORIENTED_EDGE('',*,*,#684,.F.);
#854=ORIENTED_EDGE('',*,*,#685,.F.);
#855=ORIENTED_EDGE('',*,*,#686,.F.);
#856=ORIENTED_EDGE('',*,*,#687,.F.);
#857=ORIENTED_EDGE('',*,*,#688,.T.);
#858=ORIENTED_EDGE('',*,*,#689,.T.);
#859=ORIENTED_EDGE('',*,*,#690,.F.);
#860=ORIENTED_EDGE('',*,*,#691,.F.);
#861=ORIENTED_EDGE('',*,*,#692,.F.);
#862=ORIENTED_EDGE('',*,*,#689,.F.);
#863=ORIENTED_EDGE('',*,*,#690,.T.);
#864=ORIENTED_EDGE('',*,*,#692,.T.);
#865=ORIENTED_EDGE('',*,*,#693,.F.);
#866=ORIENTED_EDGE('',*,*,#694,.F.);
#867=ORIENTED_EDGE('',*,*,#695,.F.);
#868=ORIENTED_EDGE('',*,*,#696,.F.);
#869=ORIENTED_EDGE('',*,*,#697,.T.);
#870=ORIENTED_EDGE('',*,*,#687,.T.);
#871=ORIENTED_EDGE('',*,*,#697,.F.);
#872=ORIENTED_EDGE('',*,*,#686,.T.);
#873=ORIENTED_EDGE('',*,*,#698,.T.);
#874=ORIENTED_EDGE('',*,*,#699,.F.);
#875=ORIENTED_EDGE('',*,*,#698,.F.);
#876=ORIENTED_EDGE('',*,*,#685,.T.);
#877=ORIENTED_EDGE('',*,*,#700,.T.);
#878=ORIENTED_EDGE('',*,*,#701,.F.);
#879=ORIENTED_EDGE('',*,*,#700,.F.);
#880=ORIENTED_EDGE('',*,*,#684,.T.);
#881=ORIENTED_EDGE('',*,*,#702,.T.);
#882=ORIENTED_EDGE('',*,*,#703,.F.);
#883=ORIENTED_EDGE('',*,*,#702,.F.);
#884=ORIENTED_EDGE('',*,*,#683,.T.);
#885=ORIENTED_EDGE('',*,*,#704,.T.);
#886=ORIENTED_EDGE('',*,*,#705,.F.);
#887=ORIENTED_EDGE('',*,*,#704,.F.);
#888=ORIENTED_EDGE('',*,*,#682,.T.);
#889=ORIENTED_EDGE('',*,*,#706,.T.);
#890=ORIENTED_EDGE('',*,*,#707,.F.);
#891=ORIENTED_EDGE('',*,*,#706,.F.);
#892=ORIENTED_EDGE('',*,*,#681,.T.);
#893=ORIENTED_EDGE('',*,*,#708,.T.);
#894=ORIENTED_EDGE('',*,*,#709,.F.);
#895=ORIENTED_EDGE('',*,*,#708,.F.);
#896=ORIENTED_EDGE('',*,*,#680,.T.);
#897=ORIENTED_EDGE('',*,*,#710,.T.);
#898=ORIENTED_EDGE('',*,*,#711,.F.);
#899=ORIENTED_EDGE('',*,*,#710,.F.);
#900=ORIENTED_EDGE('',*,*,#679,.T.);
#901=ORIENTED_EDGE('',*,*,#712,.T.);
#902=ORIENTED_EDGE('',*,*,#713,.F.);
#903=ORIENTED_EDGE('',*,*,#712,.F.);
#904=ORIENTED_EDGE('',*,*,#678,.T.);
#905=ORIENTED_EDGE('',*,*,#714,.T.);
#906=ORIENTED_EDGE('',*,*,#715,.F.);
#907=ORIENTED_EDGE('',*,*,#714,.F.);
#908=ORIENTED_EDGE('',*,*,#677,.T.);
#909=ORIENTED_EDGE('',*,*,#716,.T.);
#910=ORIENTED_EDGE('',*,*,#717,.F.);
#911=ORIENTED_EDGE('',*,*,#716,.F.);
#912=ORIENTED_EDGE('',*,*,#676,.T.);
#913=ORIENTED_EDGE('',*,*,#718,.T.);
#914=ORIENTED_EDGE('',*,*,#719,.F.);
#915=ORIENTED_EDGE('',*,*,#718,.F.);
#916=ORIENTED_EDGE('',*,*,#675,.T.);
#917=ORIENTED_EDGE('',*,*,#720,.T.);
#918=ORIENTED_EDGE('',*,*,#721,.F.);
#919=ORIENTED_EDGE('',*,*,#720,.F.);
#920=ORIENTED_EDGE('',*,*,#674,.T.);
#921=ORIENTED_EDGE('',*,*,#722,.T.);
#922=ORIENTED_EDGE('',*,*,#723,.F.);
#923=ORIENTED_EDGE('',*,*,#722,.F.);
#924=ORIENTED_EDGE('',*,*,#673,.T.);
#925=ORIENTED_EDGE('',*,*,#724,.T.);
#926=ORIENTED_EDGE('',*,*,#725,.F.);
#927=ORIENTED_EDGE('',*,*,#724,.F.);
#928=ORIENTED_EDGE('',*,*,#672,.T.);
#929=ORIENTED_EDGE('',*,*,#726,.T.);
#930=ORIENTED_EDGE('',*,*,#727,.F.);
#931=ORIENTED_EDGE('',*,*,#726,.F.);
#932=ORIENTED_EDGE('',*,*,#671,.T.);
#933=ORIENTED_EDGE('',*,*,#728,.T.);
#934=ORIENTED_EDGE('',*,*,#729,.F.);
#935=ORIENTED_EDGE('',*,*,#728,.F.);
#936=ORIENTED_EDGE('',*,*,#670,.T.);
#937=ORIENTED_EDGE('',*,*,#730,.T.);
#938=ORIENTED_EDGE('',*,*,#731,.F.);
#939=ORIENTED_EDGE('',*,*,#730,.F.);
#940=ORIENTED_EDGE('',*,*,#669,.T.);
#941=ORIENTED_EDGE('',*,*,#732,.T.);
#942=ORIENTED_EDGE('',*,*,#733,.F.);
#943=ORIENTED_EDGE('',*,*,#732,.F.);
#944=ORIENTED_EDGE('',*,*,#668,.T.);
#945=ORIENTED_EDGE('',*,*,#734,.T.);
#946=ORIENTED_EDGE('',*,*,#735,.F.);
#947=ORIENTED_EDGE('',*,*,#734,.F.);
#948=ORIENTED_EDGE('',*,*,#667,.T.);
#949=ORIENTED_EDGE('',*,*,#736,.T.);
#950=ORIENTED_EDGE('',*,*,#737,.F.);
#951=ORIENTED_EDGE('',*,*,#736,.F.);
#952=ORIENTED_EDGE('',*,*,#666,.T.);
#953=ORIENTED_EDGE('',*,*,#738,.T.);
#954=ORIENTED_EDGE('',*,*,#739,.F.);
#955=ORIENTED_EDGE('',*,*,#738,.F.);
#956=ORIENTED_EDGE('',*,*,#665,.T.);
#957=ORIENTED_EDGE('',*,*,#740,.T.);
#958=ORIENTED_EDGE('',*,*,#741,.F.);
#959=ORIENTED_EDGE('',*,*,#740,.F.);
#960=ORIENTED_EDGE('',*,*,#664,.T.);
#961=ORIENTED_EDGE('',*,*,#742,.T.);
#962=ORIENTED_EDGE('',*,*,#743,.F.);
#963=ORIENTED_EDGE('',*,*,#742,.F.);
#964=ORIENTED_EDGE('',*,*,#663,.T.);
#965=ORIENTED_EDGE('',*,*,#744,.T.);
#966=ORIENTED_EDGE('',*,*,#745,.F.);
#967=ORIENTED_EDGE('',*,*,#744,.F.);
#968=ORIENTED_EDGE('',*,*,#746,.F.);
#969=ORIENTED_EDGE('',*,*,#747,.T.);
#970=ORIENTED_EDGE('',*,*,#748,.F.);
#971=ORIENTED_EDGE('',*,*,#747,.F.);
#972=ORIENTED_EDGE('',*,*,#749,.F.);
#973=ORIENTED_EDGE('',*,*,#750,.T.);
#974=ORIENTED_EDGE('',*,*,#751,.F.);
#975=ORIENTED_EDGE('',*,*,#750,.F.);
#976=ORIENTED_EDGE('',*,*,#752,.F.);
#977=ORIENTED_EDGE('',*,*,#753,.T.);
#978=ORIENTED_EDGE('',*,*,#754,.F.);
#979=ORIENTED_EDGE('',*,*,#753,.F.);
#980=ORIENTED_EDGE('',*,*,#755,.F.);
#981=ORIENTED_EDGE('',*,*,#756,.T.);
#982=ORIENTED_EDGE('',*,*,#757,.F.);
#983=ORIENTED_EDGE('',*,*,#756,.F.);
#984=ORIENTED_EDGE('',*,*,#758,.F.);
#985=ORIENTED_EDGE('',*,*,#759,.T.);
#986=ORIENTED_EDGE('',*,*,#760,.F.);
#987=ORIENTED_EDGE('',*,*,#759,.F.);
#988=ORIENTED_EDGE('',*,*,#761,.F.);
#989=ORIENTED_EDGE('',*,*,#762,.T.);
#990=ORIENTED_EDGE('',*,*,#763,.F.);
#991=ORIENTED_EDGE('',*,*,#762,.F.);
#992=ORIENTED_EDGE('',*,*,#764,.F.);
#993=ORIENTED_EDGE('',*,*,#765,.T.);
#994=ORIENTED_EDGE('',*,*,#766,.F.);
#995=ORIENTED_EDGE('',*,*,#765,.F.);
#996=ORIENTED_EDGE('',*,*,#767,.F.);
#997=ORIENTED_EDGE('',*,*,#768,.T.);
#998=ORIENTED_EDGE('',*,*,#769,.F.);
#999=ORIENTED_EDGE('',*,*,#768,.F.);
#1000=ORIENTED_EDGE('',*,*,#770,.F.);
#1001=ORIENTED_EDGE('',*,*,#771,.T.);
#1002=ORIENTED_EDGE('',*,*,#772,.F.);
#1003=ORIENTED_EDGE('',*,*,#771,.F.);
#1004=ORIENTED_EDGE('',*,*,#773,.F.);
#1005=ORIENTED_EDGE('',*,*,#774,.T.);
#1006=ORIENTED_EDGE('',*,*,#775,.F.);
#1007=ORIENTED_EDGE('',*,*,#774,.F.);
#1008=ORIENTED_EDGE('',*,*,#776,.F.);
#1009=ORIENTED_EDGE('',*,*,#777,.T.);
#1010=ORIENTED_EDGE('',*,*,#778,.F.);
#1011=ORIENTED_EDGE('',*,*,#777,.F.);
#1012=ORIENTED_EDGE('',*,*,#779,.F.);
#1013=ORIENTED_EDGE('',*,*,#780,.T.);
#1014=ORIENTED_EDGE('',*,*,#781,.F.);
#1015=ORIENTED_EDGE('',*,*,#780,.F.);
#1016=ORIENTED_EDGE('',*,*,#688,.F.);
#1017=ORIENTED_EDGE('',*,*,#699,.T.);
#1018=ORIENTED_EDGE('',*,*,#701,.T.);
#1019=ORIENTED_EDGE('',*,*,#703,.T.);
#1020=ORIENTED_EDGE('',*,*,#705,.T.);
#1021=ORIENTED_EDGE('',*,*,#707,.T.);
#1022=ORIENTED_EDGE('',*,*,#709,.T.);
#1023=ORIENTED_EDGE('',*,*,#711,.T.);
#1024=ORIENTED_EDGE('',*,*,#713,.T.);
#1025=ORIENTED_EDGE('',*,*,#715,.T.);
#1026=ORIENTED_EDGE('',*,*,#717,.T.);
#1027=ORIENTED_EDGE('',*,*,#719,.T.);
#1028=ORIENTED_EDGE('',*,*,#721,.T.);
#1029=ORIENTED_EDGE('',*,*,#723,.T.);
#1030=ORIENTED_EDGE('',*,*,#725,.T.);
#1031=ORIENTED_EDGE('',*,*,#727,.T.);
#1032=ORIENTED_EDGE('',*,*,#729,.T.);
#1033=ORIENTED_EDGE('',*,*,#731,.T.);
#1034=ORIENTED_EDGE('',*,*,#733,.T.);
#1035=ORIENTED_EDGE('',*,*,#735,.T.);
#1036=ORIENTED_EDGE('',*,*,#737,.T.);
#1037=ORIENTED_EDGE('',*,*,#739,.T.);
#1038=ORIENTED_EDGE('',*,*,#741,.T.);
#1039=ORIENTED_EDGE('',*,*,#743,.T.);
#1040=ORIENTED_EDGE('',*,*,#745,.T.);
#1041=ORIENTED_EDGE('',*,*,#696,.T.);
#1042=ORIENTED_EDGE('',*,*,#782,.F.);
#1043=ORIENTED_EDGE('',*,*,#783,.T.);
#1044=ORIENTED_EDGE('',*,*,#784,.F.);
#1045=ORIENTED_EDGE('',*,*,#785,.F.);
#1046=ORIENTED_EDGE('',*,*,#786,.F.);
#1047=ORIENTED_EDGE('',*,*,#787,.T.);
#1048=ORIENTED_EDGE('',*,*,#788,.T.);
#1049=ORIENTED_EDGE('',*,*,#789,.F.);
#1050=ORIENTED_EDGE('',*,*,#790,.F.);
#1051=ORIENTED_EDGE('',*,*,#791,.F.);
#1052=ORIENTED_EDGE('',*,*,#782,.T.);
#1053=ORIENTED_EDGE('',*,*,#792,.T.);
#1054=ORIENTED_EDGE('',*,*,#793,.T.);
#1055=ORIENTED_EDGE('',*,*,#794,.F.);
#1056=ORIENTED_EDGE('',*,*,#789,.T.);
#1057=ORIENTED_EDGE('',*,*,#795,.T.);
#1058=ORIENTED_EDGE('',*,*,#796,.F.);
#1059=ORIENTED_EDGE('',*,*,#783,.F.);
#1060=ORIENTED_EDGE('',*,*,#791,.T.);
#1061=ORIENTED_EDGE('',*,*,#797,.F.);
#1062=ORIENTED_EDGE('',*,*,#788,.F.);
#1063=ORIENTED_EDGE('',*,*,#798,.T.);
#1064=ORIENTED_EDGE('',*,*,#799,.F.);
#1065=ORIENTED_EDGE('',*,*,#800,.T.);
#1066=ORIENTED_EDGE('',*,*,#795,.F.);
#1067=ORIENTED_EDGE('',*,*,#801,.F.);
#1068=ORIENTED_EDGE('',*,*,#802,.T.);
#1069=ORIENTED_EDGE('',*,*,#779,.T.);
#1070=ORIENTED_EDGE('',*,*,#776,.T.);
#1071=ORIENTED_EDGE('',*,*,#773,.T.);
#1072=ORIENTED_EDGE('',*,*,#770,.T.);
#1073=ORIENTED_EDGE('',*,*,#767,.T.);
#1074=ORIENTED_EDGE('',*,*,#764,.T.);
#1075=ORIENTED_EDGE('',*,*,#761,.T.);
#1076=ORIENTED_EDGE('',*,*,#758,.T.);
#1077=ORIENTED_EDGE('',*,*,#755,.T.);
#1078=ORIENTED_EDGE('',*,*,#752,.T.);
#1079=ORIENTED_EDGE('',*,*,#749,.T.);
#1080=ORIENTED_EDGE('',*,*,#746,.T.);
#1081=ORIENTED_EDGE('',*,*,#803,.F.);
#1082=ORIENTED_EDGE('',*,*,#793,.F.);
#1083=ORIENTED_EDGE('',*,*,#804,.T.);
#1084=ORIENTED_EDGE('',*,*,#801,.T.);
#1085=ORIENTED_EDGE('',*,*,#804,.F.);
#1086=ORIENTED_EDGE('',*,*,#792,.F.);
#1087=ORIENTED_EDGE('',*,*,#802,.F.);
#1088=ORIENTED_EDGE('',*,*,#805,.T.);
#1089=ORIENTED_EDGE('',*,*,#806,.F.);
#1090=ORIENTED_EDGE('',*,*,#805,.F.);
#1091=ORIENTED_EDGE('',*,*,#691,.T.);
#1092=ORIENTED_EDGE('',*,*,#695,.T.);
#1093=ORIENTED_EDGE('',*,*,#807,.T.);
#1094=ORIENTED_EDGE('',*,*,#808,.T.);
#1095=ORIENTED_EDGE('',*,*,#809,.F.);
#1096=ORIENTED_EDGE('',*,*,#693,.T.);
#1097=ORIENTED_EDGE('',*,*,#810,.T.);
#1098=ORIENTED_EDGE('',*,*,#809,.T.);
#1099=ORIENTED_EDGE('',*,*,#811,.T.);
#1100=ORIENTED_EDGE('',*,*,#812,.F.);
#1101=ORIENTED_EDGE('',*,*,#813,.T.);
#1102=ORIENTED_EDGE('',*,*,#812,.T.);
#1103=ORIENTED_EDGE('',*,*,#814,.T.);
#1104=ORIENTED_EDGE('',*,*,#815,.F.);
#1105=ORIENTED_EDGE('',*,*,#816,.T.);
#1106=ORIENTED_EDGE('',*,*,#815,.T.);
#1107=ORIENTED_EDGE('',*,*,#817,.T.);
#1108=ORIENTED_EDGE('',*,*,#807,.F.);
#1109=ORIENTED_EDGE('',*,*,#818,.T.);
#1110=ORIENTED_EDGE('',*,*,#819,.T.);
#1111=ORIENTED_EDGE('',*,*,#660,.T.);
#1112=ORIENTED_EDGE('',*,*,#813,.F.);
#1113=ORIENTED_EDGE('',*,*,#819,.F.);
#1114=ORIENTED_EDGE('',*,*,#816,.F.);
#1115=ORIENTED_EDGE('',*,*,#694,.T.);
#1116=ORIENTED_EDGE('',*,*,#810,.F.);
#1117=ORIENTED_EDGE('',*,*,#818,.F.);
#1118=ORIENTED_EDGE('',*,*,#785,.T.);
#1119=ORIENTED_EDGE('',*,*,#820,.T.);
#1120=ORIENTED_EDGE('',*,*,#817,.F.);
#1121=ORIENTED_EDGE('',*,*,#821,.F.);
#1122=ORIENTED_EDGE('',*,*,#822,.T.);
#1123=ORIENTED_EDGE('',*,*,#821,.T.);
#1124=ORIENTED_EDGE('',*,*,#814,.F.);
#1125=ORIENTED_EDGE('',*,*,#823,.F.);
#1126=ORIENTED_EDGE('',*,*,#799,.T.);
#1127=ORIENTED_EDGE('',*,*,#823,.T.);
#1128=ORIENTED_EDGE('',*,*,#811,.F.);
#1129=ORIENTED_EDGE('',*,*,#824,.F.);
#1130=ORIENTED_EDGE('',*,*,#808,.F.);
#1131=ORIENTED_EDGE('',*,*,#820,.F.);
#1132=ORIENTED_EDGE('',*,*,#784,.T.);
#1133=ORIENTED_EDGE('',*,*,#796,.T.);
#1134=ORIENTED_EDGE('',*,*,#800,.F.);
#1135=ORIENTED_EDGE('',*,*,#824,.T.);
#1136=ORIENTED_EDGE('',*,*,#825,.F.);
#1137=ORIENTED_EDGE('',*,*,#786,.T.);
#1138=ORIENTED_EDGE('',*,*,#822,.F.);
#1139=ORIENTED_EDGE('',*,*,#798,.F.);
#1140=ORIENTED_EDGE('',*,*,#787,.F.);
#1141=ORIENTED_EDGE('',*,*,#826,.F.);
#1142=ORIENTED_EDGE('',*,*,#806,.T.);
#1143=ORIENTED_EDGE('',*,*,#781,.T.);
#1144=ORIENTED_EDGE('',*,*,#778,.T.);
#1145=ORIENTED_EDGE('',*,*,#775,.T.);
#1146=ORIENTED_EDGE('',*,*,#772,.T.);
#1147=ORIENTED_EDGE('',*,*,#769,.T.);
#1148=ORIENTED_EDGE('',*,*,#766,.T.);
#1149=ORIENTED_EDGE('',*,*,#763,.T.);
#1150=ORIENTED_EDGE('',*,*,#760,.T.);
#1151=ORIENTED_EDGE('',*,*,#757,.T.);
#1152=ORIENTED_EDGE('',*,*,#754,.T.);
#1153=ORIENTED_EDGE('',*,*,#751,.T.);
#1154=ORIENTED_EDGE('',*,*,#748,.T.);
#1155=ORIENTED_EDGE('',*,*,#825,.T.);
#1156=ORIENTED_EDGE('',*,*,#826,.T.);
#1157=ORIENTED_EDGE('',*,*,#790,.T.);
#1158=ORIENTED_EDGE('',*,*,#794,.T.);
#1159=ORIENTED_EDGE('',*,*,#803,.T.);
#1160=ORIENTED_EDGE('',*,*,#797,.T.);
#1161=CYLINDRICAL_SURFACE('',#1284,135.);
#1162=CYLINDRICAL_SURFACE('',#1313,130.);
#1163=CYLINDRICAL_SURFACE('',#1320,102.5);
#1164=CYLINDRICAL_SURFACE('',#1322,5.);
#1165=CYLINDRICAL_SURFACE('',#1324,5.);
#1166=CYLINDRICAL_SURFACE('',#1326,5.);
#1167=CYLINDRICAL_SURFACE('',#1328,5.);
#1168=CYLINDRICAL_SURFACE('',#1330,5.);
#1169=CYLINDRICAL_SURFACE('',#1332,5.);
#1170=CYLINDRICAL_SURFACE('',#1334,5.);
#1171=CYLINDRICAL_SURFACE('',#1336,5.);
#1172=CYLINDRICAL_SURFACE('',#1338,5.);
#1173=CYLINDRICAL_SURFACE('',#1340,5.);
#1174=CYLINDRICAL_SURFACE('',#1342,5.);
#1175=CYLINDRICAL_SURFACE('',#1344,5.);
#1176=CYLINDRICAL_SURFACE('',#1346,5.);
#1177=CYLINDRICAL_SURFACE('',#1348,5.);
#1178=CYLINDRICAL_SURFACE('',#1350,5.);
#1179=CYLINDRICAL_SURFACE('',#1352,5.);
#1180=CYLINDRICAL_SURFACE('',#1354,5.);
#1181=CYLINDRICAL_SURFACE('',#1356,5.);
#1182=CYLINDRICAL_SURFACE('',#1358,5.);
#1183=CYLINDRICAL_SURFACE('',#1360,5.);
#1184=CYLINDRICAL_SURFACE('',#1362,5.);
#1185=CYLINDRICAL_SURFACE('',#1364,5.);
#1186=CYLINDRICAL_SURFACE('',#1366,5.);
#1187=CYLINDRICAL_SURFACE('',#1368,5.);
#1188=CYLINDRICAL_SURFACE('',#1370,8.);
#1189=CYLINDRICAL_SURFACE('',#1373,8.);
#1190=CYLINDRICAL_SURFACE('',#1376,8.);
#1191=CYLINDRICAL_SURFACE('',#1379,8.);
#1192=CYLINDRICAL_SURFACE('',#1382,8.);
#1193=CYLINDRICAL_SURFACE('',#1385,8.);
#1194=CYLINDRICAL_SURFACE('',#1388,8.);
#1195=CYLINDRICAL_SURFACE('',#1391,8.);
#1196=CYLINDRICAL_SURFACE('',#1394,8.);
#1197=CYLINDRICAL_SURFACE('',#1397,8.);
#1198=CYLINDRICAL_SURFACE('',#1400,8.);
#1199=CYLINDRICAL_SURFACE('',#1403,8.);
#1200=CYLINDRICAL_SURFACE('',#1408,150.);
#1201=CYLINDRICAL_SURFACE('',#1420,125.);
#1202=CYLINDRICAL_SURFACE('',#1422,50.);
#1203=CYLINDRICAL_SURFACE('',#1432,150.);
#1204=CYLINDRICAL_SURFACE('',#1433,150.);
#1205=CYLINDRICAL_SURFACE('',#1442,150.);
#1206=ADVANCED_FACE('',(#118),#1161,.F.);
#1207=ADVANCED_FACE('',(#119,#22,#23,#24,#25,#26,#27,#28,#29,#30,#31,#32,
#33,#34,#35,#36,#37,#38,#39,#40,#41,#42,#43,#44,#45,#46),#99,.F.);
#1208=ADVANCED_FACE('',(#120),#1162,.F.);
#1209=ADVANCED_FACE('',(#121),#100,.F.);
#1210=ADVANCED_FACE('',(#122),#1163,.F.);
#1211=ADVANCED_FACE('',(#123),#1164,.F.);
#1212=ADVANCED_FACE('',(#124),#1165,.F.);
#1213=ADVANCED_FACE('',(#125),#1166,.F.);
#1214=ADVANCED_FACE('',(#126),#1167,.F.);
#1215=ADVANCED_FACE('',(#127),#1168,.F.);
#1216=ADVANCED_FACE('',(#128),#1169,.F.);
#1217=ADVANCED_FACE('',(#129),#1170,.F.);
#1218=ADVANCED_FACE('',(#130),#1171,.F.);
#1219=ADVANCED_FACE('',(#131),#1172,.F.);
#1220=ADVANCED_FACE('',(#132),#1173,.F.);
#1221=ADVANCED_FACE('',(#133),#1174,.F.);
#1222=ADVANCED_FACE('',(#134),#1175,.F.);
#1223=ADVANCED_FACE('',(#135),#1176,.F.);
#1224=ADVANCED_FACE('',(#136),#1177,.F.);
#1225=ADVANCED_FACE('',(#137),#1178,.F.);
#1226=ADVANCED_FACE('',(#138),#1179,.F.);
#1227=ADVANCED_FACE('',(#139),#1180,.F.);
#1228=ADVANCED_FACE('',(#140),#1181,.F.);
#1229=ADVANCED_FACE('',(#141),#1182,.F.);
#1230=ADVANCED_FACE('',(#142),#1183,.F.);
#1231=ADVANCED_FACE('',(#143),#1184,.F.);
#1232=ADVANCED_FACE('',(#144),#1185,.F.);
#1233=ADVANCED_FACE('',(#145),#1186,.F.);
#1234=ADVANCED_FACE('',(#146),#1187,.F.);
#1235=ADVANCED_FACE('',(#147),#1188,.F.);
#1236=ADVANCED_FACE('',(#148),#1189,.F.);
#1237=ADVANCED_FACE('',(#149),#1190,.F.);
#1238=ADVANCED_FACE('',(#150),#1191,.F.);
#1239=ADVANCED_FACE('',(#151),#1192,.F.);
#1240=ADVANCED_FACE('',(#152),#1193,.F.);
#1241=ADVANCED_FACE('',(#153),#1194,.F.);
#1242=ADVANCED_FACE('',(#154),#1195,.F.);
#1243=ADVANCED_FACE('',(#155),#1196,.F.);
#1244=ADVANCED_FACE('',(#156),#1197,.F.);
#1245=ADVANCED_FACE('',(#157),#1198,.F.);
#1246=ADVANCED_FACE('',(#158),#1199,.F.);
#1247=ADVANCED_FACE('',(#159,#47,#48,#49,#50,#51,#52,#53,#54,#55,#56,#57,
#58,#59,#60,#61,#62,#63,#64,#65,#66,#67,#68,#69,#70,#71),#101,.F.);
#1248=ADVANCED_FACE('',(#160),#102,.T.);
#1249=ADVANCED_FACE('',(#161),#1200,.T.);
#1250=ADVANCED_FACE('',(#162),#103,.T.);
#1251=ADVANCED_FACE('',(#163),#104,.T.);
#1252=ADVANCED_FACE('',(#164,#72,#73,#74,#75,#76,#77,#78,#79,#80,#81,#82,
#83,#84),#105,.F.);
#1253=ADVANCED_FACE('',(#165),#1201,.F.);
#1254=ADVANCED_FACE('',(#166),#1202,.F.);
#1255=ADVANCED_FACE('',(#167),#106,.F.);
#1256=ADVANCED_FACE('',(#168),#107,.F.);
#1257=ADVANCED_FACE('',(#169),#108,.F.);
#1258=ADVANCED_FACE('',(#170),#109,.F.);
#1259=ADVANCED_FACE('',(#171,#85),#110,.T.);
#1260=ADVANCED_FACE('',(#172),#1203,.T.);
#1261=ADVANCED_FACE('',(#173),#1204,.T.);
#1262=ADVANCED_FACE('',(#174),#111,.T.);
#1263=ADVANCED_FACE('',(#175),#112,.T.);
#1264=ADVANCED_FACE('',(#176),#113,.T.);
#1265=ADVANCED_FACE('',(#177),#114,.T.);
#1266=ADVANCED_FACE('',(#178),#115,.T.);
#1267=ADVANCED_FACE('',(#179,#86,#87,#88,#89,#90,#91,#92,#93,#94,#95,#96,
#97,#98),#116,.F.);
#1268=ADVANCED_FACE('',(#180),#1205,.T.);
#1269=ADVANCED_FACE('',(#181),#117,.T.);
#1270=CLOSED_SHELL('',(#1206,#1207,#1208,#1209,#1210,#1211,#1212,#1213,
#1214,#1215,#1216,#1217,#1218,#1219,#1220,#1221,#1222,#1223,#1224,#1225,
#1226,#1227,#1228,#1229,#1230,#1231,#1232,#1233,#1234,#1235,#1236,#1237,
#1238,#1239,#1240,#1241,#1242,#1243,#1244,#1245,#1246,#1247,#1248,#1249,
#1250,#1251,#1252,#1253,#1254,#1255,#1256,#1257,#1258,#1259,#1260,#1261,
#1262,#1263,#1264,#1265,#1266,#1267,#1268,#1269));
#1271=DERIVED_UNIT_ELEMENT(#1273,1.);
#1272=DERIVED_UNIT_ELEMENT(#2180,-3.);
#1273=(
MASS_UNIT()
NAMED_UNIT(*)
SI_UNIT(.KILO.,.GRAM.)
);
#1274=DERIVED_UNIT((#1271,#1272));
#1275=MEASURE_REPRESENTATION_ITEM('density measure',
POSITIVE_RATIO_MEASURE(7850.),#1274);
#1276=PROPERTY_DEFINITION_REPRESENTATION(#1281,#1278);
#1277=PROPERTY_DEFINITION_REPRESENTATION(#1282,#1279);
#1278=REPRESENTATION('material name',(#1280),#2177);
#1279=REPRESENTATION('density',(#1275),#2177);
#1280=DESCRIPTIVE_REPRESENTATION_ITEM('Steel','Steel');
#1281=PROPERTY_DEFINITION('material property','material name',#2187);
#1282=PROPERTY_DEFINITION('material property','density of part',#2187);
#1283=AXIS2_PLACEMENT_3D('',#1837,#1444,#1445);
#1284=AXIS2_PLACEMENT_3D('',#1838,#1446,#1447);
#1285=AXIS2_PLACEMENT_3D('',#1840,#1448,#1449);
#1286=AXIS2_PLACEMENT_3D('',#1843,#1451,#1452);
#1287=AXIS2_PLACEMENT_3D('',#1844,#1453,#1454);
#1288=AXIS2_PLACEMENT_3D('',#1846,#1455,#1456);
#1289=AXIS2_PLACEMENT_3D('',#1848,#1457,#1458);
#1290=AXIS2_PLACEMENT_3D('',#1850,#1459,#1460);
#1291=AXIS2_PLACEMENT_3D('',#1852,#1461,#1462);
#1292=AXIS2_PLACEMENT_3D('',#1854,#1463,#1464);
#1293=AXIS2_PLACEMENT_3D('',#1856,#1465,#1466);
#1294=AXIS2_PLACEMENT_3D('',#1858,#1467,#1468);
#1295=AXIS2_PLACEMENT_3D('',#1860,#1469,#1470);
#1296=AXIS2_PLACEMENT_3D('',#1862,#1471,#1472);
#1297=AXIS2_PLACEMENT_3D('',#1864,#1473,#1474);
#1298=AXIS2_PLACEMENT_3D('',#1866,#1475,#1476);
#1299=AXIS2_PLACEMENT_3D('',#1868,#1477,#1478);
#1300=AXIS2_PLACEMENT_3D('',#1870,#1479,#1480);
#1301=AXIS2_PLACEMENT_3D('',#1872,#1481,#1482);
#1302=AXIS2_PLACEMENT_3D('',#1874,#1483,#1484);
#1303=AXIS2_PLACEMENT_3D('',#1876,#1485,#1486);
#1304=AXIS2_PLACEMENT_3D('',#1878,#1487,#1488);
#1305=AXIS2_PLACEMENT_3D('',#1880,#1489,#1490);
#1306=AXIS2_PLACEMENT_3D('',#1882,#1491,#1492);
#1307=AXIS2_PLACEMENT_3D('',#1884,#1493,#1494);
#1308=AXIS2_PLACEMENT_3D('',#1886,#1495,#1496);
#1309=AXIS2_PLACEMENT_3D('',#1888,#1497,#1498);
#1310=AXIS2_PLACEMENT_3D('',#1890,#1499,#1500);
#1311=AXIS2_PLACEMENT_3D('',#1892,#1501,#1502);
#1312=AXIS2_PLACEMENT_3D('',#1894,#1503,#1504);
#1313=AXIS2_PLACEMENT_3D('',#1895,#1505,#1506);
#1314=AXIS2_PLACEMENT_3D('',#1897,#1507,#1508);
#1315=AXIS2_PLACEMENT_3D('',#1901,#1510,#1511);
#1316=AXIS2_PLACEMENT_3D('',#1903,#1512,#1513);
#1317=AXIS2_PLACEMENT_3D('',#1904,#1514,#1515);
#1318=AXIS2_PLACEMENT_3D('',#1905,#1516,#1517);
#1319=AXIS2_PLACEMENT_3D('',#1909,#1519,#1520);
#1320=AXIS2_PLACEMENT_3D('',#1911,#1522,#1523);
#1321=AXIS2_PLACEMENT_3D('',#1913,#1524,#1525);
#1322=AXIS2_PLACEMENT_3D('',#1915,#1527,#1528);
#1323=AXIS2_PLACEMENT_3D('',#1918,#1530,#1531);
#1324=AXIS2_PLACEMENT_3D('',#1919,#1532,#1533);
#1325=AXIS2_PLACEMENT_3D('',#1922,#1535,#1536);
#1326=AXIS2_PLACEMENT_3D('',#1923,#1537,#1538);
#1327=AXIS2_PLACEMENT_3D('',#1926,#1540,#1541);
#1328=AXIS2_PLACEMENT_3D('',#1927,#1542,#1543);
#1329=AXIS2_PLACEMENT_3D('',#1930,#1545,#1546);
#1330=AXIS2_PLACEMENT_3D('',#1931,#1547,#1548);
#1331=AXIS2_PLACEMENT_3D('',#1934,#1550,#1551);
#1332=AXIS2_PLACEMENT_3D('',#1935,#1552,#1553);
#1333=AXIS2_PLACEMENT_3D('',#1938,#1555,#1556);
#1334=AXIS2_PLACEMENT_3D('',#1939,#1557,#1558);
#1335=AXIS2_PLACEMENT_3D('',#1942,#1560,#1561);
#1336=AXIS2_PLACEMENT_3D('',#1943,#1562,#1563);
#1337=AXIS2_PLACEMENT_3D('',#1946,#1565,#1566);
#1338=AXIS2_PLACEMENT_3D('',#1947,#1567,#1568);
#1339=AXIS2_PLACEMENT_3D('',#1950,#1570,#1571);
#1340=AXIS2_PLACEMENT_3D('',#1951,#1572,#1573);
#1341=AXIS2_PLACEMENT_3D('',#1954,#1575,#1576);
#1342=AXIS2_PLACEMENT_3D('',#1955,#1577,#1578);
#1343=AXIS2_PLACEMENT_3D('',#1958,#1580,#1581);
#1344=AXIS2_PLACEMENT_3D('',#1959,#1582,#1583);
#1345=AXIS2_PLACEMENT_3D('',#1962,#1585,#1586);
#1346=AXIS2_PLACEMENT_3D('',#1963,#1587,#1588);
#1347=AXIS2_PLACEMENT_3D('',#1966,#1590,#1591);
#1348=AXIS2_PLACEMENT_3D('',#1967,#1592,#1593);
#1349=AXIS2_PLACEMENT_3D('',#1970,#1595,#1596);
#1350=AXIS2_PLACEMENT_3D('',#1971,#1597,#1598);
#1351=AXIS2_PLACEMENT_3D('',#1974,#1600,#1601);
#1352=AXIS2_PLACEMENT_3D('',#1975,#1602,#1603);
#1353=AXIS2_PLACEMENT_3D('',#1978,#1605,#1606);
#1354=AXIS2_PLACEMENT_3D('',#1979,#1607,#1608);
#1355=AXIS2_PLACEMENT_3D('',#1982,#1610,#1611);
#1356=AXIS2_PLACEMENT_3D('',#1983,#1612,#1613);
#1357=AXIS2_PLACEMENT_3D('',#1986,#1615,#1616);
#1358=AXIS2_PLACEMENT_3D('',#1987,#1617,#1618);
#1359=AXIS2_PLACEMENT_3D('',#1990,#1620,#1621);
#1360=AXIS2_PLACEMENT_3D('',#1991,#1622,#1623);
#1361=AXIS2_PLACEMENT_3D('',#1994,#1625,#1626);
#1362=AXIS2_PLACEMENT_3D('',#1995,#1627,#1628);
#1363=AXIS2_PLACEMENT_3D('',#1998,#1630,#1631);
#1364=AXIS2_PLACEMENT_3D('',#1999,#1632,#1633);
#1365=AXIS2_PLACEMENT_3D('',#2002,#1635,#1636);
#1366=AXIS2_PLACEMENT_3D('',#2003,#1637,#1638);
#1367=AXIS2_PLACEMENT_3D('',#2006,#1640,#1641);
#1368=AXIS2_PLACEMENT_3D('',#2007,#1642,#1643);
#1369=AXIS2_PLACEMENT_3D('',#2010,#1645,#1646);
#1370=AXIS2_PLACEMENT_3D('',#2011,#1647,#1648);
#1371=AXIS2_PLACEMENT_3D('',#2013,#1649,#1650);
#1372=AXIS2_PLACEMENT_3D('',#2016,#1652,#1653);
#1373=AXIS2_PLACEMENT_3D('',#2017,#1654,#1655);
#1374=AXIS2_PLACEMENT_3D('',#2019,#1656,#1657);
#1375=AXIS2_PLACEMENT_3D('',#2022,#1659,#1660);
#1376=AXIS2_PLACEMENT_3D('',#2023,#1661,#1662);
#1377=AXIS2_PLACEMENT_3D('',#2025,#1663,#1664);
#1378=AXIS2_PLACEMENT_3D('',#2028,#1666,#1667);
#1379=AXIS2_PLACEMENT_3D('',#2029,#1668,#1669);
#1380=AXIS2_PLACEMENT_3D('',#2031,#1670,#1671);
#1381=AXIS2_PLACEMENT_3D('',#2034,#1673,#1674);
#1382=AXIS2_PLACEMENT_3D('',#2035,#1675,#1676);
#1383=AXIS2_PLACEMENT_3D('',#2037,#1677,#1678);
#1384=AXIS2_PLACEMENT_3D('',#2040,#1680,#1681);
#1385=AXIS2_PLACEMENT_3D('',#2041,#1682,#1683);
#1386=AXIS2_PLACEMENT_3D('',#2043,#1684,#1685);
#1387=AXIS2_PLACEMENT_3D('',#2046,#1687,#1688);
#1388=AXIS2_PLACEMENT_3D('',#2047,#1689,#1690);
#1389=AXIS2_PLACEMENT_3D('',#2049,#1691,#1692);
#1390=AXIS2_PLACEMENT_3D('',#2052,#1694,#1695);
#1391=AXIS2_PLACEMENT_3D('',#2053,#1696,#1697);
#1392=AXIS2_PLACEMENT_3D('',#2055,#1698,#1699);
#1393=AXIS2_PLACEMENT_3D('',#2058,#1701,#1702);
#1394=AXIS2_PLACEMENT_3D('',#2059,#1703,#1704);
#1395=AXIS2_PLACEMENT_3D('',#2061,#1705,#1706);
#1396=AXIS2_PLACEMENT_3D('',#2064,#1708,#1709);
#1397=AXIS2_PLACEMENT_3D('',#2065,#1710,#1711);
#1398=AXIS2_PLACEMENT_3D('',#2067,#1712,#1713);
#1399=AXIS2_PLACEMENT_3D('',#2070,#1715,#1716);
#1400=AXIS2_PLACEMENT_3D('',#2071,#1717,#1718);
#1401=AXIS2_PLACEMENT_3D('',#2073,#1719,#1720);
#1402=AXIS2_PLACEMENT_3D('',#2076,#1722,#1723);
#1403=AXIS2_PLACEMENT_3D('',#2077,#1724,#1725);
#1404=AXIS2_PLACEMENT_3D('',#2079,#1726,#1727);
#1405=AXIS2_PLACEMENT_3D('',#2082,#1729,#1730);
#1406=AXIS2_PLACEMENT_3D('',#2083,#1731,#1732);
#1407=AXIS2_PLACEMENT_3D('',#2084,#1733,#1734);
#1408=AXIS2_PLACEMENT_3D('',#2095,#1740,#1741);
#1409=AXIS2_PLACEMENT_3D('',#2097,#1742,#1743);
#1410=AXIS2_PLACEMENT_3D('',#2101,#1745,#1746);
#1411=AXIS2_PLACEMENT_3D('',#2103,#1747,#1748);
#1412=AXIS2_PLACEMENT_3D('',#2104,#1749,#1750);
#1413=AXIS2_PLACEMENT_3D('',#2105,#1751,#1752);
#1414=AXIS2_PLACEMENT_3D('',#2108,#1753,#1754);
#1415=AXIS2_PLACEMENT_3D('',#2110,#1755,#1756);
#1416=AXIS2_PLACEMENT_3D('',#2116,#1761,#1762);
#1417=AXIS2_PLACEMENT_3D('',#2122,#1766,#1767);
#1418=AXIS2_PLACEMENT_3D('',#2124,#1768,#1769);
#1419=AXIS2_PLACEMENT_3D('',#2126,#1770,#1771);
#1420=AXIS2_PLACEMENT_3D('',#2127,#1772,#1773);
#1421=AXIS2_PLACEMENT_3D('',#2128,#1774,#1775);
#1422=AXIS2_PLACEMENT_3D('',#2130,#1777,#1778);
#1423=AXIS2_PLACEMENT_3D('',#2133,#1780,#1781);
#1424=AXIS2_PLACEMENT_3D('',#2134,#1782,#1783);
#1425=AXIS2_PLACEMENT_3D('',#2140,#1787,#1788);
#1426=AXIS2_PLACEMENT_3D('',#2146,#1792,#1793);
#1427=AXIS2_PLACEMENT_3D('',#2148,#1794,#1795);
#1428=AXIS2_PLACEMENT_3D('',#2152,#1798,#1799);
#1429=AXIS2_PLACEMENT_3D('',#2155,#1802,#1803);
#1430=AXIS2_PLACEMENT_3D('',#2156,#1804,#1805);
#1431=AXIS2_PLACEMENT_3D('',#2157,#1806,#1807);
#1432=AXIS2_PLACEMENT_3D('',#2158,#1808,#1809);
#1433=AXIS2_PLACEMENT_3D('',#2159,#1810,#1811);
#1434=AXIS2_PLACEMENT_3D('',#2160,#1812,#1813);
#1435=AXIS2_PLACEMENT_3D('',#2163,#1816,#1817);
#1436=AXIS2_PLACEMENT_3D('',#2166,#1820,#1821);
#1437=AXIS2_PLACEMENT_3D('',#2168,#1823,#1824);
#1438=AXIS2_PLACEMENT_3D('',#2169,#1825,#1826);
#1439=AXIS2_PLACEMENT_3D('',#2170,#1827,#1828);
#1440=AXIS2_PLACEMENT_3D('',#2171,#1829,#1830);
#1441=AXIS2_PLACEMENT_3D('',#2172,#1831,#1832);
#1442=AXIS2_PLACEMENT_3D('',#2173,#1833,#1834);
#1443=AXIS2_PLACEMENT_3D('',#2174,#1835,#1836);
#1444=DIRECTION('axis',(0.,0.,1.));
#1445=DIRECTION('refdir',(1.,0.,0.));
#1446=DIRECTION('center_axis',(1.,0.,0.));
#1447=DIRECTION('ref_axis',(0.,-1.,0.));
#1448=DIRECTION('center_axis',(1.,0.,0.));
#1449=DIRECTION('ref_axis',(0.,-1.,0.));
#1450=DIRECTION('',(1.,0.,0.));
#1451=DIRECTION('center_axis',(1.,0.,0.));
#1452=DIRECTION('ref_axis',(0.,-1.,0.));
#1453=DIRECTION('center_axis',(1.,0.,0.));
#1454=DIRECTION('ref_axis',(0.,-1.,0.));
#1455=DIRECTION('center_axis',(-1.,0.,0.));
#1456=DIRECTION('ref_axis',(-1.20831839940331E-14,-1.,0.));
#1457=DIRECTION('center_axis',(-1.,0.,0.));
#1458=DIRECTION('ref_axis',(-1.20831839940331E-14,-1.,0.));
#1459=DIRECTION('center_axis',(-1.,0.,0.));
#1460=DIRECTION('ref_axis',(-1.20831839940331E-14,-1.,0.));
#1461=DIRECTION('center_axis',(-1.,0.,0.));
#1462=DIRECTION('ref_axis',(-1.20831839940331E-14,-1.,0.));
#1463=DIRECTION('center_axis',(-1.,0.,0.));
#1464=DIRECTION('ref_axis',(-1.20831839940331E-14,-1.,0.));
#1465=DIRECTION('center_axis',(-1.,0.,0.));
#1466=DIRECTION('ref_axis',(-1.20831839940331E-14,-1.,0.));
#1467=DIRECTION('center_axis',(-1.,0.,0.));
#1468=DIRECTION('ref_axis',(-1.20831839940331E-14,-1.,0.));
#1469=DIRECTION('center_axis',(-1.,0.,0.));
#1470=DIRECTION('ref_axis',(-1.20831839940331E-14,-1.,0.));
#1471=DIRECTION('center_axis',(-1.,0.,0.));
#1472=DIRECTION('ref_axis',(-1.20831839940331E-14,-1.,0.));
#1473=DIRECTION('center_axis',(-1.,0.,0.));
#1474=DIRECTION('ref_axis',(-1.20831839940331E-14,-1.,0.));
#1475=DIRECTION('center_axis',(-1.,0.,0.));
#1476=DIRECTION('ref_axis',(-1.20831839940331E-14,-1.,0.));
#1477=DIRECTION('center_axis',(-1.,0.,0.));
#1478=DIRECTION('ref_axis',(-1.20831839940331E-14,-1.,0.));
#1479=DIRECTION('center_axis',(-1.,0.,0.));
#1480=DIRECTION('ref_axis',(-1.20831839940331E-14,-1.,0.));
#1481=DIRECTION('center_axis',(-1.,0.,0.));
#1482=DIRECTION('ref_axis',(-1.20831839940331E-14,-1.,0.));
#1483=DIRECTION('center_axis',(-1.,0.,0.));
#1484=DIRECTION('ref_axis',(-1.20831839940331E-14,-1.,0.));
#1485=DIRECTION('center_axis',(-1.,0.,0.));
#1486=DIRECTION('ref_axis',(-1.20831839940331E-14,-1.,0.));
#1487=DIRECTION('center_axis',(-1.,0.,0.));
#1488=DIRECTION('ref_axis',(-1.20831839940331E-14,-1.,0.));
#1489=DIRECTION('center_axis',(-1.,0.,0.));
#1490=DIRECTION('ref_axis',(-1.20831839940331E-14,-1.,0.));
#1491=DIRECTION('center_axis',(-1.,0.,0.));
#1492=DIRECTION('ref_axis',(-1.20831839940331E-14,-1.,0.));
#1493=DIRECTION('center_axis',(-1.,0.,0.));
#1494=DIRECTION('ref_axis',(-1.20831839940331E-14,-1.,0.));
#1495=DIRECTION('center_axis',(-1.,0.,0.));
#1496=DIRECTION('ref_axis',(-1.20831839940331E-14,-1.,0.));
#1497=DIRECTION('center_axis',(-1.,0.,0.));
#1498=DIRECTION('ref_axis',(-1.20831839940331E-14,-1.,0.));
#1499=DIRECTION('center_axis',(-1.,0.,0.));
#1500=DIRECTION('ref_axis',(-1.20831839940331E-14,-1.,0.));
#1501=DIRECTION('center_axis',(-1.,0.,0.));
#1502=DIRECTION('ref_axis',(-1.20831839940331E-14,-1.,0.));
#1503=DIRECTION('center_axis',(-1.,0.,0.));
#1504=DIRECTION('ref_axis',(0.,1.,0.));
#1505=DIRECTION('center_axis',(1.,0.,0.));
#1506=DIRECTION('ref_axis',(0.,-1.,0.));
#1507=DIRECTION('center_axis',(-1.,0.,0.));
#1508=DIRECTION('ref_axis',(0.,-1.,0.));
#1509=DIRECTION('',(1.,0.,0.));
#1510=DIRECTION('center_axis',(-1.,0.,0.));
#1511=DIRECTION('ref_axis',(0.,-1.,0.));
#1512=DIRECTION('center_axis',(-0.928476690885259,0.,-0.371390676354104));
#1513=DIRECTION('ref_axis',(0.371390676354104,0.,-0.928476690885259));
#1514=DIRECTION('center_axis',(-1.,0.,0.));
#1515=DIRECTION('ref_axis',(0.,-1.,0.));
#1516=DIRECTION('center_axis',(-1.,0.,0.));
#1517=DIRECTION('ref_axis',(0.,1.,0.));
#1518=DIRECTION('',(0.,-1.,0.));
#1519=DIRECTION('center_axis',(-1.,0.,0.));
#1520=DIRECTION('ref_axis',(0.,1.,0.));
#1521=DIRECTION('',(0.,-1.,0.));
#1522=DIRECTION('center_axis',(-1.,0.,0.));
#1523=DIRECTION('ref_axis',(0.,1.,0.));
#1524=DIRECTION('center_axis',(-1.,0.,0.));
#1525=DIRECTION('ref_axis',(0.,1.,0.));
#1526=DIRECTION('',(-1.,0.,0.));
#1527=DIRECTION('center_axis',(1.,-1.20831839940331E-14,1.04510261153809E-15));
#1528=DIRECTION('ref_axis',(-1.20831839940331E-14,-1.,0.));
#1529=DIRECTION('',(1.,-1.20831839940331E-14,1.04510261153809E-15));
#1530=DIRECTION('center_axis',(-1.,0.,0.));
#1531=DIRECTION('ref_axis',(-1.20831839940331E-14,-1.,0.));
#1532=DIRECTION('center_axis',(1.,-1.20831839940331E-14,1.04510261153809E-15));
#1533=DIRECTION('ref_axis',(-1.20831839940331E-14,-1.,0.));
#1534=DIRECTION('',(1.,-1.20831839940331E-14,1.04510261153809E-15));
#1535=DIRECTION('center_axis',(-1.,0.,0.));
#1536=DIRECTION('ref_axis',(-1.20831839940331E-14,-1.,0.));
#1537=DIRECTION('center_axis',(1.,-1.20831839940331E-14,1.04510261153809E-15));
#1538=DIRECTION('ref_axis',(-1.20831839940331E-14,-1.,0.));
#1539=DIRECTION('',(1.,-1.20831839940331E-14,1.04510261153809E-15));
#1540=DIRECTION('center_axis',(-1.,0.,0.));
#1541=DIRECTION('ref_axis',(-1.20831839940331E-14,-1.,0.));
#1542=DIRECTION('center_axis',(1.,-1.20831839940331E-14,1.04510261153809E-15));
#1543=DIRECTION('ref_axis',(-1.20831839940331E-14,-1.,0.));
#1544=DIRECTION('',(1.,-1.20831839940331E-14,1.04510261153809E-15));
#1545=DIRECTION('center_axis',(-1.,0.,0.));
#1546=DIRECTION('ref_axis',(-1.20831839940331E-14,-1.,0.));
#1547=DIRECTION('center_axis',(1.,-1.20831839940331E-14,1.04510261153809E-15));
#1548=DIRECTION('ref_axis',(-1.20831839940331E-14,-1.,0.));
#1549=DIRECTION('',(1.,-1.20831839940331E-14,1.04510261153809E-15));
#1550=DIRECTION('center_axis',(-1.,0.,0.));
#1551=DIRECTION('ref_axis',(-1.20831839940331E-14,-1.,0.));
#1552=DIRECTION('center_axis',(1.,-1.20831839940331E-14,1.04510261153809E-15));
#1553=DIRECTION('ref_axis',(-1.20831839940331E-14,-1.,0.));
#1554=DIRECTION('',(1.,-1.20831839940331E-14,1.04510261153809E-15));
#1555=DIRECTION('center_axis',(-1.,0.,0.));
#1556=DIRECTION('ref_axis',(-1.20831839940331E-14,-1.,0.));
#1557=DIRECTION('center_axis',(1.,-1.20831839940331E-14,1.04510261153809E-15));
#1558=DIRECTION('ref_axis',(-1.20831839940331E-14,-1.,0.));
#1559=DIRECTION('',(1.,-1.20831839940331E-14,1.04510261153809E-15));
#1560=DIRECTION('center_axis',(-1.,0.,0.));
#1561=DIRECTION('ref_axis',(-1.20831839940331E-14,-1.,0.));
#1562=DIRECTION('center_axis',(1.,-1.20831839940331E-14,1.04510261153809E-15));
#1563=DIRECTION('ref_axis',(-1.20831839940331E-14,-1.,0.));
#1564=DIRECTION('',(1.,-1.20831839940331E-14,1.04510261153809E-15));
#1565=DIRECTION('center_axis',(-1.,0.,0.));
#1566=DIRECTION('ref_axis',(-1.20831839940331E-14,-1.,0.));
#1567=DIRECTION('center_axis',(1.,-1.20831839940331E-14,1.04510261153809E-15));
#1568=DIRECTION('ref_axis',(-1.20831839940331E-14,-1.,0.));
#1569=DIRECTION('',(1.,-1.20831839940331E-14,1.04510261153809E-15));
#1570=DIRECTION('center_axis',(-1.,0.,0.));
#1571=DIRECTION('ref_axis',(-1.20831839940331E-14,-1.,0.));
#1572=DIRECTION('center_axis',(1.,-1.20831839940331E-14,1.04510261153809E-15));
#1573=DIRECTION('ref_axis',(-1.20831839940331E-14,-1.,0.));
#1574=DIRECTION('',(1.,-1.20831839940331E-14,1.04510261153809E-15));
#1575=DIRECTION('center_axis',(-1.,0.,0.));
#1576=DIRECTION('ref_axis',(-1.20831839940331E-14,-1.,0.));
#1577=DIRECTION('center_axis',(1.,-1.20831839940331E-14,1.04510261153809E-15));
#1578=DIRECTION('ref_axis',(-1.20831839940331E-14,-1.,0.));
#1579=DIRECTION('',(1.,-1.20831839940331E-14,1.04510261153809E-15));
#1580=DIRECTION('center_axis',(-1.,0.,0.));
#1581=DIRECTION('ref_axis',(-1.20831839940331E-14,-1.,0.));
#1582=DIRECTION('center_axis',(1.,-1.20831839940331E-14,1.04510261153809E-15));
#1583=DIRECTION('ref_axis',(-1.20831839940331E-14,-1.,0.));
#1584=DIRECTION('',(1.,-1.20831839940331E-14,1.04510261153809E-15));
#1585=DIRECTION('center_axis',(-1.,0.,0.));
#1586=DIRECTION('ref_axis',(-1.20831839940331E-14,-1.,0.));
#1587=DIRECTION('center_axis',(1.,-1.20831839940331E-14,1.04510261153809E-15));
#1588=DIRECTION('ref_axis',(-1.20831839940331E-14,-1.,0.));
#1589=DIRECTION('',(1.,-1.20831839940331E-14,1.04510261153809E-15));
#1590=DIRECTION('center_axis',(-1.,0.,0.));
#1591=DIRECTION('ref_axis',(-1.20831839940331E-14,-1.,0.));
#1592=DIRECTION('center_axis',(1.,-1.20831839940331E-14,1.04510261153809E-15));
#1593=DIRECTION('ref_axis',(-1.20831839940331E-14,-1.,0.));
#1594=DIRECTION('',(1.,-1.20831839940331E-14,1.04510261153809E-15));
#1595=DIRECTION('center_axis',(-1.,0.,0.));
#1596=DIRECTION('ref_axis',(-1.20831839940331E-14,-1.,0.));
#1597=DIRECTION('center_axis',(1.,-1.20831839940331E-14,1.04510261153809E-15));
#1598=DIRECTION('ref_axis',(-1.20831839940331E-14,-1.,0.));
#1599=DIRECTION('',(1.,-1.20831839940331E-14,1.04510261153809E-15));
#1600=DIRECTION('center_axis',(-1.,0.,0.));
#1601=DIRECTION('ref_axis',(-1.20831839940331E-14,-1.,0.));
#1602=DIRECTION('center_axis',(1.,-1.20831839940331E-14,1.04510261153809E-15));
#1603=DIRECTION('ref_axis',(-1.20831839940331E-14,-1.,0.));
#1604=DIRECTION('',(1.,-1.20831839940331E-14,1.04510261153809E-15));
#1605=DIRECTION('center_axis',(-1.,0.,0.));
#1606=DIRECTION('ref_axis',(-1.20831839940331E-14,-1.,0.));
#1607=DIRECTION('center_axis',(1.,-1.20831839940331E-14,1.04510261153809E-15));
#1608=DIRECTION('ref_axis',(-1.20831839940331E-14,-1.,0.));
#1609=DIRECTION('',(1.,-1.20831839940331E-14,1.04510261153809E-15));
#1610=DIRECTION('center_axis',(-1.,0.,0.));
#1611=DIRECTION('ref_axis',(-1.20831839940331E-14,-1.,0.));
#1612=DIRECTION('center_axis',(1.,-1.20831839940331E-14,1.04510261153809E-15));
#1613=DIRECTION('ref_axis',(-1.20831839940331E-14,-1.,0.));
#1614=DIRECTION('',(1.,-1.20831839940331E-14,1.04510261153809E-15));
#1615=DIRECTION('center_axis',(-1.,0.,0.));
#1616=DIRECTION('ref_axis',(-1.20831839940331E-14,-1.,0.));
#1617=DIRECTION('center_axis',(1.,-1.20831839940331E-14,1.04510261153809E-15));
#1618=DIRECTION('ref_axis',(-1.20831839940331E-14,-1.,0.));
#1619=DIRECTION('',(1.,-1.20831839940331E-14,1.04510261153809E-15));
#1620=DIRECTION('center_axis',(-1.,0.,0.));
#1621=DIRECTION('ref_axis',(-1.20831839940331E-14,-1.,0.));
#1622=DIRECTION('center_axis',(1.,-1.20831839940331E-14,1.04510261153809E-15));
#1623=DIRECTION('ref_axis',(-1.20831839940331E-14,-1.,0.));
#1624=DIRECTION('',(1.,-1.20831839940331E-14,1.04510261153809E-15));
#1625=DIRECTION('center_axis',(-1.,0.,0.));
#1626=DIRECTION('ref_axis',(-1.20831839940331E-14,-1.,0.));
#1627=DIRECTION('center_axis',(1.,-1.20831839940331E-14,1.04510261153809E-15));
#1628=DIRECTION('ref_axis',(-1.20831839940331E-14,-1.,0.));
#1629=DIRECTION('',(1.,-1.20831839940331E-14,1.04510261153809E-15));
#1630=DIRECTION('center_axis',(-1.,0.,0.));
#1631=DIRECTION('ref_axis',(-1.20831839940331E-14,-1.,0.));
#1632=DIRECTION('center_axis',(1.,-1.20831839940331E-14,1.04510261153809E-15));
#1633=DIRECTION('ref_axis',(-1.20831839940331E-14,-1.,0.));
#1634=DIRECTION('',(1.,-1.20831839940331E-14,1.04510261153809E-15));
#1635=DIRECTION('center_axis',(-1.,0.,0.));
#1636=DIRECTION('ref_axis',(-1.20831839940331E-14,-1.,0.));
#1637=DIRECTION('center_axis',(1.,-1.20831839940331E-14,1.04510261153809E-15));
#1638=DIRECTION('ref_axis',(-1.20831839940331E-14,-1.,0.));
#1639=DIRECTION('',(1.,-1.20831839940331E-14,1.04510261153809E-15));
#1640=DIRECTION('center_axis',(-1.,0.,0.));
#1641=DIRECTION('ref_axis',(-1.20831839940331E-14,-1.,0.));
#1642=DIRECTION('center_axis',(1.,-1.20831839940331E-14,1.04510261153809E-15));
#1643=DIRECTION('ref_axis',(-1.20831839940331E-14,-1.,0.));
#1644=DIRECTION('',(1.,-1.20831839940331E-14,1.04510261153809E-15));
#1645=DIRECTION('center_axis',(-1.,0.,0.));
#1646=DIRECTION('ref_axis',(-1.20831839940331E-14,-1.,0.));
#1647=DIRECTION('center_axis',(-1.,0.,0.));
#1648=DIRECTION('ref_axis',(0.,1.,0.));
#1649=DIRECTION('center_axis',(-1.,0.,0.));
#1650=DIRECTION('ref_axis',(0.,1.,0.));
#1651=DIRECTION('',(-1.,0.,0.));
#1652=DIRECTION('center_axis',(1.,0.,0.));
#1653=DIRECTION('ref_axis',(0.,1.,0.));
#1654=DIRECTION('center_axis',(-1.,0.,0.));
#1655=DIRECTION('ref_axis',(0.,1.,0.));
#1656=DIRECTION('center_axis',(-1.,0.,0.));
#1657=DIRECTION('ref_axis',(0.,1.,0.));
#1658=DIRECTION('',(-1.,0.,0.));
#1659=DIRECTION('center_axis',(1.,0.,0.));
#1660=DIRECTION('ref_axis',(0.,1.,0.));
#1661=DIRECTION('center_axis',(-1.,0.,0.));
#1662=DIRECTION('ref_axis',(0.,1.,0.));
#1663=DIRECTION('center_axis',(-1.,0.,0.));
#1664=DIRECTION('ref_axis',(0.,1.,0.));
#1665=DIRECTION('',(-1.,0.,0.));
#1666=DIRECTION('center_axis',(1.,0.,0.));
#1667=DIRECTION('ref_axis',(0.,1.,0.));
#1668=DIRECTION('center_axis',(-1.,0.,0.));
#1669=DIRECTION('ref_axis',(0.,1.,0.));
#1670=DIRECTION('center_axis',(-1.,0.,0.));
#1671=DIRECTION('ref_axis',(0.,1.,0.));
#1672=DIRECTION('',(-1.,0.,0.));
#1673=DIRECTION('center_axis',(1.,0.,0.));
#1674=DIRECTION('ref_axis',(0.,1.,0.));
#1675=DIRECTION('center_axis',(-1.,0.,0.));
#1676=DIRECTION('ref_axis',(0.,1.,0.));
#1677=DIRECTION('center_axis',(-1.,0.,0.));
#1678=DIRECTION('ref_axis',(0.,1.,0.));
#1679=DIRECTION('',(-1.,0.,0.));
#1680=DIRECTION('center_axis',(1.,0.,0.));
#1681=DIRECTION('ref_axis',(0.,1.,0.));
#1682=DIRECTION('center_axis',(-1.,0.,0.));
#1683=DIRECTION('ref_axis',(0.,1.,0.));
#1684=DIRECTION('center_axis',(-1.,0.,0.));
#1685=DIRECTION('ref_axis',(0.,1.,0.));
#1686=DIRECTION('',(-1.,0.,0.));
#1687=DIRECTION('center_axis',(1.,0.,0.));
#1688=DIRECTION('ref_axis',(0.,1.,0.));
#1689=DIRECTION('center_axis',(-1.,0.,0.));
#1690=DIRECTION('ref_axis',(0.,1.,0.));
#1691=DIRECTION('center_axis',(-1.,0.,0.));
#1692=DIRECTION('ref_axis',(0.,1.,0.));
#1693=DIRECTION('',(-1.,0.,0.));
#1694=DIRECTION('center_axis',(1.,0.,0.));
#1695=DIRECTION('ref_axis',(0.,1.,0.));
#1696=DIRECTION('center_axis',(-1.,0.,0.));
#1697=DIRECTION('ref_axis',(0.,1.,0.));
#1698=DIRECTION('center_axis',(-1.,0.,0.));
#1699=DIRECTION('ref_axis',(0.,1.,0.));
#1700=DIRECTION('',(-1.,0.,0.));
#1701=DIRECTION('center_axis',(1.,0.,0.));
#1702=DIRECTION('ref_axis',(0.,1.,0.));
#1703=DIRECTION('center_axis',(-1.,0.,0.));
#1704=DIRECTION('ref_axis',(0.,1.,0.));
#1705=DIRECTION('center_axis',(-1.,0.,0.));
#1706=DIRECTION('ref_axis',(0.,1.,0.));
#1707=DIRECTION('',(-1.,0.,0.));
#1708=DIRECTION('center_axis',(1.,0.,0.));
#1709=DIRECTION('ref_axis',(0.,1.,0.));
#1710=DIRECTION('center_axis',(-1.,0.,0.));
#1711=DIRECTION('ref_axis',(0.,1.,0.));
#1712=DIRECTION('center_axis',(-1.,0.,0.));
#1713=DIRECTION('ref_axis',(0.,1.,0.));
#1714=DIRECTION('',(-1.,0.,0.));
#1715=DIRECTION('center_axis',(1.,0.,0.));
#1716=DIRECTION('ref_axis',(0.,1.,0.));
#1717=DIRECTION('center_axis',(-1.,0.,0.));
#1718=DIRECTION('ref_axis',(0.,1.,0.));
#1719=DIRECTION('center_axis',(-1.,0.,0.));
#1720=DIRECTION('ref_axis',(0.,1.,0.));
#1721=DIRECTION('',(-1.,0.,0.));
#1722=DIRECTION('center_axis',(1.,0.,0.));
#1723=DIRECTION('ref_axis',(0.,1.,0.));
#1724=DIRECTION('center_axis',(-1.,0.,0.));
#1725=DIRECTION('ref_axis',(0.,1.,0.));
#1726=DIRECTION('center_axis',(-1.,0.,0.));
#1727=DIRECTION('ref_axis',(0.,1.,0.));
#1728=DIRECTION('',(-1.,0.,0.));
#1729=DIRECTION('center_axis',(1.,0.,0.));
#1730=DIRECTION('ref_axis',(0.,1.,0.));
#1731=DIRECTION('center_axis',(-1.,0.,0.));
#1732=DIRECTION('ref_axis',(0.,1.,0.));
#1733=DIRECTION('center_axis',(0.,-0.96392332044745,0.266180074944694));
#1734=DIRECTION('ref_axis',(0.,-0.266180074944694,-0.96392332044745));
#1735=DIRECTION('',(-1.,0.,0.));
#1736=DIRECTION('',(-0.359754329387771,-0.248358537258087,-0.899385823469427));
#1737=DIRECTION('',(0.,-0.266180074944694,-0.96392332044745));
#1738=DIRECTION('',(1.,0.,0.));
#1739=DIRECTION('',(0.0641292786674599,0.265632169692655,0.961939180011899));
#1740=DIRECTION('center_axis',(1.,0.,0.));
#1741=DIRECTION('ref_axis',(0.,7.04481399828022E-16,-1.));
#1742=DIRECTION('center_axis',(1.,0.,0.));
#1743=DIRECTION('ref_axis',(0.,1.,0.));
#1744=DIRECTION('',(1.,0.,0.));
#1745=DIRECTION('center_axis',(0.928476690885259,0.,-0.371390676354104));
#1746=DIRECTION('ref_axis',(0.371390676354104,0.,0.928476690885259));
#1747=DIRECTION('center_axis',(1.,0.,0.));
#1748=DIRECTION('ref_axis',(0.,1.,0.));
#1749=DIRECTION('center_axis',(0.928476690885259,0.,-0.371390676354104));
#1750=DIRECTION('ref_axis',(0.371390676354104,0.,0.928476690885259));
#1751=DIRECTION('center_axis',(0.928476690885259,0.,-0.371390676354104));
#1752=DIRECTION('ref_axis',(-0.371390676354104,0.,-0.928476690885259));
#1753=DIRECTION('center_axis',(-0.928476690885259,0.,0.371390676354104));
#1754=DIRECTION('ref_axis',(0.371390676354104,0.,0.928476690885259));
#1755=DIRECTION('center_axis',(-0.928476690885259,0.,0.371390676354104));
#1756=DIRECTION('ref_axis',(0.371390676354104,0.,0.928476690885259));
#1757=DIRECTION('',(0.,-1.,0.));
#1758=DIRECTION('',(0.359754329387771,-0.248358537258087,0.899385823469427));
#1759=DIRECTION('',(0.,-1.,0.));
#1760=DIRECTION('',(0.,-1.,0.));
#1761=DIRECTION('center_axis',(0.,0.96392332044745,0.266180074944694));
#1762=DIRECTION('ref_axis',(0.,-0.266180074944694,0.96392332044745));
#1763=DIRECTION('',(0.0641292786674599,-0.265632169692655,0.961939180011899));
#1764=DIRECTION('',(-1.,0.,0.));
#1765=DIRECTION('',(0.,0.266180074944694,-0.96392332044745));
#1766=DIRECTION('center_axis',(-1.,0.,0.));
#1767=DIRECTION('ref_axis',(0.,1.,0.));
#1768=DIRECTION('center_axis',(-1.,0.,0.));
#1769=DIRECTION('ref_axis',(0.,1.,0.));
#1770=DIRECTION('center_axis',(-1.,0.,0.));
#1771=DIRECTION('ref_axis',(0.,1.,0.));
#1772=DIRECTION('center_axis',(-1.,0.,0.));
#1773=DIRECTION('ref_axis',(0.,1.,0.));
#1774=DIRECTION('center_axis',(-1.,0.,0.));
#1775=DIRECTION('ref_axis',(0.,1.,0.));
#1776=DIRECTION('',(-1.,0.,0.));
#1777=DIRECTION('center_axis',(-1.,0.,0.));
#1778=DIRECTION('ref_axis',(0.,1.,0.));
#1779=DIRECTION('',(-1.,0.,0.));
#1780=DIRECTION('center_axis',(1.,0.,0.));
#1781=DIRECTION('ref_axis',(0.,1.,0.));
#1782=DIRECTION('center_axis',(-0.928476690885259,0.,-0.371390676354104));
#1783=DIRECTION('ref_axis',(-0.371390676354104,0.,0.928476690885259));
#1784=DIRECTION('',(0.359754329387771,0.248358537258087,-0.899385823469427));
#1785=DIRECTION('',(0.,1.,0.));
#1786=DIRECTION('',(0.359754329387771,-0.248358537258087,-0.899385823469427));
#1787=DIRECTION('center_axis',(0.,-0.96392332044745,0.266180074944694));
#1788=DIRECTION('ref_axis',(0.,-0.266180074944694,-0.96392332044745));
#1789=DIRECTION('',(1.,0.,0.));
#1790=DIRECTION('',(-1.,0.,0.));
#1791=DIRECTION('',(0.0641292786674599,-0.265632169692655,-0.961939180011899));
#1792=DIRECTION('center_axis',(0.997785157856609,0.,0.0665190105237739));
#1793=DIRECTION('ref_axis',(0.0665190105237739,0.,-0.997785157856609));
#1794=DIRECTION('center_axis',(0.997785157856609,0.,0.0665190105237739));
#1795=DIRECTION('ref_axis',(0.0665190105237739,0.,-0.997785157856609));
#1796=DIRECTION('',(0.,-1.,0.));
#1797=DIRECTION('',(0.0641292786674599,0.265632169692655,-0.961939180011899));
#1798=DIRECTION('center_axis',(0.,0.96392332044745,0.266180074944694));
#1799=DIRECTION('ref_axis',(0.,-0.266180074944694,0.96392332044745));
#1800=DIRECTION('',(-1.,0.,0.));
#1801=DIRECTION('',(1.,0.,0.));
#1802=DIRECTION('center_axis',(-1.,0.,0.));
#1803=DIRECTION('ref_axis',(0.,1.,0.));
#1804=DIRECTION('center_axis',(-1.,0.,0.));
#1805=DIRECTION('ref_axis',(0.,1.,0.));
#1806=DIRECTION('center_axis',(-1.,0.,0.));
#1807=DIRECTION('ref_axis',(0.,1.,0.));
#1808=DIRECTION('center_axis',(-1.,0.,0.));
#1809=DIRECTION('ref_axis',(0.,1.,0.));
#1810=DIRECTION('center_axis',(-1.,0.,0.));
#1811=DIRECTION('ref_axis',(0.,-1.83697019872103E-16,1.));
#1812=DIRECTION('center_axis',(0.,-1.,0.));
#1813=DIRECTION('ref_axis',(1.,0.,0.));
#1814=DIRECTION('',(0.,0.,1.));
#1815=DIRECTION('',(0.,0.,1.));
#1816=DIRECTION('center_axis',(-1.,0.,0.));
#1817=DIRECTION('ref_axis',(0.,-1.,0.));
#1818=DIRECTION('',(0.,-1.,0.));
#1819=DIRECTION('',(0.,0.,1.));
#1820=DIRECTION('center_axis',(0.,1.,0.));
#1821=DIRECTION('ref_axis',(-1.,0.,0.));
#1822=DIRECTION('',(0.,0.,1.));
#1823=DIRECTION('center_axis',(1.,0.,0.));
#1824=DIRECTION('ref_axis',(0.,1.,0.));
#1825=DIRECTION('center_axis',(-0.997785157856609,0.,0.0665190105237739));
#1826=DIRECTION('ref_axis',(0.0665190105237739,0.,0.997785157856609));
#1827=DIRECTION('center_axis',(-0.997785157856609,0.,0.0665190105237739));
#1828=DIRECTION('ref_axis',(0.0665190105237739,0.,0.997785157856609));
#1829=DIRECTION('center_axis',(1.,0.,0.));
#1830=DIRECTION('ref_axis',(0.,1.,0.));
#1831=DIRECTION('center_axis',(1.,0.,0.));
#1832=DIRECTION('ref_axis',(0.,1.,0.));
#1833=DIRECTION('center_axis',(1.,0.,0.));
#1834=DIRECTION('ref_axis',(0.,1.,0.));
#1835=DIRECTION('center_axis',(1.,0.,0.));
#1836=DIRECTION('ref_axis',(0.,1.,0.));
#1837=CARTESIAN_POINT('',(0.,0.,0.));
#1838=CARTESIAN_POINT('Origin',(5.,-7.06789929214115E-15,1300.));
#1839=CARTESIAN_POINT('',(0.,135.,1300.));
#1840=CARTESIAN_POINT('Origin',(0.,-7.06789929214115E-15,1300.));
#1841=CARTESIAN_POINT('',(10.,135.,1300.));
#1842=CARTESIAN_POINT('',(5.,135.,1300.));
#1843=CARTESIAN_POINT('Origin',(10.,-7.06789929214115E-15,1300.));
#1844=CARTESIAN_POINT('Origin',(10.,-7.06789929214115E-15,1300.));
#1845=CARTESIAN_POINT('',(9.99999999999898,-77.377940008233,1382.37794000823));
#1846=CARTESIAN_POINT('Origin',(9.99999999999892,-82.377940008233,1382.37794000823));
#1847=CARTESIAN_POINT('',(10.0000000000012,105.891959540887,1358.25));
#1848=CARTESIAN_POINT('Origin',(10.0000000000012,100.891959540887,1358.25));
#1849=CARTESIAN_POINT('',(10.000000000001,87.3779400082327,1382.37794000824));
#1850=CARTESIAN_POINT('Origin',(10.0000000000009,82.3779400082327,1382.37794000824));
#1851=CARTESIAN_POINT('',(10.0000000000013,105.891959540887,1241.75));
#1852=CARTESIAN_POINT('Origin',(10.0000000000013,100.891959540887,1241.75));
#1853=CARTESIAN_POINT('',(10.0000000000015,121.5,1300.));
#1854=CARTESIAN_POINT('Origin',(10.0000000000014,116.5,1300.));
#1855=CARTESIAN_POINT('',(10.0000000000009,63.2499999999999,1199.10804045912));
#1856=CARTESIAN_POINT('Origin',(10.0000000000008,58.2499999999999,1199.10804045912));
#1857=CARTESIAN_POINT('',(9.99999999999981,-25.1524187544438,1187.46964123732));
#1858=CARTESIAN_POINT('Origin',(9.99999999999975,-30.1524187544438,1187.46964123732));
#1859=CARTESIAN_POINT('',(10.0000000000005,35.1524187544436,1187.46964123732));
#1860=CARTESIAN_POINT('Origin',(10.0000000000005,30.1524187544436,1187.46964123732));
#1861=CARTESIAN_POINT('',(9.99999999999865,-111.5,1300.));
#1862=CARTESIAN_POINT('Origin',(9.99999999999859,-116.5,1300.));
#1863=CARTESIAN_POINT('',(9.99999999999873,-107.530358762677,1269.84758124555));
#1864=CARTESIAN_POINT('Origin',(9.99999999999867,-112.530358762677,1269.84758124555));
#1865=CARTESIAN_POINT('',(9.99999999999915,-77.3779400082328,1217.62205999176));
#1866=CARTESIAN_POINT('Origin',(9.99999999999909,-82.3779400082328,1217.62205999176));
#1867=CARTESIAN_POINT('',(9.99999999999958,-25.1524187544439,1412.53035876268));
#1868=CARTESIAN_POINT('Origin',(9.99999999999952,-30.1524187544439,1412.53035876268));
#1869=CARTESIAN_POINT('',(9.99999999999994,4.99999999999988,1416.5));
#1870=CARTESIAN_POINT('Origin',(9.99999999999988,-1.2083183928669E-13,1416.5));
#1871=CARTESIAN_POINT('',(9.99999999999925,-53.2500000000002,1400.89195954088));
#1872=CARTESIAN_POINT('Origin',(9.99999999999919,-58.2500000000002,1400.89195954088));
#1873=CARTESIAN_POINT('',(9.9999999999989,-95.8919595408872,1241.75));
#1874=CARTESIAN_POINT('Origin',(9.99999999999884,-100.891959540887,1241.75));
#1875=CARTESIAN_POINT('',(9.99999999999878,-95.8919595408874,1358.25));
#1876=CARTESIAN_POINT('Origin',(9.99999999999872,-100.891959540887,1358.25));
#1877=CARTESIAN_POINT('',(9.99999999999867,-107.530358762677,1330.15241875444));
#1878=CARTESIAN_POINT('Origin',(9.99999999999861,-112.530358762677,1330.15241875444));
#1879=CARTESIAN_POINT('',(10.0000000000002,4.99999999999989,1183.5));
#1880=CARTESIAN_POINT('Origin',(10.0000000000001,-1.06564705383905E-13,
1183.5));
#1881=CARTESIAN_POINT('',(9.99999999999947,-53.2500000000002,1199.10804045911));
#1882=CARTESIAN_POINT('Origin',(9.9999999999994,-58.2500000000002,1199.10804045911));
#1883=CARTESIAN_POINT('',(10.0000000000014,117.530358762676,1269.84758124556));
#1884=CARTESIAN_POINT('Origin',(10.0000000000014,112.530358762676,1269.84758124556));
#1885=CARTESIAN_POINT('',(10.0000000000014,117.530358762676,1330.15241875445));
#1886=CARTESIAN_POINT('Origin',(10.0000000000013,112.530358762676,1330.15241875445));
#1887=CARTESIAN_POINT('',(10.0000000000007,63.2499999999999,1400.89195954089));
#1888=CARTESIAN_POINT('Origin',(10.0000000000006,58.2499999999999,1400.89195954089));
#1889=CARTESIAN_POINT('',(10.0000000000011,87.3779400082327,1217.62205999177));
#1890=CARTESIAN_POINT('Origin',(10.0000000000011,82.3779400082327,1217.62205999177));
#1891=CARTESIAN_POINT('',(10.0000000000003,35.1524187544436,1412.53035876268));
#1892=CARTESIAN_POINT('Origin',(10.0000000000002,30.1524187544436,1412.53035876268));
#1893=CARTESIAN_POINT('',(10.,-102.5,1300.));
#1894=CARTESIAN_POINT('Origin',(10.,-4.87271479064922E-15,1300.));
#1895=CARTESIAN_POINT('Origin',(108.25,-4.87271479064922E-15,1300.));
#1896=CARTESIAN_POINT('',(50.4,130.,1300.));
#1897=CARTESIAN_POINT('Origin',(50.4,-4.87271479064922E-15,1300.));
#1898=CARTESIAN_POINT('',(100.,130.,1300.));
#1899=CARTESIAN_POINT('',(108.25,130.,1300.));
#1900=CARTESIAN_POINT('',(100.,-120.,1250.));
#1901=CARTESIAN_POINT('Origin',(100.,-4.87271479064922E-15,1300.));
#1902=CARTESIAN_POINT('',(100.,120.,1250.));
#1903=CARTESIAN_POINT('Origin',(80.,-4.87271479064922E-15,1300.));
#1904=CARTESIAN_POINT('Origin',(100.,-4.87271479064922E-15,1300.));
#1905=CARTESIAN_POINT('Origin',(100.,0.,1300.));
#1906=CARTESIAN_POINT('',(100.,141.42135623731,1250.));
#1907=CARTESIAN_POINT('',(100.,0.,1250.));
#1908=CARTESIAN_POINT('',(100.,-141.42135623731,1250.));
#1909=CARTESIAN_POINT('Origin',(100.,0.,1300.));
#1910=CARTESIAN_POINT('',(100.,0.,1250.));
#1911=CARTESIAN_POINT('Origin',(20.2499999999984,-4.87271479064922E-15,
1300.));
#1912=CARTESIAN_POINT('',(50.4,-102.5,1300.));
#1913=CARTESIAN_POINT('Origin',(50.4,-4.87271479064922E-15,1300.));
#1914=CARTESIAN_POINT('',(20.2499999999984,-102.5,1300.));
#1915=CARTESIAN_POINT('Origin',(34.9999999999989,30.1524187544433,1412.53035876268));
#1916=CARTESIAN_POINT('',(50.4000000000003,35.1524187544431,1412.53035876268));
#1917=CARTESIAN_POINT('',(34.9999999999989,35.1524187544433,1412.53035876268));
#1918=CARTESIAN_POINT('Origin',(50.4000000000002,30.1524187544431,1412.53035876268));
#1919=CARTESIAN_POINT('Origin',(34.9999999999997,82.3779400082324,1217.62205999177));
#1920=CARTESIAN_POINT('',(50.4000000000011,87.3779400082323,1217.62205999177));
#1921=CARTESIAN_POINT('',(34.9999999999998,87.3779400082324,1217.62205999177));
#1922=CARTESIAN_POINT('Origin',(50.4000000000011,82.3779400082323,1217.62205999177));
#1923=CARTESIAN_POINT('Origin',(34.9999999999992,58.2499999999996,1400.89195954089));
#1924=CARTESIAN_POINT('',(50.4000000000007,63.2499999999994,1400.89195954089));
#1925=CARTESIAN_POINT('',(34.9999999999993,63.2499999999996,1400.89195954089));
#1926=CARTESIAN_POINT('Origin',(50.4000000000006,58.2499999999994,1400.89195954089));
#1927=CARTESIAN_POINT('Origin',(35.,112.530358762676,1330.15241875445));
#1928=CARTESIAN_POINT('',(50.4000000000014,117.530358762676,1330.15241875445));
#1929=CARTESIAN_POINT('',(35.,117.530358762676,1330.15241875445));
#1930=CARTESIAN_POINT('Origin',(50.4000000000013,112.530358762676,1330.15241875445));
#1931=CARTESIAN_POINT('Origin',(35.,112.530358762676,1269.84758124556));
#1932=CARTESIAN_POINT('',(50.4000000000015,117.530358762676,1269.84758124556));
#1933=CARTESIAN_POINT('',(35.0000000000001,117.530358762676,1269.84758124556));
#1934=CARTESIAN_POINT('Origin',(50.4000000000014,112.530358762676,1269.84758124556));
#1935=CARTESIAN_POINT('Origin',(34.999999999998,-58.2500000000005,1199.10804045911));
#1936=CARTESIAN_POINT('',(50.3999999999995,-53.2500000000006,1199.10804045911));
#1937=CARTESIAN_POINT('',(34.9999999999981,-53.2500000000005,1199.10804045911));
#1938=CARTESIAN_POINT('Origin',(50.3999999999994,-58.2500000000006,1199.10804045911));
#1939=CARTESIAN_POINT('Origin',(34.9999999999988,-4.08644305234717E-13,
1183.5));
#1940=CARTESIAN_POINT('',(50.4000000000002,4.99999999999941,1183.5));
#1941=CARTESIAN_POINT('',(34.9999999999988,4.99999999999959,1183.5));
#1942=CARTESIAN_POINT('Origin',(50.4000000000001,-5.94725338742843E-13,
1183.5));
#1943=CARTESIAN_POINT('Origin',(34.9999999999973,-112.530358762677,1330.15241875444));
#1944=CARTESIAN_POINT('',(50.3999999999987,-107.530358762677,1330.15241875444));
#1945=CARTESIAN_POINT('',(34.9999999999973,-107.530358762677,1330.15241875444));
#1946=CARTESIAN_POINT('Origin',(50.3999999999986,-112.530358762677,1330.15241875444));
#1947=CARTESIAN_POINT('Origin',(34.9999999999974,-100.891959540888,1358.25));
#1948=CARTESIAN_POINT('',(50.3999999999988,-95.8919595408878,1358.25));
#1949=CARTESIAN_POINT('',(34.9999999999974,-95.8919595408877,1358.25));
#1950=CARTESIAN_POINT('Origin',(50.3999999999987,-100.891959540888,1358.25));
#1951=CARTESIAN_POINT('Origin',(34.9999999999975,-100.891959540888,1241.75));
#1952=CARTESIAN_POINT('',(50.3999999999989,-95.8919595408877,1241.75));
#1953=CARTESIAN_POINT('',(34.9999999999975,-95.8919595408875,1241.75));
#1954=CARTESIAN_POINT('Origin',(50.3999999999988,-100.891959540888,1241.75));
#1955=CARTESIAN_POINT('Origin',(34.9999999999978,-58.2500000000005,1400.89195954088));
#1956=CARTESIAN_POINT('',(50.3999999999993,-53.2500000000006,1400.89195954088));
#1957=CARTESIAN_POINT('',(34.9999999999979,-53.2500000000005,1400.89195954088));
#1958=CARTESIAN_POINT('Origin',(50.3999999999992,-58.2500000000006,1400.89195954088));
#1959=CARTESIAN_POINT('Origin',(34.9999999999985,-4.22911439137502E-13,
1416.5));
#1960=CARTESIAN_POINT('',(50.3999999999999,4.99999999999939,1416.5));
#1961=CARTESIAN_POINT('',(34.9999999999986,4.99999999999958,1416.5));
#1962=CARTESIAN_POINT('Origin',(50.3999999999999,-6.08992472645629E-13,
1416.5));
#1963=CARTESIAN_POINT('Origin',(34.9999999999982,-30.1524187544442,1412.53035876268));
#1964=CARTESIAN_POINT('',(50.3999999999996,-25.1524187544444,1412.53035876268));
#1965=CARTESIAN_POINT('',(34.9999999999982,-25.1524187544442,1412.53035876268));
#1966=CARTESIAN_POINT('Origin',(50.3999999999995,-30.1524187544444,1412.53035876268));
#1967=CARTESIAN_POINT('Origin',(34.9999999999977,-82.3779400082331,1217.62205999176));
#1968=CARTESIAN_POINT('',(50.3999999999992,-77.3779400082333,1217.62205999176));
#1969=CARTESIAN_POINT('',(34.9999999999978,-77.3779400082331,1217.62205999176));
#1970=CARTESIAN_POINT('Origin',(50.3999999999991,-82.3779400082333,1217.62205999176));
#1971=CARTESIAN_POINT('Origin',(34.9999999999973,-112.530358762677,1269.84758124555));
#1972=CARTESIAN_POINT('',(50.3999999999987,-107.530358762677,1269.84758124555));
#1973=CARTESIAN_POINT('',(34.9999999999974,-107.530358762677,1269.84758124555));
#1974=CARTESIAN_POINT('Origin',(50.3999999999987,-112.530358762677,1269.84758124555));
#1975=CARTESIAN_POINT('Origin',(34.9999999999972,-116.5,1300.));
#1976=CARTESIAN_POINT('',(50.3999999999986,-111.500000000001,1300.));
#1977=CARTESIAN_POINT('',(34.9999999999973,-111.5,1300.));
#1978=CARTESIAN_POINT('Origin',(50.3999999999986,-116.500000000001,1300.));
#1979=CARTESIAN_POINT('Origin',(34.9999999999991,30.1524187544433,1187.46964123732));
#1980=CARTESIAN_POINT('',(50.4000000000005,35.1524187544431,1187.46964123732));
#1981=CARTESIAN_POINT('',(34.9999999999992,35.1524187544433,1187.46964123732));
#1982=CARTESIAN_POINT('Origin',(50.4000000000005,30.1524187544431,1187.46964123732));
#1983=CARTESIAN_POINT('Origin',(34.9999999999984,-30.1524187544441,1187.46964123732));
#1984=CARTESIAN_POINT('',(50.3999999999998,-25.1524187544443,1187.46964123732));
#1985=CARTESIAN_POINT('',(34.9999999999985,-25.1524187544441,1187.46964123732));
#1986=CARTESIAN_POINT('Origin',(50.3999999999997,-30.1524187544443,1187.46964123732));
#1987=CARTESIAN_POINT('Origin',(34.9999999999994,58.2499999999996,1199.10804045912));
#1988=CARTESIAN_POINT('',(50.4000000000009,63.2499999999994,1199.10804045912));
#1989=CARTESIAN_POINT('',(34.9999999999995,63.2499999999996,1199.10804045912));
#1990=CARTESIAN_POINT('Origin',(50.4000000000008,58.2499999999994,1199.10804045912));
#1991=CARTESIAN_POINT('Origin',(35.,116.5,1300.));
#1992=CARTESIAN_POINT('',(50.4000000000015,121.499999999999,1300.));
#1993=CARTESIAN_POINT('',(35.0000000000001,121.5,1300.));
#1994=CARTESIAN_POINT('Origin',(50.4000000000014,116.499999999999,1300.));
#1995=CARTESIAN_POINT('Origin',(34.9999999999999,100.891959540887,1241.75));
#1996=CARTESIAN_POINT('',(50.4000000000013,105.891959540887,1241.75));
#1997=CARTESIAN_POINT('',(35.,105.891959540887,1241.75));
#1998=CARTESIAN_POINT('Origin',(50.4000000000013,100.891959540887,1241.75));
#1999=CARTESIAN_POINT('Origin',(34.9999999999996,82.3779400082324,1382.37794000824));
#2000=CARTESIAN_POINT('',(50.400000000001,87.3779400082323,1382.37794000824));
#2001=CARTESIAN_POINT('',(34.9999999999996,87.3779400082324,1382.37794000824));
#2002=CARTESIAN_POINT('Origin',(50.4000000000009,82.3779400082323,1382.37794000824));
#2003=CARTESIAN_POINT('Origin',(34.9999999999998,100.891959540887,1358.25));
#2004=CARTESIAN_POINT('',(50.4000000000012,105.891959540886,1358.25));
#2005=CARTESIAN_POINT('',(34.9999999999999,105.891959540887,1358.25));
#2006=CARTESIAN_POINT('Origin',(50.4000000000012,100.891959540886,1358.25));
#2007=CARTESIAN_POINT('Origin',(34.9999999999976,-82.3779400082333,1382.37794000823));
#2008=CARTESIAN_POINT('',(50.399999999999,-77.3779400082335,1382.37794000823));
#2009=CARTESIAN_POINT('',(34.9999999999976,-77.3779400082333,1382.37794000823));
#2010=CARTESIAN_POINT('Origin',(50.3999999999989,-82.3779400082335,1382.37794000823));
#2011=CARTESIAN_POINT('Origin',(7.5,-66.2320456790886,29.4884066229955));
#2012=CARTESIAN_POINT('',(15.,-74.2320456790886,29.4884066229955));
#2013=CARTESIAN_POINT('Origin',(15.,-66.2320456790886,29.4884066229955));
#2014=CARTESIAN_POINT('',(0.,-74.2320456790886,29.4884066229955));
#2015=CARTESIAN_POINT('',(7.5,-74.2320456790886,29.4884066229955));
#2016=CARTESIAN_POINT('Origin',(0.,-66.2320456790886,29.4884066229955));
#2017=CARTESIAN_POINT('Origin',(7.5,-66.2320456790886,-29.4884066229955));
#2018=CARTESIAN_POINT('',(15.,-74.2320456790886,-29.4884066229955));
#2019=CARTESIAN_POINT('Origin',(15.,-66.2320456790886,-29.4884066229955));
#2020=CARTESIAN_POINT('',(0.,-74.2320456790886,-29.4884066229955));
#2021=CARTESIAN_POINT('',(7.5,-74.2320456790886,-29.4884066229955));
#2022=CARTESIAN_POINT('Origin',(0.,-66.2320456790886,-29.4884066229955));
#2023=CARTESIAN_POINT('Origin',(7.5,-8.87868929381831E-15,-72.5));
#2024=CARTESIAN_POINT('',(15.,-8.00000000000001,-72.5));
#2025=CARTESIAN_POINT('Origin',(15.,-8.87868929381831E-15,-72.5));
#2026=CARTESIAN_POINT('',(0.,-8.00000000000001,-72.5));
#2027=CARTESIAN_POINT('',(7.5,-8.00000000000001,-72.5));
#2028=CARTESIAN_POINT('Origin',(0.,-8.87868929381831E-15,-72.5));
#2029=CARTESIAN_POINT('Origin',(7.5,66.2320456790886,-29.4884066229955));
#2030=CARTESIAN_POINT('',(15.,58.2320456790886,-29.4884066229955));
#2031=CARTESIAN_POINT('Origin',(15.,66.2320456790886,-29.4884066229955));
#2032=CARTESIAN_POINT('',(0.,58.2320456790886,-29.4884066229955));
#2033=CARTESIAN_POINT('',(7.5,58.2320456790886,-29.4884066229955));
#2034=CARTESIAN_POINT('Origin',(0.,66.2320456790886,-29.4884066229955));
#2035=CARTESIAN_POINT('Origin',(7.5,29.4884066229955,66.2320456790886));
#2036=CARTESIAN_POINT('',(15.,21.4884066229955,66.2320456790886));
#2037=CARTESIAN_POINT('Origin',(15.,29.4884066229955,66.2320456790886));
#2038=CARTESIAN_POINT('',(0.,21.4884066229955,66.2320456790886));
#2039=CARTESIAN_POINT('',(7.5,21.4884066229955,66.2320456790886));
#2040=CARTESIAN_POINT('Origin',(0.,29.4884066229955,66.2320456790886));
#2041=CARTESIAN_POINT('Origin',(7.5,-29.4884066229955,66.2320456790886));
#2042=CARTESIAN_POINT('',(15.,-37.4884066229955,66.2320456790886));
#2043=CARTESIAN_POINT('Origin',(15.,-29.4884066229955,66.2320456790886));
#2044=CARTESIAN_POINT('',(0.,-37.4884066229955,66.2320456790886));
#2045=CARTESIAN_POINT('',(7.5,-37.4884066229955,66.2320456790886));
#2046=CARTESIAN_POINT('Origin',(0.,-29.4884066229955,66.2320456790886));
#2047=CARTESIAN_POINT('Origin',(7.5,0.,72.5));
#2048=CARTESIAN_POINT('',(15.,-8.,72.5));
#2049=CARTESIAN_POINT('Origin',(15.,0.,72.5));
#2050=CARTESIAN_POINT('',(0.,-8.,72.5));
#2051=CARTESIAN_POINT('',(7.5,-8.,72.5));
#2052=CARTESIAN_POINT('Origin',(0.,0.,72.5));
#2053=CARTESIAN_POINT('Origin',(7.5,72.5,-1.60982338570648E-14));
#2054=CARTESIAN_POINT('',(15.,64.5,-1.51185164177469E-14));
#2055=CARTESIAN_POINT('Origin',(15.,72.5,-1.60982338570648E-14));
#2056=CARTESIAN_POINT('',(0.,64.5,-1.51185164177469E-14));
#2057=CARTESIAN_POINT('',(7.5,64.5,-1.51185164177469E-14));
#2058=CARTESIAN_POINT('Origin',(0.,72.5,-1.60982338570648E-14));
#2059=CARTESIAN_POINT('Origin',(7.5,29.4884066229955,-66.2320456790886));
#2060=CARTESIAN_POINT('',(15.,21.4884066229955,-66.2320456790886));
#2061=CARTESIAN_POINT('Origin',(15.,29.4884066229955,-66.2320456790886));
#2062=CARTESIAN_POINT('',(0.,21.4884066229955,-66.2320456790886));
#2063=CARTESIAN_POINT('',(7.5,21.4884066229955,-66.2320456790886));
#2064=CARTESIAN_POINT('Origin',(0.,29.4884066229955,-66.2320456790886));
#2065=CARTESIAN_POINT('Origin',(7.5,-29.4884066229955,-66.2320456790886));
#2066=CARTESIAN_POINT('',(15.,-37.4884066229955,-66.2320456790886));
#2067=CARTESIAN_POINT('Origin',(15.,-29.4884066229955,-66.2320456790886));
#2068=CARTESIAN_POINT('',(0.,-37.4884066229955,-66.2320456790886));
#2069=CARTESIAN_POINT('',(7.5,-37.4884066229955,-66.2320456790886));
#2070=CARTESIAN_POINT('Origin',(0.,-29.4884066229955,-66.2320456790886));
#2071=CARTESIAN_POINT('Origin',(7.5,-72.5,-1.60982338570648E-14));
#2072=CARTESIAN_POINT('',(15.,-80.5,-1.51185164177469E-14));
#2073=CARTESIAN_POINT('Origin',(15.,-72.5,-1.60982338570648E-14));
#2074=CARTESIAN_POINT('',(0.,-80.5,-1.51185164177469E-14));
#2075=CARTESIAN_POINT('',(7.5,-80.5,-1.51185164177469E-14));
#2076=CARTESIAN_POINT('Origin',(0.,-72.5,-1.60982338570648E-14));
#2077=CARTESIAN_POINT('Origin',(7.5,66.2320456790886,29.4884066229955));
#2078=CARTESIAN_POINT('',(15.,58.2320456790886,29.4884066229955));
#2079=CARTESIAN_POINT('Origin',(15.,66.2320456790886,29.4884066229955));
#2080=CARTESIAN_POINT('',(0.,58.2320456790886,29.4884066229955));
#2081=CARTESIAN_POINT('',(7.5,58.2320456790886,29.4884066229955));
#2082=CARTESIAN_POINT('Origin',(0.,66.2320456790886,29.4884066229955));
#2083=CARTESIAN_POINT('Origin',(50.4,0.,1300.));
#2084=CARTESIAN_POINT('Origin',(0.,-141.42135623731,50.));
#2085=CARTESIAN_POINT('',(126.925824035673,-141.421356237309,50.0000000000001));
#2086=CARTESIAN_POINT('',(0.,-141.42135623731,50.));
#2087=CARTESIAN_POINT('',(0.,-141.42135623731,50.));
#2088=CARTESIAN_POINT('',(160.,-118.588402489412,132.685439910819));
#2089=CARTESIAN_POINT('',(116.969839456151,-148.294529303335,25.1100385511963));
#2090=CARTESIAN_POINT('',(160.,-100.,200.));
#2091=CARTESIAN_POINT('',(160.,-120.710678118655,125.));
#2092=CARTESIAN_POINT('',(10.,-100.,200.));
#2093=CARTESIAN_POINT('',(160.,-100.,200.));
#2094=CARTESIAN_POINT('',(0.,-141.42135623731,50.));
#2095=CARTESIAN_POINT('Origin',(0.,0.,0.));
#2096=CARTESIAN_POINT('',(0.,141.42135623731,50.));
#2097=CARTESIAN_POINT('Origin',(0.,0.,0.));
#2098=CARTESIAN_POINT('',(126.925824035673,141.421356237309,50.0000000000002));
#2099=CARTESIAN_POINT('',(0.,141.42135623731,50.));
#2100=CARTESIAN_POINT('',(100.,148.997335576574,-17.3145600891813));
#2101=CARTESIAN_POINT('Origin',(106.925824035673,0.,0.));
#2102=CARTESIAN_POINT('',(100.,-148.997335576574,-17.3145600891813));
#2103=CARTESIAN_POINT('Origin',(100.,0.,0.));
#2104=CARTESIAN_POINT('Origin',(106.925824035673,0.,0.));
#2105=CARTESIAN_POINT('Origin',(123.211917272131,-141.42135623731,40.7152330911474));
#2106=CARTESIAN_POINT('',(100.,-123.795016090787,-17.3145600891813));
#2107=CARTESIAN_POINT('',(106.925824035673,-125.,1.33965753806631E-14));
#2108=CARTESIAN_POINT('Origin',(106.925824035673,0.,0.));
#2109=CARTESIAN_POINT('',(100.,123.795016090787,-17.3145600891813));
#2110=CARTESIAN_POINT('Origin',(106.925824035673,0.,0.));
#2111=CARTESIAN_POINT('',(100.,-70.7106781186548,-17.3145600891813));
#2112=CARTESIAN_POINT('',(160.,118.588402489412,132.685439910819));
#2113=CARTESIAN_POINT('',(136.076722015453,135.103979485447,72.8772449494511));
#2114=CARTESIAN_POINT('',(160.,-120.710678118655,132.685439910819));
#2115=CARTESIAN_POINT('',(100.,-70.7106781186548,-17.3145600891813));
#2116=CARTESIAN_POINT('Origin',(100.,141.42135623731,50.));
#2117=CARTESIAN_POINT('',(10.,100.,200.));
#2118=CARTESIAN_POINT('',(0.,141.42135623731,50.));
#2119=CARTESIAN_POINT('',(160.,100.,200.));
#2120=CARTESIAN_POINT('',(10.,100.,200.));
#2121=CARTESIAN_POINT('',(160.,113.625494888898,150.657718167764));
#2122=CARTESIAN_POINT('Origin',(15.,0.,0.));
#2123=CARTESIAN_POINT('',(15.,-125.,1.53080849893419E-14));
#2124=CARTESIAN_POINT('Origin',(15.,0.,0.));
#2125=CARTESIAN_POINT('',(15.,-50.,6.12323399573677E-15));
#2126=CARTESIAN_POINT('Origin',(15.,0.,0.));
#2127=CARTESIAN_POINT('Origin',(57.5,0.,0.));
#2128=CARTESIAN_POINT('Origin',(100.,0.,0.));
#2129=CARTESIAN_POINT('',(57.5,-125.,1.53080849893419E-14));
#2130=CARTESIAN_POINT('Origin',(50.,0.,0.));
#2131=CARTESIAN_POINT('',(0.,-50.,6.12323399573677E-15));
#2132=CARTESIAN_POINT('',(50.,-50.,6.12323399573677E-15));
#2133=CARTESIAN_POINT('Origin',(0.,0.,0.));
#2134=CARTESIAN_POINT('Origin',(100.,-141.42135623731,1250.));
#2135=CARTESIAN_POINT('',(160.,-100.,1100.));
#2136=CARTESIAN_POINT('',(100.,-141.42135623731,1250.));
#2137=CARTESIAN_POINT('',(160.,100.,1100.));
#2138=CARTESIAN_POINT('',(160.,100.,1100.));
#2139=CARTESIAN_POINT('',(100.,141.42135623731,1250.));
#2140=CARTESIAN_POINT('Origin',(100.,141.42135623731,1250.));
#2141=CARTESIAN_POINT('',(0.,141.42135623731,1250.));
#2142=CARTESIAN_POINT('',(0.,141.42135623731,1250.));
#2143=CARTESIAN_POINT('',(10.,100.,1100.));
#2144=CARTESIAN_POINT('',(10.,100.,1100.));
#2145=CARTESIAN_POINT('',(0.,141.42135623731,1250.));
#2146=CARTESIAN_POINT('Origin',(0.,141.42135623731,1250.));
#2147=CARTESIAN_POINT('',(0.,-141.42135623731,1250.));
#2148=CARTESIAN_POINT('Origin',(-3.33333333333333,0.,1300.));
#2149=CARTESIAN_POINT('',(10.,-100.,1100.));
#2150=CARTESIAN_POINT('',(10.,-100.,1100.));
#2151=CARTESIAN_POINT('',(0.,-141.42135623731,1250.));
#2152=CARTESIAN_POINT('Origin',(0.,-141.42135623731,1250.));
#2153=CARTESIAN_POINT('',(0.,-141.42135623731,1250.));
#2154=CARTESIAN_POINT('',(160.,-100.,1100.));
#2155=CARTESIAN_POINT('Origin',(0.,0.,1300.));
#2156=CARTESIAN_POINT('Origin',(0.,0.,1300.));
#2157=CARTESIAN_POINT('Origin',(0.,0.,1300.));
#2158=CARTESIAN_POINT('Origin',(0.,0.,1300.));
#2159=CARTESIAN_POINT('Origin',(0.,0.,1300.));
#2160=CARTESIAN_POINT('Origin',(10.,-100.,200.));
#2161=CARTESIAN_POINT('',(160.,-100.,200.));
#2162=CARTESIAN_POINT('',(10.,-100.,200.));
#2163=CARTESIAN_POINT('Origin',(10.,100.,200.));
#2164=CARTESIAN_POINT('',(10.,-100.,200.));
#2165=CARTESIAN_POINT('',(10.,100.,200.));
#2166=CARTESIAN_POINT('Origin',(160.,100.,200.));
#2167=CARTESIAN_POINT('',(160.,100.,200.));
#2168=CARTESIAN_POINT('Origin',(160.,-100.,200.));
#2169=CARTESIAN_POINT('Origin',(0.,141.42135623731,50.));
#2170=CARTESIAN_POINT('Origin',(-3.33333333333333,0.,0.));
#2171=CARTESIAN_POINT('Origin',(0.,0.,0.));
#2172=CARTESIAN_POINT('Origin',(0.,0.,0.));
#2173=CARTESIAN_POINT('Origin',(0.,0.,0.));
#2174=CARTESIAN_POINT('Origin',(100.,0.,0.));
#2175=UNCERTAINTY_MEASURE_WITH_UNIT(LENGTH_MEASURE(0.01),#2179,
'DISTANCE_ACCURACY_VALUE',
'Maximum model space distance between geometric entities at asserted c
onnectivities');
#2176=UNCERTAINTY_MEASURE_WITH_UNIT(LENGTH_MEASURE(0.01),#2179,
'DISTANCE_ACCURACY_VALUE',
'Maximum model space distance between geometric entities at asserted c
onnectivities');
#2177=(
GEOMETRIC_REPRESENTATION_CONTEXT(3)
GLOBAL_UNCERTAINTY_ASSIGNED_CONTEXT((#2175))
GLOBAL_UNIT_ASSIGNED_CONTEXT((#2179,#2181,#2182))
REPRESENTATION_CONTEXT('','3D')
);
#2178=(
GEOMETRIC_REPRESENTATION_CONTEXT(3)
GLOBAL_UNCERTAINTY_ASSIGNED_CONTEXT((#2176))
GLOBAL_UNIT_ASSIGNED_CONTEXT((#2179,#2181,#2182))
REPRESENTATION_CONTEXT('','3D')
);
#2179=(
LENGTH_UNIT()
NAMED_UNIT(*)
SI_UNIT(.MILLI.,.METRE.)
);
#2180=(
LENGTH_UNIT()
NAMED_UNIT(*)
SI_UNIT($,.METRE.)
);
#2181=(
NAMED_UNIT(*)
PLANE_ANGLE_UNIT()
SI_UNIT($,.RADIAN.)
);
#2182=(
NAMED_UNIT(*)
SI_UNIT($,.STERADIAN.)
SOLID_ANGLE_UNIT()
);
#2183=SHAPE_DEFINITION_REPRESENTATION(#2184,#2185);
#2184=PRODUCT_DEFINITION_SHAPE('',$,#2187);
#2185=SHAPE_REPRESENTATION('',(#1283),#2177);
#2186=PRODUCT_DEFINITION_CONTEXT('part definition',#2191,'design');
#2187=PRODUCT_DEFINITION('link2','link2 v6',#2188,#2186);
#2188=PRODUCT_DEFINITION_FORMATION('',$,#2193);
#2189=PRODUCT_RELATED_PRODUCT_CATEGORY('link2 v6','link2 v6',(#2193));
#2190=APPLICATION_PROTOCOL_DEFINITION('international standard',
'automotive_design',2009,#2191);
#2191=APPLICATION_CONTEXT(
'Core Data for Automotive Mechanical Design Process');
#2192=PRODUCT_CONTEXT('part definition',#2191,'mechanical');
#2193=PRODUCT('link2','link2 v6',$,(#2192));
#2194=PRESENTATION_STYLE_ASSIGNMENT((#2195));
#2195=SURFACE_STYLE_USAGE(.BOTH.,#2196);
#2196=SURFACE_SIDE_STYLE('',(#2197));
#2197=SURFACE_STYLE_FILL_AREA(#2198);
#2198=FILL_AREA_STYLE('Steel - Satin',(#2199));
#2199=FILL_AREA_STYLE_COLOUR('Steel - Satin',#2200);
#2200=COLOUR_RGB('Steel - Satin',0.627450980392157,0.627450980392157,0.627450980392157);
ENDSEC;
END-ISO-10303-21;
