ISO-10303-21;
HEADER;
/* Generated by software containing ST-Developer
 * from STEP Tools, Inc. (www.steptools.com) 
 */

FILE_DESCRIPTION(
/* description */ (''),
/* implementation_level */ '2;1');

FILE_NAME(
/* name */ 'link5 v6.step',
/* time_stamp */ '2026-05-21T11:45:26+02:00',
/* author */ (''),
/* organization */ (''),
/* preprocessor_version */ 'ST-DEVELOPER v20.1',
/* originating_system */ 'Autodesk Translation Framework v15.8.0.0',
/* authorisation */ '');

FILE_SCHEMA (('AUTOMOTIVE_DESIGN { 1 0 10303 214 3 1 1 }'));
ENDSEC;

DATA;
#10=MECHANICAL_DESIGN_GEOMETRIC_PRESENTATION_REPRESENTATION('',(#13),#1855);
#11=SHAPE_REPRESENTATION_RELATIONSHIP('SRR','None',#1862,#12);
#12=ADVANCED_BREP_SHAPE_REPRESENTATION('',(#14),#1854);
#13=STYLED_ITEM('',(#1871),#14);
#14=MANIFOLD_SOLID_BREP('Body1',#1079);
#15=FACE_BOUND('',#239,.T.);
#16=FACE_BOUND('',#243,.T.);
#17=FACE_BOUND('',#247,.T.);
#18=FACE_BOUND('',#251,.T.);
#19=FACE_BOUND('',#255,.T.);
#20=FACE_BOUND('',#259,.T.);
#21=FACE_BOUND('',#263,.T.);
#22=FACE_BOUND('',#267,.T.);
#23=FACE_BOUND('',#271,.T.);
#24=FACE_BOUND('',#275,.T.);
#25=FACE_BOUND('',#279,.T.);
#26=FACE_BOUND('',#283,.T.);
#27=FACE_BOUND('',#287,.T.);
#28=FACE_BOUND('',#291,.T.);
#29=FACE_BOUND('',#295,.T.);
#30=FACE_BOUND('',#299,.T.);
#31=FACE_BOUND('',#303,.T.);
#32=FACE_BOUND('',#309,.T.);
#33=FACE_BOUND('',#310,.T.);
#34=FACE_BOUND('',#311,.T.);
#35=FACE_BOUND('',#312,.T.);
#36=FACE_BOUND('',#313,.T.);
#37=FACE_BOUND('',#314,.T.);
#38=FACE_BOUND('',#315,.T.);
#39=FACE_BOUND('',#316,.T.);
#40=FACE_BOUND('',#317,.T.);
#41=FACE_BOUND('',#318,.T.);
#42=FACE_BOUND('',#319,.T.);
#43=FACE_BOUND('',#320,.T.);
#44=FACE_BOUND('',#321,.T.);
#45=FACE_BOUND('',#322,.T.);
#46=FACE_BOUND('',#323,.T.);
#47=FACE_BOUND('',#324,.T.);
#48=FACE_BOUND('',#325,.T.);
#49=FACE_BOUND('',#329,.T.);
#50=FACE_BOUND('',#331,.T.);
#51=FACE_BOUND('',#332,.T.);
#52=FACE_BOUND('',#333,.T.);
#53=FACE_BOUND('',#334,.T.);
#54=FACE_BOUND('',#335,.T.);
#55=FACE_BOUND('',#336,.T.);
#56=FACE_BOUND('',#337,.T.);
#57=FACE_BOUND('',#338,.T.);
#58=FACE_BOUND('',#339,.T.);
#59=FACE_BOUND('',#340,.T.);
#60=FACE_BOUND('',#341,.T.);
#61=FACE_BOUND('',#342,.T.);
#62=FACE_BOUND('',#343,.T.);
#63=FACE_BOUND('',#344,.T.);
#64=FACE_BOUND('',#345,.T.);
#65=FACE_BOUND('',#346,.T.);
#66=FACE_BOUND('',#347,.T.);
#67=CIRCLE('',#1095,40.);
#68=CIRCLE('',#1096,40.);
#69=CIRCLE('',#1100,10.);
#70=CIRCLE('',#1104,7.0247085939);
#71=CIRCLE('',#1105,4.);
#72=CIRCLE('',#1107,7.0247085939);
#73=CIRCLE('',#1109,4.);
#74=CIRCLE('',#1111,7.0247085939);
#75=CIRCLE('',#1112,4.);
#76=CIRCLE('',#1114,7.0247085939);
#77=CIRCLE('',#1116,4.);
#78=CIRCLE('',#1118,7.0247085939);
#79=CIRCLE('',#1119,4.);
#80=CIRCLE('',#1121,7.0247085939);
#81=CIRCLE('',#1123,4.);
#82=CIRCLE('',#1125,7.0247085939);
#83=CIRCLE('',#1126,4.);
#84=CIRCLE('',#1128,7.0247085939);
#85=CIRCLE('',#1130,4.);
#86=CIRCLE('',#1132,7.0247085939);
#87=CIRCLE('',#1133,4.);
#88=CIRCLE('',#1135,7.0247085939);
#89=CIRCLE('',#1137,4.);
#90=CIRCLE('',#1139,7.0247085939);
#91=CIRCLE('',#1140,4.);
#92=CIRCLE('',#1142,7.0247085939);
#93=CIRCLE('',#1144,4.);
#94=CIRCLE('',#1146,7.0247085939);
#95=CIRCLE('',#1147,4.);
#96=CIRCLE('',#1149,7.0247085939);
#97=CIRCLE('',#1151,4.);
#98=CIRCLE('',#1153,7.0247085939);
#99=CIRCLE('',#1154,4.);
#100=CIRCLE('',#1156,7.0247085939);
#101=CIRCLE('',#1158,4.);
#102=CIRCLE('',#1160,7.0247085939);
#103=CIRCLE('',#1161,4.);
#104=CIRCLE('',#1163,7.0247085939);
#105=CIRCLE('',#1165,4.);
#106=CIRCLE('',#1167,7.0247085939);
#107=CIRCLE('',#1168,4.);
#108=CIRCLE('',#1170,7.0247085939);
#109=CIRCLE('',#1172,4.);
#110=CIRCLE('',#1174,7.0247085939);
#111=CIRCLE('',#1175,4.);
#112=CIRCLE('',#1177,7.0247085939);
#113=CIRCLE('',#1179,4.);
#114=CIRCLE('',#1181,7.0247085939);
#115=CIRCLE('',#1182,4.);
#116=CIRCLE('',#1184,7.0247085939);
#117=CIRCLE('',#1186,4.);
#118=CIRCLE('',#1188,7.0247085939);
#119=CIRCLE('',#1189,4.);
#120=CIRCLE('',#1191,7.0247085939);
#121=CIRCLE('',#1193,4.);
#122=CIRCLE('',#1195,7.0247085939);
#123=CIRCLE('',#1196,4.);
#124=CIRCLE('',#1198,7.0247085939);
#125=CIRCLE('',#1200,4.);
#126=CIRCLE('',#1202,7.0247085939);
#127=CIRCLE('',#1203,4.);
#128=CIRCLE('',#1205,7.0247085939);
#129=CIRCLE('',#1207,4.);
#130=CIRCLE('',#1209,7.0247085939);
#131=CIRCLE('',#1210,4.);
#132=CIRCLE('',#1212,7.0247085939);
#133=CIRCLE('',#1214,4.);
#134=CIRCLE('',#1218,50.);
#135=CIRCLE('',#1220,50.);
#136=CIRCLE('',#1222,10.);
#137=CYLINDRICAL_SURFACE('',#1094,40.);
#138=CYLINDRICAL_SURFACE('',#1106,7.0247085939);
#139=CYLINDRICAL_SURFACE('',#1108,4.);
#140=CYLINDRICAL_SURFACE('',#1113,7.0247085939);
#141=CYLINDRICAL_SURFACE('',#1115,4.);
#142=CYLINDRICAL_SURFACE('',#1120,7.0247085939);
#143=CYLINDRICAL_SURFACE('',#1122,4.);
#144=CYLINDRICAL_SURFACE('',#1127,7.0247085939);
#145=CYLINDRICAL_SURFACE('',#1129,4.);
#146=CYLINDRICAL_SURFACE('',#1134,7.0247085939);
#147=CYLINDRICAL_SURFACE('',#1136,4.);
#148=CYLINDRICAL_SURFACE('',#1141,7.0247085939);
#149=CYLINDRICAL_SURFACE('',#1143,4.);
#150=CYLINDRICAL_SURFACE('',#1148,7.0247085939);
#151=CYLINDRICAL_SURFACE('',#1150,4.);
#152=CYLINDRICAL_SURFACE('',#1155,7.0247085939);
#153=CYLINDRICAL_SURFACE('',#1157,4.);
#154=CYLINDRICAL_SURFACE('',#1162,7.0247085939);
#155=CYLINDRICAL_SURFACE('',#1164,4.);
#156=CYLINDRICAL_SURFACE('',#1169,7.0247085939);
#157=CYLINDRICAL_SURFACE('',#1171,4.);
#158=CYLINDRICAL_SURFACE('',#1176,7.0247085939);
#159=CYLINDRICAL_SURFACE('',#1178,4.);
#160=CYLINDRICAL_SURFACE('',#1183,7.0247085939);
#161=CYLINDRICAL_SURFACE('',#1185,4.);
#162=CYLINDRICAL_SURFACE('',#1190,7.0247085939);
#163=CYLINDRICAL_SURFACE('',#1192,4.);
#164=CYLINDRICAL_SURFACE('',#1197,7.0247085939);
#165=CYLINDRICAL_SURFACE('',#1199,4.);
#166=CYLINDRICAL_SURFACE('',#1204,7.0247085939);
#167=CYLINDRICAL_SURFACE('',#1206,4.);
#168=CYLINDRICAL_SURFACE('',#1211,7.0247085939);
#169=CYLINDRICAL_SURFACE('',#1213,4.);
#170=CYLINDRICAL_SURFACE('',#1219,50.);
#171=CYLINDRICAL_SURFACE('',#1221,10.);
#172=FACE_OUTER_BOUND('',#234,.T.);
#173=FACE_OUTER_BOUND('',#235,.T.);
#174=FACE_OUTER_BOUND('',#236,.T.);
#175=FACE_OUTER_BOUND('',#237,.T.);
#176=FACE_OUTER_BOUND('',#238,.T.);
#177=FACE_OUTER_BOUND('',#240,.T.);
#178=FACE_OUTER_BOUND('',#241,.T.);
#179=FACE_OUTER_BOUND('',#242,.T.);
#180=FACE_OUTER_BOUND('',#244,.T.);
#181=FACE_OUTER_BOUND('',#245,.T.);
#182=FACE_OUTER_BOUND('',#246,.T.);
#183=FACE_OUTER_BOUND('',#248,.T.);
#184=FACE_OUTER_BOUND('',#249,.T.);
#185=FACE_OUTER_BOUND('',#250,.T.);
#186=FACE_OUTER_BOUND('',#252,.T.);
#187=FACE_OUTER_BOUND('',#253,.T.);
#188=FACE_OUTER_BOUND('',#254,.T.);
#189=FACE_OUTER_BOUND('',#256,.T.);
#190=FACE_OUTER_BOUND('',#257,.T.);
#191=FACE_OUTER_BOUND('',#258,.T.);
#192=FACE_OUTER_BOUND('',#260,.T.);
#193=FACE_OUTER_BOUND('',#261,.T.);
#194=FACE_OUTER_BOUND('',#262,.T.);
#195=FACE_OUTER_BOUND('',#264,.T.);
#196=FACE_OUTER_BOUND('',#265,.T.);
#197=FACE_OUTER_BOUND('',#266,.T.);
#198=FACE_OUTER_BOUND('',#268,.T.);
#199=FACE_OUTER_BOUND('',#269,.T.);
#200=FACE_OUTER_BOUND('',#270,.T.);
#201=FACE_OUTER_BOUND('',#272,.T.);
#202=FACE_OUTER_BOUND('',#273,.T.);
#203=FACE_OUTER_BOUND('',#274,.T.);
#204=FACE_OUTER_BOUND('',#276,.T.);
#205=FACE_OUTER_BOUND('',#277,.T.);
#206=FACE_OUTER_BOUND('',#278,.T.);
#207=FACE_OUTER_BOUND('',#280,.T.);
#208=FACE_OUTER_BOUND('',#281,.T.);
#209=FACE_OUTER_BOUND('',#282,.T.);
#210=FACE_OUTER_BOUND('',#284,.T.);
#211=FACE_OUTER_BOUND('',#285,.T.);
#212=FACE_OUTER_BOUND('',#286,.T.);
#213=FACE_OUTER_BOUND('',#288,.T.);
#214=FACE_OUTER_BOUND('',#289,.T.);
#215=FACE_OUTER_BOUND('',#290,.T.);
#216=FACE_OUTER_BOUND('',#292,.T.);
#217=FACE_OUTER_BOUND('',#293,.T.);
#218=FACE_OUTER_BOUND('',#294,.T.);
#219=FACE_OUTER_BOUND('',#296,.T.);
#220=FACE_OUTER_BOUND('',#297,.T.);
#221=FACE_OUTER_BOUND('',#298,.T.);
#222=FACE_OUTER_BOUND('',#300,.T.);
#223=FACE_OUTER_BOUND('',#301,.T.);
#224=FACE_OUTER_BOUND('',#302,.T.);
#225=FACE_OUTER_BOUND('',#304,.T.);
#226=FACE_OUTER_BOUND('',#305,.T.);
#227=FACE_OUTER_BOUND('',#306,.T.);
#228=FACE_OUTER_BOUND('',#307,.T.);
#229=FACE_OUTER_BOUND('',#308,.T.);
#230=FACE_OUTER_BOUND('',#326,.T.);
#231=FACE_OUTER_BOUND('',#327,.T.);
#232=FACE_OUTER_BOUND('',#328,.T.);
#233=FACE_OUTER_BOUND('',#330,.T.);
#234=EDGE_LOOP('',(#714,#715,#716,#717,#718,#719,#720,#721));
#235=EDGE_LOOP('',(#722,#723,#724,#725));
#236=EDGE_LOOP('',(#726,#727,#728,#729,#730,#731,#732,#733));
#237=EDGE_LOOP('',(#734,#735,#736,#737,#738,#739,#740,#741));
#238=EDGE_LOOP('',(#742,#743,#744,#745,#746,#747));
#239=EDGE_LOOP('',(#748));
#240=EDGE_LOOP('',(#749,#750,#751,#752,#753,#754,#755,#756));
#241=EDGE_LOOP('',(#757,#758,#759,#760,#761,#762));
#242=EDGE_LOOP('',(#763));
#243=EDGE_LOOP('',(#764));
#244=EDGE_LOOP('',(#765,#766,#767,#768));
#245=EDGE_LOOP('',(#769,#770,#771,#772));
#246=EDGE_LOOP('',(#773));
#247=EDGE_LOOP('',(#774));
#248=EDGE_LOOP('',(#775,#776,#777,#778));
#249=EDGE_LOOP('',(#779,#780,#781,#782));
#250=EDGE_LOOP('',(#783));
#251=EDGE_LOOP('',(#784));
#252=EDGE_LOOP('',(#785,#786,#787,#788));
#253=EDGE_LOOP('',(#789,#790,#791,#792));
#254=EDGE_LOOP('',(#793));
#255=EDGE_LOOP('',(#794));
#256=EDGE_LOOP('',(#795,#796,#797,#798));
#257=EDGE_LOOP('',(#799,#800,#801,#802));
#258=EDGE_LOOP('',(#803));
#259=EDGE_LOOP('',(#804));
#260=EDGE_LOOP('',(#805,#806,#807,#808));
#261=EDGE_LOOP('',(#809,#810,#811,#812));
#262=EDGE_LOOP('',(#813));
#263=EDGE_LOOP('',(#814));
#264=EDGE_LOOP('',(#815,#816,#817,#818));
#265=EDGE_LOOP('',(#819,#820,#821,#822));
#266=EDGE_LOOP('',(#823));
#267=EDGE_LOOP('',(#824));
#268=EDGE_LOOP('',(#825,#826,#827,#828));
#269=EDGE_LOOP('',(#829,#830,#831,#832));
#270=EDGE_LOOP('',(#833));
#271=EDGE_LOOP('',(#834));
#272=EDGE_LOOP('',(#835,#836,#837,#838));
#273=EDGE_LOOP('',(#839,#840,#841,#842));
#274=EDGE_LOOP('',(#843));
#275=EDGE_LOOP('',(#844));
#276=EDGE_LOOP('',(#845,#846,#847,#848));
#277=EDGE_LOOP('',(#849,#850,#851,#852));
#278=EDGE_LOOP('',(#853));
#279=EDGE_LOOP('',(#854));
#280=EDGE_LOOP('',(#855,#856,#857,#858));
#281=EDGE_LOOP('',(#859,#860,#861,#862));
#282=EDGE_LOOP('',(#863));
#283=EDGE_LOOP('',(#864));
#284=EDGE_LOOP('',(#865,#866,#867,#868));
#285=EDGE_LOOP('',(#869,#870,#871,#872));
#286=EDGE_LOOP('',(#873));
#287=EDGE_LOOP('',(#874));
#288=EDGE_LOOP('',(#875,#876,#877,#878));
#289=EDGE_LOOP('',(#879,#880,#881,#882));
#290=EDGE_LOOP('',(#883));
#291=EDGE_LOOP('',(#884));
#292=EDGE_LOOP('',(#885,#886,#887,#888));
#293=EDGE_LOOP('',(#889,#890,#891,#892));
#294=EDGE_LOOP('',(#893));
#295=EDGE_LOOP('',(#894));
#296=EDGE_LOOP('',(#895,#896,#897,#898));
#297=EDGE_LOOP('',(#899,#900,#901,#902));
#298=EDGE_LOOP('',(#903));
#299=EDGE_LOOP('',(#904));
#300=EDGE_LOOP('',(#905,#906,#907,#908));
#301=EDGE_LOOP('',(#909,#910,#911,#912));
#302=EDGE_LOOP('',(#913));
#303=EDGE_LOOP('',(#914));
#304=EDGE_LOOP('',(#915,#916,#917,#918));
#305=EDGE_LOOP('',(#919,#920,#921,#922));
#306=EDGE_LOOP('',(#923,#924,#925,#926));
#307=EDGE_LOOP('',(#927,#928,#929,#930,#931,#932));
#308=EDGE_LOOP('',(#933,#934,#935,#936));
#309=EDGE_LOOP('',(#937));
#310=EDGE_LOOP('',(#938));
#311=EDGE_LOOP('',(#939));
#312=EDGE_LOOP('',(#940));
#313=EDGE_LOOP('',(#941));
#314=EDGE_LOOP('',(#942));
#315=EDGE_LOOP('',(#943));
#316=EDGE_LOOP('',(#944));
#317=EDGE_LOOP('',(#945));
#318=EDGE_LOOP('',(#946));
#319=EDGE_LOOP('',(#947));
#320=EDGE_LOOP('',(#948));
#321=EDGE_LOOP('',(#949));
#322=EDGE_LOOP('',(#950));
#323=EDGE_LOOP('',(#951));
#324=EDGE_LOOP('',(#952));
#325=EDGE_LOOP('',(#953));
#326=EDGE_LOOP('',(#954,#955,#956,#957));
#327=EDGE_LOOP('',(#958,#959,#960,#961));
#328=EDGE_LOOP('',(#962,#963,#964,#965,#966,#967));
#329=EDGE_LOOP('',(#968));
#330=EDGE_LOOP('',(#969,#970,#971,#972));
#331=EDGE_LOOP('',(#973));
#332=EDGE_LOOP('',(#974));
#333=EDGE_LOOP('',(#975));
#334=EDGE_LOOP('',(#976));
#335=EDGE_LOOP('',(#977));
#336=EDGE_LOOP('',(#978));
#337=EDGE_LOOP('',(#979));
#338=EDGE_LOOP('',(#980));
#339=EDGE_LOOP('',(#981));
#340=EDGE_LOOP('',(#982));
#341=EDGE_LOOP('',(#983));
#342=EDGE_LOOP('',(#984));
#343=EDGE_LOOP('',(#985));
#344=EDGE_LOOP('',(#986));
#345=EDGE_LOOP('',(#987));
#346=EDGE_LOOP('',(#988));
#347=EDGE_LOOP('',(#989));
#348=LINE('',#1563,#416);
#349=LINE('',#1565,#417);
#350=LINE('',#1567,#418);
#351=LINE('',#1569,#419);
#352=LINE('',#1571,#420);
#353=LINE('',#1573,#421);
#354=LINE('',#1575,#422);
#355=LINE('',#1576,#423);
#356=LINE('',#1581,#424);
#357=LINE('',#1586,#425);
#358=LINE('',#1588,#426);
#359=LINE('',#1589,#427);
#360=LINE('',#1591,#428);
#361=LINE('',#1593,#429);
#362=LINE('',#1595,#430);
#363=LINE('',#1596,#431);
#364=LINE('',#1599,#432);
#365=LINE('',#1601,#433);
#366=LINE('',#1602,#434);
#367=LINE('',#1604,#435);
#368=LINE('',#1606,#436);
#369=LINE('',#1607,#437);
#370=LINE('',#1610,#438);
#371=LINE('',#1611,#439);
#372=LINE('',#1616,#440);
#373=LINE('',#1618,#441);
#374=LINE('',#1619,#442);
#375=LINE('',#1621,#443);
#376=LINE('',#1622,#444);
#377=LINE('',#1624,#445);
#378=LINE('',#1625,#446);
#379=LINE('',#1634,#447);
#380=LINE('',#1637,#448);
#381=LINE('',#1647,#449);
#382=LINE('',#1650,#450);
#383=LINE('',#1660,#451);
#384=LINE('',#1663,#452);
#385=LINE('',#1673,#453);
#386=LINE('',#1676,#454);
#387=LINE('',#1686,#455);
#388=LINE('',#1689,#456);
#389=LINE('',#1699,#457);
#390=LINE('',#1702,#458);
#391=LINE('',#1712,#459);
#392=LINE('',#1715,#460);
#393=LINE('',#1725,#461);
#394=LINE('',#1728,#462);
#395=LINE('',#1738,#463);
#396=LINE('',#1741,#464);
#397=LINE('',#1751,#465);
#398=LINE('',#1754,#466);
#399=LINE('',#1764,#467);
#400=LINE('',#1767,#468);
#401=LINE('',#1777,#469);
#402=LINE('',#1780,#470);
#403=LINE('',#1790,#471);
#404=LINE('',#1793,#472);
#405=LINE('',#1803,#473);
#406=LINE('',#1806,#474);
#407=LINE('',#1816,#475);
#408=LINE('',#1819,#476);
#409=LINE('',#1829,#477);
#410=LINE('',#1832,#478);
#411=LINE('',#1835,#479);
#412=LINE('',#1837,#480);
#413=LINE('',#1844,#481);
#414=LINE('',#1848,#482);
#415=LINE('',#1850,#483);
#416=VECTOR('',#1229,10.);
#417=VECTOR('',#1230,10.);
#418=VECTOR('',#1231,10.);
#419=VECTOR('',#1232,10.);
#420=VECTOR('',#1233,10.);
#421=VECTOR('',#1234,10.);
#422=VECTOR('',#1235,10.);
#423=VECTOR('',#1236,10.);
#424=VECTOR('',#1241,10.);
#425=VECTOR('',#1246,10.);
#426=VECTOR('',#1247,10.);
#427=VECTOR('',#1248,10.);
#428=VECTOR('',#1249,10.);
#429=VECTOR('',#1250,10.);
#430=VECTOR('',#1251,10.);
#431=VECTOR('',#1252,10.);
#432=VECTOR('',#1255,10.);
#433=VECTOR('',#1256,10.);
#434=VECTOR('',#1257,10.);
#435=VECTOR('',#1258,10.);
#436=VECTOR('',#1259,10.);
#437=VECTOR('',#1260,10.);
#438=VECTOR('',#1263,10.);
#439=VECTOR('',#1264,10.);
#440=VECTOR('',#1269,10.);
#441=VECTOR('',#1270,10.);
#442=VECTOR('',#1271,10.);
#443=VECTOR('',#1272,10.);
#444=VECTOR('',#1273,10.);
#445=VECTOR('',#1276,10.);
#446=VECTOR('',#1277,10.);
#447=VECTOR('',#1288,7.0247085939);
#448=VECTOR('',#1291,4.);
#449=VECTOR('',#1304,7.0247085939);
#450=VECTOR('',#1307,4.);
#451=VECTOR('',#1320,7.0247085939);
#452=VECTOR('',#1323,4.);
#453=VECTOR('',#1336,7.0247085939);
#454=VECTOR('',#1339,4.);
#455=VECTOR('',#1352,7.0247085939);
#456=VECTOR('',#1355,4.);
#457=VECTOR('',#1368,7.0247085939);
#458=VECTOR('',#1371,4.);
#459=VECTOR('',#1384,7.0247085939);
#460=VECTOR('',#1387,4.);
#461=VECTOR('',#1400,7.0247085939);
#462=VECTOR('',#1403,4.);
#463=VECTOR('',#1416,7.0247085939);
#464=VECTOR('',#1419,4.);
#465=VECTOR('',#1432,7.0247085939);
#466=VECTOR('',#1435,4.);
#467=VECTOR('',#1448,7.0247085939);
#468=VECTOR('',#1451,4.);
#469=VECTOR('',#1464,7.0247085939);
#470=VECTOR('',#1467,4.);
#471=VECTOR('',#1480,7.0247085939);
#472=VECTOR('',#1483,4.);
#473=VECTOR('',#1496,7.0247085939);
#474=VECTOR('',#1499,4.);
#475=VECTOR('',#1512,7.0247085939);
#476=VECTOR('',#1515,4.);
#477=VECTOR('',#1528,7.0247085939);
#478=VECTOR('',#1531,4.);
#479=VECTOR('',#1536,10.);
#480=VECTOR('',#1539,10.);
#481=VECTOR('',#1548,50.);
#482=VECTOR('',#1553,10.);
#483=VECTOR('',#1556,10.);
#484=VERTEX_POINT('',#1561);
#485=VERTEX_POINT('',#1562);
#486=VERTEX_POINT('',#1564);
#487=VERTEX_POINT('',#1566);
#488=VERTEX_POINT('',#1568);
#489=VERTEX_POINT('',#1570);
#490=VERTEX_POINT('',#1572);
#491=VERTEX_POINT('',#1574);
#492=VERTEX_POINT('',#1578);
#493=VERTEX_POINT('',#1580);
#494=VERTEX_POINT('',#1584);
#495=VERTEX_POINT('',#1585);
#496=VERTEX_POINT('',#1587);
#497=VERTEX_POINT('',#1590);
#498=VERTEX_POINT('',#1592);
#499=VERTEX_POINT('',#1594);
#500=VERTEX_POINT('',#1598);
#501=VERTEX_POINT('',#1600);
#502=VERTEX_POINT('',#1603);
#503=VERTEX_POINT('',#1605);
#504=VERTEX_POINT('',#1609);
#505=VERTEX_POINT('',#1612);
#506=VERTEX_POINT('',#1615);
#507=VERTEX_POINT('',#1617);
#508=VERTEX_POINT('',#1620);
#509=VERTEX_POINT('',#1627);
#510=VERTEX_POINT('',#1629);
#511=VERTEX_POINT('',#1632);
#512=VERTEX_POINT('',#1636);
#513=VERTEX_POINT('',#1640);
#514=VERTEX_POINT('',#1642);
#515=VERTEX_POINT('',#1645);
#516=VERTEX_POINT('',#1649);
#517=VERTEX_POINT('',#1653);
#518=VERTEX_POINT('',#1655);
#519=VERTEX_POINT('',#1658);
#520=VERTEX_POINT('',#1662);
#521=VERTEX_POINT('',#1666);
#522=VERTEX_POINT('',#1668);
#523=VERTEX_POINT('',#1671);
#524=VERTEX_POINT('',#1675);
#525=VERTEX_POINT('',#1679);
#526=VERTEX_POINT('',#1681);
#527=VERTEX_POINT('',#1684);
#528=VERTEX_POINT('',#1688);
#529=VERTEX_POINT('',#1692);
#530=VERTEX_POINT('',#1694);
#531=VERTEX_POINT('',#1697);
#532=VERTEX_POINT('',#1701);
#533=VERTEX_POINT('',#1705);
#534=VERTEX_POINT('',#1707);
#535=VERTEX_POINT('',#1710);
#536=VERTEX_POINT('',#1714);
#537=VERTEX_POINT('',#1718);
#538=VERTEX_POINT('',#1720);
#539=VERTEX_POINT('',#1723);
#540=VERTEX_POINT('',#1727);
#541=VERTEX_POINT('',#1731);
#542=VERTEX_POINT('',#1733);
#543=VERTEX_POINT('',#1736);
#544=VERTEX_POINT('',#1740);
#545=VERTEX_POINT('',#1744);
#546=VERTEX_POINT('',#1746);
#547=VERTEX_POINT('',#1749);
#548=VERTEX_POINT('',#1753);
#549=VERTEX_POINT('',#1757);
#550=VERTEX_POINT('',#1759);
#551=VERTEX_POINT('',#1762);
#552=VERTEX_POINT('',#1766);
#553=VERTEX_POINT('',#1770);
#554=VERTEX_POINT('',#1772);
#555=VERTEX_POINT('',#1775);
#556=VERTEX_POINT('',#1779);
#557=VERTEX_POINT('',#1783);
#558=VERTEX_POINT('',#1785);
#559=VERTEX_POINT('',#1788);
#560=VERTEX_POINT('',#1792);
#561=VERTEX_POINT('',#1796);
#562=VERTEX_POINT('',#1798);
#563=VERTEX_POINT('',#1801);
#564=VERTEX_POINT('',#1805);
#565=VERTEX_POINT('',#1809);
#566=VERTEX_POINT('',#1811);
#567=VERTEX_POINT('',#1814);
#568=VERTEX_POINT('',#1818);
#569=VERTEX_POINT('',#1822);
#570=VERTEX_POINT('',#1824);
#571=VERTEX_POINT('',#1827);
#572=VERTEX_POINT('',#1831);
#573=VERTEX_POINT('',#1839);
#574=VERTEX_POINT('',#1842);
#575=VERTEX_POINT('',#1846);
#576=EDGE_CURVE('',#484,#485,#348,.T.);
#577=EDGE_CURVE('',#485,#486,#349,.T.);
#578=EDGE_CURVE('',#486,#487,#350,.T.);
#579=EDGE_CURVE('',#487,#488,#351,.T.);
#580=EDGE_CURVE('',#488,#489,#352,.T.);
#581=EDGE_CURVE('',#490,#489,#353,.T.);
#582=EDGE_CURVE('',#490,#491,#354,.T.);
#583=EDGE_CURVE('',#491,#484,#355,.T.);
#584=EDGE_CURVE('',#489,#492,#67,.T.);
#585=EDGE_CURVE('',#493,#492,#356,.T.);
#586=EDGE_CURVE('',#493,#490,#68,.T.);
#587=EDGE_CURVE('',#494,#495,#357,.T.);
#588=EDGE_CURVE('',#495,#496,#358,.T.);
#589=EDGE_CURVE('',#496,#493,#359,.T.);
#590=EDGE_CURVE('',#492,#497,#360,.T.);
#591=EDGE_CURVE('',#497,#498,#361,.T.);
#592=EDGE_CURVE('',#498,#499,#362,.T.);
#593=EDGE_CURVE('',#499,#494,#363,.T.);
#594=EDGE_CURVE('',#500,#491,#364,.T.);
#595=EDGE_CURVE('',#500,#501,#365,.T.);
#596=EDGE_CURVE('',#501,#488,#366,.T.);
#597=EDGE_CURVE('',#487,#502,#367,.T.);
#598=EDGE_CURVE('',#502,#503,#368,.T.);
#599=EDGE_CURVE('',#503,#484,#369,.T.);
#600=EDGE_CURVE('',#504,#496,#370,.T.);
#601=EDGE_CURVE('',#504,#500,#371,.T.);
#602=EDGE_CURVE('',#505,#505,#69,.T.);
#603=EDGE_CURVE('',#495,#506,#372,.T.);
#604=EDGE_CURVE('',#506,#507,#373,.T.);
#605=EDGE_CURVE('',#507,#498,#374,.T.);
#606=EDGE_CURVE('',#508,#497,#375,.T.);
#607=EDGE_CURVE('',#508,#504,#376,.T.);
#608=EDGE_CURVE('',#506,#503,#377,.T.);
#609=EDGE_CURVE('',#494,#485,#378,.T.);
#610=EDGE_CURVE('',#509,#509,#70,.T.);
#611=EDGE_CURVE('',#510,#510,#71,.T.);
#612=EDGE_CURVE('',#511,#511,#72,.T.);
#613=EDGE_CURVE('',#511,#509,#379,.T.);
#614=EDGE_CURVE('',#510,#512,#380,.T.);
#615=EDGE_CURVE('',#512,#512,#73,.T.);
#616=EDGE_CURVE('',#513,#513,#74,.T.);
#617=EDGE_CURVE('',#514,#514,#75,.T.);
#618=EDGE_CURVE('',#515,#515,#76,.T.);
#619=EDGE_CURVE('',#515,#513,#381,.T.);
#620=EDGE_CURVE('',#514,#516,#382,.T.);
#621=EDGE_CURVE('',#516,#516,#77,.T.);
#622=EDGE_CURVE('',#517,#517,#78,.T.);
#623=EDGE_CURVE('',#518,#518,#79,.T.);
#624=EDGE_CURVE('',#519,#519,#80,.T.);
#625=EDGE_CURVE('',#519,#517,#383,.T.);
#626=EDGE_CURVE('',#518,#520,#384,.T.);
#627=EDGE_CURVE('',#520,#520,#81,.T.);
#628=EDGE_CURVE('',#521,#521,#82,.T.);
#629=EDGE_CURVE('',#522,#522,#83,.T.);
#630=EDGE_CURVE('',#523,#523,#84,.T.);
#631=EDGE_CURVE('',#523,#521,#385,.T.);
#632=EDGE_CURVE('',#522,#524,#386,.T.);
#633=EDGE_CURVE('',#524,#524,#85,.T.);
#634=EDGE_CURVE('',#525,#525,#86,.T.);
#635=EDGE_CURVE('',#526,#526,#87,.T.);
#636=EDGE_CURVE('',#527,#527,#88,.T.);
#637=EDGE_CURVE('',#527,#525,#387,.T.);
#638=EDGE_CURVE('',#526,#528,#388,.T.);
#639=EDGE_CURVE('',#528,#528,#89,.T.);
#640=EDGE_CURVE('',#529,#529,#90,.T.);
#641=EDGE_CURVE('',#530,#530,#91,.T.);
#642=EDGE_CURVE('',#531,#531,#92,.T.);
#643=EDGE_CURVE('',#531,#529,#389,.T.);
#644=EDGE_CURVE('',#530,#532,#390,.T.);
#645=EDGE_CURVE('',#532,#532,#93,.T.);
#646=EDGE_CURVE('',#533,#533,#94,.T.);
#647=EDGE_CURVE('',#534,#534,#95,.T.);
#648=EDGE_CURVE('',#535,#535,#96,.T.);
#649=EDGE_CURVE('',#535,#533,#391,.T.);
#650=EDGE_CURVE('',#534,#536,#392,.T.);
#651=EDGE_CURVE('',#536,#536,#97,.T.);
#652=EDGE_CURVE('',#537,#537,#98,.T.);
#653=EDGE_CURVE('',#538,#538,#99,.T.);
#654=EDGE_CURVE('',#539,#539,#100,.T.);
#655=EDGE_CURVE('',#539,#537,#393,.T.);
#656=EDGE_CURVE('',#538,#540,#394,.T.);
#657=EDGE_CURVE('',#540,#540,#101,.T.);
#658=EDGE_CURVE('',#541,#541,#102,.T.);
#659=EDGE_CURVE('',#542,#542,#103,.T.);
#660=EDGE_CURVE('',#543,#543,#104,.T.);
#661=EDGE_CURVE('',#543,#541,#395,.T.);
#662=EDGE_CURVE('',#542,#544,#396,.T.);
#663=EDGE_CURVE('',#544,#544,#105,.T.);
#664=EDGE_CURVE('',#545,#545,#106,.T.);
#665=EDGE_CURVE('',#546,#546,#107,.T.);
#666=EDGE_CURVE('',#547,#547,#108,.T.);
#667=EDGE_CURVE('',#547,#545,#397,.T.);
#668=EDGE_CURVE('',#546,#548,#398,.T.);
#669=EDGE_CURVE('',#548,#548,#109,.T.);
#670=EDGE_CURVE('',#549,#549,#110,.T.);
#671=EDGE_CURVE('',#550,#550,#111,.T.);
#672=EDGE_CURVE('',#551,#551,#112,.T.);
#673=EDGE_CURVE('',#551,#549,#399,.T.);
#674=EDGE_CURVE('',#550,#552,#400,.T.);
#675=EDGE_CURVE('',#552,#552,#113,.T.);
#676=EDGE_CURVE('',#553,#553,#114,.T.);
#677=EDGE_CURVE('',#554,#554,#115,.T.);
#678=EDGE_CURVE('',#555,#555,#116,.T.);
#679=EDGE_CURVE('',#555,#553,#401,.T.);
#680=EDGE_CURVE('',#554,#556,#402,.T.);
#681=EDGE_CURVE('',#556,#556,#117,.T.);
#682=EDGE_CURVE('',#557,#557,#118,.T.);
#683=EDGE_CURVE('',#558,#558,#119,.T.);
#684=EDGE_CURVE('',#559,#559,#120,.T.);
#685=EDGE_CURVE('',#559,#557,#403,.T.);
#686=EDGE_CURVE('',#558,#560,#404,.T.);
#687=EDGE_CURVE('',#560,#560,#121,.T.);
#688=EDGE_CURVE('',#561,#561,#122,.T.);
#689=EDGE_CURVE('',#562,#562,#123,.T.);
#690=EDGE_CURVE('',#563,#563,#124,.T.);
#691=EDGE_CURVE('',#563,#561,#405,.T.);
#692=EDGE_CURVE('',#562,#564,#406,.T.);
#693=EDGE_CURVE('',#564,#564,#125,.T.);
#694=EDGE_CURVE('',#565,#565,#126,.T.);
#695=EDGE_CURVE('',#566,#566,#127,.T.);
#696=EDGE_CURVE('',#567,#567,#128,.T.);
#697=EDGE_CURVE('',#567,#565,#407,.T.);
#698=EDGE_CURVE('',#566,#568,#408,.T.);
#699=EDGE_CURVE('',#568,#568,#129,.T.);
#700=EDGE_CURVE('',#569,#569,#130,.T.);
#701=EDGE_CURVE('',#570,#570,#131,.T.);
#702=EDGE_CURVE('',#571,#571,#132,.T.);
#703=EDGE_CURVE('',#571,#569,#409,.T.);
#704=EDGE_CURVE('',#570,#572,#410,.T.);
#705=EDGE_CURVE('',#572,#572,#133,.T.);
#706=EDGE_CURVE('',#499,#486,#411,.T.);
#707=EDGE_CURVE('',#507,#502,#412,.T.);
#708=EDGE_CURVE('',#573,#573,#134,.T.);
#709=EDGE_CURVE('',#574,#574,#135,.T.);
#710=EDGE_CURVE('',#574,#573,#413,.T.);
#711=EDGE_CURVE('',#575,#575,#136,.T.);
#712=EDGE_CURVE('',#575,#505,#414,.T.);
#713=EDGE_CURVE('',#501,#508,#415,.T.);
#714=ORIENTED_EDGE('',*,*,#576,.T.);
#715=ORIENTED_EDGE('',*,*,#577,.T.);
#716=ORIENTED_EDGE('',*,*,#578,.T.);
#717=ORIENTED_EDGE('',*,*,#579,.T.);
#718=ORIENTED_EDGE('',*,*,#580,.T.);
#719=ORIENTED_EDGE('',*,*,#581,.F.);
#720=ORIENTED_EDGE('',*,*,#582,.T.);
#721=ORIENTED_EDGE('',*,*,#583,.T.);
#722=ORIENTED_EDGE('',*,*,#584,.T.);
#723=ORIENTED_EDGE('',*,*,#585,.F.);
#724=ORIENTED_EDGE('',*,*,#586,.T.);
#725=ORIENTED_EDGE('',*,*,#581,.T.);
#726=ORIENTED_EDGE('',*,*,#587,.T.);
#727=ORIENTED_EDGE('',*,*,#588,.T.);
#728=ORIENTED_EDGE('',*,*,#589,.T.);
#729=ORIENTED_EDGE('',*,*,#585,.T.);
#730=ORIENTED_EDGE('',*,*,#590,.T.);
#731=ORIENTED_EDGE('',*,*,#591,.T.);
#732=ORIENTED_EDGE('',*,*,#592,.T.);
#733=ORIENTED_EDGE('',*,*,#593,.T.);
#734=ORIENTED_EDGE('',*,*,#583,.F.);
#735=ORIENTED_EDGE('',*,*,#594,.F.);
#736=ORIENTED_EDGE('',*,*,#595,.T.);
#737=ORIENTED_EDGE('',*,*,#596,.T.);
#738=ORIENTED_EDGE('',*,*,#579,.F.);
#739=ORIENTED_EDGE('',*,*,#597,.T.);
#740=ORIENTED_EDGE('',*,*,#598,.T.);
#741=ORIENTED_EDGE('',*,*,#599,.T.);
#742=ORIENTED_EDGE('',*,*,#582,.F.);
#743=ORIENTED_EDGE('',*,*,#586,.F.);
#744=ORIENTED_EDGE('',*,*,#589,.F.);
#745=ORIENTED_EDGE('',*,*,#600,.F.);
#746=ORIENTED_EDGE('',*,*,#601,.T.);
#747=ORIENTED_EDGE('',*,*,#594,.T.);
#748=ORIENTED_EDGE('',*,*,#602,.T.);
#749=ORIENTED_EDGE('',*,*,#588,.F.);
#750=ORIENTED_EDGE('',*,*,#603,.T.);
#751=ORIENTED_EDGE('',*,*,#604,.T.);
#752=ORIENTED_EDGE('',*,*,#605,.T.);
#753=ORIENTED_EDGE('',*,*,#591,.F.);
#754=ORIENTED_EDGE('',*,*,#606,.F.);
#755=ORIENTED_EDGE('',*,*,#607,.T.);
#756=ORIENTED_EDGE('',*,*,#600,.T.);
#757=ORIENTED_EDGE('',*,*,#576,.F.);
#758=ORIENTED_EDGE('',*,*,#599,.F.);
#759=ORIENTED_EDGE('',*,*,#608,.F.);
#760=ORIENTED_EDGE('',*,*,#603,.F.);
#761=ORIENTED_EDGE('',*,*,#587,.F.);
#762=ORIENTED_EDGE('',*,*,#609,.T.);
#763=ORIENTED_EDGE('',*,*,#610,.F.);
#764=ORIENTED_EDGE('',*,*,#611,.T.);
#765=ORIENTED_EDGE('',*,*,#612,.F.);
#766=ORIENTED_EDGE('',*,*,#613,.T.);
#767=ORIENTED_EDGE('',*,*,#610,.T.);
#768=ORIENTED_EDGE('',*,*,#613,.F.);
#769=ORIENTED_EDGE('',*,*,#611,.F.);
#770=ORIENTED_EDGE('',*,*,#614,.T.);
#771=ORIENTED_EDGE('',*,*,#615,.F.);
#772=ORIENTED_EDGE('',*,*,#614,.F.);
#773=ORIENTED_EDGE('',*,*,#616,.F.);
#774=ORIENTED_EDGE('',*,*,#617,.T.);
#775=ORIENTED_EDGE('',*,*,#618,.F.);
#776=ORIENTED_EDGE('',*,*,#619,.T.);
#777=ORIENTED_EDGE('',*,*,#616,.T.);
#778=ORIENTED_EDGE('',*,*,#619,.F.);
#779=ORIENTED_EDGE('',*,*,#617,.F.);
#780=ORIENTED_EDGE('',*,*,#620,.T.);
#781=ORIENTED_EDGE('',*,*,#621,.F.);
#782=ORIENTED_EDGE('',*,*,#620,.F.);
#783=ORIENTED_EDGE('',*,*,#622,.F.);
#784=ORIENTED_EDGE('',*,*,#623,.T.);
#785=ORIENTED_EDGE('',*,*,#624,.F.);
#786=ORIENTED_EDGE('',*,*,#625,.T.);
#787=ORIENTED_EDGE('',*,*,#622,.T.);
#788=ORIENTED_EDGE('',*,*,#625,.F.);
#789=ORIENTED_EDGE('',*,*,#623,.F.);
#790=ORIENTED_EDGE('',*,*,#626,.T.);
#791=ORIENTED_EDGE('',*,*,#627,.F.);
#792=ORIENTED_EDGE('',*,*,#626,.F.);
#793=ORIENTED_EDGE('',*,*,#628,.F.);
#794=ORIENTED_EDGE('',*,*,#629,.T.);
#795=ORIENTED_EDGE('',*,*,#630,.F.);
#796=ORIENTED_EDGE('',*,*,#631,.T.);
#797=ORIENTED_EDGE('',*,*,#628,.T.);
#798=ORIENTED_EDGE('',*,*,#631,.F.);
#799=ORIENTED_EDGE('',*,*,#629,.F.);
#800=ORIENTED_EDGE('',*,*,#632,.T.);
#801=ORIENTED_EDGE('',*,*,#633,.F.);
#802=ORIENTED_EDGE('',*,*,#632,.F.);
#803=ORIENTED_EDGE('',*,*,#634,.F.);
#804=ORIENTED_EDGE('',*,*,#635,.T.);
#805=ORIENTED_EDGE('',*,*,#636,.F.);
#806=ORIENTED_EDGE('',*,*,#637,.T.);
#807=ORIENTED_EDGE('',*,*,#634,.T.);
#808=ORIENTED_EDGE('',*,*,#637,.F.);
#809=ORIENTED_EDGE('',*,*,#635,.F.);
#810=ORIENTED_EDGE('',*,*,#638,.T.);
#811=ORIENTED_EDGE('',*,*,#639,.F.);
#812=ORIENTED_EDGE('',*,*,#638,.F.);
#813=ORIENTED_EDGE('',*,*,#640,.F.);
#814=ORIENTED_EDGE('',*,*,#641,.T.);
#815=ORIENTED_EDGE('',*,*,#642,.F.);
#816=ORIENTED_EDGE('',*,*,#643,.T.);
#817=ORIENTED_EDGE('',*,*,#640,.T.);
#818=ORIENTED_EDGE('',*,*,#643,.F.);
#819=ORIENTED_EDGE('',*,*,#641,.F.);
#820=ORIENTED_EDGE('',*,*,#644,.T.);
#821=ORIENTED_EDGE('',*,*,#645,.F.);
#822=ORIENTED_EDGE('',*,*,#644,.F.);
#823=ORIENTED_EDGE('',*,*,#646,.F.);
#824=ORIENTED_EDGE('',*,*,#647,.T.);
#825=ORIENTED_EDGE('',*,*,#648,.F.);
#826=ORIENTED_EDGE('',*,*,#649,.T.);
#827=ORIENTED_EDGE('',*,*,#646,.T.);
#828=ORIENTED_EDGE('',*,*,#649,.F.);
#829=ORIENTED_EDGE('',*,*,#647,.F.);
#830=ORIENTED_EDGE('',*,*,#650,.T.);
#831=ORIENTED_EDGE('',*,*,#651,.F.);
#832=ORIENTED_EDGE('',*,*,#650,.F.);
#833=ORIENTED_EDGE('',*,*,#652,.F.);
#834=ORIENTED_EDGE('',*,*,#653,.T.);
#835=ORIENTED_EDGE('',*,*,#654,.F.);
#836=ORIENTED_EDGE('',*,*,#655,.T.);
#837=ORIENTED_EDGE('',*,*,#652,.T.);
#838=ORIENTED_EDGE('',*,*,#655,.F.);
#839=ORIENTED_EDGE('',*,*,#653,.F.);
#840=ORIENTED_EDGE('',*,*,#656,.T.);
#841=ORIENTED_EDGE('',*,*,#657,.F.);
#842=ORIENTED_EDGE('',*,*,#656,.F.);
#843=ORIENTED_EDGE('',*,*,#658,.F.);
#844=ORIENTED_EDGE('',*,*,#659,.T.);
#845=ORIENTED_EDGE('',*,*,#660,.F.);
#846=ORIENTED_EDGE('',*,*,#661,.T.);
#847=ORIENTED_EDGE('',*,*,#658,.T.);
#848=ORIENTED_EDGE('',*,*,#661,.F.);
#849=ORIENTED_EDGE('',*,*,#659,.F.);
#850=ORIENTED_EDGE('',*,*,#662,.T.);
#851=ORIENTED_EDGE('',*,*,#663,.F.);
#852=ORIENTED_EDGE('',*,*,#662,.F.);
#853=ORIENTED_EDGE('',*,*,#664,.F.);
#854=ORIENTED_EDGE('',*,*,#665,.T.);
#855=ORIENTED_EDGE('',*,*,#666,.F.);
#856=ORIENTED_EDGE('',*,*,#667,.T.);
#857=ORIENTED_EDGE('',*,*,#664,.T.);
#858=ORIENTED_EDGE('',*,*,#667,.F.);
#859=ORIENTED_EDGE('',*,*,#665,.F.);
#860=ORIENTED_EDGE('',*,*,#668,.T.);
#861=ORIENTED_EDGE('',*,*,#669,.F.);
#862=ORIENTED_EDGE('',*,*,#668,.F.);
#863=ORIENTED_EDGE('',*,*,#670,.F.);
#864=ORIENTED_EDGE('',*,*,#671,.T.);
#865=ORIENTED_EDGE('',*,*,#672,.F.);
#866=ORIENTED_EDGE('',*,*,#673,.T.);
#867=ORIENTED_EDGE('',*,*,#670,.T.);
#868=ORIENTED_EDGE('',*,*,#673,.F.);
#869=ORIENTED_EDGE('',*,*,#671,.F.);
#870=ORIENTED_EDGE('',*,*,#674,.T.);
#871=ORIENTED_EDGE('',*,*,#675,.F.);
#872=ORIENTED_EDGE('',*,*,#674,.F.);
#873=ORIENTED_EDGE('',*,*,#676,.F.);
#874=ORIENTED_EDGE('',*,*,#677,.T.);
#875=ORIENTED_EDGE('',*,*,#678,.F.);
#876=ORIENTED_EDGE('',*,*,#679,.T.);
#877=ORIENTED_EDGE('',*,*,#676,.T.);
#878=ORIENTED_EDGE('',*,*,#679,.F.);
#879=ORIENTED_EDGE('',*,*,#677,.F.);
#880=ORIENTED_EDGE('',*,*,#680,.T.);
#881=ORIENTED_EDGE('',*,*,#681,.F.);
#882=ORIENTED_EDGE('',*,*,#680,.F.);
#883=ORIENTED_EDGE('',*,*,#682,.F.);
#884=ORIENTED_EDGE('',*,*,#683,.T.);
#885=ORIENTED_EDGE('',*,*,#684,.F.);
#886=ORIENTED_EDGE('',*,*,#685,.T.);
#887=ORIENTED_EDGE('',*,*,#682,.T.);
#888=ORIENTED_EDGE('',*,*,#685,.F.);
#889=ORIENTED_EDGE('',*,*,#683,.F.);
#890=ORIENTED_EDGE('',*,*,#686,.T.);
#891=ORIENTED_EDGE('',*,*,#687,.F.);
#892=ORIENTED_EDGE('',*,*,#686,.F.);
#893=ORIENTED_EDGE('',*,*,#688,.F.);
#894=ORIENTED_EDGE('',*,*,#689,.T.);
#895=ORIENTED_EDGE('',*,*,#690,.F.);
#896=ORIENTED_EDGE('',*,*,#691,.T.);
#897=ORIENTED_EDGE('',*,*,#688,.T.);
#898=ORIENTED_EDGE('',*,*,#691,.F.);
#899=ORIENTED_EDGE('',*,*,#689,.F.);
#900=ORIENTED_EDGE('',*,*,#692,.T.);
#901=ORIENTED_EDGE('',*,*,#693,.F.);
#902=ORIENTED_EDGE('',*,*,#692,.F.);
#903=ORIENTED_EDGE('',*,*,#694,.F.);
#904=ORIENTED_EDGE('',*,*,#695,.T.);
#905=ORIENTED_EDGE('',*,*,#696,.F.);
#906=ORIENTED_EDGE('',*,*,#697,.T.);
#907=ORIENTED_EDGE('',*,*,#694,.T.);
#908=ORIENTED_EDGE('',*,*,#697,.F.);
#909=ORIENTED_EDGE('',*,*,#695,.F.);
#910=ORIENTED_EDGE('',*,*,#698,.T.);
#911=ORIENTED_EDGE('',*,*,#699,.F.);
#912=ORIENTED_EDGE('',*,*,#698,.F.);
#913=ORIENTED_EDGE('',*,*,#700,.F.);
#914=ORIENTED_EDGE('',*,*,#701,.T.);
#915=ORIENTED_EDGE('',*,*,#702,.F.);
#916=ORIENTED_EDGE('',*,*,#703,.T.);
#917=ORIENTED_EDGE('',*,*,#700,.T.);
#918=ORIENTED_EDGE('',*,*,#703,.F.);
#919=ORIENTED_EDGE('',*,*,#701,.F.);
#920=ORIENTED_EDGE('',*,*,#704,.T.);
#921=ORIENTED_EDGE('',*,*,#705,.F.);
#922=ORIENTED_EDGE('',*,*,#704,.F.);
#923=ORIENTED_EDGE('',*,*,#577,.F.);
#924=ORIENTED_EDGE('',*,*,#609,.F.);
#925=ORIENTED_EDGE('',*,*,#593,.F.);
#926=ORIENTED_EDGE('',*,*,#706,.T.);
#927=ORIENTED_EDGE('',*,*,#578,.F.);
#928=ORIENTED_EDGE('',*,*,#706,.F.);
#929=ORIENTED_EDGE('',*,*,#592,.F.);
#930=ORIENTED_EDGE('',*,*,#605,.F.);
#931=ORIENTED_EDGE('',*,*,#707,.T.);
#932=ORIENTED_EDGE('',*,*,#597,.F.);
#933=ORIENTED_EDGE('',*,*,#598,.F.);
#934=ORIENTED_EDGE('',*,*,#707,.F.);
#935=ORIENTED_EDGE('',*,*,#604,.F.);
#936=ORIENTED_EDGE('',*,*,#608,.T.);
#937=ORIENTED_EDGE('',*,*,#708,.F.);
#938=ORIENTED_EDGE('',*,*,#705,.T.);
#939=ORIENTED_EDGE('',*,*,#699,.T.);
#940=ORIENTED_EDGE('',*,*,#693,.T.);
#941=ORIENTED_EDGE('',*,*,#687,.T.);
#942=ORIENTED_EDGE('',*,*,#681,.T.);
#943=ORIENTED_EDGE('',*,*,#675,.T.);
#944=ORIENTED_EDGE('',*,*,#669,.T.);
#945=ORIENTED_EDGE('',*,*,#663,.T.);
#946=ORIENTED_EDGE('',*,*,#657,.T.);
#947=ORIENTED_EDGE('',*,*,#651,.T.);
#948=ORIENTED_EDGE('',*,*,#645,.T.);
#949=ORIENTED_EDGE('',*,*,#639,.T.);
#950=ORIENTED_EDGE('',*,*,#633,.T.);
#951=ORIENTED_EDGE('',*,*,#627,.T.);
#952=ORIENTED_EDGE('',*,*,#621,.T.);
#953=ORIENTED_EDGE('',*,*,#615,.T.);
#954=ORIENTED_EDGE('',*,*,#709,.F.);
#955=ORIENTED_EDGE('',*,*,#710,.T.);
#956=ORIENTED_EDGE('',*,*,#708,.T.);
#957=ORIENTED_EDGE('',*,*,#710,.F.);
#958=ORIENTED_EDGE('',*,*,#711,.F.);
#959=ORIENTED_EDGE('',*,*,#712,.T.);
#960=ORIENTED_EDGE('',*,*,#602,.F.);
#961=ORIENTED_EDGE('',*,*,#712,.F.);
#962=ORIENTED_EDGE('',*,*,#580,.F.);
#963=ORIENTED_EDGE('',*,*,#596,.F.);
#964=ORIENTED_EDGE('',*,*,#713,.T.);
#965=ORIENTED_EDGE('',*,*,#606,.T.);
#966=ORIENTED_EDGE('',*,*,#590,.F.);
#967=ORIENTED_EDGE('',*,*,#584,.F.);
#968=ORIENTED_EDGE('',*,*,#711,.T.);
#969=ORIENTED_EDGE('',*,*,#713,.F.);
#970=ORIENTED_EDGE('',*,*,#595,.F.);
#971=ORIENTED_EDGE('',*,*,#601,.F.);
#972=ORIENTED_EDGE('',*,*,#607,.F.);
#973=ORIENTED_EDGE('',*,*,#709,.T.);
#974=ORIENTED_EDGE('',*,*,#702,.T.);
#975=ORIENTED_EDGE('',*,*,#696,.T.);
#976=ORIENTED_EDGE('',*,*,#690,.T.);
#977=ORIENTED_EDGE('',*,*,#684,.T.);
#978=ORIENTED_EDGE('',*,*,#678,.T.);
#979=ORIENTED_EDGE('',*,*,#672,.T.);
#980=ORIENTED_EDGE('',*,*,#666,.T.);
#981=ORIENTED_EDGE('',*,*,#660,.T.);
#982=ORIENTED_EDGE('',*,*,#654,.T.);
#983=ORIENTED_EDGE('',*,*,#648,.T.);
#984=ORIENTED_EDGE('',*,*,#642,.T.);
#985=ORIENTED_EDGE('',*,*,#636,.T.);
#986=ORIENTED_EDGE('',*,*,#630,.T.);
#987=ORIENTED_EDGE('',*,*,#624,.T.);
#988=ORIENTED_EDGE('',*,*,#618,.T.);
#989=ORIENTED_EDGE('',*,*,#612,.T.);
#990=PLANE('',#1093);
#991=PLANE('',#1097);
#992=PLANE('',#1098);
#993=PLANE('',#1099);
#994=PLANE('',#1101);
#995=PLANE('',#1102);
#996=PLANE('',#1103);
#997=PLANE('',#1110);
#998=PLANE('',#1117);
#999=PLANE('',#1124);
#1000=PLANE('',#1131);
#1001=PLANE('',#1138);
#1002=PLANE('',#1145);
#1003=PLANE('',#1152);
#1004=PLANE('',#1159);
#1005=PLANE('',#1166);
#1006=PLANE('',#1173);
#1007=PLANE('',#1180);
#1008=PLANE('',#1187);
#1009=PLANE('',#1194);
#1010=PLANE('',#1201);
#1011=PLANE('',#1208);
#1012=PLANE('',#1215);
#1013=PLANE('',#1216);
#1014=PLANE('',#1217);
#1015=PLANE('',#1223);
#1016=PLANE('',#1224);
#1017=ADVANCED_FACE('',(#172),#990,.T.);
#1018=ADVANCED_FACE('',(#173),#137,.T.);
#1019=ADVANCED_FACE('',(#174),#991,.T.);
#1020=ADVANCED_FACE('',(#175),#992,.T.);
#1021=ADVANCED_FACE('',(#176,#15),#993,.T.);
#1022=ADVANCED_FACE('',(#177),#994,.T.);
#1023=ADVANCED_FACE('',(#178),#995,.F.);
#1024=ADVANCED_FACE('',(#179,#16),#996,.F.);
#1025=ADVANCED_FACE('',(#180),#138,.F.);
#1026=ADVANCED_FACE('',(#181),#139,.F.);
#1027=ADVANCED_FACE('',(#182,#17),#997,.F.);
#1028=ADVANCED_FACE('',(#183),#140,.F.);
#1029=ADVANCED_FACE('',(#184),#141,.F.);
#1030=ADVANCED_FACE('',(#185,#18),#998,.F.);
#1031=ADVANCED_FACE('',(#186),#142,.F.);
#1032=ADVANCED_FACE('',(#187),#143,.F.);
#1033=ADVANCED_FACE('',(#188,#19),#999,.F.);
#1034=ADVANCED_FACE('',(#189),#144,.F.);
#1035=ADVANCED_FACE('',(#190),#145,.F.);
#1036=ADVANCED_FACE('',(#191,#20),#1000,.F.);
#1037=ADVANCED_FACE('',(#192),#146,.F.);
#1038=ADVANCED_FACE('',(#193),#147,.F.);
#1039=ADVANCED_FACE('',(#194,#21),#1001,.F.);
#1040=ADVANCED_FACE('',(#195),#148,.F.);
#1041=ADVANCED_FACE('',(#196),#149,.F.);
#1042=ADVANCED_FACE('',(#197,#22),#1002,.F.);
#1043=ADVANCED_FACE('',(#198),#150,.F.);
#1044=ADVANCED_FACE('',(#199),#151,.F.);
#1045=ADVANCED_FACE('',(#200,#23),#1003,.F.);
#1046=ADVANCED_FACE('',(#201),#152,.F.);
#1047=ADVANCED_FACE('',(#202),#153,.F.);
#1048=ADVANCED_FACE('',(#203,#24),#1004,.F.);
#1049=ADVANCED_FACE('',(#204),#154,.F.);
#1050=ADVANCED_FACE('',(#205),#155,.F.);
#1051=ADVANCED_FACE('',(#206,#25),#1005,.F.);
#1052=ADVANCED_FACE('',(#207),#156,.F.);
#1053=ADVANCED_FACE('',(#208),#157,.F.);
#1054=ADVANCED_FACE('',(#209,#26),#1006,.F.);
#1055=ADVANCED_FACE('',(#210),#158,.F.);
#1056=ADVANCED_FACE('',(#211),#159,.F.);
#1057=ADVANCED_FACE('',(#212,#27),#1007,.F.);
#1058=ADVANCED_FACE('',(#213),#160,.F.);
#1059=ADVANCED_FACE('',(#214),#161,.F.);
#1060=ADVANCED_FACE('',(#215,#28),#1008,.F.);
#1061=ADVANCED_FACE('',(#216),#162,.F.);
#1062=ADVANCED_FACE('',(#217),#163,.F.);
#1063=ADVANCED_FACE('',(#218,#29),#1009,.F.);
#1064=ADVANCED_FACE('',(#219),#164,.F.);
#1065=ADVANCED_FACE('',(#220),#165,.F.);
#1066=ADVANCED_FACE('',(#221,#30),#1010,.F.);
#1067=ADVANCED_FACE('',(#222),#166,.F.);
#1068=ADVANCED_FACE('',(#223),#167,.F.);
#1069=ADVANCED_FACE('',(#224,#31),#1011,.F.);
#1070=ADVANCED_FACE('',(#225),#168,.F.);
#1071=ADVANCED_FACE('',(#226),#169,.F.);
#1072=ADVANCED_FACE('',(#227),#1012,.F.);
#1073=ADVANCED_FACE('',(#228),#1013,.F.);
#1074=ADVANCED_FACE('',(#229,#32,#33,#34,#35,#36,#37,#38,#39,#40,#41,#42,
#43,#44,#45,#46,#47,#48),#1014,.F.);
#1075=ADVANCED_FACE('',(#230),#170,.F.);
#1076=ADVANCED_FACE('',(#231),#171,.F.);
#1077=ADVANCED_FACE('',(#232,#49),#1015,.T.);
#1078=ADVANCED_FACE('',(#233,#50,#51,#52,#53,#54,#55,#56,#57,#58,#59,#60,
#61,#62,#63,#64,#65,#66),#1016,.F.);
#1079=CLOSED_SHELL('',(#1017,#1018,#1019,#1020,#1021,#1022,#1023,#1024,
#1025,#1026,#1027,#1028,#1029,#1030,#1031,#1032,#1033,#1034,#1035,#1036,
#1037,#1038,#1039,#1040,#1041,#1042,#1043,#1044,#1045,#1046,#1047,#1048,
#1049,#1050,#1051,#1052,#1053,#1054,#1055,#1056,#1057,#1058,#1059,#1060,
#1061,#1062,#1063,#1064,#1065,#1066,#1067,#1068,#1069,#1070,#1071,#1072,
#1073,#1074,#1075,#1076,#1077,#1078));
#1080=DERIVED_UNIT_ELEMENT(#1082,1.);
#1081=DERIVED_UNIT_ELEMENT(#1857,-3.);
#1082=(
MASS_UNIT()
NAMED_UNIT(*)
SI_UNIT(.KILO.,.GRAM.)
);
#1083=DERIVED_UNIT((#1080,#1081));
#1084=MEASURE_REPRESENTATION_ITEM('density measure',
POSITIVE_RATIO_MEASURE(7850.),#1083);
#1085=PROPERTY_DEFINITION_REPRESENTATION(#1090,#1087);
#1086=PROPERTY_DEFINITION_REPRESENTATION(#1091,#1088);
#1087=REPRESENTATION('material name',(#1089),#1854);
#1088=REPRESENTATION('density',(#1084),#1854);
#1089=DESCRIPTIVE_REPRESENTATION_ITEM('Steel','Steel');
#1090=PROPERTY_DEFINITION('material property','material name',#1864);
#1091=PROPERTY_DEFINITION('material property','density of part',#1864);
#1092=AXIS2_PLACEMENT_3D('',#1559,#1225,#1226);
#1093=AXIS2_PLACEMENT_3D('',#1560,#1227,#1228);
#1094=AXIS2_PLACEMENT_3D('',#1577,#1237,#1238);
#1095=AXIS2_PLACEMENT_3D('',#1579,#1239,#1240);
#1096=AXIS2_PLACEMENT_3D('',#1582,#1242,#1243);
#1097=AXIS2_PLACEMENT_3D('',#1583,#1244,#1245);
#1098=AXIS2_PLACEMENT_3D('',#1597,#1253,#1254);
#1099=AXIS2_PLACEMENT_3D('',#1608,#1261,#1262);
#1100=AXIS2_PLACEMENT_3D('',#1613,#1265,#1266);
#1101=AXIS2_PLACEMENT_3D('',#1614,#1267,#1268);
#1102=AXIS2_PLACEMENT_3D('',#1623,#1274,#1275);
#1103=AXIS2_PLACEMENT_3D('',#1626,#1278,#1279);
#1104=AXIS2_PLACEMENT_3D('',#1628,#1280,#1281);
#1105=AXIS2_PLACEMENT_3D('',#1630,#1282,#1283);
#1106=AXIS2_PLACEMENT_3D('',#1631,#1284,#1285);
#1107=AXIS2_PLACEMENT_3D('',#1633,#1286,#1287);
#1108=AXIS2_PLACEMENT_3D('',#1635,#1289,#1290);
#1109=AXIS2_PLACEMENT_3D('',#1638,#1292,#1293);
#1110=AXIS2_PLACEMENT_3D('',#1639,#1294,#1295);
#1111=AXIS2_PLACEMENT_3D('',#1641,#1296,#1297);
#1112=AXIS2_PLACEMENT_3D('',#1643,#1298,#1299);
#1113=AXIS2_PLACEMENT_3D('',#1644,#1300,#1301);
#1114=AXIS2_PLACEMENT_3D('',#1646,#1302,#1303);
#1115=AXIS2_PLACEMENT_3D('',#1648,#1305,#1306);
#1116=AXIS2_PLACEMENT_3D('',#1651,#1308,#1309);
#1117=AXIS2_PLACEMENT_3D('',#1652,#1310,#1311);
#1118=AXIS2_PLACEMENT_3D('',#1654,#1312,#1313);
#1119=AXIS2_PLACEMENT_3D('',#1656,#1314,#1315);
#1120=AXIS2_PLACEMENT_3D('',#1657,#1316,#1317);
#1121=AXIS2_PLACEMENT_3D('',#1659,#1318,#1319);
#1122=AXIS2_PLACEMENT_3D('',#1661,#1321,#1322);
#1123=AXIS2_PLACEMENT_3D('',#1664,#1324,#1325);
#1124=AXIS2_PLACEMENT_3D('',#1665,#1326,#1327);
#1125=AXIS2_PLACEMENT_3D('',#1667,#1328,#1329);
#1126=AXIS2_PLACEMENT_3D('',#1669,#1330,#1331);
#1127=AXIS2_PLACEMENT_3D('',#1670,#1332,#1333);
#1128=AXIS2_PLACEMENT_3D('',#1672,#1334,#1335);
#1129=AXIS2_PLACEMENT_3D('',#1674,#1337,#1338);
#1130=AXIS2_PLACEMENT_3D('',#1677,#1340,#1341);
#1131=AXIS2_PLACEMENT_3D('',#1678,#1342,#1343);
#1132=AXIS2_PLACEMENT_3D('',#1680,#1344,#1345);
#1133=AXIS2_PLACEMENT_3D('',#1682,#1346,#1347);
#1134=AXIS2_PLACEMENT_3D('',#1683,#1348,#1349);
#1135=AXIS2_PLACEMENT_3D('',#1685,#1350,#1351);
#1136=AXIS2_PLACEMENT_3D('',#1687,#1353,#1354);
#1137=AXIS2_PLACEMENT_3D('',#1690,#1356,#1357);
#1138=AXIS2_PLACEMENT_3D('',#1691,#1358,#1359);
#1139=AXIS2_PLACEMENT_3D('',#1693,#1360,#1361);
#1140=AXIS2_PLACEMENT_3D('',#1695,#1362,#1363);
#1141=AXIS2_PLACEMENT_3D('',#1696,#1364,#1365);
#1142=AXIS2_PLACEMENT_3D('',#1698,#1366,#1367);
#1143=AXIS2_PLACEMENT_3D('',#1700,#1369,#1370);
#1144=AXIS2_PLACEMENT_3D('',#1703,#1372,#1373);
#1145=AXIS2_PLACEMENT_3D('',#1704,#1374,#1375);
#1146=AXIS2_PLACEMENT_3D('',#1706,#1376,#1377);
#1147=AXIS2_PLACEMENT_3D('',#1708,#1378,#1379);
#1148=AXIS2_PLACEMENT_3D('',#1709,#1380,#1381);
#1149=AXIS2_PLACEMENT_3D('',#1711,#1382,#1383);
#1150=AXIS2_PLACEMENT_3D('',#1713,#1385,#1386);
#1151=AXIS2_PLACEMENT_3D('',#1716,#1388,#1389);
#1152=AXIS2_PLACEMENT_3D('',#1717,#1390,#1391);
#1153=AXIS2_PLACEMENT_3D('',#1719,#1392,#1393);
#1154=AXIS2_PLACEMENT_3D('',#1721,#1394,#1395);
#1155=AXIS2_PLACEMENT_3D('',#1722,#1396,#1397);
#1156=AXIS2_PLACEMENT_3D('',#1724,#1398,#1399);
#1157=AXIS2_PLACEMENT_3D('',#1726,#1401,#1402);
#1158=AXIS2_PLACEMENT_3D('',#1729,#1404,#1405);
#1159=AXIS2_PLACEMENT_3D('',#1730,#1406,#1407);
#1160=AXIS2_PLACEMENT_3D('',#1732,#1408,#1409);
#1161=AXIS2_PLACEMENT_3D('',#1734,#1410,#1411);
#1162=AXIS2_PLACEMENT_3D('',#1735,#1412,#1413);
#1163=AXIS2_PLACEMENT_3D('',#1737,#1414,#1415);
#1164=AXIS2_PLACEMENT_3D('',#1739,#1417,#1418);
#1165=AXIS2_PLACEMENT_3D('',#1742,#1420,#1421);
#1166=AXIS2_PLACEMENT_3D('',#1743,#1422,#1423);
#1167=AXIS2_PLACEMENT_3D('',#1745,#1424,#1425);
#1168=AXIS2_PLACEMENT_3D('',#1747,#1426,#1427);
#1169=AXIS2_PLACEMENT_3D('',#1748,#1428,#1429);
#1170=AXIS2_PLACEMENT_3D('',#1750,#1430,#1431);
#1171=AXIS2_PLACEMENT_3D('',#1752,#1433,#1434);
#1172=AXIS2_PLACEMENT_3D('',#1755,#1436,#1437);
#1173=AXIS2_PLACEMENT_3D('',#1756,#1438,#1439);
#1174=AXIS2_PLACEMENT_3D('',#1758,#1440,#1441);
#1175=AXIS2_PLACEMENT_3D('',#1760,#1442,#1443);
#1176=AXIS2_PLACEMENT_3D('',#1761,#1444,#1445);
#1177=AXIS2_PLACEMENT_3D('',#1763,#1446,#1447);
#1178=AXIS2_PLACEMENT_3D('',#1765,#1449,#1450);
#1179=AXIS2_PLACEMENT_3D('',#1768,#1452,#1453);
#1180=AXIS2_PLACEMENT_3D('',#1769,#1454,#1455);
#1181=AXIS2_PLACEMENT_3D('',#1771,#1456,#1457);
#1182=AXIS2_PLACEMENT_3D('',#1773,#1458,#1459);
#1183=AXIS2_PLACEMENT_3D('',#1774,#1460,#1461);
#1184=AXIS2_PLACEMENT_3D('',#1776,#1462,#1463);
#1185=AXIS2_PLACEMENT_3D('',#1778,#1465,#1466);
#1186=AXIS2_PLACEMENT_3D('',#1781,#1468,#1469);
#1187=AXIS2_PLACEMENT_3D('',#1782,#1470,#1471);
#1188=AXIS2_PLACEMENT_3D('',#1784,#1472,#1473);
#1189=AXIS2_PLACEMENT_3D('',#1786,#1474,#1475);
#1190=AXIS2_PLACEMENT_3D('',#1787,#1476,#1477);
#1191=AXIS2_PLACEMENT_3D('',#1789,#1478,#1479);
#1192=AXIS2_PLACEMENT_3D('',#1791,#1481,#1482);
#1193=AXIS2_PLACEMENT_3D('',#1794,#1484,#1485);
#1194=AXIS2_PLACEMENT_3D('',#1795,#1486,#1487);
#1195=AXIS2_PLACEMENT_3D('',#1797,#1488,#1489);
#1196=AXIS2_PLACEMENT_3D('',#1799,#1490,#1491);
#1197=AXIS2_PLACEMENT_3D('',#1800,#1492,#1493);
#1198=AXIS2_PLACEMENT_3D('',#1802,#1494,#1495);
#1199=AXIS2_PLACEMENT_3D('',#1804,#1497,#1498);
#1200=AXIS2_PLACEMENT_3D('',#1807,#1500,#1501);
#1201=AXIS2_PLACEMENT_3D('',#1808,#1502,#1503);
#1202=AXIS2_PLACEMENT_3D('',#1810,#1504,#1505);
#1203=AXIS2_PLACEMENT_3D('',#1812,#1506,#1507);
#1204=AXIS2_PLACEMENT_3D('',#1813,#1508,#1509);
#1205=AXIS2_PLACEMENT_3D('',#1815,#1510,#1511);
#1206=AXIS2_PLACEMENT_3D('',#1817,#1513,#1514);
#1207=AXIS2_PLACEMENT_3D('',#1820,#1516,#1517);
#1208=AXIS2_PLACEMENT_3D('',#1821,#1518,#1519);
#1209=AXIS2_PLACEMENT_3D('',#1823,#1520,#1521);
#1210=AXIS2_PLACEMENT_3D('',#1825,#1522,#1523);
#1211=AXIS2_PLACEMENT_3D('',#1826,#1524,#1525);
#1212=AXIS2_PLACEMENT_3D('',#1828,#1526,#1527);
#1213=AXIS2_PLACEMENT_3D('',#1830,#1529,#1530);
#1214=AXIS2_PLACEMENT_3D('',#1833,#1532,#1533);
#1215=AXIS2_PLACEMENT_3D('',#1834,#1534,#1535);
#1216=AXIS2_PLACEMENT_3D('',#1836,#1537,#1538);
#1217=AXIS2_PLACEMENT_3D('',#1838,#1540,#1541);
#1218=AXIS2_PLACEMENT_3D('',#1840,#1542,#1543);
#1219=AXIS2_PLACEMENT_3D('',#1841,#1544,#1545);
#1220=AXIS2_PLACEMENT_3D('',#1843,#1546,#1547);
#1221=AXIS2_PLACEMENT_3D('',#1845,#1549,#1550);
#1222=AXIS2_PLACEMENT_3D('',#1847,#1551,#1552);
#1223=AXIS2_PLACEMENT_3D('',#1849,#1554,#1555);
#1224=AXIS2_PLACEMENT_3D('',#1851,#1557,#1558);
#1225=DIRECTION('axis',(0.,0.,1.));
#1226=DIRECTION('refdir',(1.,0.,0.));
#1227=DIRECTION('center_axis',(6.78065122985314E-16,-0.9683068326224,0.249763644065297));
#1228=DIRECTION('ref_axis',(-3.93184180138789E-16,-0.249763644065297,-0.9683068326224));
#1229=DIRECTION('',(1.39815429888096E-14,0.249763644065297,0.9683068326224));
#1230=DIRECTION('',(1.,-3.05380912862046E-15,-1.45541172789857E-14));
#1231=DIRECTION('',(1.35564498869424E-15,-0.249763644065297,-0.9683068326224));
#1232=DIRECTION('',(1.,8.88178419700125E-17,-2.3704899164275E-15));
#1233=DIRECTION('',(0.,0.249763644065297,0.9683068326224));
#1234=DIRECTION('',(1.,5.75297385487581E-16,-4.84460956200068E-16));
#1235=DIRECTION('',(0.,-0.249763644065297,-0.9683068326224));
#1236=DIRECTION('',(1.,8.88178419700125E-17,-2.3704899164275E-15));
#1237=DIRECTION('center_axis',(1.,5.75297385487581E-16,-4.84460956200068E-16));
#1238=DIRECTION('ref_axis',(6.78065122985314E-16,-0.9683068326224,0.249763644065297));
#1239=DIRECTION('center_axis',(-1.,0.,0.));
#1240=DIRECTION('ref_axis',(6.78065122985314E-16,-0.9683068326224,0.249763644065297));
#1241=DIRECTION('',(1.,5.75297385487581E-16,-4.84460956200068E-16));
#1242=DIRECTION('center_axis',(1.,0.,0.));
#1243=DIRECTION('ref_axis',(6.78065122985314E-16,-0.9683068326224,0.249763644065297));
#1244=DIRECTION('center_axis',(-4.36063655329559E-16,0.968306832622407,
0.249763644065267));
#1245=DIRECTION('ref_axis',(6.80739805403493E-16,-0.249763644065267,0.968306832622407));
#1246=DIRECTION('',(-1.3917483008455E-14,0.249763644065267,-0.968306832622407));
#1247=DIRECTION('',(-1.,4.44089209850063E-17,-1.91807386035552E-15));
#1248=DIRECTION('',(0.,-0.249763644065267,0.968306832622407));
#1249=DIRECTION('',(0.,0.249763644065267,-0.968306832622407));
#1250=DIRECTION('',(-1.,4.44089209850063E-17,-1.91807386035552E-15));
#1251=DIRECTION('',(-1.41970496904904E-15,-0.249763644065267,0.968306832622407));
#1252=DIRECTION('',(-1.,-4.20440389959512E-15,1.45541172789856E-14));
#1253=DIRECTION('center_axis',(8.88178419700125E-17,-1.,0.));
#1254=DIRECTION('ref_axis',(1.,8.88178419700125E-17,0.));
#1255=DIRECTION('',(0.,0.,1.));
#1256=DIRECTION('',(1.,8.88178419700125E-17,0.));
#1257=DIRECTION('',(0.,0.,1.));
#1258=DIRECTION('',(1.43309427561664E-15,1.27284340899848E-31,-1.));
#1259=DIRECTION('',(-1.,-8.88178419700125E-17,-1.43309427561664E-15));
#1260=DIRECTION('',(1.44060875423689E-14,1.27951760674429E-30,1.));
#1261=DIRECTION('center_axis',(-1.,0.,0.));
#1262=DIRECTION('ref_axis',(0.,-1.,0.));
#1263=DIRECTION('',(0.,0.,1.));
#1264=DIRECTION('',(0.,-1.,0.));
#1265=DIRECTION('center_axis',(1.,0.,0.));
#1266=DIRECTION('ref_axis',(0.,1.,0.));
#1267=DIRECTION('center_axis',(4.44089209850063E-17,1.,0.));
#1268=DIRECTION('ref_axis',(-1.,4.44089209850063E-17,0.));
#1269=DIRECTION('',(-1.44060875423689E-14,6.39758803372145E-31,-1.));
#1270=DIRECTION('',(1.,-4.44089209850063E-17,1.43309427561664E-15));
#1271=DIRECTION('',(-1.43309427561664E-15,6.3642170449924E-32,1.));
#1272=DIRECTION('',(0.,0.,1.));
#1273=DIRECTION('',(-1.,4.44089209850063E-17,0.));
#1274=DIRECTION('center_axis',(-1.,1.28241202986949E-16,1.44060875423689E-14));
#1275=DIRECTION('ref_axis',(-1.44060875423689E-14,1.56125112837916E-14,
-1.));
#1276=DIRECTION('',(-1.28241202987174E-16,-1.,-1.56087864207246E-14));
#1277=DIRECTION('',(-1.28241202987174E-16,-1.,-1.56087864207246E-14));
#1278=DIRECTION('center_axis',(4.37775144904917E-17,1.38777878078148E-17,
1.));
#1279=DIRECTION('ref_axis',(-1.,0.,4.37775144904917E-17));
#1280=DIRECTION('center_axis',(4.37775144904917E-17,1.38777878078148E-17,
1.));
#1281=DIRECTION('ref_axis',(-1.,0.,4.37775144904917E-17));
#1282=DIRECTION('center_axis',(4.37775144904917E-17,1.38777878078148E-17,
1.));
#1283=DIRECTION('ref_axis',(-1.,0.,4.37775144904917E-17));
#1284=DIRECTION('center_axis',(4.37775144904917E-17,1.38777878078148E-17,
1.));
#1285=DIRECTION('ref_axis',(-1.,0.,4.37775144904917E-17));
#1286=DIRECTION('center_axis',(0.,0.,1.));
#1287=DIRECTION('ref_axis',(-1.,0.,4.37775144904917E-17));
#1288=DIRECTION('',(4.37775144904917E-17,1.38777878078148E-17,1.));
#1289=DIRECTION('center_axis',(4.37775144904917E-17,1.38777878078148E-17,
1.));
#1290=DIRECTION('ref_axis',(-1.,0.,4.37775144904917E-17));
#1291=DIRECTION('',(4.37775144904917E-17,1.38777878078148E-17,1.));
#1292=DIRECTION('center_axis',(1.43309427561664E-15,1.56087864207246E-14,
-1.));
#1293=DIRECTION('ref_axis',(-1.,0.,4.37775144904917E-17));
#1294=DIRECTION('center_axis',(4.37775144904917E-17,1.38777878078148E-17,
1.));
#1295=DIRECTION('ref_axis',(-1.,0.,4.37775144904917E-17));
#1296=DIRECTION('center_axis',(4.37775144904917E-17,1.38777878078148E-17,
1.));
#1297=DIRECTION('ref_axis',(-1.,0.,4.37775144904917E-17));
#1298=DIRECTION('center_axis',(4.37775144904917E-17,1.38777878078148E-17,
1.));
#1299=DIRECTION('ref_axis',(-1.,0.,4.37775144904917E-17));
#1300=DIRECTION('center_axis',(4.37775144904917E-17,1.38777878078148E-17,
1.));
#1301=DIRECTION('ref_axis',(-1.,0.,4.37775144904917E-17));
#1302=DIRECTION('center_axis',(0.,0.,1.));
#1303=DIRECTION('ref_axis',(-1.,0.,4.37775144904917E-17));
#1304=DIRECTION('',(4.37775144904917E-17,1.38777878078148E-17,1.));
#1305=DIRECTION('center_axis',(4.37775144904917E-17,1.38777878078148E-17,
1.));
#1306=DIRECTION('ref_axis',(-1.,0.,4.37775144904917E-17));
#1307=DIRECTION('',(4.37775144904917E-17,1.38777878078148E-17,1.));
#1308=DIRECTION('center_axis',(1.43309427561664E-15,1.56087864207246E-14,
-1.));
#1309=DIRECTION('ref_axis',(-1.,0.,4.37775144904917E-17));
#1310=DIRECTION('center_axis',(4.37775144904917E-17,1.38777878078148E-17,
1.));
#1311=DIRECTION('ref_axis',(-1.,0.,4.37775144904917E-17));
#1312=DIRECTION('center_axis',(4.37775144904917E-17,1.38777878078148E-17,
1.));
#1313=DIRECTION('ref_axis',(-1.,0.,4.37775144904917E-17));
#1314=DIRECTION('center_axis',(4.37775144904917E-17,1.38777878078148E-17,
1.));
#1315=DIRECTION('ref_axis',(-1.,0.,4.37775144904917E-17));
#1316=DIRECTION('center_axis',(4.37775144904917E-17,1.38777878078148E-17,
1.));
#1317=DIRECTION('ref_axis',(-1.,0.,4.37775144904917E-17));
#1318=DIRECTION('center_axis',(0.,0.,1.));
#1319=DIRECTION('ref_axis',(-1.,0.,4.37775144904917E-17));
#1320=DIRECTION('',(4.37775144904917E-17,1.38777878078148E-17,1.));
#1321=DIRECTION('center_axis',(4.37775144904917E-17,1.38777878078148E-17,
1.));
#1322=DIRECTION('ref_axis',(-1.,0.,4.37775144904917E-17));
#1323=DIRECTION('',(4.37775144904917E-17,1.38777878078148E-17,1.));
#1324=DIRECTION('center_axis',(1.43309427561664E-15,1.56087864207246E-14,
-1.));
#1325=DIRECTION('ref_axis',(-1.,0.,4.37775144904917E-17));
#1326=DIRECTION('center_axis',(4.37775144904917E-17,1.38777878078148E-17,
1.));
#1327=DIRECTION('ref_axis',(-1.,0.,4.37775144904917E-17));
#1328=DIRECTION('center_axis',(4.37775144904917E-17,1.38777878078148E-17,
1.));
#1329=DIRECTION('ref_axis',(-1.,0.,4.37775144904917E-17));
#1330=DIRECTION('center_axis',(4.37775144904917E-17,1.38777878078148E-17,
1.));
#1331=DIRECTION('ref_axis',(-1.,0.,4.37775144904917E-17));
#1332=DIRECTION('center_axis',(4.37775144904917E-17,1.38777878078148E-17,
1.));
#1333=DIRECTION('ref_axis',(-1.,0.,4.37775144904917E-17));
#1334=DIRECTION('center_axis',(0.,0.,1.));
#1335=DIRECTION('ref_axis',(-1.,0.,4.37775144904917E-17));
#1336=DIRECTION('',(4.37775144904917E-17,1.38777878078148E-17,1.));
#1337=DIRECTION('center_axis',(4.37775144904917E-17,1.38777878078148E-17,
1.));
#1338=DIRECTION('ref_axis',(-1.,0.,4.37775144904917E-17));
#1339=DIRECTION('',(4.37775144904917E-17,1.38777878078148E-17,1.));
#1340=DIRECTION('center_axis',(1.43309427561664E-15,1.56087864207246E-14,
-1.));
#1341=DIRECTION('ref_axis',(-1.,0.,4.37775144904917E-17));
#1342=DIRECTION('center_axis',(4.37775144904917E-17,1.38777878078148E-17,
1.));
#1343=DIRECTION('ref_axis',(-1.,0.,4.37775144904917E-17));
#1344=DIRECTION('center_axis',(4.37775144904917E-17,1.38777878078148E-17,
1.));
#1345=DIRECTION('ref_axis',(-1.,0.,4.37775144904917E-17));
#1346=DIRECTION('center_axis',(4.37775144904917E-17,1.38777878078148E-17,
1.));
#1347=DIRECTION('ref_axis',(-1.,0.,4.37775144904917E-17));
#1348=DIRECTION('center_axis',(4.37775144904917E-17,1.38777878078148E-17,
1.));
#1349=DIRECTION('ref_axis',(-1.,0.,4.37775144904917E-17));
#1350=DIRECTION('center_axis',(0.,0.,1.));
#1351=DIRECTION('ref_axis',(-1.,0.,4.37775144904917E-17));
#1352=DIRECTION('',(4.37775144904917E-17,1.38777878078148E-17,1.));
#1353=DIRECTION('center_axis',(4.37775144904917E-17,1.38777878078148E-17,
1.));
#1354=DIRECTION('ref_axis',(-1.,0.,4.37775144904917E-17));
#1355=DIRECTION('',(4.37775144904917E-17,1.38777878078148E-17,1.));
#1356=DIRECTION('center_axis',(1.43309427561664E-15,1.56087864207246E-14,
-1.));
#1357=DIRECTION('ref_axis',(-1.,0.,4.37775144904917E-17));
#1358=DIRECTION('center_axis',(4.37775144904917E-17,1.38777878078148E-17,
1.));
#1359=DIRECTION('ref_axis',(-1.,0.,4.37775144904917E-17));
#1360=DIRECTION('center_axis',(4.37775144904917E-17,1.38777878078148E-17,
1.));
#1361=DIRECTION('ref_axis',(-1.,0.,4.37775144904917E-17));
#1362=DIRECTION('center_axis',(4.37775144904917E-17,1.38777878078148E-17,
1.));
#1363=DIRECTION('ref_axis',(-1.,0.,4.37775144904917E-17));
#1364=DIRECTION('center_axis',(4.37775144904917E-17,1.38777878078148E-17,
1.));
#1365=DIRECTION('ref_axis',(-1.,0.,4.37775144904917E-17));
#1366=DIRECTION('center_axis',(0.,0.,1.));
#1367=DIRECTION('ref_axis',(-1.,0.,4.37775144904917E-17));
#1368=DIRECTION('',(4.37775144904917E-17,1.38777878078148E-17,1.));
#1369=DIRECTION('center_axis',(4.37775144904917E-17,1.38777878078148E-17,
1.));
#1370=DIRECTION('ref_axis',(-1.,0.,4.37775144904917E-17));
#1371=DIRECTION('',(4.37775144904917E-17,1.38777878078148E-17,1.));
#1372=DIRECTION('center_axis',(1.43309427561664E-15,1.56087864207246E-14,
-1.));
#1373=DIRECTION('ref_axis',(-1.,0.,4.37775144904917E-17));
#1374=DIRECTION('center_axis',(4.37775144904917E-17,1.38777878078148E-17,
1.));
#1375=DIRECTION('ref_axis',(-1.,0.,4.37775144904917E-17));
#1376=DIRECTION('center_axis',(4.37775144904917E-17,1.38777878078148E-17,
1.));
#1377=DIRECTION('ref_axis',(-1.,0.,4.37775144904917E-17));
#1378=DIRECTION('center_axis',(4.37775144904917E-17,1.38777878078148E-17,
1.));
#1379=DIRECTION('ref_axis',(-1.,0.,4.37775144904917E-17));
#1380=DIRECTION('center_axis',(4.37775144904917E-17,1.38777878078148E-17,
1.));
#1381=DIRECTION('ref_axis',(-1.,0.,4.37775144904917E-17));
#1382=DIRECTION('center_axis',(0.,0.,1.));
#1383=DIRECTION('ref_axis',(-1.,0.,4.37775144904917E-17));
#1384=DIRECTION('',(4.37775144904917E-17,1.38777878078148E-17,1.));
#1385=DIRECTION('center_axis',(4.37775144904917E-17,1.38777878078148E-17,
1.));
#1386=DIRECTION('ref_axis',(-1.,0.,4.37775144904917E-17));
#1387=DIRECTION('',(4.37775144904917E-17,1.38777878078148E-17,1.));
#1388=DIRECTION('center_axis',(1.43309427561664E-15,1.56087864207246E-14,
-1.));
#1389=DIRECTION('ref_axis',(-1.,0.,4.37775144904917E-17));
#1390=DIRECTION('center_axis',(4.37775144904917E-17,1.38777878078148E-17,
1.));
#1391=DIRECTION('ref_axis',(-1.,0.,4.37775144904917E-17));
#1392=DIRECTION('center_axis',(4.37775144904917E-17,1.38777878078148E-17,
1.));
#1393=DIRECTION('ref_axis',(-1.,0.,4.37775144904917E-17));
#1394=DIRECTION('center_axis',(4.37775144904917E-17,1.38777878078148E-17,
1.));
#1395=DIRECTION('ref_axis',(-1.,0.,4.37775144904917E-17));
#1396=DIRECTION('center_axis',(4.37775144904917E-17,1.38777878078148E-17,
1.));
#1397=DIRECTION('ref_axis',(-1.,0.,4.37775144904917E-17));
#1398=DIRECTION('center_axis',(0.,0.,1.));
#1399=DIRECTION('ref_axis',(-1.,0.,4.37775144904917E-17));
#1400=DIRECTION('',(4.37775144904917E-17,1.38777878078148E-17,1.));
#1401=DIRECTION('center_axis',(4.37775144904917E-17,1.38777878078148E-17,
1.));
#1402=DIRECTION('ref_axis',(-1.,0.,4.37775144904917E-17));
#1403=DIRECTION('',(4.37775144904917E-17,1.38777878078148E-17,1.));
#1404=DIRECTION('center_axis',(1.43309427561664E-15,1.56087864207246E-14,
-1.));
#1405=DIRECTION('ref_axis',(-1.,0.,4.37775144904917E-17));
#1406=DIRECTION('center_axis',(4.37775144904917E-17,1.38777878078148E-17,
1.));
#1407=DIRECTION('ref_axis',(-1.,0.,4.37775144904917E-17));
#1408=DIRECTION('center_axis',(4.37775144904917E-17,1.38777878078148E-17,
1.));
#1409=DIRECTION('ref_axis',(-1.,0.,4.37775144904917E-17));
#1410=DIRECTION('center_axis',(4.37775144904917E-17,1.38777878078148E-17,
1.));
#1411=DIRECTION('ref_axis',(-1.,0.,4.37775144904917E-17));
#1412=DIRECTION('center_axis',(4.37775144904917E-17,1.38777878078148E-17,
1.));
#1413=DIRECTION('ref_axis',(-1.,0.,4.37775144904917E-17));
#1414=DIRECTION('center_axis',(0.,0.,1.));
#1415=DIRECTION('ref_axis',(-1.,0.,4.37775144904917E-17));
#1416=DIRECTION('',(4.37775144904917E-17,1.38777878078148E-17,1.));
#1417=DIRECTION('center_axis',(4.37775144904917E-17,1.38777878078148E-17,
1.));
#1418=DIRECTION('ref_axis',(-1.,0.,4.37775144904917E-17));
#1419=DIRECTION('',(4.37775144904917E-17,1.38777878078148E-17,1.));
#1420=DIRECTION('center_axis',(1.43309427561664E-15,1.56087864207246E-14,
-1.));
#1421=DIRECTION('ref_axis',(-1.,0.,4.37775144904917E-17));
#1422=DIRECTION('center_axis',(4.37775144904917E-17,1.38777878078148E-17,
1.));
#1423=DIRECTION('ref_axis',(-1.,0.,4.37775144904917E-17));
#1424=DIRECTION('center_axis',(4.37775144904917E-17,1.38777878078148E-17,
1.));
#1425=DIRECTION('ref_axis',(-1.,0.,4.37775144904917E-17));
#1426=DIRECTION('center_axis',(4.37775144904917E-17,1.38777878078148E-17,
1.));
#1427=DIRECTION('ref_axis',(-1.,0.,4.37775144904917E-17));
#1428=DIRECTION('center_axis',(4.37775144904917E-17,1.38777878078148E-17,
1.));
#1429=DIRECTION('ref_axis',(-1.,0.,4.37775144904917E-17));
#1430=DIRECTION('center_axis',(0.,0.,1.));
#1431=DIRECTION('ref_axis',(-1.,0.,4.37775144904917E-17));
#1432=DIRECTION('',(4.37775144904917E-17,1.38777878078148E-17,1.));
#1433=DIRECTION('center_axis',(4.37775144904917E-17,1.38777878078148E-17,
1.));
#1434=DIRECTION('ref_axis',(-1.,0.,4.37775144904917E-17));
#1435=DIRECTION('',(4.37775144904917E-17,1.38777878078148E-17,1.));
#1436=DIRECTION('center_axis',(1.43309427561664E-15,1.56087864207246E-14,
-1.));
#1437=DIRECTION('ref_axis',(-1.,0.,4.37775144904917E-17));
#1438=DIRECTION('center_axis',(4.37775144904917E-17,1.38777878078148E-17,
1.));
#1439=DIRECTION('ref_axis',(-1.,0.,4.37775144904917E-17));
#1440=DIRECTION('center_axis',(4.37775144904917E-17,1.38777878078148E-17,
1.));
#1441=DIRECTION('ref_axis',(-1.,0.,4.37775144904917E-17));
#1442=DIRECTION('center_axis',(4.37775144904917E-17,1.38777878078148E-17,
1.));
#1443=DIRECTION('ref_axis',(-1.,0.,4.37775144904917E-17));
#1444=DIRECTION('center_axis',(4.37775144904917E-17,1.38777878078148E-17,
1.));
#1445=DIRECTION('ref_axis',(-1.,0.,4.37775144904917E-17));
#1446=DIRECTION('center_axis',(0.,0.,1.));
#1447=DIRECTION('ref_axis',(-1.,0.,4.37775144904917E-17));
#1448=DIRECTION('',(4.37775144904917E-17,1.38777878078148E-17,1.));
#1449=DIRECTION('center_axis',(4.37775144904917E-17,1.38777878078148E-17,
1.));
#1450=DIRECTION('ref_axis',(-1.,0.,4.37775144904917E-17));
#1451=DIRECTION('',(4.37775144904917E-17,1.38777878078148E-17,1.));
#1452=DIRECTION('center_axis',(1.43309427561664E-15,1.56087864207246E-14,
-1.));
#1453=DIRECTION('ref_axis',(-1.,0.,4.37775144904917E-17));
#1454=DIRECTION('center_axis',(4.37775144904917E-17,1.38777878078148E-17,
1.));
#1455=DIRECTION('ref_axis',(-1.,0.,4.37775144904917E-17));
#1456=DIRECTION('center_axis',(4.37775144904917E-17,1.38777878078148E-17,
1.));
#1457=DIRECTION('ref_axis',(-1.,0.,4.37775144904917E-17));
#1458=DIRECTION('center_axis',(4.37775144904917E-17,1.38777878078148E-17,
1.));
#1459=DIRECTION('ref_axis',(-1.,0.,4.37775144904917E-17));
#1460=DIRECTION('center_axis',(4.37775144904917E-17,1.38777878078148E-17,
1.));
#1461=DIRECTION('ref_axis',(-1.,0.,4.37775144904917E-17));
#1462=DIRECTION('center_axis',(0.,0.,1.));
#1463=DIRECTION('ref_axis',(-1.,0.,4.37775144904917E-17));
#1464=DIRECTION('',(4.37775144904917E-17,1.38777878078148E-17,1.));
#1465=DIRECTION('center_axis',(4.37775144904917E-17,1.38777878078148E-17,
1.));
#1466=DIRECTION('ref_axis',(-1.,0.,4.37775144904917E-17));
#1467=DIRECTION('',(4.37775144904917E-17,1.38777878078148E-17,1.));
#1468=DIRECTION('center_axis',(1.43309427561664E-15,1.56087864207246E-14,
-1.));
#1469=DIRECTION('ref_axis',(-1.,0.,4.37775144904917E-17));
#1470=DIRECTION('center_axis',(4.37775144904917E-17,1.38777878078148E-17,
1.));
#1471=DIRECTION('ref_axis',(-1.,0.,4.37775144904917E-17));
#1472=DIRECTION('center_axis',(4.37775144904917E-17,1.38777878078148E-17,
1.));
#1473=DIRECTION('ref_axis',(-1.,0.,4.37775144904917E-17));
#1474=DIRECTION('center_axis',(4.37775144904917E-17,1.38777878078148E-17,
1.));
#1475=DIRECTION('ref_axis',(-1.,0.,4.37775144904917E-17));
#1476=DIRECTION('center_axis',(4.37775144904917E-17,1.38777878078148E-17,
1.));
#1477=DIRECTION('ref_axis',(-1.,0.,4.37775144904917E-17));
#1478=DIRECTION('center_axis',(0.,0.,1.));
#1479=DIRECTION('ref_axis',(-1.,0.,4.37775144904917E-17));
#1480=DIRECTION('',(4.37775144904917E-17,1.38777878078148E-17,1.));
#1481=DIRECTION('center_axis',(4.37775144904917E-17,1.38777878078148E-17,
1.));
#1482=DIRECTION('ref_axis',(-1.,0.,4.37775144904917E-17));
#1483=DIRECTION('',(4.37775144904917E-17,1.38777878078148E-17,1.));
#1484=DIRECTION('center_axis',(1.43309427561664E-15,1.56087864207246E-14,
-1.));
#1485=DIRECTION('ref_axis',(-1.,0.,4.37775144904917E-17));
#1486=DIRECTION('center_axis',(4.37775144904917E-17,1.38777878078148E-17,
1.));
#1487=DIRECTION('ref_axis',(-1.,0.,4.37775144904917E-17));
#1488=DIRECTION('center_axis',(4.37775144904917E-17,1.38777878078148E-17,
1.));
#1489=DIRECTION('ref_axis',(-1.,0.,4.37775144904917E-17));
#1490=DIRECTION('center_axis',(4.37775144904917E-17,1.38777878078148E-17,
1.));
#1491=DIRECTION('ref_axis',(-1.,0.,4.37775144904917E-17));
#1492=DIRECTION('center_axis',(4.37775144904917E-17,1.38777878078148E-17,
1.));
#1493=DIRECTION('ref_axis',(-1.,0.,4.37775144904917E-17));
#1494=DIRECTION('center_axis',(0.,0.,1.));
#1495=DIRECTION('ref_axis',(-1.,0.,4.37775144904917E-17));
#1496=DIRECTION('',(4.37775144904917E-17,1.38777878078148E-17,1.));
#1497=DIRECTION('center_axis',(4.37775144904917E-17,1.38777878078148E-17,
1.));
#1498=DIRECTION('ref_axis',(-1.,0.,4.37775144904917E-17));
#1499=DIRECTION('',(4.37775144904917E-17,1.38777878078148E-17,1.));
#1500=DIRECTION('center_axis',(1.43309427561664E-15,1.56087864207246E-14,
-1.));
#1501=DIRECTION('ref_axis',(-1.,0.,4.37775144904917E-17));
#1502=DIRECTION('center_axis',(4.37775144904917E-17,1.38777878078148E-17,
1.));
#1503=DIRECTION('ref_axis',(-1.,0.,4.37775144904917E-17));
#1504=DIRECTION('center_axis',(4.37775144904917E-17,1.38777878078148E-17,
1.));
#1505=DIRECTION('ref_axis',(-1.,0.,4.37775144904917E-17));
#1506=DIRECTION('center_axis',(4.37775144904917E-17,1.38777878078148E-17,
1.));
#1507=DIRECTION('ref_axis',(-1.,0.,4.37775144904917E-17));
#1508=DIRECTION('center_axis',(4.37775144904917E-17,1.38777878078148E-17,
1.));
#1509=DIRECTION('ref_axis',(-1.,0.,4.37775144904917E-17));
#1510=DIRECTION('center_axis',(0.,0.,1.));
#1511=DIRECTION('ref_axis',(-1.,0.,4.37775144904917E-17));
#1512=DIRECTION('',(4.37775144904917E-17,1.38777878078148E-17,1.));
#1513=DIRECTION('center_axis',(4.37775144904917E-17,1.38777878078148E-17,
1.));
#1514=DIRECTION('ref_axis',(-1.,0.,4.37775144904917E-17));
#1515=DIRECTION('',(4.37775144904917E-17,1.38777878078148E-17,1.));
#1516=DIRECTION('center_axis',(1.43309427561664E-15,1.56087864207246E-14,
-1.));
#1517=DIRECTION('ref_axis',(-1.,0.,4.37775144904917E-17));
#1518=DIRECTION('center_axis',(4.37775144904917E-17,1.38777878078148E-17,
1.));
#1519=DIRECTION('ref_axis',(-1.,0.,4.37775144904917E-17));
#1520=DIRECTION('center_axis',(4.37775144904917E-17,1.38777878078148E-17,
1.));
#1521=DIRECTION('ref_axis',(-1.,0.,4.37775144904917E-17));
#1522=DIRECTION('center_axis',(4.37775144904917E-17,1.38777878078148E-17,
1.));
#1523=DIRECTION('ref_axis',(-1.,0.,4.37775144904917E-17));
#1524=DIRECTION('center_axis',(4.37775144904917E-17,1.38777878078148E-17,
1.));
#1525=DIRECTION('ref_axis',(-1.,0.,4.37775144904917E-17));
#1526=DIRECTION('center_axis',(0.,0.,1.));
#1527=DIRECTION('ref_axis',(-1.,0.,4.37775144904917E-17));
#1528=DIRECTION('',(4.37775144904917E-17,1.38777878078148E-17,1.));
#1529=DIRECTION('center_axis',(4.37775144904917E-17,1.38777878078148E-17,
1.));
#1530=DIRECTION('ref_axis',(-1.,0.,4.37775144904917E-17));
#1531=DIRECTION('',(4.37775144904917E-17,1.38777878078148E-17,1.));
#1532=DIRECTION('center_axis',(1.43309427561664E-15,1.56087864207246E-14,
-1.));
#1533=DIRECTION('ref_axis',(-1.,0.,4.37775144904917E-17));
#1534=DIRECTION('center_axis',(1.45541172789856E-14,-1.56087864207246E-14,
1.));
#1535=DIRECTION('ref_axis',(-1.,1.2507415856646E-16,1.45541172789856E-14));
#1536=DIRECTION('',(-1.28241202987174E-16,-1.,-1.56087864207246E-14));
#1537=DIRECTION('center_axis',(1.,-1.28241202987196E-16,1.43309427561664E-15));
#1538=DIRECTION('ref_axis',(-1.43309427561664E-15,-1.56125112837916E-14,
1.));
#1539=DIRECTION('',(-1.28241202987174E-16,-1.,-1.56087864207246E-14));
#1540=DIRECTION('center_axis',(1.43309427561664E-15,1.56087864207246E-14,
-1.));
#1541=DIRECTION('ref_axis',(1.,-1.2507415856671E-16,1.43309427561664E-15));
#1542=DIRECTION('center_axis',(-1.43309427561664E-15,-1.56087864207246E-14,
1.));
#1543=DIRECTION('ref_axis',(-1.,0.,0.));
#1544=DIRECTION('center_axis',(0.,0.,1.));
#1545=DIRECTION('ref_axis',(-1.,0.,0.));
#1546=DIRECTION('center_axis',(0.,0.,1.));
#1547=DIRECTION('ref_axis',(-1.,0.,0.));
#1548=DIRECTION('',(0.,0.,1.));
#1549=DIRECTION('center_axis',(-1.,0.,0.));
#1550=DIRECTION('ref_axis',(0.,1.,0.));
#1551=DIRECTION('center_axis',(-1.,0.,0.));
#1552=DIRECTION('ref_axis',(0.,1.,0.));
#1553=DIRECTION('',(-1.,0.,0.));
#1554=DIRECTION('center_axis',(1.,0.,0.));
#1555=DIRECTION('ref_axis',(0.,1.,0.));
#1556=DIRECTION('',(0.,1.,0.));
#1557=DIRECTION('center_axis',(0.,0.,1.));
#1558=DIRECTION('ref_axis',(1.,0.,0.));
#1559=CARTESIAN_POINT('',(0.,0.,0.));
#1560=CARTESIAN_POINT('Origin',(-99.999999999997,-38.7322733048937,309.990545762612));
#1561=CARTESIAN_POINT('',(-79.9999999999978,-80.0000000000022,149.999999999993));
#1562=CARTESIAN_POINT('',(-79.999999999996,-49.3053145527476,268.999999999999));
#1563=CARTESIAN_POINT('',(-79.9999999999955,-39.9856397569037,305.131378593576));
#1564=CARTESIAN_POINT('',(79.9999999999997,-49.3053145527478,268.999999999998));
#1565=CARTESIAN_POINT('',(-9.99999999999918,-49.3053145527479,268.999999999998));
#1566=CARTESIAN_POINT('',(79.9999999999998,-80.0000000000021,149.999999999993));
#1567=CARTESIAN_POINT('',(79.9999999999998,-69.0073809275951,192.617203941189));
#1568=CARTESIAN_POINT('',(100.000000000003,-80.,150.000000000001));
#1569=CARTESIAN_POINT('',(-99.999999999997,-80.0000000000022,149.999999999993));
#1570=CARTESIAN_POINT('',(100.000000000003,-38.7322733048936,309.990545762612));
#1571=CARTESIAN_POINT('',(100.000000000003,-77.5047248841292,159.673913723564));
#1572=CARTESIAN_POINT('',(-99.999999999997,-38.7322733048937,309.990545762612));
#1573=CARTESIAN_POINT('',(-99.999999999997,-38.7322733048937,309.990545762612));
#1574=CARTESIAN_POINT('',(-99.9999999999971,-80.0000000000001,150.000000000001));
#1575=CARTESIAN_POINT('',(-99.9999999999971,-72.5141746523873,179.021741170692));
#1576=CARTESIAN_POINT('',(-99.999999999997,-80.0000000000022,149.999999999993));
#1577=CARTESIAN_POINT('Origin',(-99.999999999997,2.26642288835819E-12,300.));
#1578=CARTESIAN_POINT('',(100.000000000003,38.7322733048987,309.990545762611));
#1579=CARTESIAN_POINT('Origin',(100.000000000003,2.3814823654557E-12,300.));
#1580=CARTESIAN_POINT('',(-99.9999999999971,38.7322733048986,309.990545762611));
#1581=CARTESIAN_POINT('',(-99.9999999999971,38.7322733048986,309.990545762611));
#1582=CARTESIAN_POINT('Origin',(-99.9999999999969,2.26642288835819E-12,
300.));
#1583=CARTESIAN_POINT('Origin',(-99.9999999999972,79.9999999999999,149.999999999999));
#1584=CARTESIAN_POINT('',(-79.999999999996,49.3053145527504,269.000000000001));
#1585=CARTESIAN_POINT('',(-79.9999999999977,79.9999999999978,150.000000000007));
#1586=CARTESIAN_POINT('',(-79.9999999999969,65.6100533361999,205.788278265143));
#1587=CARTESIAN_POINT('',(-99.9999999999972,79.9999999999999,149.999999999999));
#1588=CARTESIAN_POINT('',(2.73384254030173E-12,79.9999999999978,150.000000000007));
#1589=CARTESIAN_POINT('',(-99.9999999999971,98.1385882316798,79.6786408422567));
#1590=CARTESIAN_POINT('',(100.000000000003,79.9999999999978,150.000000000007));
#1591=CARTESIAN_POINT('',(100.000000000003,93.148037999939,99.0264682893822));
#1592=CARTESIAN_POINT('',(79.9999999999999,79.9999999999978,150.000000000007));
#1593=CARTESIAN_POINT('',(2.73384254030173E-12,79.9999999999978,150.000000000007));
#1594=CARTESIAN_POINT('',(79.9999999999997,49.3053145527507,269.));
#1595=CARTESIAN_POINT('',(79.9999999999999,94.6317945068884,93.2741036127538));
#1596=CARTESIAN_POINT('',(-9.99999999999775,49.3053145527507,269.));
#1597=CARTESIAN_POINT('Origin',(-99.9999999999971,-80.0000000000022,0.));
#1598=CARTESIAN_POINT('',(-99.9999999999971,-80.0000000000022,0.));
#1599=CARTESIAN_POINT('',(-99.9999999999971,-80.0000000000022,0.));
#1600=CARTESIAN_POINT('',(100.000000000003,-80.0000000000021,0.));
#1601=CARTESIAN_POINT('',(-99.9999999999971,-80.0000000000022,0.));
#1602=CARTESIAN_POINT('',(100.000000000003,-80.0000000000021,0.));
#1603=CARTESIAN_POINT('',(80.,-80.0000000000022,28.9999999999979));
#1604=CARTESIAN_POINT('',(80.,-80.0000000000021,14.5000000000003));
#1605=CARTESIAN_POINT('',(-79.9999999999995,-80.0000000000021,28.9999999999989));
#1606=CARTESIAN_POINT('',(-89.9999999999983,-80.0000000000022,28.9999999999977));
#1607=CARTESIAN_POINT('',(-79.999999999998,-80.0000000000022,134.500000000001));
#1608=CARTESIAN_POINT('Origin',(-99.9999999999971,79.9999999999978,0.));
#1609=CARTESIAN_POINT('',(-99.9999999999971,79.9999999999978,0.));
#1610=CARTESIAN_POINT('',(-99.9999999999971,79.9999999999978,0.));
#1611=CARTESIAN_POINT('',(-99.9999999999971,79.9999999999978,0.));
#1612=CARTESIAN_POINT('',(-99.9999999999971,-10.0000000000022,300.));
#1613=CARTESIAN_POINT('Origin',(-99.9999999999971,-2.16225675687172E-12,
300.));
#1614=CARTESIAN_POINT('Origin',(100.000000000003,79.9999999999978,0.));
#1615=CARTESIAN_POINT('',(-79.9999999999995,79.9999999999996,29.0000000000014));
#1616=CARTESIAN_POINT('',(-79.999999999998,79.9999999999978,134.500000000002));
#1617=CARTESIAN_POINT('',(80.,79.9999999999995,29.0000000000004));
#1618=CARTESIAN_POINT('',(10.0000000000017,79.9999999999978,29.0000000000003));
#1619=CARTESIAN_POINT('',(80.0000000000001,79.9999999999978,14.5000000000002));
#1620=CARTESIAN_POINT('',(100.000000000003,79.9999999999978,0.));
#1621=CARTESIAN_POINT('',(100.000000000003,79.9999999999978,0.));
#1622=CARTESIAN_POINT('',(100.000000000003,79.9999999999978,0.));
#1623=CARTESIAN_POINT('Origin',(-79.999999999996,79.9999999999958,269.000000000001));
#1624=CARTESIAN_POINT('',(-79.9999999999995,79.9999999999996,29.0000000000014));
#1625=CARTESIAN_POINT('',(-79.999999999996,79.9999999999958,269.000000000001));
#1626=CARTESIAN_POINT('Origin',(-62.3618684445098,25.831131684643,9.99999999999921));
#1627=CARTESIAN_POINT('',(-55.3371598506098,25.831131684643,9.9999999999992));
#1628=CARTESIAN_POINT('Origin',(-62.3618684445098,25.831131684643,9.99999999999921));
#1629=CARTESIAN_POINT('',(-58.3618684445098,25.831131684643,9.99999999999921));
#1630=CARTESIAN_POINT('Origin',(-62.3618684445098,25.831131684643,9.99999999999921));
#1631=CARTESIAN_POINT('Origin',(-62.3618684445098,25.831131684643,4.99999999999921));
#1632=CARTESIAN_POINT('',(-55.3371598506098,25.831131684643,2.22044604925031E-15));
#1633=CARTESIAN_POINT('Origin',(-62.3618684445098,25.831131684643,2.22044604925031E-15));
#1634=CARTESIAN_POINT('',(-55.3371598506098,25.831131684643,4.99999999999921));
#1635=CARTESIAN_POINT('Origin',(-62.3618684445098,25.831131684643,17.6184999999992));
#1636=CARTESIAN_POINT('',(-58.3618684445098,25.831131684643,29.0000000000002));
#1637=CARTESIAN_POINT('',(-58.3618684445098,25.831131684643,17.6184999999992));
#1638=CARTESIAN_POINT('Origin',(-62.3618684445098,25.831131684643,29.0000000000002));
#1639=CARTESIAN_POINT('Origin',(-25.8311316846427,62.3618684445101,9.99999999999869));
#1640=CARTESIAN_POINT('',(-18.8064230907427,62.3618684445101,9.99999999999869));
#1641=CARTESIAN_POINT('Origin',(-25.8311316846427,62.3618684445101,9.99999999999869));
#1642=CARTESIAN_POINT('',(-21.8311316846427,62.3618684445101,9.99999999999869));
#1643=CARTESIAN_POINT('Origin',(-25.8311316846427,62.3618684445101,9.99999999999869));
#1644=CARTESIAN_POINT('Origin',(-25.8311316846427,62.3618684445101,4.99999999999869));
#1645=CARTESIAN_POINT('',(-18.8064230907427,62.3618684445101,-5.55111512312578E-16));
#1646=CARTESIAN_POINT('Origin',(-25.8311316846427,62.3618684445101,0.));
#1647=CARTESIAN_POINT('',(-18.8064230907427,62.3618684445101,4.99999999999869));
#1648=CARTESIAN_POINT('Origin',(-25.8311316846427,62.3618684445101,17.6184999999987));
#1649=CARTESIAN_POINT('',(-21.8311316846427,62.3618684445101,29.0000000000002));
#1650=CARTESIAN_POINT('',(-21.8311316846427,62.3618684445101,17.6184999999987));
#1651=CARTESIAN_POINT('Origin',(-25.8311316846427,62.3618684445101,29.0000000000002));
#1652=CARTESIAN_POINT('Origin',(47.7297077300905,47.7297077300907,9.99999999999904));
#1653=CARTESIAN_POINT('',(54.7544163239905,47.7297077300907,9.99999999999904));
#1654=CARTESIAN_POINT('Origin',(47.7297077300905,47.7297077300907,9.99999999999904));
#1655=CARTESIAN_POINT('',(51.7297077300905,47.7297077300907,9.99999999999904));
#1656=CARTESIAN_POINT('Origin',(47.7297077300905,47.7297077300907,9.99999999999904));
#1657=CARTESIAN_POINT('Origin',(47.7297077300905,47.7297077300907,4.99999999999904));
#1658=CARTESIAN_POINT('',(54.7544163239905,47.7297077300907,-3.88578058618805E-15));
#1659=CARTESIAN_POINT('Origin',(47.7297077300905,47.7297077300907,-2.77555756156289E-15));
#1660=CARTESIAN_POINT('',(54.7544163239905,47.7297077300907,4.99999999999904));
#1661=CARTESIAN_POINT('Origin',(47.7297077300905,47.7297077300907,17.618499999999));
#1662=CARTESIAN_POINT('',(51.7297077300905,47.7297077300907,29.0000000000002));
#1663=CARTESIAN_POINT('',(51.7297077300905,47.7297077300907,17.618499999999));
#1664=CARTESIAN_POINT('Origin',(47.7297077300905,47.7297077300907,29.0000000000002));
#1665=CARTESIAN_POINT('Origin',(67.4999999999979,2.88255039624927E-13,9.99999999999983));
#1666=CARTESIAN_POINT('',(74.5247085938979,2.89115318314373E-13,9.99999999999983));
#1667=CARTESIAN_POINT('Origin',(67.4999999999979,2.88255039624927E-13,9.99999999999983));
#1668=CARTESIAN_POINT('',(71.4999999999979,2.88744898344586E-13,9.99999999999983));
#1669=CARTESIAN_POINT('Origin',(67.4999999999979,2.88255039624927E-13,9.99999999999983));
#1670=CARTESIAN_POINT('Origin',(67.4999999999979,2.88185650685888E-13,4.99999999999983));
#1671=CARTESIAN_POINT('',(74.5247085938979,2.88976540436295E-13,-3.33066907387547E-15));
#1672=CARTESIAN_POINT('Origin',(67.4999999999979,2.88116261746849E-13,-2.77555756156289E-15));
#1673=CARTESIAN_POINT('',(74.5247085938979,2.89045929375334E-13,4.99999999999983));
#1674=CARTESIAN_POINT('Origin',(67.4999999999979,2.88360767551341E-13,17.6184999999998));
#1675=CARTESIAN_POINT('',(71.4999999999979,2.88028858873617E-13,29.0000000000002));
#1676=CARTESIAN_POINT('',(71.4999999999979,2.88850626271E-13,17.6184999999998));
#1677=CARTESIAN_POINT('Origin',(67.4999999999979,2.88518717593276E-13,29.0000000000002));
#1678=CARTESIAN_POINT('Origin',(47.7297077300905,-47.7297077300901,10.0000000000005));
#1679=CARTESIAN_POINT('',(54.7544163239905,-47.7297077300901,10.0000000000005));
#1680=CARTESIAN_POINT('Origin',(47.7297077300905,-47.7297077300901,10.0000000000005));
#1681=CARTESIAN_POINT('',(51.7297077300905,-47.7297077300901,10.0000000000005));
#1682=CARTESIAN_POINT('Origin',(47.7297077300905,-47.7297077300901,10.0000000000005));
#1683=CARTESIAN_POINT('Origin',(47.7297077300905,-47.7297077300901,5.00000000000055));
#1684=CARTESIAN_POINT('',(54.7544163239905,-47.7297077300901,-1.11022302462516E-15));
#1685=CARTESIAN_POINT('Origin',(47.7297077300905,-47.7297077300901,-1.11022302462516E-15));
#1686=CARTESIAN_POINT('',(54.7544163239905,-47.7297077300901,5.00000000000055));
#1687=CARTESIAN_POINT('Origin',(47.7297077300905,-47.7297077300901,17.6185000000005));
#1688=CARTESIAN_POINT('',(51.7297077300905,-47.7297077300901,29.0000000000002));
#1689=CARTESIAN_POINT('',(51.7297077300905,-47.7297077300901,17.6185000000005));
#1690=CARTESIAN_POINT('Origin',(47.7297077300905,-47.7297077300901,29.0000000000002));
#1691=CARTESIAN_POINT('Origin',(3.44079443503892E-14,-67.4999999999976,
10.0000000000008));
#1692=CARTESIAN_POINT('',(7.02470859390003,-67.4999999999976,10.0000000000008));
#1693=CARTESIAN_POINT('Origin',(3.44079443503892E-14,-67.4999999999976,
10.0000000000008));
#1694=CARTESIAN_POINT('',(4.00000000000003,-67.4999999999976,10.0000000000008));
#1695=CARTESIAN_POINT('Origin',(3.44079443503892E-14,-67.4999999999976,
10.0000000000008));
#1696=CARTESIAN_POINT('Origin',(3.41890567779367E-14,-67.4999999999976,
5.00000000000078));
#1697=CARTESIAN_POINT('',(7.02470859390003,-67.4999999999976,1.11022302462516E-15));
#1698=CARTESIAN_POINT('Origin',(3.39701692054842E-14,-67.4999999999976,
1.11022302462516E-15));
#1699=CARTESIAN_POINT('',(7.02470859390003,-67.4999999999976,5.00000000000078));
#1700=CARTESIAN_POINT('Origin',(3.4741463344535E-14,-67.4999999999976,17.6185000000008));
#1701=CARTESIAN_POINT('',(4.00000000000004,-67.4999999999976,29.0000000000002));
#1702=CARTESIAN_POINT('',(4.00000000000004,-67.4999999999976,17.6185000000008));
#1703=CARTESIAN_POINT('Origin',(3.52397171257085E-14,-67.4999999999976,
29.0000000000002));
#1704=CARTESIAN_POINT('Origin',(-47.7297077300904,-47.7297077300902,10.0000000000004));
#1705=CARTESIAN_POINT('',(-40.7049991361904,-47.7297077300902,10.0000000000004));
#1706=CARTESIAN_POINT('Origin',(-47.7297077300904,-47.7297077300902,10.0000000000004));
#1707=CARTESIAN_POINT('',(-43.7297077300904,-47.7297077300902,10.0000000000004));
#1708=CARTESIAN_POINT('Origin',(-47.7297077300904,-47.7297077300902,10.0000000000004));
#1709=CARTESIAN_POINT('Origin',(-47.7297077300904,-47.7297077300902,5.00000000000039));
#1710=CARTESIAN_POINT('',(-40.7049991361904,-47.7297077300902,2.22044604925031E-15));
#1711=CARTESIAN_POINT('Origin',(-47.7297077300904,-47.7297077300902,2.22044604925031E-15));
#1712=CARTESIAN_POINT('',(-40.7049991361904,-47.7297077300902,5.00000000000039));
#1713=CARTESIAN_POINT('Origin',(-47.7297077300904,-47.7297077300902,17.6185000000004));
#1714=CARTESIAN_POINT('',(-43.7297077300904,-47.7297077300902,29.0000000000002));
#1715=CARTESIAN_POINT('',(-43.7297077300904,-47.7297077300902,17.6185000000004));
#1716=CARTESIAN_POINT('Origin',(-47.7297077300904,-47.7297077300902,29.0000000000002));
#1717=CARTESIAN_POINT('Origin',(2.8482274393281E-14,67.4999999999981,9.99999999999865));
#1718=CARTESIAN_POINT('',(7.02470859390003,67.4999999999981,9.99999999999865));
#1719=CARTESIAN_POINT('Origin',(2.8482274393281E-14,67.4999999999981,9.99999999999865));
#1720=CARTESIAN_POINT('',(4.00000000000003,67.4999999999981,9.99999999999865));
#1721=CARTESIAN_POINT('Origin',(2.8482274393281E-14,67.4999999999981,9.99999999999865));
#1722=CARTESIAN_POINT('Origin',(2.82633868208285E-14,67.4999999999981,4.99999999999865));
#1723=CARTESIAN_POINT('',(7.02470859390003,67.4999999999981,-1.66533453693773E-15));
#1724=CARTESIAN_POINT('Origin',(2.80444992483761E-14,67.4999999999981,-1.11022302462516E-15));
#1725=CARTESIAN_POINT('',(7.02470859390003,67.4999999999981,4.99999999999865));
#1726=CARTESIAN_POINT('Origin',(2.88157933874268E-14,67.4999999999981,17.6184999999987));
#1727=CARTESIAN_POINT('',(4.00000000000003,67.4999999999981,29.0000000000002));
#1728=CARTESIAN_POINT('',(4.00000000000003,67.4999999999981,17.6184999999987));
#1729=CARTESIAN_POINT('Origin',(2.93140471686004E-14,67.4999999999981,29.0000000000002));
#1730=CARTESIAN_POINT('Origin',(-62.3618684445098,-25.8311316846425,10.));
#1731=CARTESIAN_POINT('',(-55.3371598506098,-25.8311316846425,10.));
#1732=CARTESIAN_POINT('Origin',(-62.3618684445098,-25.8311316846425,10.));
#1733=CARTESIAN_POINT('',(-58.3618684445098,-25.8311316846425,10.));
#1734=CARTESIAN_POINT('Origin',(-62.3618684445098,-25.8311316846425,10.));
#1735=CARTESIAN_POINT('Origin',(-62.3618684445098,-25.8311316846425,5.00000000000002));
#1736=CARTESIAN_POINT('',(-55.3371598506098,-25.8311316846425,3.33066907387547E-15));
#1737=CARTESIAN_POINT('Origin',(-62.3618684445098,-25.8311316846425,3.33066907387547E-15));
#1738=CARTESIAN_POINT('',(-55.3371598506098,-25.8311316846425,5.00000000000002));
#1739=CARTESIAN_POINT('Origin',(-62.3618684445098,-25.8311316846425,17.6185));
#1740=CARTESIAN_POINT('',(-58.3618684445098,-25.8311316846425,29.0000000000002));
#1741=CARTESIAN_POINT('',(-58.3618684445098,-25.8311316846425,17.6185));
#1742=CARTESIAN_POINT('Origin',(-62.3618684445098,-25.8311316846425,29.0000000000002));
#1743=CARTESIAN_POINT('Origin',(-25.8311316846427,-62.3618684445096,10.0000000000007));
#1744=CARTESIAN_POINT('',(-18.8064230907427,-62.3618684445096,10.0000000000007));
#1745=CARTESIAN_POINT('Origin',(-25.8311316846427,-62.3618684445096,10.0000000000007));
#1746=CARTESIAN_POINT('',(-21.8311316846427,-62.3618684445096,10.0000000000007));
#1747=CARTESIAN_POINT('Origin',(-25.8311316846427,-62.3618684445096,10.0000000000007));
#1748=CARTESIAN_POINT('Origin',(-25.8311316846427,-62.3618684445096,5.00000000000066));
#1749=CARTESIAN_POINT('',(-18.8064230907427,-62.3618684445096,2.22044604925031E-15));
#1750=CARTESIAN_POINT('Origin',(-25.8311316846427,-62.3618684445096,2.22044604925031E-15));
#1751=CARTESIAN_POINT('',(-18.8064230907427,-62.3618684445096,5.00000000000066));
#1752=CARTESIAN_POINT('Origin',(-25.8311316846427,-62.3618684445096,17.6185000000007));
#1753=CARTESIAN_POINT('',(-21.8311316846427,-62.3618684445096,29.0000000000002));
#1754=CARTESIAN_POINT('',(-21.8311316846427,-62.3618684445096,17.6185000000007));
#1755=CARTESIAN_POINT('Origin',(-25.8311316846427,-62.3618684445096,29.0000000000002));
#1756=CARTESIAN_POINT('Origin',(25.8311316846428,-62.3618684445096,10.0000000000007));
#1757=CARTESIAN_POINT('',(32.8558402785428,-62.3618684445096,10.0000000000007));
#1758=CARTESIAN_POINT('Origin',(25.8311316846428,-62.3618684445096,10.0000000000007));
#1759=CARTESIAN_POINT('',(29.8311316846428,-62.3618684445096,10.0000000000007));
#1760=CARTESIAN_POINT('Origin',(25.8311316846428,-62.3618684445096,10.0000000000007));
#1761=CARTESIAN_POINT('Origin',(25.8311316846428,-62.3618684445096,5.00000000000074));
#1762=CARTESIAN_POINT('',(32.8558402785428,-62.3618684445096,0.));
#1763=CARTESIAN_POINT('Origin',(25.8311316846428,-62.3618684445096,0.));
#1764=CARTESIAN_POINT('',(32.8558402785428,-62.3618684445096,5.00000000000074));
#1765=CARTESIAN_POINT('Origin',(25.8311316846428,-62.3618684445096,17.6185000000007));
#1766=CARTESIAN_POINT('',(29.8311316846428,-62.3618684445096,29.0000000000002));
#1767=CARTESIAN_POINT('',(29.8311316846428,-62.3618684445096,17.6185000000007));
#1768=CARTESIAN_POINT('Origin',(25.8311316846428,-62.3618684445096,29.0000000000002));
#1769=CARTESIAN_POINT('Origin',(62.3618684445099,-25.8311316846424,10.0000000000002));
#1770=CARTESIAN_POINT('',(69.3865770384099,-25.8311316846424,10.0000000000002));
#1771=CARTESIAN_POINT('Origin',(62.3618684445099,-25.8311316846424,10.0000000000002));
#1772=CARTESIAN_POINT('',(66.3618684445099,-25.8311316846424,10.0000000000002));
#1773=CARTESIAN_POINT('Origin',(62.3618684445099,-25.8311316846424,10.0000000000002));
#1774=CARTESIAN_POINT('Origin',(62.3618684445099,-25.8311316846424,5.00000000000023));
#1775=CARTESIAN_POINT('',(69.3865770384099,-25.8311316846424,-2.22044604925031E-15));
#1776=CARTESIAN_POINT('Origin',(62.3618684445099,-25.8311316846424,-2.22044604925031E-15));
#1777=CARTESIAN_POINT('',(69.3865770384099,-25.8311316846424,5.00000000000023));
#1778=CARTESIAN_POINT('Origin',(62.3618684445099,-25.8311316846424,17.6185000000002));
#1779=CARTESIAN_POINT('',(66.3618684445099,-25.8311316846424,29.0000000000002));
#1780=CARTESIAN_POINT('',(66.3618684445099,-25.8311316846424,17.6185000000002));
#1781=CARTESIAN_POINT('Origin',(62.3618684445099,-25.8311316846424,29.0000000000002));
#1782=CARTESIAN_POINT('Origin',(62.3618684445099,25.831131684643,9.99999999999941));
#1783=CARTESIAN_POINT('',(69.3865770384099,25.831131684643,9.99999999999941));
#1784=CARTESIAN_POINT('Origin',(62.3618684445099,25.831131684643,9.99999999999941));
#1785=CARTESIAN_POINT('',(66.3618684445099,25.831131684643,9.99999999999941));
#1786=CARTESIAN_POINT('Origin',(62.3618684445099,25.831131684643,9.99999999999941));
#1787=CARTESIAN_POINT('Origin',(62.3618684445099,25.831131684643,4.99999999999941));
#1788=CARTESIAN_POINT('',(69.3865770384099,25.831131684643,-3.88578058618805E-15));
#1789=CARTESIAN_POINT('Origin',(62.3618684445099,25.831131684643,-3.33066907387547E-15));
#1790=CARTESIAN_POINT('',(69.3865770384099,25.831131684643,4.99999999999941));
#1791=CARTESIAN_POINT('Origin',(62.3618684445099,25.831131684643,17.6184999999994));
#1792=CARTESIAN_POINT('',(66.3618684445099,25.831131684643,29.0000000000002));
#1793=CARTESIAN_POINT('',(66.3618684445099,25.831131684643,17.6184999999994));
#1794=CARTESIAN_POINT('Origin',(62.3618684445099,25.831131684643,29.0000000000002));
#1795=CARTESIAN_POINT('Origin',(25.8311316846428,62.3618684445102,9.99999999999878));
#1796=CARTESIAN_POINT('',(32.8558402785428,62.3618684445102,9.99999999999878));
#1797=CARTESIAN_POINT('Origin',(25.8311316846428,62.3618684445102,9.99999999999878));
#1798=CARTESIAN_POINT('',(29.8311316846428,62.3618684445102,9.99999999999878));
#1799=CARTESIAN_POINT('Origin',(25.8311316846428,62.3618684445102,9.99999999999878));
#1800=CARTESIAN_POINT('Origin',(25.8311316846428,62.3618684445102,4.99999999999878));
#1801=CARTESIAN_POINT('',(32.8558402785428,62.3618684445102,-2.22044604925031E-15));
#1802=CARTESIAN_POINT('Origin',(25.8311316846428,62.3618684445102,-2.22044604925031E-15));
#1803=CARTESIAN_POINT('',(32.8558402785428,62.3618684445102,4.99999999999878));
#1804=CARTESIAN_POINT('Origin',(25.8311316846428,62.3618684445102,17.6184999999988));
#1805=CARTESIAN_POINT('',(29.8311316846428,62.3618684445102,29.0000000000002));
#1806=CARTESIAN_POINT('',(29.8311316846428,62.3618684445102,17.6184999999988));
#1807=CARTESIAN_POINT('Origin',(25.8311316846428,62.3618684445102,29.0000000000002));
#1808=CARTESIAN_POINT('Origin',(-47.7297077300904,47.7297077300907,9.99999999999888));
#1809=CARTESIAN_POINT('',(-40.7049991361904,47.7297077300907,9.99999999999888));
#1810=CARTESIAN_POINT('Origin',(-47.7297077300904,47.7297077300907,9.99999999999888));
#1811=CARTESIAN_POINT('',(-43.7297077300904,47.7297077300907,9.99999999999888));
#1812=CARTESIAN_POINT('Origin',(-47.7297077300904,47.7297077300907,9.99999999999888));
#1813=CARTESIAN_POINT('Origin',(-47.7297077300904,47.7297077300907,4.99999999999889));
#1814=CARTESIAN_POINT('',(-40.7049991361904,47.7297077300907,1.11022302462516E-15));
#1815=CARTESIAN_POINT('Origin',(-47.7297077300904,47.7297077300907,1.66533453693773E-15));
#1816=CARTESIAN_POINT('',(-40.7049991361904,47.7297077300907,4.99999999999888));
#1817=CARTESIAN_POINT('Origin',(-47.7297077300904,47.7297077300907,17.6184999999989));
#1818=CARTESIAN_POINT('',(-43.7297077300904,47.7297077300907,29.0000000000002));
#1819=CARTESIAN_POINT('',(-43.7297077300904,47.7297077300907,17.6184999999989));
#1820=CARTESIAN_POINT('Origin',(-47.7297077300904,47.7297077300907,29.0000000000002));
#1821=CARTESIAN_POINT('Origin',(-67.4999999999978,2.71732741467456E-13,
9.99999999999961));
#1822=CARTESIAN_POINT('',(-60.4752914060978,2.72593020156903E-13,9.9999999999996));
#1823=CARTESIAN_POINT('Origin',(-67.4999999999978,2.71732741467456E-13,
9.99999999999961));
#1824=CARTESIAN_POINT('',(-63.4999999999978,2.72222600187115E-13,9.99999999999961));
#1825=CARTESIAN_POINT('Origin',(-67.4999999999978,2.71732741467456E-13,
9.99999999999961));
#1826=CARTESIAN_POINT('Origin',(-67.4999999999978,2.71663352528417E-13,
4.9999999999996));
#1827=CARTESIAN_POINT('',(-60.4752914060978,2.72454242278824E-13,2.22044604925031E-15));
#1828=CARTESIAN_POINT('Origin',(-67.4999999999978,2.71593963589378E-13,
2.77555756156289E-15));
#1829=CARTESIAN_POINT('',(-60.4752914060978,2.72523631217864E-13,4.9999999999996));
#1830=CARTESIAN_POINT('Origin',(-67.4999999999978,2.7183846939387E-13,17.6184999999996));
#1831=CARTESIAN_POINT('',(-63.4999999999978,2.71506560716146E-13,29.0000000000002));
#1832=CARTESIAN_POINT('',(-63.4999999999978,2.72328328113529E-13,17.6184999999996));
#1833=CARTESIAN_POINT('Origin',(-67.4999999999978,2.71996419435805E-13,
29.0000000000002));
#1834=CARTESIAN_POINT('Origin',(79.9999999999997,79.9999999999958,268.999999999999));
#1835=CARTESIAN_POINT('',(79.9999999999997,79.9999999999958,269.));
#1836=CARTESIAN_POINT('Origin',(80.,79.9999999999995,29.0000000000004));
#1837=CARTESIAN_POINT('',(80.,79.9999999999995,29.0000000000004));
#1838=CARTESIAN_POINT('Origin',(-79.9999999999995,79.9999999999996,29.0000000000002));
#1839=CARTESIAN_POINT('',(50.0000000000029,-2.15659121797407E-12,29.0000000000002));
#1840=CARTESIAN_POINT('Origin',(2.92789866425854E-12,-2.1627144519698E-12,
29.0000000000002));
#1841=CARTESIAN_POINT('Origin',(2.92789866425854E-12,-2.1627144519698E-12,
50.));
#1842=CARTESIAN_POINT('',(50.0000000000029,-2.15659121797407E-12,0.));
#1843=CARTESIAN_POINT('Origin',(2.92789866425854E-12,-2.1627144519698E-12,
0.));
#1844=CARTESIAN_POINT('',(50.0000000000029,-2.15659121797407E-12,50.));
#1845=CARTESIAN_POINT('Origin',(-9.99999999999707,-2.16225675687172E-12,
300.));
#1846=CARTESIAN_POINT('',(100.000000000003,-10.0000000000022,300.));
#1847=CARTESIAN_POINT('Origin',(100.000000000003,-2.16225675687172E-12,
300.));
#1848=CARTESIAN_POINT('',(-9.99999999999707,-10.0000000000022,300.));
#1849=CARTESIAN_POINT('Origin',(100.000000000003,-80.0000000000021,0.));
#1850=CARTESIAN_POINT('',(100.000000000003,-80.0000000000021,0.));
#1851=CARTESIAN_POINT('Origin',(2.93098878501041E-12,-2.16715534406831E-12,
0.));
#1852=UNCERTAINTY_MEASURE_WITH_UNIT(LENGTH_MEASURE(0.01),#1856,
'DISTANCE_ACCURACY_VALUE',
'Maximum model space distance between geometric entities at asserted c
onnectivities');
#1853=UNCERTAINTY_MEASURE_WITH_UNIT(LENGTH_MEASURE(0.01),#1856,
'DISTANCE_ACCURACY_VALUE',
'Maximum model space distance between geometric entities at asserted c
onnectivities');
#1854=(
GEOMETRIC_REPRESENTATION_CONTEXT(3)
GLOBAL_UNCERTAINTY_ASSIGNED_CONTEXT((#1852))
GLOBAL_UNIT_ASSIGNED_CONTEXT((#1856,#1858,#1859))
REPRESENTATION_CONTEXT('','3D')
);
#1855=(
GEOMETRIC_REPRESENTATION_CONTEXT(3)
GLOBAL_UNCERTAINTY_ASSIGNED_CONTEXT((#1853))
GLOBAL_UNIT_ASSIGNED_CONTEXT((#1856,#1858,#1859))
REPRESENTATION_CONTEXT('','3D')
);
#1856=(
LENGTH_UNIT()
NAMED_UNIT(*)
SI_UNIT(.MILLI.,.METRE.)
);
#1857=(
LENGTH_UNIT()
NAMED_UNIT(*)
SI_UNIT($,.METRE.)
);
#1858=(
NAMED_UNIT(*)
PLANE_ANGLE_UNIT()
SI_UNIT($,.RADIAN.)
);
#1859=(
NAMED_UNIT(*)
SI_UNIT($,.STERADIAN.)
SOLID_ANGLE_UNIT()
);
#1860=SHAPE_DEFINITION_REPRESENTATION(#1861,#1862);
#1861=PRODUCT_DEFINITION_SHAPE('',$,#1864);
#1862=SHAPE_REPRESENTATION('',(#1092),#1854);
#1863=PRODUCT_DEFINITION_CONTEXT('part definition',#1868,'design');
#1864=PRODUCT_DEFINITION('link5','link5 v6',#1865,#1863);
#1865=PRODUCT_DEFINITION_FORMATION('',$,#1870);
#1866=PRODUCT_RELATED_PRODUCT_CATEGORY('link5 v6','link5 v6',(#1870));
#1867=APPLICATION_PROTOCOL_DEFINITION('international standard',
'automotive_design',2009,#1868);
#1868=APPLICATION_CONTEXT(
'Core Data for Automotive Mechanical Design Process');
#1869=PRODUCT_CONTEXT('part definition',#1868,'mechanical');
#1870=PRODUCT('link5','link5 v6',$,(#1869));
#1871=PRESENTATION_STYLE_ASSIGNMENT((#1872));
#1872=SURFACE_STYLE_USAGE(.BOTH.,#1873);
#1873=SURFACE_SIDE_STYLE('',(#1874));
#1874=SURFACE_STYLE_FILL_AREA(#1875);
#1875=FILL_AREA_STYLE('Steel - Satin',(#1876));
#1876=FILL_AREA_STYLE_COLOUR('Steel - Satin',#1877);
#1877=COLOUR_RGB('Steel - Satin',0.627450980392157,0.627450980392157,0.627450980392157);
ENDSEC;
END-ISO-10303-21;
